<svg width="133" height="133" viewBox="0 0 133 133" fill="none" xmlns="http://www.w3.org/2000/svg">
<circle cx="67.0001" cy="66.9995" r="65" fill="#242F65"/>
<path d="M19.5406 61.1991C19.4525 62.3905 19.0475 63.3105 18.3257 63.959C17.5946 64.6069 16.5915 64.8837 15.3163 64.7894L13.0266 64.62C11.7514 64.5257 10.8045 64.1048 10.186 63.3571C9.55811 62.6088 9.28823 61.6389 9.37633 60.4475C9.46306 59.2747 9.8556 58.3959 10.554 57.8112C11.253 57.2171 12.1657 56.9617 13.2919 57.045L13.3757 57.0512L13.2652 58.5451L13.1396 58.5358C12.4787 58.4869 11.9254 58.6285 11.4797 58.9606C11.0347 59.2833 10.785 59.8123 10.7306 60.5476C10.6756 61.2923 10.8606 61.8909 11.2857 62.3435C11.7015 62.7954 12.3097 63.0509 13.1101 63.1101L15.4557 63.2836C16.2469 63.3421 16.886 63.1787 17.3731 62.7936C17.8602 62.4085 18.1312 61.8436 18.1863 61.099C18.2407 60.3636 18.0715 59.8036 17.6788 59.419C17.2775 59.0243 16.751 58.8029 16.0995 58.7547L15.8621 58.7371L15.9726 57.2432L16.1681 57.2577C17.2943 57.341 18.1595 57.7278 18.7635 58.4182C19.3683 59.0994 19.6273 60.0263 19.5406 61.1991Z" fill="white"/>
<path d="M20.6965 54.7454C20.5762 55.254 20.3552 55.6813 20.0336 56.0272C19.712 56.3731 19.3155 56.6102 18.844 56.7385C18.3725 56.8667 17.8461 56.8621 17.2648 56.7246L13.232 55.7707L13.5639 54.3675L17.5013 55.2988C18.0826 55.4362 18.5484 55.393 18.8987 55.1689C19.2399 54.9427 19.4718 54.5708 19.5942 54.0531C19.7296 53.4808 19.6473 52.977 19.3475 52.5417C19.0407 52.0951 18.524 51.7858 17.7974 51.614L14.405 50.8116L14.7369 49.4083L21.4536 50.997L21.1281 52.373L20.1199 52.1345L20.0684 52.3525C20.3108 52.5441 20.5159 52.8324 20.6838 53.2174C20.8426 53.6003 20.8469 54.1096 20.6965 54.7454Z" fill="white"/>
<path d="M23.2843 47.4662C22.9548 48.2793 22.4997 48.8804 21.9191 49.2695C21.3384 49.6585 20.6559 49.7646 19.8716 49.5877L20.078 48.2212C20.4607 48.2957 20.7891 48.2929 21.0633 48.2127C21.3375 48.1325 21.567 47.9888 21.7516 47.7816C21.9398 47.5659 22.0917 47.3152 22.2074 47.0298C22.3792 46.6059 22.4285 46.2483 22.3553 45.9568C22.2856 45.6566 22.121 45.4539 21.8615 45.3488C21.602 45.2436 21.3678 45.2746 21.1591 45.4418C20.9504 45.6089 20.7212 45.8887 20.4716 46.281L20.2149 46.6906C19.9618 47.0915 19.6898 47.4395 19.3991 47.7346C19.1083 48.0296 18.7911 48.2284 18.4474 48.3308C18.1038 48.4332 17.7287 48.4021 17.3222 48.2373C16.7167 47.9919 16.3407 47.5777 16.1943 46.9947C16.0393 46.4082 16.1125 45.743 16.414 44.9991C16.7049 44.2811 17.1077 43.7595 17.6221 43.4343C18.1315 43.0969 18.691 42.9712 19.3007 43.0572L19.1462 44.4447C18.7254 44.3648 18.3863 44.4187 18.129 44.6065C17.863 44.7907 17.6546 45.0688 17.5038 45.4408C17.3566 45.8041 17.3101 46.1176 17.3644 46.3813C17.41 46.6414 17.5539 46.8206 17.7961 46.9188C18.0556 47.0239 18.2862 47.0016 18.4879 46.8517C18.6932 46.6932 18.8962 46.4532 19.097 46.1317L19.3589 45.7092C19.6225 45.2823 19.9007 44.9066 20.1933 44.5821C20.4859 44.2576 20.8058 44.0398 21.153 43.9287C21.5036 43.809 21.8952 43.8367 22.3277 44.012C22.9678 44.2714 23.3688 44.7109 23.5306 45.3304C23.6924 45.9498 23.6103 46.6618 23.2843 47.4662Z" fill="white"/>
<path d="M26.2798 41.388C26.0688 41.7511 25.791 41.9782 25.4465 42.0695C25.1067 42.1526 24.7552 42.0887 24.3921 41.8776L20.6762 39.7178L19.7194 41.3639L18.6663 40.7518L19.6231 39.1057L17.6502 37.9589L18.3749 36.7122L20.3478 37.859L21.382 36.0797L22.435 36.6918L21.4008 38.4711L24.8988 40.5043C25.1409 40.645 25.3276 40.6024 25.459 40.3765L26.1836 39.1298L27.2366 39.7418L26.2798 41.388Z" fill="white"/>
<path d="M30.5873 35.8392C30.1565 36.379 29.6628 36.7731 29.1062 37.0215C28.5482 37.2568 27.9653 37.3288 27.3573 37.2377C26.7494 37.1465 26.1609 36.8739 25.592 36.4197L25.4278 36.2887C24.8589 35.8345 24.4662 35.3241 24.2499 34.7573C24.0262 34.1847 23.9673 33.6002 24.073 33.004C24.1846 32.4004 24.4558 31.8287 24.8867 31.2889C25.3176 30.7491 25.8149 30.3579 26.3787 30.1153C26.9426 29.8728 27.5285 29.7971 28.1364 29.8882C28.737 29.9736 29.3218 30.2433 29.8908 30.6975L30.0549 30.8285C30.6239 31.2826 31.0202 31.796 31.2438 32.3686C31.4675 32.9412 31.5235 33.5293 31.4119 34.1329C31.2931 34.7306 31.0182 35.2994 30.5873 35.8392ZM29.5807 35.0357C29.9766 34.5397 30.14 34.0133 30.0709 33.4565C30.0003 32.8867 29.6842 32.3776 29.1225 31.9293L29.024 31.8507C28.4624 31.4023 27.9024 31.2062 27.3442 31.2622C26.7787 31.3123 26.2951 31.5891 25.8933 32.0924C25.5032 32.5811 25.3435 33.1104 25.4141 33.6803C25.4832 34.237 25.7986 34.7396 26.3603 35.1879L26.4587 35.2665C27.0204 35.7148 27.584 35.9139 28.1495 35.8637C28.7135 35.8004 29.1906 35.5244 29.5807 35.0357Z" fill="white"/>
<path d="M33.2291 32.625L28.6984 27.4182L29.7651 26.49L30.2982 27.1026L30.4671 26.9555C30.4064 26.6867 30.4239 26.3869 30.5197 26.0562C30.6154 25.7254 30.8499 25.3977 31.223 25.073C31.6103 24.736 31.9905 24.5474 32.3638 24.5072C32.738 24.4538 33.0921 24.4982 33.4263 24.6405L33.5953 24.4935C33.5066 24.1499 33.5045 23.7991 33.5889 23.4411C33.6804 23.077 33.9373 22.7112 34.3598 22.3436C34.6978 22.0495 35.0583 21.8595 35.4413 21.7736C35.8182 21.6807 36.2036 21.7042 36.5975 21.844C36.9852 21.9768 37.3536 22.2438 37.7029 22.6452L40.7172 26.1093L39.6293 27.0559L36.6885 23.6762C36.4128 23.3594 36.1135 23.193 35.7904 23.1772C35.4683 23.1482 35.1488 23.2716 34.8319 23.5473C34.4939 23.8414 34.3178 24.1864 34.3036 24.5823C34.2893 24.9783 34.4598 25.3804 34.8152 25.7888L37.517 28.8939L36.4292 29.8404L33.4884 26.4608C33.2127 26.1439 32.9133 25.9776 32.5903 25.9618C32.2681 25.9328 31.9486 26.0562 31.6318 26.3319C31.2938 26.6259 31.1177 26.9709 31.1034 27.3669C31.0892 27.7628 31.2597 28.165 31.6151 28.5734L34.3169 31.6784L33.2291 32.625Z" fill="white"/>
<path d="M43.766 25.0972C43.1639 25.4541 42.5642 25.6413 41.967 25.6588C41.3651 25.6684 40.8001 25.5204 40.2719 25.2151C39.747 24.8969 39.3038 24.4327 38.9421 23.8224L38.8565 23.6779C38.4901 23.0597 38.2957 22.448 38.2734 21.8428C38.2463 21.2296 38.3798 20.6677 38.6739 20.157C38.9713 19.6336 39.413 19.1982 39.9992 18.8509C40.5692 18.513 41.1432 18.3465 41.721 18.3512C42.3021 18.3432 42.8463 18.4926 43.3537 18.7995C43.861 19.1063 44.2931 19.5609 44.65 20.1631L44.9284 20.6328L40.3638 23.338C40.6891 23.8503 41.1092 24.1656 41.624 24.2836C42.142 24.3889 42.6499 24.294 43.1477 23.9989C43.6134 23.723 43.9009 23.4116 44.01 23.0648C44.1271 22.7133 44.1691 22.363 44.1357 22.0139L45.4735 21.9371C45.4943 22.2285 45.4701 22.5629 45.4008 22.9403C45.3396 23.313 45.1863 23.6859 44.941 24.0591C44.6956 24.4323 44.304 24.7784 43.766 25.0972ZM39.8119 22.3794L43.0999 20.4308C42.8013 20.0002 42.4337 19.7461 41.9972 19.6685C41.5558 19.5828 41.1023 19.678 40.6366 19.954C40.1709 20.23 39.8657 20.5845 39.7209 21.0175C39.5793 21.4377 39.6097 21.8917 39.8119 22.3794Z" fill="white"/>
<path d="M47.6946 22.968L45.0481 16.5935L46.354 16.0513L46.6654 16.8013L46.8722 16.7154C46.8647 16.4052 46.948 16.1433 47.122 15.9296C47.3011 15.7036 47.5587 15.5209 47.8949 15.3813L48.6577 15.0646L49.157 16.2671L48.3424 16.6053C47.9114 16.7842 47.6081 17.0516 47.4324 17.4075C47.2532 17.7547 47.2656 18.174 47.4696 18.6654L49.0264 22.4151L47.6946 22.968Z" fill="white"/>
<path d="M61.1443 19.5273C60.4153 19.6376 59.7497 19.6062 59.1477 19.433C58.5457 19.2598 58.0455 18.9484 57.6471 18.499C57.2565 18.0389 57.0068 17.449 56.8978 16.7292L56.8455 16.3831L58.3266 16.159L58.379 16.505C58.4823 17.1879 58.7628 17.6694 59.2206 17.9494C59.6875 18.228 60.2624 18.3156 60.9453 18.2123C61.6374 18.1075 62.1372 17.8856 62.4446 17.5464C62.7505 17.1981 62.8686 16.7932 62.7988 16.3318C62.7527 16.0272 62.6319 15.7906 62.4365 15.622C62.2411 15.4533 61.9827 15.3367 61.6614 15.272C61.3387 15.1981 60.9575 15.1425 60.5176 15.1053L59.9866 15.0582C59.3459 15.0041 58.7789 14.9059 58.2853 14.7634C57.7996 14.6104 57.405 14.3728 57.1013 14.0506C56.7977 13.7284 56.6033 13.2858 56.5181 12.7229C56.4315 12.1507 56.4959 11.6407 56.7113 11.1928C56.936 10.7434 57.2807 10.3703 57.7455 10.0734C58.2103 9.77653 58.7795 9.57711 59.4532 9.47516C60.1269 9.37321 60.7442 9.39779 61.3051 9.5489C61.8752 9.69861 62.3468 9.97651 62.7197 10.3826C63.0927 10.7887 63.3309 11.3332 63.4342 12.0161L63.5096 12.5144L62.0285 12.7386L61.9531 12.2402C61.8902 11.825 61.7516 11.5014 61.5371 11.2695C61.3319 11.0363 61.068 10.8827 60.7453 10.8088C60.4226 10.735 60.0582 10.7287 59.6522 10.7902C59.0616 10.8796 58.619 11.074 58.3245 11.3734C58.0378 11.6622 57.9273 12.0235 57.993 12.4572C58.0376 12.7525 58.1439 12.9866 58.3116 13.1594C58.4872 13.3217 58.7225 13.4418 59.0175 13.5199C59.3125 13.598 59.6746 13.6517 60.1039 13.6812L60.6349 13.7282C61.2833 13.7717 61.8643 13.8678 62.3777 14.0167C62.8896 14.1563 63.312 14.3898 63.6447 14.717C63.9774 15.0442 64.1878 15.4985 64.2757 16.0799C64.3637 16.6613 64.2929 17.1912 64.0632 17.6696C63.8428 18.1466 63.4838 18.5502 62.9863 18.8804C62.4873 19.2013 61.8733 19.417 61.1443 19.5273Z" fill="white"/>
<path d="M67.4933 19.2403C66.9986 19.2362 66.556 19.1485 66.1654 18.9773C65.7841 18.8062 65.4782 18.5563 65.2475 18.2277C65.0262 17.8992 64.9175 17.5016 64.9214 17.035C64.9253 16.559 65.0405 16.1679 65.2671 15.8618C65.503 15.5464 65.8176 15.311 66.2109 15.1556C66.6136 15.0002 67.0669 14.9246 67.5708 14.9288L69.6708 14.9461L69.6745 14.4981C69.6778 14.0968 69.5591 13.7738 69.3185 13.5292C69.0778 13.2845 68.7055 13.1601 68.2015 13.1559C67.7069 13.1518 67.3279 13.2654 67.0647 13.4966C66.8014 13.7277 66.6262 14.0296 66.5392 14.4022L65.1988 13.9572C65.3139 13.5848 65.494 13.2502 65.7391 12.9536C65.9936 12.6477 66.327 12.4031 66.7392 12.2198C67.1514 12.0366 67.6468 11.9473 68.2254 11.9521C69.1214 11.9595 69.8242 12.194 70.3337 12.6555C70.8432 13.1171 71.0945 13.7678 71.0876 14.6078L71.0642 17.4497C71.0618 17.7297 71.1914 17.8708 71.4527 17.8729L72.0407 17.8778L72.0307 19.0817L70.9528 19.0728C70.6261 19.0701 70.3608 18.9839 70.1569 18.8143C69.9529 18.6446 69.8521 18.4151 69.8545 18.1257L69.8549 18.0837L69.6449 18.082C69.5691 18.2214 69.4557 18.3838 69.3049 18.5692C69.154 18.7546 68.9333 18.9162 68.6428 19.0538C68.3524 19.182 67.9692 19.2442 67.4933 19.2403ZM67.7131 18.0521C68.2917 18.0568 68.7597 17.8974 69.1171 17.5736C69.4745 17.2406 69.6556 16.7847 69.6604 16.2061L69.6615 16.0661L67.6456 16.0494C67.2629 16.0463 66.9543 16.1277 66.7196 16.2938C66.4849 16.4505 66.3663 16.6876 66.3637 17.0049C66.361 17.3222 66.4803 17.5752 66.7214 17.7639C66.9625 17.9525 67.2931 18.0486 67.7131 18.0521Z" fill="white"/>
<path d="M75.5028 19.847C75.0879 19.782 74.7754 19.6055 74.5655 19.3176C74.3647 19.0311 74.2968 18.6803 74.3618 18.2654L75.027 14.0192L73.1459 13.7245L73.3344 12.5212L75.2155 12.8158L75.5686 10.5613L76.9933 10.7845L76.6401 13.039L78.6733 13.3575L78.4848 14.5608L76.4516 14.2423L75.8255 18.2396C75.7821 18.5162 75.8896 18.6747 76.1477 18.7152L77.5724 18.9383L77.3839 20.1417L75.5028 19.847Z" fill="white"/>
<path d="M79.3712 20.7738L81.2402 14.1297L82.6283 14.5202L80.7593 21.1643L79.3712 20.7738ZM82.195 13.4239C81.9255 13.3481 81.7204 13.1983 81.5797 12.9745C81.4506 12.7442 81.4252 12.4899 81.5035 12.2113C81.5819 11.9328 81.7349 11.7335 81.9626 11.6133C82.2019 11.4867 82.4562 11.4613 82.7258 11.5371C83.0043 11.6155 83.2081 11.7698 83.3373 12C83.4689 12.2213 83.4956 12.4712 83.4173 12.7497C83.3389 13.0282 83.1846 13.232 82.9544 13.3612C82.7267 13.4813 82.4735 13.5022 82.195 13.4239Z" fill="white"/>
<path d="M86.3696 23.5144C85.5611 23.1738 84.9663 22.7105 84.5852 22.1246C84.2041 21.5387 84.1073 20.8548 84.2949 20.073L85.6585 20.298C85.5788 20.6797 85.5771 21.0081 85.6536 21.2834C85.73 21.5587 85.8706 21.7901 86.0752 21.9775C86.2884 22.1686 86.5369 22.324 86.8207 22.4435C87.2422 22.6211 87.5992 22.6753 87.8916 22.606C88.1927 22.5405 88.3976 22.3786 88.5063 22.1206C88.615 21.8626 88.5872 21.628 88.4229 21.417C88.2586 21.206 87.982 20.973 87.5932 20.7181L87.1871 20.4559C86.7897 20.1973 86.4454 19.9206 86.1544 19.6258C85.8633 19.331 85.6689 19.0111 85.5712 18.6661C85.4735 18.3211 85.5098 17.9465 85.6801 17.5423C85.9337 16.9402 86.353 16.5699 86.938 16.4315C87.5266 16.2845 88.1907 16.3668 88.9304 16.6784C89.6443 16.9791 90.1603 17.3889 90.4785 17.9078C90.8089 18.4218 90.927 18.9829 90.8327 19.5914L89.4474 19.418C89.533 18.9983 89.4837 18.6585 89.2995 18.3986C89.1189 18.1301 88.8437 17.9179 88.4738 17.7621C88.1126 17.6099 87.7998 17.5592 87.5354 17.6098C87.2746 17.6519 87.0935 17.7933 86.992 18.0342C86.8833 18.2922 86.9025 18.5231 87.0496 18.7269C87.2053 18.9342 87.4425 19.1405 87.7612 19.3457L88.1801 19.6133C88.6034 19.8828 88.9753 20.166 89.2957 20.4631C89.6162 20.7601 89.8296 21.083 89.9359 21.4316C90.0509 21.7838 90.0177 22.175 89.8366 22.605C89.5684 23.2415 89.1235 23.6365 88.5019 23.7898C87.8803 23.9432 87.1695 23.8514 86.3696 23.5144Z" fill="white"/>
<path d="M91.2539 25.9019L94.1772 21.0272L92.5202 20.0336L93.1466 18.989L94.8036 19.9826L95.5812 18.6859C95.7972 18.3257 96.078 18.1024 96.4238 18.0159C96.7695 17.9293 97.1224 17.9941 97.4826 18.2101L99.0075 19.1245L98.3811 20.1691L97.2524 19.4923C97.0203 19.3531 96.8323 19.4035 96.6882 19.6437L96.0402 20.7243L97.7452 21.7467L97.1188 22.7912L95.4138 21.7688L92.4906 26.6435L91.2539 25.9019Z" fill="white"/>
<path d="M97.0519 30.2828C96.6695 29.969 96.3801 29.6228 96.1837 29.2442C95.9945 28.8716 95.9134 28.485 95.9403 28.0845C95.9744 27.6898 96.1395 27.3122 96.4356 26.9515C96.7376 26.5835 97.0729 26.3516 97.4414 26.2556C97.8231 26.1584 98.2158 26.1728 98.6195 26.2989C99.0303 26.4309 99.4306 26.6567 99.8201 26.9765L101.443 28.3089L101.728 27.9626C101.982 27.6524 102.093 27.3265 102.059 26.985C102.026 26.6434 101.814 26.3128 101.424 25.993C101.042 25.6792 100.676 25.5295 100.326 25.5441C99.9757 25.5586 99.6498 25.6835 99.348 25.9188L98.5845 24.7306C98.9079 24.5131 99.2582 24.3659 99.6353 24.289C100.025 24.2108 100.438 24.2299 100.874 24.3461C101.31 24.4624 101.752 24.7041 102.199 25.0713C102.892 25.6397 103.291 26.2636 103.398 26.9428C103.504 27.6219 103.291 28.2862 102.758 28.9355L100.955 31.1322C100.778 31.3486 100.79 31.5397 100.992 31.7056L101.446 32.0786L100.682 33.0093L99.8491 32.3253C99.5966 32.118 99.4443 31.8844 99.3922 31.6242C99.3401 31.3641 99.4058 31.1222 99.5894 30.8986L99.616 30.8661L99.4537 30.7329C99.3071 30.7937 99.1169 30.8489 98.8831 30.8984C98.6492 30.948 98.3761 30.9351 98.0636 30.8597C97.757 30.7771 97.4198 30.5848 97.0519 30.2828ZM97.9692 29.4963C98.4165 29.8634 98.8808 30.0332 99.3622 30.0058C99.8496 29.9711 100.277 29.7301 100.644 29.2828L100.733 29.1746L99.1745 27.8955C98.8787 27.6527 98.5873 27.5222 98.3004 27.5041C98.0194 27.4787 97.7782 27.5886 97.5768 27.8339C97.3755 28.0792 97.3094 28.3509 97.3785 28.6492C97.4477 28.9474 97.6446 29.2298 97.9692 29.4963Z" fill="white"/>
<path d="M103.108 36.3327C102.668 35.8367 102.374 35.2933 102.224 34.7024C102.081 34.1186 102.103 33.5315 102.291 32.9411C102.485 32.3578 102.861 31.8186 103.42 31.3234L103.556 31.2027C104.115 30.7075 104.692 30.4019 105.288 30.2858C105.896 30.1705 106.482 30.2191 107.044 30.4316C107.62 30.6449 108.127 30.9996 108.567 31.4956C109.006 31.9916 109.29 32.4947 109.418 33.0049C109.546 33.5151 109.552 34.0081 109.438 34.4838C109.329 34.9665 109.121 35.4002 108.813 35.7849L107.665 34.932C107.865 34.6929 108.009 34.4338 108.099 34.1549C108.188 33.876 108.199 33.5858 108.132 33.2842C108.064 32.9825 107.894 32.6781 107.621 32.3707C107.355 32.0703 107.044 31.8597 106.688 31.739C106.345 31.6191 105.982 31.6038 105.6 31.6931C105.224 31.7762 104.855 31.9787 104.492 32.3006L104.397 32.3841C104.034 32.706 103.785 33.0513 103.651 33.42C103.516 33.7887 103.487 34.1507 103.565 34.5058C103.649 34.8679 103.824 35.1991 104.09 35.4995C104.492 35.9536 104.914 36.1972 105.355 36.2305C105.803 36.2576 106.237 36.1416 106.655 35.8826L107.343 37.144C106.912 37.3759 106.451 37.5166 105.959 37.5662C105.473 37.6228 104.984 37.5569 104.493 37.3685C104.009 37.174 103.547 36.8287 103.108 36.3327Z" fill="white"/>
<path d="M107.312 41.8936C107.082 41.5418 107.004 41.1915 107.078 40.8428C107.156 40.5018 107.372 40.2167 107.723 39.9872L111.323 37.6393L110.283 36.0445L111.303 35.3792L112.344 36.9739L114.255 35.7273L115.043 36.9352L113.131 38.1818L114.255 39.9056L113.235 40.5709L112.111 38.8471L108.722 41.0574C108.488 41.2103 108.442 41.3963 108.584 41.6152L109.372 42.823L108.352 43.4883L107.312 41.8936Z" fill="white"/>
<path d="M109.213 45.3878L115.4 42.3293L116.039 43.622L109.852 46.6805L109.213 45.3878ZM116.564 42.5663C116.44 42.3153 116.414 42.0627 116.486 41.8084C116.57 41.5583 116.742 41.3692 117.002 41.241C117.261 41.1128 117.512 41.093 117.753 41.1818C118.007 41.2748 118.197 41.4468 118.321 41.6978C118.449 41.9572 118.471 42.2119 118.386 42.4619C118.31 42.7079 118.142 42.8949 117.883 43.0231C117.623 43.1514 117.369 43.1731 117.118 43.0885C116.877 42.9998 116.692 42.8257 116.564 42.5663Z" fill="white"/>
<path d="M111.973 52.7736C111.75 52.12 111.683 51.4918 111.773 50.889C111.875 50.2921 112.128 49.762 112.532 49.2986C112.936 48.8353 113.483 48.486 114.172 48.2509L114.37 48.183C115.059 47.9479 115.701 47.8916 116.295 48.0143C116.898 48.1339 117.422 48.3987 117.868 48.8087C118.317 49.2276 118.653 49.7638 118.876 50.4175C119.099 51.0711 119.161 51.7008 119.062 52.3066C118.963 52.9124 118.712 53.4469 118.308 53.9103C117.912 54.3706 117.37 54.7183 116.681 54.9535L116.483 55.0213C115.794 55.2565 115.148 55.3143 114.545 55.1946C113.942 55.075 113.416 54.8058 112.967 54.3869C112.527 53.965 112.196 53.4273 111.973 52.7736ZM113.192 52.3576C113.397 52.9582 113.753 53.3792 114.259 53.6206C114.777 53.8677 115.376 53.8752 116.057 53.6431L116.176 53.6024C116.856 53.3702 117.323 53.0038 117.576 52.5032C117.838 51.9996 117.865 51.443 117.657 50.8335C117.455 50.2417 117.095 49.8222 116.576 49.5751C116.07 49.3337 115.477 49.3291 114.797 49.5613L114.677 49.602C113.997 49.8341 113.526 50.202 113.264 50.7057C113.014 51.2151 112.99 51.7658 113.192 52.3576Z" fill="white"/>
<path d="M113.232 56.8793L120.034 55.7084L120.274 57.1019L119.253 57.2776L119.291 57.4984C119.589 57.5797 119.886 57.7653 120.182 58.0552C120.478 58.3452 120.683 58.8167 120.795 59.4698C120.884 59.9848 120.847 60.4599 120.685 60.895C120.525 61.3393 120.253 61.7129 119.87 62.0157C119.495 62.3169 119.014 62.5182 118.425 62.6195L114.341 63.3226L114.097 61.9015L118.07 61.2174C118.659 61.1161 119.066 60.8945 119.291 60.5526C119.525 60.2092 119.598 59.7799 119.51 59.2649C119.408 58.6762 119.134 58.2357 118.686 57.9435C118.239 57.6605 117.648 57.5823 116.912 57.709L113.477 58.3004L113.232 56.8793Z" fill="white"/>
<path d="M117.063 69.47L118.375 69.5732L118.05 73.7044L116.738 73.6012L117.063 69.47Z" fill="white"/>
<path d="M112.139 80.4768L118.734 82.5112L118.309 83.8892L111.714 81.8548L112.139 80.4768ZM119.416 83.4834C119.499 83.2158 119.654 83.0145 119.881 82.8795C120.114 82.7561 120.369 82.7371 120.646 82.8224C120.922 82.9077 121.118 83.0656 121.232 83.2963C121.353 83.5386 121.372 83.7935 121.289 84.0611C121.204 84.3376 121.044 84.5375 120.811 84.6608C120.587 84.7869 120.336 84.8074 120.06 84.7221C119.783 84.6368 119.583 84.4775 119.46 84.2441C119.345 84.0134 119.331 83.7599 119.416 83.4834Z" fill="white"/>
<path d="M109.225 87.4046C109.585 86.6048 110.063 86.0218 110.658 85.6555C111.254 85.2891 111.94 85.2095 112.717 85.4165L112.458 86.7741C112.078 86.6848 111.75 86.675 111.473 86.7445C111.196 86.8141 110.961 86.9488 110.768 87.1486C110.572 87.357 110.41 87.6016 110.284 87.8823C110.096 88.2992 110.033 88.6547 110.095 88.9489C110.153 89.2515 110.309 89.4603 110.565 89.5755C110.82 89.6906 111.055 89.6686 111.27 89.5097C111.485 89.3507 111.725 89.08 111.989 88.6977L112.262 88.2983C112.53 87.9074 112.815 87.5702 113.117 87.2866C113.419 87.003 113.744 86.8166 114.091 86.7276C114.439 86.6385 114.812 86.6841 115.212 86.8645C115.808 87.1331 116.167 87.5615 116.291 88.1497C116.423 88.7418 116.324 89.4037 115.994 90.1354C115.676 90.8415 115.253 91.3472 114.727 91.6523C114.205 91.9697 113.641 92.0738 113.035 91.9643L113.243 90.5837C113.66 90.6798 114.001 90.6391 114.266 90.4614C114.538 90.2876 114.757 90.0177 114.922 89.6519C115.084 89.2945 115.142 88.9831 115.098 88.7175C115.063 88.4557 114.926 88.2711 114.687 88.1637C114.432 88.0486 114.201 88.062 113.994 88.204C113.782 88.3544 113.57 88.5864 113.357 88.8999L113.079 89.312C112.799 89.7284 112.507 90.0931 112.202 90.406C111.897 90.719 111.569 90.9243 111.218 91.0219C110.863 91.128 110.472 91.0851 110.047 90.8932C109.417 90.6093 109.034 90.1546 108.896 89.5294C108.758 88.9041 108.868 88.1959 109.225 87.4046Z" fill="white"/>
<path d="M102.548 97.5396C102.982 97.0018 103.477 96.6101 104.035 96.3643C104.594 96.1316 105.178 96.0623 105.785 96.1563C106.392 96.2503 106.98 96.5257 107.546 96.9825L107.71 97.1143C108.277 97.5711 108.667 98.0834 108.881 98.6512C109.102 99.2249 109.158 99.8096 109.049 100.405C108.935 101.008 108.661 101.579 108.228 102.117C107.794 102.654 107.295 103.043 106.73 103.283C106.165 103.523 105.579 103.596 104.971 103.502C104.371 103.414 103.788 103.141 103.221 102.685L103.057 102.553C102.491 102.096 102.097 101.581 101.876 101.007C101.655 100.433 101.601 99.8451 101.716 99.242C101.838 98.6448 102.115 98.0774 102.548 97.5396ZM103.551 98.3478C103.153 98.842 102.987 99.3676 103.054 99.9246C103.122 100.495 103.435 101.005 103.995 101.456L104.093 101.535C104.653 101.986 105.212 102.185 105.77 102.132C106.336 102.084 106.821 101.81 107.225 101.308C107.617 100.821 107.779 100.293 107.712 99.7228C107.645 99.1657 107.332 98.6617 106.772 98.2107L106.674 98.1317C106.115 97.6807 105.552 97.479 104.986 97.5265C104.422 97.5872 103.944 97.8609 103.551 98.3478Z" fill="white"/>
<path d="M97.7013 102.476C98.0894 102.126 98.514 101.9 98.9753 101.798C99.4365 101.696 99.8975 101.727 100.358 101.889C100.819 102.051 101.25 102.354 101.65 102.798L104.426 105.875L103.355 106.841L100.645 103.837C100.245 103.393 99.8368 103.164 99.4212 103.149C99.0119 103.141 98.6097 103.316 98.2147 103.672C97.7781 104.066 97.5595 104.527 97.5587 105.056C97.5573 105.598 97.8067 106.146 98.3068 106.7L100.642 109.288L99.5713 110.254L94.9479 105.13L95.9978 104.183L96.6918 104.952L96.8581 104.802C96.7675 104.506 96.7626 104.152 96.8433 103.74C96.9302 103.335 97.2162 102.914 97.7013 102.476Z" fill="white"/>
<path d="M93.8399 105.635L97.6945 111.36L96.5215 112.15L96.0681 111.476L95.8822 111.601C95.9509 111.904 95.9211 112.177 95.7928 112.421C95.6619 112.678 95.4455 112.908 95.1436 113.111L94.4584 113.573L93.7313 112.492L94.4629 112C94.85 111.739 95.0945 111.417 95.1963 111.034C95.3033 110.658 95.2082 110.249 94.9111 109.808L92.6437 106.44L93.8399 105.635Z" fill="white"/>
<path d="M83.256 111.175L85.2612 116.494L87.069 115.812L87.4986 116.952L85.6908 117.633L86.2242 119.048C86.3724 119.441 86.373 119.8 86.2261 120.125C86.0792 120.449 85.8093 120.686 85.4163 120.834L83.7526 121.461L83.3229 120.322L84.5543 119.857C84.8076 119.762 84.8848 119.583 84.786 119.321L84.3416 118.142L82.4814 118.843L82.0517 117.704L83.9119 117.002L81.9067 111.684L83.256 111.175Z" fill="white"/>
<path d="M78.1766 112.751L79.8287 119.453L78.4286 119.798L76.7766 113.097L78.1766 112.751ZM79.3463 120.538C79.6182 120.471 79.8705 120.5 80.1033 120.625C80.3292 120.762 80.4768 120.97 80.546 121.251C80.6153 121.532 80.5805 121.781 80.4417 121.998C80.2961 122.226 80.0873 122.374 79.8155 122.441C79.5346 122.51 79.2811 122.476 79.0552 122.34C78.8315 122.212 78.6851 122.008 78.6158 121.727C78.5465 121.446 78.5802 121.193 78.7168 120.967C78.8556 120.75 79.0654 120.607 79.3463 120.538Z" fill="white"/>
<path d="M73.4958 113.681L74.3805 120.526L72.9781 120.707L72.8741 119.902L72.6519 119.931C72.5779 120.232 72.429 120.463 72.2051 120.624C71.9731 120.795 71.6766 120.904 71.3156 120.95L70.4964 121.056L70.3295 119.765L71.2042 119.652C71.6671 119.592 72.0298 119.414 72.2925 119.116C72.5564 118.828 72.6543 118.42 72.5861 117.892L72.0657 113.866L73.4958 113.681Z" fill="white"/>
<path d="M64.8423 113.964C65.7196 113.97 66.4461 114.171 67.0219 114.567C67.5977 114.964 67.9481 115.559 68.073 116.353L66.7266 116.665C66.6548 116.282 66.531 115.978 66.3553 115.753C66.1796 115.527 65.9614 115.367 65.7008 115.272C65.4308 115.177 65.1418 115.128 64.8338 115.125C64.3765 115.122 64.0259 115.208 63.7819 115.384C63.5286 115.559 63.401 115.787 63.3989 116.067C63.3969 116.347 63.512 116.553 63.7444 116.686C63.9768 116.818 64.3213 116.928 64.778 117.015L65.2534 117.103C65.7195 117.19 66.1432 117.314 66.5247 117.476C66.9062 117.637 67.208 117.859 67.4299 118.14C67.6519 118.422 67.7612 118.782 67.758 119.221C67.7533 119.874 67.507 120.376 67.0191 120.728C66.5311 121.088 65.8858 121.265 65.0831 121.259C64.3085 121.254 63.6751 121.072 63.1831 120.714C62.6816 120.365 62.3584 119.891 62.2134 119.293L63.5601 118.924C63.641 119.345 63.8162 119.64 64.0857 119.81C64.355 119.989 64.6904 120.081 65.0917 120.083C65.4837 120.086 65.7922 120.014 66.0173 119.866C66.2423 119.728 66.3558 119.528 66.3577 119.267C66.3597 118.987 66.2539 118.781 66.0402 118.648C65.8171 118.516 65.5192 118.416 65.1463 118.348L64.657 118.26C64.1629 118.173 63.7111 118.053 63.3016 117.9C62.892 117.748 62.5716 117.531 62.3403 117.249C62.0997 116.968 61.981 116.593 61.9844 116.127C61.9895 115.436 62.25 114.901 62.7662 114.522C63.2823 114.143 63.9743 113.957 64.8423 113.964Z" fill="white"/>
<path d="M58.0879 113.42C58.5032 113.483 58.8168 113.657 59.0287 113.944C59.2313 114.229 59.3015 114.579 59.2393 114.994L58.6023 119.245L60.4853 119.527L60.3047 120.732L58.4218 120.45L58.0836 122.706L56.6575 122.493L56.9957 120.236L54.9604 119.931L55.1409 118.726L57.1762 119.031L57.7759 115.03C57.8174 114.753 57.7089 114.595 57.4504 114.557L56.0244 114.343L56.2049 113.138L58.0879 113.42Z" fill="white"/>
<path d="M49.8036 111.125L46.0077 120.16L42.4195 118.653C41.8688 118.421 41.4254 118.103 41.0891 117.699C40.7407 117.299 40.5309 116.847 40.4599 116.341C40.3767 115.841 40.4525 115.311 40.6875 114.751L40.758 114.583C40.993 114.024 41.3245 113.597 41.7526 113.301C42.172 113.001 42.642 112.834 43.1627 112.8C43.6833 112.765 44.2146 112.862 44.7567 113.09L46.9509 114.012L48.4097 110.54L49.8036 111.125ZM46.4195 115.276L44.3673 114.414C43.8768 114.208 43.4311 114.173 43.0301 114.308C42.629 114.443 42.3345 114.735 42.1466 115.182L42.0923 115.311C41.9007 115.767 41.897 116.186 42.0811 116.567C42.2652 116.948 42.6025 117.241 43.0929 117.447L45.1452 118.31L46.4195 115.276Z" fill="white"/>
<path d="M42.8737 107.815L39.3298 113.738L38.1164 113.012L38.5333 112.315L38.3411 112.2C38.0964 112.391 37.8364 112.48 37.5611 112.468C37.273 112.458 36.9727 112.36 36.6604 112.173L35.9516 111.749L36.6201 110.632L37.377 111.085C37.7774 111.325 38.1729 111.409 38.5634 111.338C38.949 111.275 39.2785 111.015 39.5516 110.559L41.6363 107.075L42.8737 107.815Z" fill="white"/>
<path d="M37.8869 104.497L33.6968 109.982L32.5509 109.106L36.741 103.622L37.8869 104.497ZM32.5488 110.285C32.7713 110.455 32.9066 110.67 32.9547 110.93C32.9897 111.192 32.9194 111.437 32.7437 111.667C32.5681 111.897 32.3523 112.026 32.0963 112.054C31.8272 112.083 31.5814 112.013 31.3589 111.843C31.129 111.667 30.9965 111.448 30.9615 111.187C30.9209 110.933 30.9884 110.69 31.164 110.461C31.3397 110.231 31.5583 110.098 31.82 110.063C32.0759 110.036 32.3189 110.11 32.5488 110.285Z" fill="white"/>
<path d="M32.1385 99.1008C32.6283 99.5878 32.9664 100.121 33.1529 100.702C33.3261 101.282 33.3344 101.869 33.1777 102.464C33.021 103.058 32.686 103.613 32.1727 104.13L32.0246 104.279C31.5113 104.795 30.9612 105.13 30.3743 105.283C29.7808 105.443 29.1934 105.438 28.6121 105.268C28.0243 105.092 27.4854 104.76 26.9957 104.273C26.5059 103.786 26.1711 103.249 25.9912 102.662C25.8113 102.076 25.7998 101.485 25.9564 100.891C26.1066 100.303 26.4383 99.7507 26.9516 99.2344L27.0996 99.0855C27.6129 98.5693 28.1663 98.2311 28.7599 98.071C29.3534 97.9109 29.9441 97.9191 30.5319 98.0957C31.1132 98.2788 31.6488 98.6138 32.1385 99.1008ZM31.2304 100.014C30.7803 99.5667 30.2748 99.347 29.7139 99.3552C29.1397 99.3635 28.5993 99.6224 28.0926 100.132L28.0037 100.221C27.497 100.731 27.2412 101.266 27.2362 101.827C27.2246 102.395 27.4471 102.906 27.9038 103.36C28.3473 103.801 28.856 104.017 29.4302 104.009C29.9911 104.001 30.525 103.742 31.0317 103.232L31.1205 103.143C31.6273 102.633 31.8864 102.094 31.898 101.527C31.8964 100.959 31.6738 100.455 31.2304 100.014Z" fill="white"/>
<path d="M29.1425 95.8807L23.6345 100.04L22.7824 98.9116L23.4304 98.4222L23.2954 98.2435C22.997 98.3285 22.7226 98.3135 22.4721 98.1986C22.2085 98.0818 21.967 97.8782 21.7476 97.5878L21.2499 96.9286L22.2889 96.144L22.8204 96.8478C23.1016 97.2202 23.4365 97.4469 23.8251 97.5277C24.2061 97.6142 24.609 97.4972 25.0335 97.1766L28.2735 94.7299L29.1425 95.8807Z" fill="white"/>
<path d="M25.7661 90.9336L19.8237 94.4443L19.0902 93.2027L25.0327 89.6921L25.7661 90.9336ZM18.6458 94.2946C18.7882 94.5356 18.8329 94.7857 18.7799 95.0446C18.7142 95.3003 18.5567 95.5017 18.3076 95.6489C18.0585 95.796 17.8101 95.8344 17.5625 95.7638C17.3021 95.69 17.1007 95.5326 16.9583 95.2915C16.8111 95.0424 16.7704 94.79 16.8362 94.5344C16.8939 94.2834 17.0473 94.0844 17.2964 93.9372C17.5455 93.7901 17.7979 93.7494 18.0536 93.8151C18.3012 93.8857 18.4986 94.0455 18.6458 94.2946Z" fill="white"/>
<path d="M22.495 84.3827C22.6643 84.7671 22.6844 85.1254 22.5553 85.4575C22.4225 85.7812 22.1638 86.0276 21.7795 86.1969L17.8459 87.9289L18.6132 89.6715L17.4985 90.1623L16.7312 88.4198L14.6427 89.3394L14.0616 88.0196L16.1501 87.1L15.3207 85.2165L16.4355 84.7257L17.2648 86.6092L20.9677 84.9787C21.224 84.8659 21.2995 84.6899 21.1941 84.4507L20.613 83.131L21.7278 82.6401L22.495 84.3827Z" fill="white"/>
<path d="M23.7014 79.295L22.4862 79.6282L21.468 75.9153C21.3989 75.6633 21.2293 75.5743 20.9593 75.6483L18.9071 76.2111L18.9663 76.4271C19.1686 76.4588 19.3786 76.5367 19.5966 76.6608C19.803 76.7784 19.9985 76.9619 20.183 77.2113C20.3675 77.4607 20.5178 77.7969 20.6338 78.22C20.7721 78.724 20.783 79.2049 20.6665 79.6627C20.5501 80.1204 20.3157 80.5186 19.9634 80.8572C19.6111 81.1957 19.1514 81.4428 18.5843 81.5983L14.5743 82.6979L14.193 81.3073L18.0949 80.2372C18.671 80.0793 19.0591 79.818 19.2591 79.4534C19.4501 79.0914 19.4753 78.6538 19.3346 78.1407C19.1791 77.5737 18.8654 77.171 18.3936 76.9326C17.9193 76.6852 17.3221 76.6603 16.602 76.8577L13.2266 77.7834L12.8453 76.3927L20.8652 74.1934C21.2702 74.0823 21.6276 74.115 21.9373 74.2914C22.2445 74.4588 22.4548 74.7495 22.5684 75.1635L23.7014 79.295Z" fill="white"/>
<path d="M16.0797 72.2253L14.7639 72.2499L14.6866 68.1066L16.0024 68.082L16.0797 72.2253Z" fill="white"/>
<circle opacity="0.2" cx="67.5001" cy="67.4995" r="36.5" fill="#FBFBFB"/>
<circle opacity="0.1" cx="67.5001" cy="67.4995" r="20.5" fill="white"/>
<g opacity="0.8">
<path d="M70.8287 72.1902C70.7089 72.0697 70.6417 71.9067 70.6417 71.7369C70.6417 71.567 70.7089 71.404 70.8287 71.2835L73.7867 68.332H58.6431C58.4726 68.332 58.309 68.2642 58.1884 68.1436C58.0678 68.023 58.0001 67.8595 58.0001 67.6889C58.0001 67.5184 58.0678 67.3548 58.1884 67.2342C58.309 67.1137 58.4726 67.0459 58.6431 67.0459H73.7674L70.8287 64.1072C70.7067 63.9861 70.6379 63.8216 70.6373 63.6497C70.6367 63.4779 70.7044 63.3128 70.8255 63.1909C70.9466 63.069 71.1111 63.0001 71.283 62.9995C71.4548 62.9989 71.6199 63.0666 71.7418 63.1877L75.8315 67.2838C75.9395 67.3923 76.0001 67.5391 76.0001 67.6922C76.0001 67.8452 75.9395 67.992 75.8315 68.1005L71.7418 72.1902C71.682 72.2505 71.6109 72.2983 71.5325 72.331C71.4542 72.3636 71.3701 72.3804 71.2852 72.3804C71.2004 72.3804 71.1163 72.3636 71.0379 72.331C70.9596 72.2983 70.8885 72.2505 70.8287 72.1902Z" fill="white"/>
</g>
</svg>
