<svg width="85" height="25" viewBox="0 0 85 25" fill="none" xmlns="http://www.w3.org/2000/svg">
<path d="M84.241 23.8975C79.562 23.8975 79.5621 18.6582 74.8831 18.6582C70.2041 18.6582 70.204 23.8975 65.524 23.8975C60.844 23.8975 60.846 18.6582 56.168 18.6582C51.49 18.6582 51.49 23.8975 46.811 23.8975C42.132 23.8975 42.132 18.6582 37.452 18.6582C32.772 18.6582 32.771 23.8975 28.09 23.8975C23.409 23.8975 23.411 18.6582 18.731 18.6582C14.051 18.6582 14.0481 23.8975 9.36505 23.8975C4.68205 23.8975 4.682 18.6582 0 18.6582" stroke="#F8F8F8" stroke-miterlimit="10"/>
<path d="M84.241 15.0678C79.562 15.0678 79.562 9.82959 74.883 9.82959C70.204 9.82959 70.204 15.0678 65.524 15.0678C60.844 15.0678 60.846 9.82959 56.168 9.82959C51.49 9.82959 51.49 15.0678 46.811 15.0678C42.132 15.0678 42.1319 9.83166 37.4529 9.83166C32.7739 9.83166 32.7719 15.0699 28.0909 15.0699C23.4099 15.0699 23.412 9.83166 18.732 9.83166C14.052 9.83166 14.049 15.0699 9.36597 15.0699C4.68297 15.0699 4.68298 9.83166 0.000976562 9.83166" stroke="#F8F8F8" stroke-miterlimit="10"/>
<path d="M84.241 6.23925C79.562 6.23925 79.5621 1 74.8831 1C70.2041 1 70.204 6.23925 65.524 6.23925C60.844 6.23925 60.846 1 56.168 1C51.49 1 51.49 6.23925 46.811 6.23925C42.132 6.23925 42.132 1 37.452 1C32.772 1 32.771 6.23925 28.09 6.23925C23.409 6.23925 23.411 1 18.731 1C14.051 1 14.0481 6.23925 9.36505 6.23925C4.68205 6.23925 4.682 1 0 1" stroke="#F8F8F8" stroke-miterlimit="10"/>
</svg>
