<svg width="61" height="71" viewBox="0 0 61 71" fill="none" xmlns="http://www.w3.org/2000/svg">
<g clip-path="url(#clip0_222_813)">
<path d="M16.76 32.2051C18.687 39.6263 24.7341 45.0065 28.2393 51.6557L28.1799 51.6429C27.6515 51.5784 27.1156 51.6709 26.6388 51.9091C26.1621 52.1472 25.7655 52.5205 25.4983 52.9824C25.129 53.7404 24.9761 54.5858 25.0565 55.425C25.022 55.7847 25.0734 56.1474 25.2063 56.4831C25.3392 56.8188 25.5499 57.1179 25.821 57.3558C26.0611 57.5289 26.3353 57.6487 26.6253 57.7071L26.7624 57.7368C26.4264 58.2973 26.2754 58.9497 26.3309 59.601C26.3022 59.9062 26.3559 60.2134 26.4862 60.4905C26.6165 60.7677 26.8187 61.0045 27.0716 61.1764C27.2517 61.2842 27.4486 61.3608 27.6542 61.4031C28.063 61.4744 28.4795 61.4902 28.8927 61.45L29.1792 61.4304C29.3745 62.8735 28.9449 64.4407 29.8186 65.733C30.6923 67.0253 32.1926 67.0569 33.5367 66.9252C34.6953 66.8109 35.9442 66.6107 36.6922 65.6065C37.7022 64.2319 37.1943 62.4861 37.3789 60.9235L37.4753 60.9203C38.0543 60.9155 38.6276 60.8054 39.1675 60.5952C40.5769 59.9402 40.5184 58.3731 40.4974 57.8504C40.5082 57.387 40.3441 56.9368 40.0378 56.59C41.306 55.703 41.234 53.8883 41.205 53.1815C41.1852 52.6975 41.1352 51.5784 39.9954 51.097C39.4893 50.9201 38.9458 50.8787 38.4186 50.9769L37.5028 51.0525C40.1069 44.006 45.4387 38.1295 47.1577 30.7286C47.8414 27.7294 47.6304 24.5958 46.551 21.718C45.4716 18.8401 43.5714 16.3451 41.087 14.5435C35.7701 10.7653 28.1138 10.9051 22.8601 14.7594C17.4943 18.6902 15.0971 25.8198 16.76 32.2051ZM35.9617 63.2752C35.8932 64.9204 34.9713 65.3785 33.4756 65.5254C31.891 65.6628 30.7495 65.3441 30.6442 63.551C30.5977 62.7924 30.6411 62.0822 30.5703 61.3472L35.9768 61.0139C35.9336 61.7674 35.9968 62.5151 35.9617 63.2752ZM38.588 59.3137C38.2028 59.4538 37.797 59.5283 37.3874 59.534L28.811 60.0794C28.4751 60.1273 28.133 60.1025 27.8077 60.0065C27.7757 59.9996 27.7399 59.9439 27.7412 59.6275C27.6926 59.2591 27.7602 58.8845 27.9345 58.5562C28.061 58.4038 28.223 58.2848 28.4061 58.2097C28.5891 58.1347 28.7877 58.1058 28.9844 58.1258C29.0469 58.1379 29.1109 58.1404 29.1742 58.1332C29.8936 58.0584 31.7887 57.945 33.6205 57.8371C35.5598 57.7189 37.3732 57.607 38.1211 57.5335C38.3565 57.4972 38.5957 57.4925 38.8323 57.5193L38.8871 57.5312C39.0379 57.5638 39.0654 57.5697 39.0734 57.9312C39.1354 58.9282 38.8633 59.1909 38.588 59.3137ZM38.5715 52.3725C38.8617 52.316 39.1605 52.3217 39.4482 52.3893C39.6668 52.4845 39.776 52.5992 39.7996 53.2424C39.8555 54.5115 39.6431 55.2285 39.1398 55.4987C38.7026 55.6774 38.2343 55.767 37.7624 55.7624L27.8612 56.3718C27.4655 56.432 27.0612 56.3877 26.6882 56.243C26.5267 56.1265 26.4937 55.8363 26.4849 55.4122C26.4181 54.8281 26.5063 54.2365 26.7408 53.6971C26.867 53.4796 27.0535 53.3035 27.2776 53.1901C27.5017 53.0767 27.7538 53.0309 28.0032 53.0584C28.0773 53.0754 28.1537 53.0806 28.2295 53.0737C29.063 52.9804 31.2538 52.8493 33.3717 52.7457C35.5959 52.593 37.704 52.4681 38.5715 52.3725ZM39.3411 15.073C45.1152 18.4846 47.3805 25.5136 45.4364 31.7863C43.2933 38.6925 38.3778 44.3471 35.9876 51.1568L33.2871 51.3216C32.4313 45.9458 31.8824 40.525 31.6433 35.0857C33.2436 34.189 35.1551 33.8009 36.5452 32.5708C37.6561 31.5922 38.2434 29.9152 37.3244 28.5891C36.4053 27.263 34.6809 27.538 33.5642 28.477C32.5921 29.3306 31.8023 30.3725 31.2422 31.5399C31.1009 31.1657 30.9239 30.8061 30.7135 30.4661C30.0526 29.4069 28.8541 28.2891 27.4898 28.6467C26.354 28.9434 25.9255 30.6164 26.4495 31.5788C27.2701 33.0948 28.8986 34.1712 30.17 35.2615C30.1943 35.2827 30.2207 35.3013 30.2489 35.317C30.4929 40.7088 31.0391 46.0823 31.8849 51.412C31.1146 51.4567 30.3975 51.4984 29.7758 51.5415C27.2541 46.4291 23.3271 42.2412 20.4813 37.3226C16.9501 31.2147 16.493 23.9433 21.2018 18.2488C25.4986 13.0218 33.508 11.6246 39.3411 15.073ZM31.9221 33.4188C32.2768 32.4848 32.754 31.6021 33.341 30.794C33.7011 30.3009 34.2141 29.5434 34.786 29.2879C36.5789 28.452 36.5637 30.3822 35.9287 31.1949C35.0242 32.3476 33.3846 32.8281 31.9221 33.4188ZM30.2103 33.4807C28.8998 32.3722 26.8154 30.4393 27.9169 29.9912C28.6306 29.6993 29.4884 31.1321 29.716 31.5843C30.0123 32.1743 30.1807 32.8205 30.2103 33.4807Z" fill="#ADB8EF"/>
<path d="M10.5428 37.065L14.4126 35.0755C15.2191 34.6644 14.45 33.4859 13.6536 33.8943L9.80206 35.8878C8.97731 36.2949 9.74645 37.4735 10.5428 37.065Z" fill="#ADB8EF"/>
<path d="M8.10397 25.7478L12.2771 26.6496C12.4589 26.6889 12.649 26.6542 12.8054 26.553C12.9619 26.4519 13.0719 26.2926 13.1113 26.1102C13.1507 25.9279 13.1163 25.7374 13.0156 25.5807C12.9149 25.4239 12.7561 25.3138 12.5743 25.2745L8.392 24.3707C8.2099 24.3326 8.0201 24.3686 7.86433 24.4708C7.70856 24.573 7.59957 24.733 7.56137 24.9156C7.52318 25.0983 7.55889 25.2885 7.66064 25.4446C7.7624 25.6006 7.92187 25.7097 8.10397 25.7478Z" fill="#ADB8EF"/>
<path d="M11.794 14.2294L15.587 16.9346C16.3171 17.4522 17.272 16.4207 16.5383 15.8975L12.7408 13.1913C12.0142 12.6793 11.0593 13.7107 11.794 14.2294Z" fill="#ADB8EF"/>
<path d="M22.8799 10.1961C23.4103 10.9297 24.5883 10.1719 24.0589 9.43381L21.6521 6.09258C21.1253 5.36461 19.9427 6.12137 20.4721 6.85949L22.8799 10.1961Z" fill="#ADB8EF"/>
<path d="M31.9541 7.61367C31.8618 8.50532 33.2311 8.81083 33.3253 7.91001L33.6071 5.14502C33.6983 4.25796 32.33 3.94787 32.2358 4.84868L31.9541 7.61367Z" fill="#ADB8EF"/>
<path d="M43.5168 12.046C44.2911 11.0091 45.0543 9.97935 45.8295 8.93786C46.3686 8.21473 45.3399 7.26316 44.7963 7.9853C44.023 9.01762 43.2588 10.0519 42.4836 11.0934C41.9455 11.812 42.9732 12.7681 43.5168 12.046Z" fill="#ADB8EF"/>
<path d="M49.6052 33.4837L54.0892 34.4527C54.271 34.492 54.4611 34.4572 54.6175 34.3561C54.774 34.2549 54.884 34.0957 54.9234 33.9133C54.9628 33.731 54.9284 33.5405 54.8277 33.3837C54.727 33.227 54.5682 33.1169 54.3864 33.0776L49.9024 32.1085C49.7206 32.0692 49.5305 32.104 49.3741 32.2052C49.2176 32.3063 49.1076 32.4656 49.0682 32.6479C49.0288 32.8303 49.0632 33.0208 49.1639 33.1775C49.2647 33.3342 49.4234 33.4444 49.6052 33.4837Z" fill="#ADB8EF"/>
<path d="M50.9357 26.1763L54.5528 25.4227C55.4355 25.2345 54.9963 23.9017 54.1202 24.0818L50.502 24.84C49.6203 25.0236 50.0585 26.361 50.9357 26.1763Z" fill="#ADB8EF"/>
<path d="M48.89 18.3312L51.8957 16.9753C52.7115 16.6094 52.2662 15.261 51.4621 15.639L48.4518 16.9939C47.6405 17.3607 48.064 18.6996 48.89 18.3312Z" fill="#ADB8EF"/>
</g>
<defs>
<clipPath id="clip0_222_813">
<rect width="48.1426" height="61.4233" fill="white" transform="translate(12.9746) rotate(12.1947)"/>
</clipPath>
</defs>
</svg>
