<svg width="73" height="71" viewBox="0 0 73 71" fill="none" xmlns="http://www.w3.org/2000/svg">
<path d="M40.0812 46.8415C37.1104 45.4847 33.516 45.4136 30.3209 45.7856C30.2732 45.8007 30.2316 45.8305 30.202 45.8709C30.1725 45.9112 30.1565 45.9599 30.1565 46.0099C30.1565 46.0599 30.1725 46.1086 30.202 46.149C30.2316 46.1893 30.2732 46.2192 30.3209 46.2343C33.4121 46.8634 36.5525 47.2136 39.6491 47.8318C40.2017 47.9358 40.6885 47.0932 40.0812 46.8415Z" fill="#ADB8EF"/>
<path d="M40.0158 45.0252C38.6535 44.7134 37.1051 44.117 35.6936 44.3249C35.2833 44.3796 35.338 44.9431 35.6936 45.0635C35.7319 45.0635 39.682 46.1139 39.7039 46.1248C40.3987 46.2944 40.7325 45.2003 40.0158 45.0252Z" fill="#ADB8EF"/>
<path d="M32.0663 26.5549C32.1757 26.0844 31.6012 25.6576 31.2292 26.0406C29.9216 27.381 29.1338 29.3233 28.0614 30.8333C26.7593 32.6989 25.0087 34.0393 23.4713 35.6806C23.3017 35.8557 23.4713 36.2277 23.7175 36.1293C25.8129 35.4399 27.3557 33.8314 28.7289 32.1628C29.9927 30.5926 31.5629 28.5464 32.0663 26.5549Z" fill="#ADB8EF"/>
<path d="M31.9844 29.4108C31.0434 30.6308 31.2621 30.7293 29.7467 32.2447C29.5388 32.4526 29.2487 32.6223 29.1284 32.8958C29.0981 32.9435 29.0793 32.9975 29.0733 33.0536C29.0674 33.1098 29.0744 33.1666 29.094 33.2195C29.1136 33.2725 29.1453 33.3202 29.1863 33.359C29.2274 33.3977 29.2769 33.4264 29.3309 33.4429C30.4579 33.8861 32.6955 31.1341 33.0949 29.9195C33.3301 29.2028 32.3838 28.8855 31.9844 29.4108Z" fill="#ADB8EF"/>
<path d="M47.0241 42.8586C43.1944 33.7931 40.2783 29.2795 38.0078 23.617C37.4814 22.1468 36.7442 20.761 35.8194 19.5027C35.8522 19.2511 35.7045 19.1471 35.5349 19.1635C35.2095 18.7988 34.8423 18.4737 34.4407 18.1951C34.0183 17.9599 33.5392 17.8456 33.0561 17.8648C32.573 17.8839 32.1044 18.0358 31.702 18.3037C31.2995 18.5717 30.9786 18.9453 30.7746 19.3836C30.5705 19.8219 30.4912 20.308 30.5452 20.7884C30.3336 21.1515 30.2047 21.557 30.1678 21.9756C29.0298 23.9562 29.2705 25.2583 26.0152 30.0509C24.0456 32.956 21.529 34.9748 18.9905 37.2343C17.2616 35.9103 14.909 36.928 13.016 38.0714C10.8823 38.1808 6.18272 40.4732 4.04354 41.6932C1.49403 43.1431 -0.705326 44.8446 1.30802 48.3241C0.798567 49.2041 0.375298 50.1312 0.0441754 51.0925C0.00280381 51.1829 -0.00989287 51.2837 0.00771066 51.3815C0.0253142 51.4793 0.0723377 51.5694 0.142617 51.6396C0.208269 52.3673 1.47216 55.8085 2.68673 55.7155C3.40065 56.0692 4.1948 56.2296 4.99002 56.1806C6.39608 58.2486 8.0374 59.4632 9.51458 58.2651C9.55789 58.2289 9.59325 58.1842 9.6185 58.1338C10.7449 58.109 11.8572 57.8791 12.9011 57.4554C14.1814 59.5343 17.1905 62.5543 17.6227 63.0413C19.8494 65.5579 23.5368 71.0509 27.3939 70.2084C27.5151 70.1909 27.6295 70.1417 27.7256 70.0658C27.8217 69.9899 27.896 69.89 27.941 69.7761C34.9385 69.0156 36.0382 62.4613 31.7708 63.282C31.7708 61.5805 30.2225 60.1963 28.1435 60.2127C28.5757 58.1666 26.2834 56.7715 24.1661 57.242C24.1015 57.2062 24.0311 57.1821 23.9581 57.1708C24.2262 55.8633 23.6736 53.9867 21.4687 53.9812C21.52 53.852 21.5325 53.7106 21.5043 53.5745C21.4761 53.4383 21.4086 53.3135 21.3102 53.2153L21.3648 53.1824C22.9405 52.8761 24.7898 51.4481 25.0196 49.8506C32.0718 49.019 37.3622 47.7443 45.5906 52.1211C45.7259 52.2066 45.8881 52.2389 46.0458 52.2116C46.2035 52.1843 46.3455 52.0994 46.4441 51.9734C46.5518 52.0487 46.6793 52.0905 46.8106 52.0937C47.8611 52.504 48.8623 52.2743 49.3875 50.7478C50.0987 48.6853 48.2933 45.523 47.3468 43.5042C47.3544 43.3777 47.3285 43.2515 47.2719 43.1381C47.2152 43.0248 47.1298 42.9284 47.0241 42.8586ZM47.3086 46.9783C46.929 48.0739 46.6112 49.1899 46.3566 50.3211C46.001 49.9053 45.6618 49.4841 45.3335 49.0518C45.8806 47.8373 46.198 46.557 46.6192 45.3096C46.8381 45.8184 47.0898 46.3984 47.3086 46.9783ZM33.9537 19.4316C34.2675 19.6544 34.5382 19.9325 34.7524 20.2523C34.1498 21.8219 33.7706 23.4683 33.6255 25.1433C33.4012 24.7111 33.2042 24.2844 33.0182 23.8467C33.1285 23.0196 33.2856 22.1995 33.4887 21.3902C33.6822 20.7471 33.8374 20.0931 33.9537 19.4316ZM42.587 36.4301C42.2861 36.7967 41.4928 41.261 41.367 42.1857L41.1208 41.6385C41.4874 41.3322 41.345 40.6757 41.3067 40.2325C41.1973 38.8812 41.7555 36.8952 41.9689 35.1499C42.1768 35.5876 42.3846 36.0088 42.587 36.4465V36.4301ZM44.3487 40.2051C43.9767 40.5772 43.0903 42.8203 42.8277 45.0853C42.6636 44.779 42.4995 44.4725 42.3408 44.1662C42.4647 44.0508 42.5391 43.892 42.5487 43.723C42.68 41.8902 43.2217 40.0739 43.4405 38.252C43.7414 38.8976 44.0532 39.5486 44.3487 40.2051ZM44.4308 47.509C44.3487 47.3769 44.2257 47.2751 44.0806 47.219C43.9602 47.0275 43.8399 46.836 43.725 46.6391C44.3925 45.9771 44.4143 44.6531 44.6277 43.7449C44.77 43.1376 44.9615 42.492 45.0709 41.8355C45.328 42.4264 45.618 43.0172 45.8477 43.6081C45.1529 44.7516 44.8357 46.1904 44.4308 47.509ZM41.2302 33.6563C40.8472 35.3414 40.3275 37.0429 40.0321 39.193L39.7804 38.6021C40.0595 38.334 39.8788 37.7487 39.8077 37.3547C39.7828 37.181 39.7463 37.0092 39.6983 36.8404C39.7312 35.1926 39.9589 33.5546 40.3767 31.9603L41.2302 33.6563ZM38.4947 35.5547C38.243 34.9693 38.1227 34.6739 37.7014 33.6946C37.7014 33.618 37.7014 33.1475 37.7014 33.0545C37.7066 33.0127 37.7066 32.9704 37.7014 32.9286C37.7616 31.0138 37.4114 31.4296 38.4564 28.1634C38.7791 28.8801 38.916 29.1701 39.6491 30.598C39.113 31.632 38.6315 34.3456 38.5056 35.5547H38.4947ZM36.4923 30.8661C36.3884 30.6308 36.2844 30.3956 36.175 30.1603C36.2754 30.0964 36.3558 30.0056 36.4071 29.8982C36.4584 29.7909 36.4784 29.6713 36.465 29.553C36.3929 27.9379 36.5982 26.3225 37.0722 24.7768C37.3348 25.4115 37.592 26.0516 37.8546 26.6917C37.3622 27.3318 36.6018 30.3299 36.5033 30.8661H36.4923ZM36.3773 23.2066C35.8795 24.1094 35.2832 27.2005 35.2504 28.24C35.1027 27.9445 34.9494 27.6491 34.7908 27.3591C34.8659 27.2919 34.9209 27.2052 34.9499 27.1087C34.9788 27.0121 34.9806 26.9095 34.9549 26.812C34.5118 25.0011 35.0479 23.223 35.4692 21.4559C35.8084 21.9975 36.1093 22.5829 36.3883 23.1793L36.3773 23.2066ZM32.9033 19.1908C32.6407 19.9896 32.4875 20.7884 32.2358 21.6364C32.1191 21.1405 32.0314 20.6381 31.9732 20.1319C32.026 19.8996 32.1417 19.6864 32.3077 19.5155C32.4737 19.3447 32.6836 19.2229 32.9143 19.1635L32.9033 19.1908ZM21.7587 51.1582C21.3539 51.3278 20.96 51.4974 20.5661 51.7053C21.2338 48.9887 21.4282 46.1773 21.1406 43.3947C21.6877 44.4397 22.1581 45.5066 22.5903 46.6008C22.4426 47.2409 22.3113 49.3746 21.7697 51.1308L21.7587 51.1582ZM20.1503 41.4197C20.1273 41.4674 20.116 41.52 20.1174 41.5729C20.1174 46.1467 19.1819 51.1199 19.067 52.4384C18.5527 52.7119 18.0384 52.9855 17.5296 53.2864C18.3503 48.6196 19.171 43.1923 18.137 38.5529C18.8865 39.089 19.729 40.5662 20.1612 41.3705L20.1503 41.4197ZM16.8676 38.1371C17.1499 43.4964 16.8399 48.8705 15.9431 54.1618C15.489 54.4134 15.0403 54.6706 14.5808 54.9168C15.4124 49.4457 15.4671 43.8105 15.9321 38.2848C16.2438 38.1858 16.5681 38.1323 16.895 38.1261L16.8676 38.1371ZM12.283 56.0548C12.1079 56.1314 11.9382 56.2134 11.7631 56.2845C12.5892 51.749 12.7535 48.2749 13.2568 43.8817C13.4319 42.3279 13.8586 40.7194 13.8039 39.1547L14.5424 38.81C13.7163 44.3248 13.8422 49.971 13.0817 55.4967C13.0734 55.5566 13.0734 55.6174 13.0817 55.6773L12.8465 55.7921C12.8629 55.3873 12.2993 55.4858 12.3102 56.0438L12.283 56.0548ZM8.8307 57.242L8.6775 57.1872C9.31761 54.2985 9.49815 51.2238 10.0343 48.3132C10.5431 45.5339 11.0683 42.7601 11.3966 39.948C11.8624 39.916 12.3193 39.805 12.7479 39.6198C11.6975 42.3553 11.4622 50.0694 10.2914 56.4541C10.2695 56.5767 10.2789 56.7028 10.3188 56.8207C9.85924 56.9684 9.36689 57.1161 8.85809 57.2365L8.8307 57.242ZM10.3953 40.0301C10.0178 40.1942 10.2422 39.6799 9.62946 43.1267C8.4313 49.8889 7.32618 53.0785 7.3426 56.4705C7.12679 56.317 6.92028 56.1508 6.7243 55.9727C6.8556 54.977 6.85011 53.9703 6.97047 52.9636C7.43551 49.0025 9.83188 41.8793 9.62946 40.3419L10.3953 40.0301ZM3.62774 51.1417C3.92317 50.6767 3.81922 49.4567 3.89581 48.8275C4.18031 46.4585 5.44408 43.9419 4.95169 42.7382C5.41672 42.4702 5.88727 42.1911 6.35231 41.9668C5.34016 45.2822 4.77113 48.8111 4.1146 52.225C3.97235 51.8584 3.80831 51.4974 3.65512 51.1308L3.62774 51.1417ZM2.70864 48.3187C2.61016 48.0342 2.50619 47.7716 2.41318 47.4762L3.33228 43.816C3.52924 43.6628 3.7372 43.5097 3.9451 43.3674C3.84115 44.7571 3.06962 46.7868 2.73589 48.3078L2.70864 48.3187ZM5.09394 53.9977C5.92007 49.7904 7.07453 45.5504 7.6271 41.3048L8.48048 40.8945C8.31088 41.5072 8.23977 42.1747 8.08658 42.7929C6.93766 47.4652 5.42218 51.284 5.35106 54.408L5.09394 53.9977ZM2.97124 54.7144C2.64297 53.8992 1.72382 53.3794 1.17672 51.3551C1.4065 50.7095 1.67454 50.0913 1.95356 49.4731C2.4901 51.3911 3.24847 53.24 4.21318 54.9824C3.80016 54.9294 3.39336 54.836 2.99862 54.7034L2.97124 54.7144ZM22.3715 55.9508C22.7545 56.6073 22.3715 57.4116 22.2348 57.8985C19.8494 59.3046 20.3636 60.4753 20.949 60.2674C21.7095 59.9994 21.9721 59.7203 23.5423 58.9052C23.9854 58.8669 24.3794 58.5933 24.8445 58.5605C25.6596 58.5167 27.1477 59.031 26.5952 60.2401C26.0481 60.6285 25.5502 61.0827 24.9539 61.4219C24.2251 61.7899 23.5512 62.2576 22.9515 62.8115C22.8038 62.9702 22.8803 63.2929 23.132 63.282C24.4633 63.1627 25.743 62.7092 26.8523 61.9635C26.9198 61.9589 26.9862 61.9441 27.0493 61.9197C28.0341 61.575 29.2377 61.6626 29.938 62.5762C30.9338 63.9331 28.8766 64.5294 28.7726 65.0929C27.8392 65.8965 26.8461 66.6281 25.8019 67.2813C25.7592 67.3062 25.7269 67.3455 25.7105 67.3921C25.6942 67.4387 25.6949 67.4896 25.7127 67.5357C25.7304 67.5818 25.7641 67.62 25.8075 67.6436C25.8509 67.6672 25.9013 67.6745 25.9496 67.6643C27.2819 67.4678 28.5439 66.9412 29.6207 66.1324C30.2434 65.7991 30.827 65.3972 31.3604 64.9343C31.8528 64.7537 32.4164 64.6115 32.6736 64.8686C32.9307 65.1257 32.2905 65.9628 32.1811 66.1215C31.0431 67.7628 28.7453 68.1458 26.8578 68.7421C24.0511 69.1634 20.8833 64.4528 13.9515 57.0231C14.4986 56.7715 17.4476 55.4201 19.6524 54.1836H19.7509C18.4105 55.1465 18.1642 55.338 17.6445 56.2681C17.5515 56.4377 17.6938 56.6949 17.9072 56.6292C18.7632 56.4383 19.5746 56.0855 20.298 55.5897C20.8123 55.6444 21.8792 55.0481 22.3989 55.9399L22.3715 55.9508ZM24.9374 48.9369C24.6693 46.8305 23.4439 44.6367 22.5466 42.7984C21.7643 41.2063 20.9053 39.3079 19.6853 37.9346C24.4396 35.5711 30.0802 27.578 31.0759 23.4091L31.1362 23.3598C31.3495 23.9069 31.5848 24.454 31.7927 24.9683C31.828 25.054 31.8845 25.1293 31.9568 25.1871C32.8814 28.043 34.5501 29.8868 36.3337 34.1542C37.3841 36.7092 41.0278 45.5175 42.8989 49.0956C38.4017 47.3503 29.8778 46.7431 24.9539 48.926L24.9374 48.9369ZM47.5274 50.7095C47.6204 50.0913 47.7626 49.484 47.883 48.8713C48.069 49.577 48.2332 50.5345 47.5548 50.6986L47.5274 50.7095Z" fill="#ADB8EF"/>
<path d="M39.9228 21.1878C41.3835 19.7982 42.4941 17.9982 43.7907 16.4499C50.356 8.62079 54.3553 5.57346 57.3808 0.895714C57.4524 0.772371 57.4774 0.627467 57.4514 0.487256C57.4253 0.347045 57.3497 0.220825 57.2386 0.131491C57.1274 0.0421565 56.9879 -0.00438025 56.8453 0.000324842C56.7028 0.00502993 56.5668 0.0606652 56.4617 0.157137C53.1791 3.49447 50.1645 7.26948 47.0132 10.7436C44.3488 13.6925 40.7981 17.0791 39.299 20.8103C39.1786 21.1714 39.6602 21.434 39.9228 21.1878Z" fill="#ADB8EF"/>
<path d="M65.7626 18.3429C65.8997 18.2667 66.001 18.1391 66.0441 17.9883C66.0871 17.8375 66.0685 17.6757 65.9924 17.5386C65.9162 17.4014 65.7887 17.3002 65.6379 17.2571C65.487 17.214 65.3253 17.2326 65.1881 17.3088C58.5791 20.7665 52.1451 24.3172 45.8206 28.2509C45.7846 28.2642 45.7517 28.2845 45.7236 28.3105C45.6955 28.3365 45.6728 28.3678 45.6568 28.4026C45.6245 28.4729 45.6214 28.5531 45.6483 28.6256C45.6751 28.6982 45.7297 28.7571 45.8 28.7895C45.8703 28.8218 45.9505 28.8249 46.0231 28.798C49.5355 28.1907 52.5171 25.4333 55.5645 23.7318C58.9073 21.8498 62.5675 20.482 65.7626 18.3429Z" fill="#ADB8EF"/>
<path d="M72.4589 37.9894C70.9215 37.8581 69.3733 38.2301 67.8304 38.3286C62.2171 38.6842 56.7132 37.9018 51.647 38.7389C51.2969 38.7936 51.3789 39.2861 51.7071 39.3298C55.4493 39.5924 59.197 39.7456 62.9502 39.8441C65.9592 39.9261 69.9094 40.331 72.7106 39.0344C73.2412 38.7827 72.9732 38.0332 72.4589 37.9894Z" fill="#ADB8EF"/>
</svg>
