<svg width="40" height="47" viewBox="0 0 40 47" fill="none" xmlns="http://www.w3.org/2000/svg">
<path d="M4.22643 9.78457C1.19837 20.2091 -5.7319 42.0289 9.49331 46.2309C14.6816 47.6651 23.7375 47.2238 29.0389 43.8068C32.9474 41.285 36.8119 38.2021 38.9187 33.9623C41.0852 29.5964 39.8997 25.0383 36.2176 22.0058C33.238 19.6282 29.8564 17.8067 26.2341 16.6281C23.9293 15.8842 20.9232 15.4397 18.6404 16.4926C16.9298 17.2869 14.3797 19.3012 16.2758 21.2209C18.2819 23.2384 21.3917 23.4275 23.8224 24.6884C26.5046 26.0628 28.9415 28.2284 29.5106 31.3081C30.5388 36.9254 25.0424 41.8965 19.6435 41.8272C14.5841 41.761 11.9019 36.4463 11.1536 32.1151C10.1002 26.0848 10.2102 19.897 11.1536 13.8604C11.6677 10.8412 12.3384 7.85097 13.1628 4.90174C13.537 3.48008 14.342 0.643057 12.2667 0.132393C7.28279 -1.08753 5.27038 6.19416 4.26731 9.64902L4.22643 9.78457Z" fill="#FF5733"/>
</svg>
