<svg width="51" height="73" viewBox="0 0 51 73" fill="none" xmlns="http://www.w3.org/2000/svg">
<mask id="path-1-inside-1_22_515" fill="white">
<path d="M18.8502 7.54983C18.9872 7.56624 19.1331 7.57083 19.2748 7.60129C20.166 7.79875 20.5585 8.41246 20.4108 9.59934C20.2367 11.0599 19.987 12.4767 19.6636 13.8392C18.4497 18.1452 16.9949 22.2417 15.3107 26.096C13.0265 31.9291 10.6897 37.7153 8.38115 43.52C8.15107 44.124 7.75625 44.5352 7.2685 44.6789C6.78074 44.8226 6.23245 44.6893 5.72335 44.303C5.1944 43.9244 5.0089 43.4661 5.18413 42.6968C5.42103 41.5796 5.7049 40.4972 6.03443 39.4547C8.74055 31.2022 11.4371 22.9396 14.2054 14.744C14.9671 12.2568 16.0516 10.0767 17.4126 8.29666C17.8272 7.90573 18.2788 7.58807 18.7602 7.34865C18.7898 7.41304 18.8195 7.47744 18.8489 7.54981"/>
</mask>
<path d="M18.8502 7.54983C18.9872 7.56624 19.1331 7.57083 19.2748 7.60129C20.166 7.79875 20.5585 8.41246 20.4108 9.59934C20.2367 11.0599 19.987 12.4767 19.6636 13.8392C18.4497 18.1452 16.9949 22.2417 15.3107 26.096C13.0265 31.9291 10.6897 37.7153 8.38115 43.52C8.15107 44.124 7.75625 44.5352 7.2685 44.6789C6.78074 44.8226 6.23245 44.6893 5.72335 44.303C5.1944 43.9244 5.0089 43.4661 5.18413 42.6968C5.42103 41.5796 5.7049 40.4972 6.03443 39.4547C8.74055 31.2022 11.4371 22.9396 14.2054 14.744C14.9671 12.2568 16.0516 10.0767 17.4126 8.29666C17.8272 7.90573 18.2788 7.58807 18.7602 7.34865C18.7898 7.41304 18.8195 7.47744 18.8489 7.54981" fill="#E92F17"/>
<path d="M19.2748 7.60129L19.2992 6.5762L19.2935 6.57495L19.2748 7.60129ZM20.4108 9.59934L19.4658 9.28202L19.4651 9.28734L20.4108 9.59934ZM19.6636 13.8392L20.5792 14.3025L20.5846 14.2834L20.5892 14.264L19.6636 13.8392ZM15.3107 26.096L14.4368 25.5153L14.43 25.5309L14.4238 25.5469L15.3107 26.096ZM8.38115 43.52L7.49583 42.9666L7.49119 42.9787L8.38115 43.52ZM5.72335 44.303L6.16478 43.4756L6.15143 43.4655L6.13786 43.4558L5.72335 44.303ZM5.18413 42.6968L6.11183 43.113L6.11346 43.1059L6.11498 43.0987L5.18413 42.6968ZM6.03443 39.4547L5.13013 38.9538L5.12715 38.9632L6.03443 39.4547ZM14.2054 14.744L15.1071 15.2527L15.1113 15.2402L15.1152 15.2276L14.2054 14.744ZM17.4126 8.29666L16.7219 7.45293L16.677 7.49522L16.639 7.54495L17.4126 8.29666ZM18.7602 7.34865L19.597 7.01746L19.1076 5.95315L18.2468 6.38124L18.7602 7.34865ZM18.9154 8.5902C19.164 8.61999 19.1647 8.60796 19.2561 8.62762L19.2935 6.57495C19.1016 6.53369 18.8103 6.51248 18.7851 6.50946L18.9154 8.5902ZM19.2503 8.62636C19.3911 8.65756 19.458 8.69386 19.4785 8.70721C19.4894 8.71431 19.4717 8.70325 19.4565 8.67721C19.4454 8.65829 19.4646 8.67991 19.4778 8.78023C19.4915 8.88431 19.495 9.04689 19.4658 9.28203L21.3558 9.91666C21.4412 9.23086 21.4083 8.4649 21.0083 7.78135C20.5765 7.04353 19.9064 6.71075 19.2992 6.57622L19.2503 8.62636ZM19.4651 9.28734C19.2955 10.7106 19.0523 12.0896 18.7379 13.4143L20.5892 14.264C20.9216 12.8639 21.1779 11.4093 21.3565 9.91134L19.4651 9.28734ZM18.7479 13.3758C17.545 17.6428 16.104 21.7 14.4368 25.5153L16.1846 26.6766C17.8858 22.7834 19.3544 18.6476 20.5792 14.3025L18.7479 13.3758ZM14.4238 25.5469C12.1405 31.3775 9.80692 37.1557 7.49591 42.9666L9.26639 44.0734C11.5725 38.2749 13.9125 32.4806 16.1977 26.645L14.4238 25.5469ZM7.49119 42.9787C7.33172 43.3974 7.09015 43.601 6.87598 43.6641L7.66101 45.6938C8.42235 45.4695 8.97042 44.8507 9.27111 44.0613L7.49119 42.9787ZM6.87598 43.6641C6.67684 43.7228 6.43622 43.6815 6.16478 43.4756L5.28192 45.1305C6.02868 45.697 6.88464 45.9225 7.66101 45.6938L6.87598 43.6641ZM6.13786 43.4558C6.06964 43.4069 6.04688 43.3798 6.0461 43.3789C6.04605 43.3788 6.04727 43.3803 6.04935 43.3833C6.05145 43.3863 6.05414 43.3905 6.05711 43.3957C6.06344 43.4068 6.06874 43.4185 6.07246 43.4291C6.08805 43.4735 6.04568 43.4034 6.11183 43.113L4.25644 42.2806C4.14736 42.7595 4.11012 43.3032 4.30688 43.8637C4.51469 44.4557 4.91076 44.8654 5.30883 45.1503L6.13786 43.4558ZM6.11498 43.0987C6.34556 42.0112 6.62163 40.9588 6.9417 39.9463L5.12715 38.9632C4.78817 40.0356 4.49649 41.1479 4.25329 42.2949L6.11498 43.0987ZM6.93867 39.9557C9.64544 31.7012 12.3404 23.4434 15.1071 15.2527L13.3037 14.2353C10.5338 22.4357 7.83566 30.7032 5.13018 38.9538L6.93867 39.9557ZM15.1152 15.2276C15.8493 12.8303 16.8903 10.7432 18.1862 9.04837L16.639 7.54495C15.2128 9.41026 14.0849 11.6832 13.2956 14.2605L15.1152 15.2276ZM18.1033 9.14038C18.4678 8.79676 18.8604 8.52162 19.2737 8.31606L18.2468 6.38124C17.6972 6.65453 17.1867 7.01469 16.7219 7.45293L18.1033 9.14038ZM17.9235 7.67984C17.9543 7.74667 17.9719 7.78552 17.9886 7.82667L19.7091 7.27295C19.667 7.16935 19.6254 7.07941 19.597 7.01746L17.9235 7.67984Z" fill="#FF5733" mask="url(#path-1-inside-1_22_515)"/>
<path d="M9.74539 48.1984L9.72958 48.1871L9.71329 48.1771C9.70506 48.172 9.69921 48.1657 9.69559 48.1603C9.69205 48.1549 9.69072 48.1505 9.69032 48.1475C9.68992 48.1446 9.6902 48.1418 9.6914 48.1391L9.24614 47.8428L9.69141 48.1391C9.69264 48.1362 9.69527 48.1326 9.70043 48.1297L9.73249 48.1118L9.7602 48.0877C10.2081 47.6985 10.6886 47.3492 11.1983 47.0423C15.555 44.614 19.9203 42.1989 24.2943 39.7969L24.3001 39.7937L24.3059 39.7902C27.6403 37.7924 31.1667 36.0932 34.8569 34.7062C35.8878 34.3624 36.9638 34.1092 38.0583 33.8549L38.0592 33.8547C38.6485 33.7164 39.32 33.8476 39.9258 34.2205L39.9258 34.2205L39.9321 34.2243C40.074 34.3093 40.1618 34.3813 40.2107 34.4324C40.2148 34.4366 40.2184 34.4405 40.2217 34.4441C40.2011 34.4751 40.1594 34.5229 40.0797 34.581L40.0795 34.5808L40.0699 34.5884C39.0894 35.3566 38.0445 36.0406 36.9424 36.6357C32.4441 38.8651 27.9184 41.0472 23.3912 43.2301C22.765 43.5321 22.1386 43.8341 21.5124 44.1362L21.5116 44.1366C20.1569 44.794 18.7896 45.444 17.4208 46.0948C15.6949 46.9153 13.9667 47.7369 12.2585 48.5758L12.238 48.5859L12.2191 48.5984C11.8268 48.8576 11.3347 48.9535 10.8157 48.87C10.4501 48.6688 10.0925 48.4444 9.74539 48.1984Z" fill="#E92F17" stroke="#FF5733"/>
<path d="M11.1611 57.8175C11.8181 57.6537 12.4981 57.5495 13.195 57.506C14.1712 57.4748 15.1466 57.442 16.1216 57.4092C20.0909 57.2755 24.0529 57.1421 28.0376 57.1219L28.0391 57.1219C32.7815 57.0809 37.5636 57.1861 42.3483 57.2912C42.6408 57.2977 42.9332 57.3041 43.2257 57.3105C44.1737 57.3605 45.1364 57.5198 46.0972 57.7856C46.5492 57.9436 46.9879 58.1831 47.392 58.4925L47.3919 58.4926L47.3996 58.4982C47.4146 58.5094 47.4286 58.5221 47.4413 58.536C47.4267 58.542 47.4111 58.546 47.3946 58.548C47.1356 58.5715 46.8789 58.5964 46.6238 58.6212C45.6259 58.7181 44.6514 58.8128 43.6541 58.809L43.6537 58.809C35.3827 58.7852 27.1075 58.7379 18.8282 58.6672L18.8273 58.6672C18.7316 58.6666 18.636 58.6659 18.5404 58.6653C16.7136 58.6534 14.8897 58.6414 13.0613 58.6047C12.7023 58.5725 12.3407 58.5164 11.9785 58.4369C11.6977 58.2461 11.4247 58.0392 11.1611 57.8175Z" fill="#E92F17" stroke="#FF5733"/>
</svg>
