<svg width="38" height="32" viewBox="0 0 38 32" fill="none" xmlns="http://www.w3.org/2000/svg">
<path d="M16.5016 26.8882C13.4322 29.5399 6.29053 31.9997 6.29053 31.9997C6.29053 31.9997 9.13675 25.8277 12.209 23.1751C15.2813 20.5225 16.2222 21.3697 17.4079 22.3953C18.5935 23.4208 19.5699 24.2356 16.5016 26.8882Z" fill="url(#paint0_linear_490_1101)"/>
<path d="M15.5193 26.0395C12.4509 28.6921 6.29053 32 6.29053 32C6.29053 32 10.1181 26.6735 13.1874 24.0286C16.2567 21.3836 16.7602 21.8427 17.4039 22.3998C18.0476 22.9569 18.5886 23.3878 15.5193 26.0395Z" fill="url(#paint1_radial_490_1101)"/>
<path d="M10.2111 21.4512C7.14171 24.1029 0 26.5627 0 26.5627C0 26.5627 2.84622 20.3907 5.91457 17.7381C8.98292 15.0855 9.92771 15.9327 11.1134 16.9583C12.2991 17.9838 13.2794 18.7986 10.2111 21.4512Z" fill="url(#paint2_linear_490_1101)"/>
<path d="M9.22875 20.6029C6.16039 23.2555 0 26.5633 0 26.5633C0 26.5633 3.82754 21.2394 6.89688 18.5876C9.96622 15.9359 10.4697 16.4018 11.1134 16.9589C11.7571 17.516 12.2981 17.9512 9.22875 20.6029Z" fill="url(#paint3_radial_490_1101)"/>
<path d="M12.5497 24.7244C9.16247 27.6517 1.59131 30.6328 1.59131 30.6328C1.59131 30.6328 5.04074 24.087 8.42797 21.1623C11.8152 18.2375 12.7195 19.0498 13.8578 20.0343C14.9961 21.0189 15.9369 21.7971 12.5497 24.7244Z" fill="url(#paint4_linear_490_1101)"/>
<path d="M11.6074 23.9097C8.2192 26.837 1.58789 30.6329 1.58789 30.6329C1.58789 30.6329 5.98013 24.902 9.36736 21.9746C12.7546 19.0473 13.2364 19.5004 13.8544 20.0319C14.4724 20.5634 14.9946 20.9824 11.6074 23.9097Z" fill="url(#paint5_radial_490_1101)"/>
<path d="M15.6565 20.9639L19.4781 24.2666L18.5807 24.8092L15.0286 21.7394L15.6565 20.9639Z" fill="url(#paint6_radial_490_1101)"/>
<path d="M17.506 22.5604L16.7437 23.2192L16.863 23.3224L17.6253 22.6636L17.506 22.5604Z" fill="#5E5E5E"/>
<path d="M17.4229 23.8075L17.5542 23.921L18.416 23.3485L18.2857 23.2358L17.4229 23.8075Z" fill="#5E5E5E"/>
<path d="M19.0054 23.8574L18.1426 24.4299L18.2739 24.5425L19.1367 23.9709L19.0054 23.8574Z" fill="#5E5E5E"/>
<path d="M16.7178 21.8813L16.0564 22.6262L16.1877 22.7397L16.8492 21.994L16.7178 21.8813Z" fill="#5E5E5E"/>
<path d="M15.9981 21.2593L15.3357 22.005L15.467 22.1184L16.1294 21.3728L15.9981 21.2593Z" fill="#5E5E5E"/>
<path d="M8.92768 15.1484L12.7493 18.4512L11.8519 18.9938L8.30078 15.924L8.92768 15.1484Z" fill="url(#paint7_radial_490_1101)"/>
<path d="M10.7784 16.7479L10.0161 17.4067L10.1355 17.5099L10.8978 16.8511L10.7784 16.7479Z" fill="#5E5E5E"/>
<path d="M10.6938 17.9929L10.8252 18.1055L11.688 17.5339L11.5567 17.4204L10.6938 17.9929Z" fill="#5E5E5E"/>
<path d="M12.2762 18.0425L11.4133 18.615L11.5446 18.7285L12.4075 18.156L12.2762 18.0425Z" fill="#5E5E5E"/>
<path d="M9.98959 16.0664L9.32715 16.8112L9.45845 16.9247L10.1199 16.1799L9.98959 16.0664Z" fill="#5E5E5E"/>
<path d="M9.26912 15.4438L8.60767 16.1895L8.73798 16.303L9.40042 15.5573L9.26912 15.4438Z" fill="#5E5E5E"/>
<path d="M36.7628 0.210429C26.38 -2.15037 12.5625 16.132 12.5625 16.132L15.4512 18.6284L18.3398 21.1274C18.3398 21.1274 39.4945 9.18266 36.7628 0.210429Z" fill="url(#paint8_radial_490_1101)"/>
<path d="M36.7626 0.210506C34.0092 -0.415741 31.0149 0.410154 28.1035 1.96127L34.7398 7.69646C36.5316 5.17782 37.4873 2.59007 36.7626 0.210506Z" fill="url(#paint9_radial_490_1101)"/>
<path d="M25.1528 16.6789C22.3155 15.5859 16.2429 21.4687 16.2429 21.4687L17.9212 22.9234L19.5995 24.3781C19.5995 24.3781 27.6762 21.1018 25.1528 16.6789Z" fill="url(#paint10_radial_490_1101)"/>
<path style="mix-blend-mode:multiply" d="M18.8829 12.7394C19.5831 11.4504 19.3054 10.0625 18.2625 9.63933C17.2197 9.21618 15.8066 9.91809 15.1063 11.2071C14.4061 12.4961 14.6838 13.884 15.7267 14.3072C16.7695 14.7303 18.1826 14.0284 18.8829 12.7394Z" fill="url(#paint11_radial_490_1101)"/>
<path style="mix-blend-mode:multiply" d="M22.973 16.8876C23.3557 14.8523 22.6555 13.0605 21.4091 12.8854C20.1627 12.7104 18.842 14.2184 18.4593 16.2537C18.0766 18.289 18.7768 20.0809 20.0232 20.2559C21.2696 20.431 22.5903 18.9229 22.973 16.8876Z" fill="url(#paint12_radial_490_1101)"/>
<path d="M17.7069 10.2445C18.9715 12.6958 12.1635 17.9446 12.1635 17.9446L10.4852 16.4899L8.80688 15.0395C8.80688 15.0395 12.589 8.06377 17.7069 10.2445Z" fill="url(#paint13_radial_490_1101)"/>
<path d="M21.4299 13.4616C15.4541 10.67 11.7549 18.3189 11.7549 18.3189L13.7827 20.0713L15.8105 21.823C15.8105 21.823 24.6601 18.626 21.4299 13.4616Z" fill="url(#paint14_radial_490_1101)"/>
<path d="M29.444 9.69845C30.9254 9.15688 31.6182 7.68001 30.9916 6.39979C30.3649 5.11957 28.656 4.52078 27.1747 5.06236C25.6933 5.60393 25.0004 7.08079 25.6271 8.36102C26.2538 9.64124 27.9627 10.24 29.444 9.69845Z" fill="url(#paint15_linear_490_1101)"/>
<path d="M28.307 9.80245C29.8582 9.80245 31.1157 8.71569 31.1157 7.3751C31.1157 6.03451 29.8582 4.94775 28.307 4.94775C26.7558 4.94775 25.4983 6.03451 25.4983 7.3751C25.4983 8.71569 26.7558 9.80245 28.307 9.80245Z" fill="url(#paint16_linear_490_1101)"/>
<path d="M28.3073 9.26088C29.5123 9.26088 30.4891 8.41668 30.4891 7.37531C30.4891 6.33394 29.5123 5.48975 28.3073 5.48975C27.1023 5.48975 26.1255 6.33394 26.1255 7.37531C26.1255 8.41668 27.1023 9.26088 28.3073 9.26088Z" fill="url(#paint17_linear_490_1101)"/>
<path d="M29.745 8.61757C30.5385 7.93186 30.5385 6.82009 29.745 6.13438C28.9516 5.44867 27.6652 5.44867 26.8717 6.13438C26.0783 6.82009 26.0783 7.93186 26.8717 8.61757C27.6652 9.30329 28.9516 9.30328 29.745 8.61757Z" fill="url(#paint18_radial_490_1101)"/>
<path d="M30.7939 7.52664C30.8904 7.52664 30.9686 7.45903 30.9686 7.37563C30.9686 7.29222 30.8904 7.22461 30.7939 7.22461C30.6974 7.22461 30.6191 7.29222 30.6191 7.37563C30.6191 7.45903 30.6974 7.52664 30.7939 7.52664Z" fill="url(#paint19_radial_490_1101)"/>
<path d="M30.7941 7.50547C30.877 7.50547 30.9442 7.4474 30.9442 7.37578C30.9442 7.30416 30.877 7.24609 30.7941 7.24609C30.7112 7.24609 30.644 7.30416 30.644 7.37578C30.644 7.4474 30.7112 7.50547 30.7941 7.50547Z" fill="url(#paint20_radial_490_1101)"/>
<path d="M29.9429 9.00093C29.9186 8.97993 29.9021 8.95317 29.8954 8.92404C29.8887 8.89492 29.8922 8.86473 29.9053 8.8373C29.9185 8.80987 29.9408 8.78642 29.9693 8.76993C29.9979 8.75343 30.0315 8.74463 30.0658 8.74463C30.1002 8.74463 30.1338 8.75343 30.1624 8.76993C30.1909 8.78642 30.2132 8.80987 30.2264 8.8373C30.2395 8.86473 30.243 8.89492 30.2363 8.92404C30.2296 8.95317 30.213 8.97993 30.1888 9.00093C30.1726 9.01489 30.1535 9.02596 30.1324 9.03351C30.1113 9.04107 30.0887 9.04495 30.0658 9.04495C30.043 9.04495 30.0204 9.04107 29.9993 9.03351C29.9782 9.02596 29.9591 9.01489 29.9429 9.00093Z" fill="url(#paint21_radial_490_1101)"/>
<path d="M29.9597 8.98651C29.9387 8.96837 29.9244 8.94526 29.9187 8.92011C29.9129 8.89495 29.9158 8.86888 29.9272 8.84518C29.9386 8.82149 29.9578 8.80124 29.9825 8.78699C30.0071 8.77274 30.0362 8.76514 30.0658 8.76514C30.0955 8.76514 30.1245 8.77274 30.1492 8.78699C30.1739 8.80124 30.1931 8.82149 30.2045 8.84518C30.2158 8.86888 30.2188 8.89495 30.213 8.92011C30.2072 8.94526 30.1929 8.96837 30.172 8.98651C30.1581 8.99866 30.1416 9.00831 30.1234 9.01489C30.1051 9.02148 30.0856 9.02487 30.0658 9.02487C30.0461 9.02487 30.0265 9.02148 30.0083 9.01489C29.9901 9.00831 29.9736 8.99866 29.9597 8.98651Z" fill="url(#paint22_radial_490_1101)"/>
<path d="M28.1338 9.52406C28.1338 9.49419 28.144 9.465 28.1632 9.44016C28.1824 9.41533 28.2097 9.39597 28.2417 9.38454C28.2736 9.37311 28.3087 9.37012 28.3426 9.37595C28.3765 9.38178 28.4077 9.39616 28.4321 9.41728C28.4565 9.4384 28.4732 9.46531 28.4799 9.4946C28.4867 9.5239 28.4832 9.55426 28.47 9.58185C28.4567 9.60945 28.4344 9.63303 28.4056 9.64963C28.3769 9.66622 28.3431 9.67508 28.3085 9.67508C28.2856 9.67519 28.2628 9.67136 28.2415 9.66381C28.2203 9.65627 28.2009 9.64515 28.1847 9.6311C28.1684 9.61705 28.1556 9.60036 28.1468 9.58199C28.1381 9.56361 28.1337 9.54393 28.1338 9.52406Z" fill="url(#paint23_radial_490_1101)"/>
<path d="M28.1572 9.52361C28.1572 9.49779 28.1661 9.47255 28.1827 9.45108C28.1993 9.42961 28.2229 9.41288 28.2505 9.403C28.2781 9.39312 28.3084 9.39054 28.3377 9.39557C28.367 9.40061 28.394 9.41304 28.4151 9.4313C28.4362 9.44956 28.4506 9.47282 28.4564 9.49814C28.4623 9.52346 28.4593 9.54971 28.4478 9.57356C28.4364 9.59741 28.417 9.6178 28.3922 9.63215C28.3674 9.64649 28.3382 9.65414 28.3083 9.65414C28.2884 9.65426 28.2687 9.65096 28.2503 9.64444C28.2319 9.63792 28.2152 9.62831 28.2012 9.61616C28.1871 9.60402 28.176 9.58958 28.1685 9.57369C28.1609 9.5578 28.1571 9.54078 28.1572 9.52361Z" fill="url(#paint24_radial_490_1101)"/>
<path d="M26.5488 9.04617C26.6453 9.04617 26.7235 8.97856 26.7235 8.89516C26.7235 8.81175 26.6453 8.74414 26.5488 8.74414C26.4523 8.74414 26.374 8.81175 26.374 8.89516C26.374 8.97856 26.4523 9.04617 26.5488 9.04617Z" fill="url(#paint25_radial_490_1101)"/>
<path d="M26.5492 9.02548C26.6321 9.02548 26.6993 8.96742 26.6993 8.8958C26.6993 8.82418 26.6321 8.76611 26.5492 8.76611C26.4664 8.76611 26.3992 8.82418 26.3992 8.8958C26.3992 8.96742 26.4664 9.02548 26.5492 9.02548Z" fill="url(#paint26_radial_490_1101)"/>
<path d="M25.821 7.52664C25.9175 7.52664 25.9957 7.45903 25.9957 7.37563C25.9957 7.29222 25.9175 7.22461 25.821 7.22461C25.7245 7.22461 25.6462 7.29222 25.6462 7.37563C25.6462 7.45903 25.7245 7.52664 25.821 7.52664Z" fill="url(#paint27_radial_490_1101)"/>
<path d="M25.8212 7.50547C25.9041 7.50547 25.9713 7.4474 25.9713 7.37578C25.9713 7.30416 25.9041 7.24609 25.8212 7.24609C25.7383 7.24609 25.6711 7.30416 25.6711 7.37578C25.6711 7.4474 25.7383 7.50547 25.8212 7.50547Z" fill="url(#paint28_radial_490_1101)"/>
<path d="M26.6724 5.74924C26.6967 5.77025 26.7132 5.797 26.7199 5.82613C26.7266 5.85525 26.7232 5.88544 26.71 5.91287C26.6969 5.9403 26.6746 5.96375 26.646 5.98024C26.6174 5.99674 26.5838 6.00554 26.5495 6.00554C26.5151 6.00554 26.4815 5.99674 26.453 5.98024C26.4244 5.96375 26.4021 5.9403 26.389 5.91287C26.3758 5.88544 26.3724 5.85525 26.3791 5.82613C26.3858 5.797 26.4023 5.77025 26.4266 5.74924C26.4593 5.72126 26.5035 5.70557 26.5495 5.70557C26.5955 5.70557 26.6397 5.72126 26.6724 5.74924Z" fill="url(#paint29_radial_490_1101)"/>
<path d="M26.6556 5.76408C26.6766 5.78221 26.6909 5.80532 26.6967 5.83048C26.7024 5.85563 26.6995 5.88171 26.6881 5.9054C26.6767 5.92909 26.6575 5.94935 26.6328 5.96359C26.6082 5.97784 26.5792 5.98545 26.5495 5.98545C26.5198 5.98545 26.4908 5.97784 26.4661 5.96359C26.4414 5.94935 26.4222 5.92909 26.4108 5.9054C26.3995 5.88171 26.3965 5.85563 26.4023 5.83048C26.4081 5.80532 26.4224 5.78221 26.4433 5.76408C26.4573 5.75203 26.4738 5.74247 26.492 5.73595C26.5102 5.72943 26.5298 5.72607 26.5495 5.72607C26.5692 5.72607 26.5887 5.72943 26.6069 5.73595C26.6251 5.74247 26.6417 5.75203 26.6556 5.76408Z" fill="url(#paint30_radial_490_1101)"/>
<path d="M28.4818 5.22634C28.482 5.25628 28.4719 5.28559 28.4528 5.31056C28.4336 5.33552 28.4064 5.35501 28.3744 5.36654C28.3424 5.37808 28.3072 5.38114 28.2732 5.37534C28.2392 5.36954 28.208 5.35514 28.1835 5.33397C28.159 5.3128 28.1423 5.28581 28.1356 5.25644C28.1289 5.22707 28.1325 5.19663 28.1458 5.169C28.1592 5.14137 28.1817 5.1178 28.2106 5.10127C28.2395 5.08474 28.2734 5.07601 28.3081 5.07617C28.3541 5.07617 28.3983 5.09199 28.4309 5.12016C28.4635 5.14832 28.4818 5.18651 28.4818 5.22634Z" fill="url(#paint31_radial_490_1101)"/>
<path d="M28.3073 5.35752C28.3902 5.35752 28.4573 5.29945 28.4573 5.22783C28.4573 5.15621 28.3902 5.09814 28.3073 5.09814C28.2244 5.09814 28.1572 5.15621 28.1572 5.22783C28.1572 5.29945 28.2244 5.35752 28.3073 5.35752Z" fill="url(#paint32_radial_490_1101)"/>
<path d="M30.1884 5.96238C30.164 5.98325 30.1331 5.99742 30.0994 6.0031C30.0658 6.00879 30.0309 6.00574 29.9992 5.99433C29.9676 5.98293 29.9405 5.96368 29.9215 5.93902C29.9025 5.91435 29.8923 5.88537 29.8923 5.85573C29.8923 5.82609 29.9025 5.79711 29.9215 5.77244C29.9405 5.74778 29.9676 5.72853 29.9992 5.71712C30.0309 5.70572 30.0658 5.70267 30.0994 5.70836C30.1331 5.71404 30.164 5.72821 30.1884 5.74908C30.2047 5.76304 30.2176 5.77965 30.2265 5.79796C30.2353 5.81626 30.2398 5.8359 30.2398 5.85573C30.2398 5.87556 30.2353 5.8952 30.2265 5.9135C30.2176 5.93181 30.2047 5.94842 30.1884 5.96238Z" fill="url(#paint33_radial_490_1101)"/>
<path d="M30.1768 5.94791C30.1558 5.96592 30.129 5.97814 30.0999 5.98305C30.0709 5.98795 30.0408 5.98531 30.0134 5.97545C29.9861 5.9656 29.9628 5.94898 29.9463 5.92768C29.9299 5.90638 29.9211 5.88136 29.9211 5.85576C29.9211 5.83016 29.9299 5.80514 29.9463 5.78384C29.9628 5.76254 29.9861 5.74592 30.0134 5.73607C30.0408 5.72621 30.0709 5.72357 30.0999 5.72847C30.129 5.73338 30.1558 5.7456 30.1768 5.76362C30.205 5.78808 30.2209 5.82122 30.2209 5.85576C30.2209 5.8903 30.205 5.92344 30.1768 5.94791Z" fill="url(#paint34_radial_490_1101)"/>
<path d="M28.9925 7.53813C28.8314 7.67673 28.6265 7.77098 28.4035 7.809C28.1805 7.84701 27.9495 7.82709 27.7396 7.75173C27.5298 7.67638 27.3504 7.54898 27.2243 7.38561C27.0981 7.22224 27.0308 7.03023 27.0308 6.83382C27.0308 6.63741 27.0981 6.4454 27.2243 6.28203C27.3504 6.11866 27.5298 5.99126 27.7396 5.9159C27.9495 5.84055 28.1805 5.82062 28.4035 5.85864C28.6265 5.89666 28.8314 5.99091 28.9925 6.1295C29.2082 6.31647 29.3294 6.56976 29.3294 6.83382C29.3294 7.09788 29.2082 7.35117 28.9925 7.53813Z" fill="url(#paint35_radial_490_1101)"/>
<path d="M28.7743 8.76134C28.7199 8.80796 28.6508 8.83963 28.5756 8.85235C28.5004 8.86507 28.4225 8.85828 28.3518 8.83282C28.2811 8.80736 28.2207 8.76439 28.1782 8.7093C28.1357 8.65422 28.113 8.5895 28.113 8.5233C28.113 8.45709 28.1357 8.39237 28.1782 8.33729C28.2207 8.2822 28.2811 8.23923 28.3518 8.21377C28.4225 8.18831 28.5004 8.18152 28.5756 8.19424C28.6508 8.20696 28.7199 8.23863 28.7743 8.28525C28.8105 8.31648 28.8393 8.35358 28.8589 8.39443C28.8785 8.43528 28.8886 8.47907 28.8886 8.5233C28.8886 8.56752 28.8785 8.61131 28.8589 8.65216C28.8393 8.69301 28.8105 8.73011 28.7743 8.76134Z" fill="url(#paint36_radial_490_1101)"/>
<path d="M31.6785 8.84115C31.5719 8.93244 30.1828 7.88045 28.5756 6.49144C26.9684 5.10243 25.7511 3.90284 25.8567 3.80728C25.9624 3.71172 27.3524 4.76713 28.9596 6.15699C30.5669 7.54684 31.7841 8.74985 31.6785 8.84115Z" fill="url(#paint37_radial_490_1101)"/>
<path d="M25.8567 8.84146C25.7511 8.74931 26.9674 7.54886 28.5756 6.15986C30.1838 4.77085 31.5719 3.72227 31.6785 3.80759C31.7851 3.89291 30.5718 5.1036 28.9596 6.49261C27.3475 7.88161 25.9634 8.9336 25.8567 8.84146Z" fill="url(#paint38_radial_490_1101)"/>
<path d="M28.9555 6.3367C29.0457 4.98091 29.035 3.87767 28.9316 3.87253C28.8281 3.86739 28.6712 4.96231 28.581 6.31809C28.4908 7.67387 28.5016 8.77711 28.605 8.78225C28.7084 8.78739 28.8654 7.69248 28.9555 6.3367Z" fill="url(#paint39_radial_490_1101)"/>
<path d="M25.9317 6.18572C25.9386 6.09613 27.2151 6.08675 28.7829 6.16439C30.3506 6.24203 31.6182 6.37854 31.6123 6.46813C31.6064 6.55771 30.3289 6.5671 28.7611 6.4886C27.1934 6.41011 25.9208 6.27531 25.9317 6.18572Z" fill="url(#paint40_radial_490_1101)"/>
<path d="M28.7672 9.32002C30.6799 9.32002 32.2305 7.98 32.2305 6.327C32.2305 4.674 30.6799 3.33398 28.7672 3.33398C26.8545 3.33398 25.304 4.674 25.304 6.327C25.304 7.98 26.8545 9.32002 28.7672 9.32002Z" fill="url(#paint41_radial_490_1101)"/>
<path d="M23.4794 12.635C24.3616 12.635 25.0768 12.0169 25.0768 11.2545C25.0768 10.4921 24.3616 9.87402 23.4794 9.87402C22.5972 9.87402 21.8821 10.4921 21.8821 11.2545C21.8821 12.0169 22.5972 12.635 23.4794 12.635Z" fill="url(#paint42_linear_490_1101)"/>
<path d="M23.4796 12.586C24.3307 12.586 25.0206 11.9898 25.0206 11.2542C25.0206 10.5186 24.3307 9.92236 23.4796 9.92236C22.6284 9.92236 21.9385 10.5186 21.9385 11.2542C21.9385 11.9898 22.6284 12.586 23.4796 12.586Z" fill="url(#paint43_linear_490_1101)"/>
<path d="M23.4795 12.2891C24.1409 12.2891 24.677 11.8257 24.677 11.2542C24.677 10.6826 24.1409 10.2192 23.4795 10.2192C22.8181 10.2192 22.282 10.6826 22.282 11.2542C22.282 11.8257 22.8181 12.2891 23.4795 12.2891Z" fill="url(#paint44_linear_490_1101)"/>
<path d="M23.4791 12.2175C24.0947 12.2175 24.5937 11.7863 24.5937 11.2543C24.5937 10.7223 24.0947 10.291 23.4791 10.291C22.8635 10.291 22.3645 10.7223 22.3645 11.2543C22.3645 11.7863 22.8635 12.2175 23.4791 12.2175Z" fill="url(#paint45_radial_490_1101)"/>
<path d="M24.8458 11.3371C24.8263 11.3371 24.8072 11.3321 24.7909 11.3228C24.7747 11.3134 24.7621 11.3001 24.7546 11.2845C24.7471 11.2689 24.7452 11.2517 24.749 11.2352C24.7528 11.2186 24.7622 11.2034 24.776 11.1915C24.7898 11.1796 24.8074 11.1714 24.8265 11.1681C24.8457 11.1649 24.8655 11.1665 24.8836 11.173C24.9016 11.1795 24.917 11.1904 24.9279 11.2044C24.9387 11.2185 24.9445 11.2349 24.9445 11.2518C24.9445 11.2745 24.9341 11.2962 24.9156 11.3122C24.8971 11.3282 24.872 11.3371 24.8458 11.3371Z" fill="url(#paint46_radial_490_1101)"/>
<path d="M24.8456 11.3246C24.8348 11.3247 24.824 11.323 24.814 11.3195C24.8039 11.316 24.7948 11.3108 24.787 11.3042C24.7793 11.2976 24.7732 11.2897 24.769 11.2811C24.7649 11.2724 24.7627 11.2632 24.7627 11.2538C24.7614 11.2438 24.7626 11.2337 24.7662 11.2241C24.7697 11.2145 24.7756 11.2056 24.7834 11.1981C24.7912 11.1906 24.8007 11.1847 24.8113 11.1805C24.822 11.1764 24.8335 11.1743 24.8451 11.1743C24.8568 11.1743 24.8683 11.1764 24.879 11.1805C24.8896 11.1847 24.8991 11.1906 24.9069 11.1981C24.9147 11.2056 24.9205 11.2145 24.9241 11.2241C24.9277 11.2337 24.9288 11.2438 24.9276 11.2538C24.9276 11.2726 24.9189 11.2906 24.9036 11.3039C24.8882 11.3171 24.8674 11.3246 24.8456 11.3246Z" fill="url(#paint47_radial_490_1101)"/>
<path d="M24.4444 12.1704C24.4973 12.1704 24.5402 12.1334 24.5402 12.0876C24.5402 12.0419 24.4973 12.0049 24.4444 12.0049C24.3915 12.0049 24.3486 12.0419 24.3486 12.0876C24.3486 12.1334 24.3915 12.1704 24.4444 12.1704Z" fill="url(#paint48_radial_490_1101)"/>
<path d="M24.4443 12.1594C24.4901 12.1594 24.5272 12.1274 24.5272 12.0878C24.5272 12.0482 24.4901 12.0161 24.4443 12.0161C24.3985 12.0161 24.3613 12.0482 24.3613 12.0878C24.3613 12.1274 24.3985 12.1594 24.4443 12.1594Z" fill="url(#paint49_radial_490_1101)"/>
<path d="M23.384 12.4332C23.3894 12.4148 23.4017 12.3984 23.4191 12.3867C23.4364 12.375 23.4578 12.3687 23.4798 12.3687C23.5018 12.3687 23.5232 12.375 23.5405 12.3867C23.5579 12.3984 23.5702 12.4148 23.5756 12.4332C23.5702 12.4517 23.5579 12.4681 23.5405 12.4798C23.5232 12.4915 23.5018 12.4978 23.4798 12.4978C23.4578 12.4978 23.4364 12.4915 23.4191 12.4798C23.4017 12.4681 23.3894 12.4517 23.384 12.4332Z" fill="url(#paint50_radial_490_1101)"/>
<path d="M23.3965 12.4335C23.3967 12.4145 23.4056 12.3964 23.4211 12.3831C23.4366 12.3697 23.4575 12.362 23.4794 12.3618C23.5012 12.362 23.5221 12.3697 23.5374 12.3831C23.5528 12.3965 23.5614 12.4146 23.5614 12.4335C23.5614 12.4523 23.5527 12.4703 23.5374 12.4836C23.522 12.4968 23.5011 12.5043 23.4794 12.5043C23.4576 12.5043 23.4366 12.4969 23.4211 12.4836C23.4056 12.4704 23.3967 12.4523 23.3965 12.4335Z" fill="url(#paint51_radial_490_1101)"/>
<path d="M22.514 12.1704C22.5669 12.1704 22.6097 12.1334 22.6097 12.0876C22.6097 12.0419 22.5669 12.0049 22.514 12.0049C22.4611 12.0049 22.4182 12.0419 22.4182 12.0876C22.4182 12.1334 22.4611 12.1704 22.514 12.1704Z" fill="url(#paint52_radial_490_1101)"/>
<path d="M22.5138 12.1594C22.5596 12.1594 22.5968 12.1274 22.5968 12.0878C22.5968 12.0482 22.5596 12.0161 22.5138 12.0161C22.468 12.0161 22.4309 12.0482 22.4309 12.0878C22.4309 12.1274 22.468 12.1594 22.5138 12.1594Z" fill="url(#paint53_radial_490_1101)"/>
<path d="M22.1151 11.1714C22.1346 11.1714 22.1537 11.1764 22.1699 11.1858C22.1862 11.1951 22.1988 11.2085 22.2063 11.2241C22.2138 11.2396 22.2157 11.2568 22.2119 11.2734C22.2081 11.2899 22.1987 11.3051 22.1849 11.317C22.1711 11.329 22.1535 11.3371 22.1343 11.3404C22.1152 11.3437 22.0953 11.342 22.0773 11.3355C22.0593 11.3291 22.0438 11.3181 22.033 11.3041C22.0221 11.2901 22.0164 11.2736 22.0164 11.2567C22.0164 11.2341 22.0268 11.2124 22.0453 11.1964C22.0638 11.1804 22.0889 11.1714 22.1151 11.1714Z" fill="url(#paint54_radial_490_1101)"/>
<path d="M22.1154 11.1826C22.1373 11.1828 22.1583 11.1905 22.1738 11.2039C22.1893 11.2172 22.1981 11.2353 22.1983 11.2543C22.1983 11.2733 22.1896 11.2915 22.174 11.305C22.1585 11.3184 22.1374 11.326 22.1154 11.326C22.0934 11.326 22.0723 11.3184 22.0568 11.305C22.0412 11.2915 22.0325 11.2733 22.0325 11.2543C22.0327 11.2353 22.0415 11.2172 22.057 11.2039C22.0725 11.1905 22.0935 11.1828 22.1154 11.1826Z" fill="url(#paint55_radial_490_1101)"/>
<path d="M22.5819 10.3615C22.5963 10.3733 22.6063 10.3884 22.6106 10.4051C22.6149 10.4218 22.6133 10.4392 22.606 10.4551C22.5987 10.471 22.5861 10.4847 22.5697 10.4943C22.5534 10.5039 22.534 10.509 22.5143 10.509C22.4945 10.509 22.4751 10.5039 22.4588 10.4943C22.4424 10.4847 22.4298 10.471 22.4225 10.4551C22.4152 10.4392 22.4136 10.4218 22.4179 10.4051C22.4222 10.3884 22.4322 10.3733 22.4466 10.3615C22.4649 10.3467 22.4891 10.3384 22.5143 10.3384C22.5394 10.3384 22.5636 10.3467 22.5819 10.3615Z" fill="url(#paint56_radial_490_1101)"/>
<path d="M22.5751 10.3706C22.5902 10.3841 22.5986 10.4021 22.5986 10.4209C22.5986 10.4397 22.5902 10.4577 22.5751 10.4713C22.5636 10.4811 22.549 10.4878 22.5332 10.4904C22.5173 10.4931 22.5008 10.4916 22.4859 10.4863C22.471 10.4809 22.4583 10.4718 22.4493 10.4602C22.4403 10.4485 22.4355 10.4349 22.4355 10.4209C22.4355 10.4069 22.4403 10.3933 22.4493 10.3816C22.4583 10.37 22.471 10.3609 22.4859 10.3556C22.5008 10.3502 22.5173 10.3487 22.5332 10.3514C22.549 10.3541 22.5636 10.3607 22.5751 10.3706Z" fill="url(#paint57_radial_490_1101)"/>
<path d="M23.4798 10.1587C23.5327 10.1587 23.5756 10.1216 23.5756 10.0759C23.5756 10.0302 23.5327 9.99316 23.4798 9.99316C23.4269 9.99316 23.384 10.0302 23.384 10.0759C23.384 10.1216 23.4269 10.1587 23.4798 10.1587Z" fill="url(#paint58_radial_490_1101)"/>
<path d="M23.4794 10.1482C23.5252 10.1482 23.5623 10.1161 23.5623 10.0766C23.5623 10.037 23.5252 10.0049 23.4794 10.0049C23.4336 10.0049 23.3965 10.037 23.3965 10.0766C23.3965 10.1161 23.4336 10.1482 23.4794 10.1482Z" fill="url(#paint59_radial_490_1101)"/>
<path d="M24.5112 10.4789C24.4929 10.4938 24.4687 10.5021 24.4435 10.5021C24.4184 10.5021 24.3942 10.4938 24.3759 10.4789C24.3587 10.4631 24.3491 10.4422 24.3491 10.4205C24.3491 10.3987 24.3587 10.3778 24.3759 10.362C24.3948 10.3524 24.4168 10.3484 24.4386 10.3508C24.4603 10.3531 24.4805 10.3617 24.496 10.3751C24.5115 10.3885 24.5214 10.406 24.5242 10.4248C24.5269 10.4435 24.5223 10.4626 24.5112 10.4789Z" fill="url(#paint60_radial_490_1101)"/>
<path d="M24.5021 10.4713C24.4906 10.4811 24.476 10.4878 24.4602 10.4904C24.4443 10.4931 24.4279 10.4916 24.4129 10.4863C24.398 10.4809 24.3853 10.4718 24.3763 10.4602C24.3673 10.4485 24.3625 10.4349 24.3625 10.4209C24.3625 10.4069 24.3673 10.3933 24.3763 10.3816C24.3853 10.37 24.398 10.3609 24.4129 10.3556C24.4279 10.3502 24.4443 10.3487 24.4602 10.3514C24.476 10.3541 24.4906 10.3607 24.5021 10.3706C24.5098 10.3772 24.5159 10.385 24.5201 10.3936C24.5243 10.4023 24.5264 10.4115 24.5264 10.4209C24.5264 10.4303 24.5243 10.4395 24.5201 10.4482C24.5159 10.4568 24.5098 10.4647 24.5021 10.4713Z" fill="url(#paint61_radial_490_1101)"/>
<path d="M23.8588 11.3432C23.7707 11.4199 23.6584 11.4723 23.5358 11.4936C23.4133 11.515 23.2862 11.5045 23.1706 11.4634C23.0551 11.4222 22.9562 11.3524 22.8867 11.2626C22.8172 11.1729 22.78 11.0673 22.78 10.9593C22.78 10.8512 22.8172 10.7457 22.8867 10.6559C22.9562 10.5662 23.0551 10.4963 23.1706 10.4551C23.2862 10.414 23.4133 10.4035 23.5358 10.4249C23.6584 10.4463 23.7707 10.4986 23.8588 10.5753C23.976 10.6774 24.0417 10.8154 24.0417 10.9593C24.0417 11.1031 23.976 11.2411 23.8588 11.3432Z" fill="url(#paint62_radial_490_1101)"/>
<path d="M23.7351 12.014C23.7053 12.0398 23.6673 12.0572 23.6259 12.0643C23.5846 12.0714 23.5417 12.0677 23.5028 12.0537C23.4639 12.0397 23.4306 12.0161 23.4072 11.9858C23.3838 11.9555 23.3713 11.9199 23.3713 11.8835C23.3713 11.8471 23.3838 11.8115 23.4072 11.7812C23.4306 11.7509 23.4639 11.7273 23.5028 11.7133C23.5417 11.6993 23.5846 11.6957 23.6259 11.7027C23.6673 11.7098 23.7053 11.7273 23.7351 11.753C23.755 11.7701 23.7708 11.7904 23.7815 11.8128C23.7923 11.8352 23.7978 11.8593 23.7978 11.8835C23.7978 11.9078 23.7923 11.9318 23.7815 11.9542C23.7708 11.9766 23.755 11.9969 23.7351 12.014Z" fill="url(#paint63_radial_490_1101)"/>
<path d="M25.3288 12.0586C25.2706 12.1089 24.5084 11.5321 23.6268 10.7694C22.7452 10.0066 22.0818 9.35308 22.1351 9.29848C22.1884 9.24387 22.9555 9.8249 23.8371 10.5877C24.7187 11.3504 25.3871 12.0082 25.3288 12.0586Z" fill="url(#paint64_radial_490_1101)"/>
<path d="M22.1346 12.059C22.0764 12.0087 22.7438 11.35 23.6264 10.5881C24.509 9.82623 25.2701 9.24862 25.3284 9.29895C25.3866 9.34929 24.7193 10.008 23.8367 10.7699C22.9541 11.5318 22.1929 12.1094 22.1346 12.059Z" fill="url(#paint65_radial_490_1101)"/>
<path d="M23.6427 12.0256C23.5854 12.0256 23.5795 11.4173 23.6289 10.6733C23.6782 9.92928 23.7641 9.32948 23.8263 9.33204C23.8885 9.3346 23.8895 9.94037 23.8401 10.6835C23.7908 11.4266 23.699 12.0281 23.6427 12.0256Z" fill="url(#paint66_radial_490_1101)"/>
<path d="M22.1733 10.6019C22.1733 10.5524 22.8773 10.5473 23.7371 10.5899C24.597 10.6326 25.293 10.7077 25.2901 10.7563C25.2871 10.8049 24.5862 10.8109 23.7253 10.7682C22.8644 10.7256 22.1704 10.6505 22.1733 10.6019Z" fill="url(#paint67_radial_490_1101)"/>
<path d="M23.7312 12.3207C24.7803 12.3207 25.6307 11.5858 25.6307 10.6792C25.6307 9.77255 24.7803 9.0376 23.7312 9.0376C22.6822 9.0376 21.8318 9.77255 21.8318 10.6792C21.8318 11.5858 22.6822 12.3207 23.7312 12.3207Z" fill="url(#paint68_radial_490_1101)"/>
<path opacity="0.23" d="M27.8077 5.08707L26.8106 4.22363C24.4461 5.75939 21.7036 7.95808 18.6846 11.0885L19.9097 12.1481C19.9097 12.1481 22.7283 8.6321 27.8077 5.08707Z" fill="white"/>
<path opacity="0.23" d="M29.3492 3.28073L28.9543 2.93945C28.7263 3.06317 28.4933 3.19541 28.2563 3.33192L28.7095 3.72269C28.9351 3.58929 29.149 3.44157 29.3492 3.28073Z" fill="white"/>
<path opacity="0.23" d="M29.5374 3.44336C29.3375 3.6042 29.124 3.75193 28.8987 3.88532L29.2008 4.14895C29.419 4.00818 29.6391 3.8674 29.8642 3.72833L29.5374 3.44336Z" fill="white"/>
<path opacity="0.23" d="M28.6766 4.01855C28.4436 4.15848 28.2096 4.29755 27.9915 4.45369C28.0971 4.54839 28.2027 4.64224 28.3054 4.73865C28.5279 4.58735 28.7546 4.43634 28.9856 4.28561L28.6766 4.01855Z" fill="white"/>
<path opacity="0.23" d="M28.4883 3.85573L28.0342 3.46582C27.8061 3.60063 27.5741 3.74055 27.3372 3.89242C27.4938 4.02609 27.6498 4.16032 27.8051 4.29513C28.0223 4.13302 28.2553 3.99395 28.4883 3.85573Z" fill="white"/>
<path style="mix-blend-mode:screen" opacity="0.23" d="M30.1661 3.54064C31.9892 2.4254 33.9179 1.44502 35.9316 0.609904C35.9316 0.609904 33.4418 0.572363 29.2747 2.7702L30.1661 3.54064Z" fill="url(#paint69_linear_490_1101)"/>
<path d="M11.8703 18.4194L15.6929 21.723L14.7955 22.2648L11.2434 19.195L11.8703 18.4194Z" fill="url(#paint70_radial_490_1101)"/>
<path d="M13.7213 20.0199L12.959 20.6787L13.0784 20.7819L13.8407 20.1231L13.7213 20.0199Z" fill="#5E5E5E"/>
<path d="M13.637 21.2644L13.7683 21.3779L14.6311 20.8054L14.4998 20.6919L13.637 21.2644Z" fill="#5E5E5E"/>
<path d="M15.2195 21.3145L14.3577 21.8861L14.489 21.9996L15.3508 21.4271L15.2195 21.3145Z" fill="#5E5E5E"/>
<path d="M12.9329 19.3379L12.2705 20.0836L12.4018 20.1971L13.0643 19.4514L12.9329 19.3379Z" fill="#5E5E5E"/>
<path d="M12.2132 18.7153L11.5508 19.461L11.6821 19.5736L12.3435 18.8288L12.2132 18.7153Z" fill="#5E5E5E"/>
<defs>
<linearGradient id="paint0_linear_490_1101" x1="6.29041" y1="31.9993" x2="15.7936" y2="21.003" gradientUnits="userSpaceOnUse">
<stop stop-color="white"/>
<stop offset="0.07" stop-color="#FFFCF2"/>
<stop offset="0.21" stop-color="#FFF4D1"/>
<stop offset="0.4" stop-color="#FEE89B"/>
<stop offset="0.62" stop-color="#FED751"/>
<stop offset="0.81" stop-color="#FDC70C"/>
<stop offset="0.92" stop-color="#ED683C"/>
<stop offset="1" stop-color="#E93E3A"/>
</linearGradient>
<radialGradient id="paint1_radial_490_1101" cx="0" cy="0" r="1" gradientUnits="userSpaceOnUse" gradientTransform="translate(12.5577 26.5874) rotate(139.166) scale(8.24548 2.68223)">
<stop stop-color="#E93E3A"/>
<stop offset="0.11" stop-color="#ED683C"/>
<stop offset="0.36" stop-color="#FDC70C"/>
<stop offset="0.51" stop-color="#FED751"/>
<stop offset="0.69" stop-color="#FEE89B"/>
<stop offset="0.83" stop-color="#FFF4D1"/>
<stop offset="0.94" stop-color="#FFFCF2"/>
<stop offset="1" stop-color="white"/>
</radialGradient>
<linearGradient id="paint2_linear_490_1101" x1="0.000142378" y1="26.5625" x2="9.50335" y2="15.5662" gradientUnits="userSpaceOnUse">
<stop stop-color="white"/>
<stop offset="0.07" stop-color="#FFFCF2"/>
<stop offset="0.21" stop-color="#FFF4D1"/>
<stop offset="0.4" stop-color="#FEE89B"/>
<stop offset="0.62" stop-color="#FED751"/>
<stop offset="0.81" stop-color="#FDC70C"/>
<stop offset="0.92" stop-color="#ED683C"/>
<stop offset="1" stop-color="#E93E3A"/>
</linearGradient>
<radialGradient id="paint3_radial_490_1101" cx="0" cy="0" r="1" gradientUnits="userSpaceOnUse" gradientTransform="translate(6.27021 21.1481) rotate(139.166) scale(8.24548 2.68223)">
<stop stop-color="#E93E3A"/>
<stop offset="0.11" stop-color="#ED683C"/>
<stop offset="0.36" stop-color="#FDC70C"/>
<stop offset="0.51" stop-color="#FED751"/>
<stop offset="0.69" stop-color="#FEE89B"/>
<stop offset="0.83" stop-color="#FFF4D1"/>
<stop offset="0.94" stop-color="#FFFCF2"/>
<stop offset="1" stop-color="white"/>
</radialGradient>
<linearGradient id="paint4_linear_490_1101" x1="1.58886" y1="30.6327" x2="12.0782" y2="18.4954" gradientUnits="userSpaceOnUse">
<stop stop-color="white"/>
<stop offset="0.07" stop-color="#FFFCF2"/>
<stop offset="0.21" stop-color="#FFF4D1"/>
<stop offset="0.4" stop-color="#FEE89B"/>
<stop offset="0.62" stop-color="#FED751"/>
<stop offset="0.81" stop-color="#FDC70C"/>
<stop offset="0.92" stop-color="#ED683C"/>
<stop offset="1" stop-color="#E93E3A"/>
</linearGradient>
<radialGradient id="paint5_radial_490_1101" cx="0" cy="0" r="1" gradientUnits="userSpaceOnUse" gradientTransform="translate(8.5124 24.661) rotate(139.166) scale(9.10087 2.59043)">
<stop stop-color="#E93E3A"/>
<stop offset="0.11" stop-color="#ED683C"/>
<stop offset="0.36" stop-color="#FDC70C"/>
<stop offset="0.51" stop-color="#FED751"/>
<stop offset="0.69" stop-color="#FEE89B"/>
<stop offset="0.83" stop-color="#FFF4D1"/>
<stop offset="0.94" stop-color="#FFFCF2"/>
<stop offset="1" stop-color="white"/>
</radialGradient>
<radialGradient id="paint6_radial_490_1101" cx="0" cy="0" r="1" gradientUnits="userSpaceOnUse" gradientTransform="translate(16.7674 22.583) rotate(40.8343) scale(3.18038 3.34768)">
<stop stop-color="#D4D4D4"/>
<stop offset="0.14" stop-color="#CFCFCF"/>
<stop offset="0.29" stop-color="#C2C2C2"/>
<stop offset="0.45" stop-color="#ABABAB"/>
<stop offset="0.62" stop-color="#8C8C8C"/>
<stop offset="0.79" stop-color="#646464"/>
<stop offset="0.83" stop-color="#595959"/>
<stop offset="0.9" stop-color="#5B5B5B"/>
<stop offset="0.94" stop-color="#636363"/>
<stop offset="0.97" stop-color="#717171"/>
<stop offset="0.99" stop-color="#848484"/>
<stop offset="1" stop-color="#8C8C8C"/>
</radialGradient>
<radialGradient id="paint7_radial_490_1101" cx="0" cy="0" r="1" gradientUnits="userSpaceOnUse" gradientTransform="translate(10.0567 16.7832) rotate(40.8343) scale(3.18038 3.34768)">
<stop stop-color="#D4D4D4"/>
<stop offset="0.14" stop-color="#CFCFCF"/>
<stop offset="0.29" stop-color="#C2C2C2"/>
<stop offset="0.45" stop-color="#ABABAB"/>
<stop offset="0.62" stop-color="#8C8C8C"/>
<stop offset="0.79" stop-color="#646464"/>
<stop offset="0.83" stop-color="#595959"/>
<stop offset="0.9" stop-color="#5B5B5B"/>
<stop offset="0.94" stop-color="#636363"/>
<stop offset="0.97" stop-color="#717171"/>
<stop offset="0.99" stop-color="#848484"/>
<stop offset="1" stop-color="#8C8C8C"/>
</radialGradient>
<radialGradient id="paint8_radial_490_1101" cx="0" cy="0" r="1" gradientUnits="userSpaceOnUse" gradientTransform="translate(22.8171 7.94314) rotate(138.366) scale(20.1625 8.32328)">
<stop stop-color="#F2F2F2"/>
<stop offset="0.13" stop-color="#EDEDED"/>
<stop offset="0.22" stop-color="#E7E7E7"/>
<stop offset="0.33" stop-color="#D6D6D6"/>
<stop offset="0.46" stop-color="#BABABA"/>
<stop offset="0.6" stop-color="#939393"/>
<stop offset="0.75" stop-color="#626262"/>
<stop offset="0.77" stop-color="#595959"/>
<stop offset="0.83" stop-color="#5B5B5B"/>
<stop offset="0.86" stop-color="#636363"/>
<stop offset="0.88" stop-color="#717171"/>
<stop offset="0.9" stop-color="#848484"/>
<stop offset="0.92" stop-color="#9D9D9D"/>
<stop offset="0.93" stop-color="#BBBBBB"/>
<stop offset="0.95" stop-color="#E5E5E5"/>
<stop offset="0.96" stop-color="#DBDBDB"/>
<stop offset="0.97" stop-color="#BFBFBF"/>
<stop offset="0.99" stop-color="#939393"/>
<stop offset="1" stop-color="#7F7F7F"/>
</radialGradient>
<radialGradient id="paint9_radial_490_1101" cx="0" cy="0" r="1" gradientUnits="userSpaceOnUse" gradientTransform="translate(32.6412 2.51521) rotate(126.644) scale(8.52581 4.28807)">
<stop stop-color="#D1000E"/>
<stop offset="0.14" stop-color="#CC000E"/>
<stop offset="0.29" stop-color="#BF010E"/>
<stop offset="0.46" stop-color="#A8020D"/>
<stop offset="0.63" stop-color="#89040C"/>
<stop offset="0.8" stop-color="#61060B"/>
<stop offset="0.83" stop-color="#59060B"/>
<stop offset="0.9" stop-color="#5B060B"/>
<stop offset="0.94" stop-color="#63050B"/>
<stop offset="0.97" stop-color="#71050B"/>
<stop offset="0.99" stop-color="#84030C"/>
<stop offset="1" stop-color="#8C030C"/>
</radialGradient>
<radialGradient id="paint10_radial_490_1101" cx="0" cy="0" r="1" gradientUnits="userSpaceOnUse" gradientTransform="translate(24.3021 17.6234) rotate(139.166) scale(9.03282 4.02187)">
<stop stop-color="#D1000E"/>
<stop offset="0.14" stop-color="#CC000E"/>
<stop offset="0.29" stop-color="#BF010E"/>
<stop offset="0.46" stop-color="#A8020D"/>
<stop offset="0.63" stop-color="#89040C"/>
<stop offset="0.8" stop-color="#61060B"/>
<stop offset="0.83" stop-color="#59060B"/>
<stop offset="0.9" stop-color="#5B060B"/>
<stop offset="0.94" stop-color="#63050B"/>
<stop offset="0.97" stop-color="#71050B"/>
<stop offset="0.99" stop-color="#84030C"/>
<stop offset="1" stop-color="#8C030C"/>
</radialGradient>
<radialGradient id="paint11_radial_490_1101" cx="0" cy="0" r="1" gradientUnits="userSpaceOnUse" gradientTransform="translate(17.0256 11.9877) rotate(118.514) scale(2.9022 2.27841)">
<stop stop-color="#231F20"/>
<stop offset="1" stop-color="white" stop-opacity="0"/>
</radialGradient>
<radialGradient id="paint12_radial_490_1101" cx="0" cy="0" r="1" gradientUnits="userSpaceOnUse" gradientTransform="translate(20.7639 16.4735) rotate(100.649) scale(4.09239 2.56059)">
<stop stop-color="#231F20"/>
<stop offset="1" stop-color="white" stop-opacity="0"/>
</radialGradient>
<radialGradient id="paint13_radial_490_1101" cx="0" cy="0" r="1" gradientUnits="userSpaceOnUse" gradientTransform="translate(16.8318 11.1907) rotate(139.166) scale(9.11771 4.14988)">
<stop stop-color="#D1000E"/>
<stop offset="0.14" stop-color="#CC000E"/>
<stop offset="0.29" stop-color="#BF010E"/>
<stop offset="0.46" stop-color="#A8020D"/>
<stop offset="0.63" stop-color="#89040C"/>
<stop offset="0.8" stop-color="#61060B"/>
<stop offset="0.83" stop-color="#59060B"/>
<stop offset="0.9" stop-color="#5B060B"/>
<stop offset="0.94" stop-color="#63050B"/>
<stop offset="0.97" stop-color="#71050B"/>
<stop offset="0.99" stop-color="#84030C"/>
<stop offset="1" stop-color="#8C030C"/>
</radialGradient>
<radialGradient id="paint14_radial_490_1101" cx="0" cy="0" r="1" gradientUnits="userSpaceOnUse" gradientTransform="translate(20.6645 14.3377) rotate(139.166) scale(10.1991 4.44023)">
<stop stop-color="#D1000E"/>
<stop offset="0.14" stop-color="#CC000E"/>
<stop offset="0.29" stop-color="#BF010E"/>
<stop offset="0.46" stop-color="#A8020D"/>
<stop offset="0.63" stop-color="#89040C"/>
<stop offset="0.8" stop-color="#61060B"/>
<stop offset="0.83" stop-color="#59060B"/>
<stop offset="0.9" stop-color="#5B060B"/>
<stop offset="0.94" stop-color="#63050B"/>
<stop offset="0.97" stop-color="#71050B"/>
<stop offset="0.99" stop-color="#84030C"/>
<stop offset="1" stop-color="#8C030C"/>
</radialGradient>
<linearGradient id="paint15_linear_490_1101" x1="30.9624" y1="5.76803" x2="26.3069" y2="9.56435" gradientUnits="userSpaceOnUse">
<stop stop-color="white"/>
<stop offset="1" stop-color="#4D4B4B"/>
</linearGradient>
<linearGradient id="paint16_linear_490_1101" x1="28.307" y1="4.94775" x2="28.307" y2="9.8033" gradientUnits="userSpaceOnUse">
<stop stop-color="white"/>
<stop offset="1" stop-color="#4D4B4B"/>
</linearGradient>
<linearGradient id="paint17_linear_490_1101" x1="26.4661" y1="8.41707" x2="29.7954" y2="5.89617" gradientUnits="userSpaceOnUse">
<stop stop-color="white"/>
<stop offset="1" stop-color="#4D4B4B"/>
</linearGradient>
<radialGradient id="paint18_radial_490_1101" cx="0" cy="0" r="1" gradientUnits="userSpaceOnUse" gradientTransform="translate(28.3075 7.37557) rotate(90) scale(1.75588 2.03175)">
<stop stop-color="#42A7FF"/>
<stop offset="0.16" stop-color="#41A3FA"/>
<stop offset="0.35" stop-color="#3D96ED"/>
<stop offset="0.54" stop-color="#3880D6"/>
<stop offset="0.74" stop-color="#2F62B7"/>
<stop offset="0.94" stop-color="#253C8F"/>
<stop offset="1" stop-color="#223082"/>
</radialGradient>
<radialGradient id="paint19_radial_490_1101" cx="0" cy="0" r="1" gradientUnits="userSpaceOnUse" gradientTransform="translate(30.6715 7.4746) rotate(90) scale(0.309711 0.35837)">
<stop stop-color="white"/>
<stop offset="1" stop-color="#6C6A6A"/>
</radialGradient>
<radialGradient id="paint20_radial_490_1101" cx="0" cy="0" r="1" gradientUnits="userSpaceOnUse" gradientTransform="translate(30.7941 7.37578) rotate(90) scale(0.129686 0.150061)">
<stop stop-color="white"/>
<stop offset="1" stop-color="#6C6A6A"/>
</radialGradient>
<radialGradient id="paint21_radial_490_1101" cx="0" cy="0" r="1" gradientUnits="userSpaceOnUse" gradientTransform="translate(29.8981 8.89111) rotate(139.165) scale(0.334923 0.331389)">
<stop stop-color="white"/>
<stop offset="1" stop-color="#6C6A6A"/>
</radialGradient>
<radialGradient id="paint22_radial_490_1101" cx="0" cy="0" r="1" gradientUnits="userSpaceOnUse" gradientTransform="translate(30.0656 8.89722) rotate(139.166) scale(0.140244 0.138764)">
<stop stop-color="white"/>
<stop offset="1" stop-color="#6C6A6A"/>
</radialGradient>
<radialGradient id="paint23_radial_490_1101" cx="0" cy="0" r="1" gradientUnits="userSpaceOnUse" gradientTransform="translate(28.194 9.41827) rotate(180) scale(0.358369 0.309711)">
<stop stop-color="white"/>
<stop offset="1" stop-color="#6C6A6A"/>
</radialGradient>
<radialGradient id="paint24_radial_490_1101" cx="0" cy="0" r="1" gradientUnits="userSpaceOnUse" gradientTransform="translate(28.3083 9.52361) rotate(180) scale(0.150062 0.129686)">
<stop stop-color="white"/>
<stop offset="1" stop-color="#6C6A6A"/>
</radialGradient>
<radialGradient id="paint25_radial_490_1101" cx="0" cy="0" r="1" gradientUnits="userSpaceOnUse" gradientTransform="translate(26.5531 8.75242) rotate(-139.166) scale(0.334925 0.33139)">
<stop stop-color="white"/>
<stop offset="1" stop-color="#6C6A6A"/>
</radialGradient>
<radialGradient id="paint26_radial_490_1101" cx="0" cy="0" r="1" gradientUnits="userSpaceOnUse" gradientTransform="translate(26.548 8.89785) rotate(-139.166) scale(0.140244 0.138764)">
<stop stop-color="white"/>
<stop offset="1" stop-color="#6C6A6A"/>
</radialGradient>
<radialGradient id="paint27_radial_490_1101" cx="0" cy="0" r="1" gradientUnits="userSpaceOnUse" gradientTransform="translate(25.9434 7.27751) rotate(-90) scale(0.309711 0.35837)">
<stop stop-color="white"/>
<stop offset="1" stop-color="#6C6A6A"/>
</radialGradient>
<radialGradient id="paint28_radial_490_1101" cx="0" cy="0" r="1" gradientUnits="userSpaceOnUse" gradientTransform="translate(25.8202 7.37578) rotate(-90) scale(0.129686 0.150061)">
<stop stop-color="white"/>
<stop offset="1" stop-color="#6C6A6A"/>
</radialGradient>
<radialGradient id="paint29_radial_490_1101" cx="0" cy="0" r="1" gradientUnits="userSpaceOnUse" gradientTransform="translate(26.7162 5.86149) rotate(-40.8342) scale(0.334926 0.331391)">
<stop stop-color="white"/>
<stop offset="1" stop-color="#6C6A6A"/>
</radialGradient>
<radialGradient id="paint30_radial_490_1101" cx="0" cy="0" r="1" gradientUnits="userSpaceOnUse" gradientTransform="translate(26.548 5.85639) rotate(-40.8342) scale(0.140244 0.138764)">
<stop stop-color="white"/>
<stop offset="1" stop-color="#6C6A6A"/>
</radialGradient>
<radialGradient id="paint31_radial_490_1101" cx="0" cy="0" r="1" gradientUnits="userSpaceOnUse" gradientTransform="translate(28.4216 5.33213) scale(0.358371 0.309711)">
<stop stop-color="white"/>
<stop offset="1" stop-color="#6C6A6A"/>
</radialGradient>
<radialGradient id="paint32_radial_490_1101" cx="0" cy="0" r="1" gradientUnits="userSpaceOnUse" gradientTransform="translate(28.3083 5.22783) scale(0.150061 0.129686)">
<stop stop-color="white"/>
<stop offset="1" stop-color="#6C6A6A"/>
</radialGradient>
<radialGradient id="paint33_radial_490_1101" cx="0" cy="0" r="1" gradientUnits="userSpaceOnUse" gradientTransform="translate(30.0589 6.00065) rotate(40.8346) scale(0.334922 0.331388)">
<stop stop-color="white"/>
<stop offset="1" stop-color="#6C6A6A"/>
</radialGradient>
<radialGradient id="paint34_radial_490_1101" cx="0" cy="0" r="1" gradientUnits="userSpaceOnUse" gradientTransform="translate(30.0647 5.85589) rotate(40.8344) scale(0.140244 0.138764)">
<stop stop-color="white"/>
<stop offset="1" stop-color="#6C6A6A"/>
</radialGradient>
<radialGradient id="paint35_radial_490_1101" cx="0" cy="0" r="1" gradientUnits="userSpaceOnUse" gradientTransform="translate(27.6333 5.65895) rotate(40.8343) scale(3.29296 3.25821)">
<stop stop-color="white" stop-opacity="0.53"/>
<stop offset="0.22" stop-color="white" stop-opacity="0.39"/>
<stop offset="0.58" stop-color="white" stop-opacity="0.18"/>
<stop offset="0.85" stop-color="white" stop-opacity="0.05"/>
<stop offset="1" stop-color="white" stop-opacity="0"/>
</radialGradient>
<radialGradient id="paint36_radial_490_1101" cx="0" cy="0" r="1" gradientUnits="userSpaceOnUse" gradientTransform="translate(28.316 8.12618) rotate(40.8343) scale(1.11273 1.10098)">
<stop stop-color="white" stop-opacity="0.53"/>
<stop offset="0.22" stop-color="white" stop-opacity="0.39"/>
<stop offset="0.58" stop-color="white" stop-opacity="0.18"/>
<stop offset="0.85" stop-color="white" stop-opacity="0.05"/>
<stop offset="1" stop-color="white" stop-opacity="0"/>
</radialGradient>
<radialGradient id="paint37_radial_490_1101" cx="0" cy="0" r="1" gradientUnits="userSpaceOnUse" gradientTransform="translate(30.458 4.82857) rotate(40.8343) scale(3.75891 0.260347)">
<stop stop-color="white" stop-opacity="0.53"/>
<stop offset="0.22" stop-color="white" stop-opacity="0.39"/>
<stop offset="0.58" stop-color="white" stop-opacity="0.18"/>
<stop offset="0.85" stop-color="white" stop-opacity="0.05"/>
<stop offset="1" stop-color="white" stop-opacity="0"/>
</radialGradient>
<radialGradient id="paint38_radial_490_1101" cx="0" cy="0" r="1" gradientUnits="userSpaceOnUse" gradientTransform="translate(26.1409 4.01999) rotate(139.166) scale(3.75891 0.260347)">
<stop stop-color="white" stop-opacity="0.53"/>
<stop offset="0.22" stop-color="white" stop-opacity="0.39"/>
<stop offset="0.58" stop-color="white" stop-opacity="0.18"/>
<stop offset="0.85" stop-color="white" stop-opacity="0.05"/>
<stop offset="1" stop-color="white" stop-opacity="0"/>
</radialGradient>
<radialGradient id="paint39_radial_490_1101" cx="0" cy="0" r="1" gradientUnits="userSpaceOnUse" gradientTransform="translate(27.6386 6.25247) rotate(93.8055) scale(2.40224 0.194358)">
<stop stop-color="white" stop-opacity="0.53"/>
<stop offset="0.22" stop-color="white" stop-opacity="0.39"/>
<stop offset="0.58" stop-color="white" stop-opacity="0.18"/>
<stop offset="0.85" stop-color="white" stop-opacity="0.05"/>
<stop offset="1" stop-color="white" stop-opacity="0"/>
</radialGradient>
<radialGradient id="paint40_radial_490_1101" cx="0" cy="0" r="1" gradientUnits="userSpaceOnUse" gradientTransform="translate(24.3906 2.21735) rotate(-177.032) scale(2.78183 0.167837)">
<stop stop-color="white" stop-opacity="0.53"/>
<stop offset="0.22" stop-color="white" stop-opacity="0.39"/>
<stop offset="0.58" stop-color="white" stop-opacity="0.18"/>
<stop offset="0.85" stop-color="white" stop-opacity="0.05"/>
<stop offset="1" stop-color="white" stop-opacity="0"/>
</radialGradient>
<radialGradient id="paint41_radial_490_1101" cx="0" cy="0" r="1" gradientUnits="userSpaceOnUse" gradientTransform="translate(28.7249 6.33265) rotate(40.8343) scale(3.64542 3.60695)">
<stop offset="0.61" stop-color="white" stop-opacity="0"/>
<stop offset="0.71" stop-color="white" stop-opacity="0.01"/>
<stop offset="0.74" stop-color="white" stop-opacity="0.03"/>
<stop offset="0.77" stop-color="white" stop-opacity="0.08"/>
<stop offset="0.79" stop-color="white" stop-opacity="0.15"/>
<stop offset="0.82" stop-color="white" stop-opacity="0.08"/>
<stop offset="0.85" stop-color="white" stop-opacity="0.03"/>
<stop offset="0.89" stop-color="white" stop-opacity="0.01"/>
<stop offset="1" stop-color="white" stop-opacity="0"/>
</radialGradient>
<linearGradient id="paint42_linear_490_1101" x1="24.9336" y1="10.3689" x2="22.3796" y2="12.4514" gradientUnits="userSpaceOnUse">
<stop stop-color="white"/>
<stop offset="1" stop-color="#4D4B4B"/>
</linearGradient>
<linearGradient id="paint43_linear_490_1101" x1="23.4796" y1="9.92236" x2="23.4796" y2="12.586" gradientUnits="userSpaceOnUse">
<stop stop-color="white"/>
<stop offset="1" stop-color="#4D4B4B"/>
</linearGradient>
<linearGradient id="paint44_linear_490_1101" x1="22.4686" y1="11.8258" x2="24.2959" y2="10.4424" gradientUnits="userSpaceOnUse">
<stop stop-color="white"/>
<stop offset="1" stop-color="#4D4B4B"/>
</linearGradient>
<radialGradient id="paint45_radial_490_1101" cx="0" cy="0" r="1" gradientUnits="userSpaceOnUse" gradientTransform="translate(23.4791 11.2543) rotate(90) scale(0.96326 1.1146)">
<stop stop-color="#42A7FF"/>
<stop offset="0.16" stop-color="#41A3FA"/>
<stop offset="0.35" stop-color="#3D96ED"/>
<stop offset="0.54" stop-color="#3880D6"/>
<stop offset="0.74" stop-color="#2F62B7"/>
<stop offset="0.94" stop-color="#253C8F"/>
<stop offset="1" stop-color="#223082"/>
</radialGradient>
<radialGradient id="paint46_radial_490_1101" cx="0" cy="0" r="1" gradientUnits="userSpaceOnUse" gradientTransform="translate(24.7757 11.309) rotate(90) scale(0.169786 0.196461)">
<stop stop-color="white"/>
<stop offset="1" stop-color="#6C6A6A"/>
</radialGradient>
<radialGradient id="paint47_radial_490_1101" cx="0" cy="0" r="1" gradientUnits="userSpaceOnUse" gradientTransform="translate(24.8427 11.2538) rotate(90) scale(0.0716688 0.0829301)">
<stop stop-color="white"/>
<stop offset="1" stop-color="#6C6A6A"/>
</radialGradient>
<radialGradient id="paint48_radial_490_1101" cx="0" cy="0" r="1" gradientUnits="userSpaceOnUse" gradientTransform="translate(24.3522 12.0866) rotate(139.166) scale(0.183609 0.181671)">
<stop stop-color="white"/>
<stop offset="1" stop-color="#6C6A6A"/>
</radialGradient>
<radialGradient id="paint49_radial_490_1101" cx="0" cy="0" r="1" gradientUnits="userSpaceOnUse" gradientTransform="translate(24.4435 12.0898) rotate(139.166) scale(0.0775033 0.0766853)">
<stop stop-color="white"/>
<stop offset="1" stop-color="#6C6A6A"/>
</radialGradient>
<radialGradient id="paint50_radial_490_1101" cx="0" cy="0" r="1" gradientUnits="userSpaceOnUse" gradientTransform="translate(23.4166 12.3752) rotate(180) scale(0.196462 0.169785)">
<stop stop-color="white"/>
<stop offset="1" stop-color="#6C6A6A"/>
</radialGradient>
<radialGradient id="paint51_radial_490_1101" cx="0" cy="0" r="1" gradientUnits="userSpaceOnUse" gradientTransform="translate(23.4794 12.4335) rotate(180) scale(0.0829276 0.0716685)">
<stop stop-color="white"/>
<stop offset="1" stop-color="#6C6A6A"/>
</radialGradient>
<radialGradient id="paint52_radial_490_1101" cx="0" cy="0" r="1" gradientUnits="userSpaceOnUse" gradientTransform="translate(22.5162 12.0107) rotate(-139.166) scale(0.183609 0.181671)">
<stop stop-color="white"/>
<stop offset="1" stop-color="#6C6A6A"/>
</radialGradient>
<radialGradient id="paint53_radial_490_1101" cx="0" cy="0" r="1" gradientUnits="userSpaceOnUse" gradientTransform="translate(22.5125 12.0898) rotate(-139.166) scale(0.0775029 0.076685)">
<stop stop-color="white"/>
<stop offset="1" stop-color="#6C6A6A"/>
</radialGradient>
<radialGradient id="paint54_radial_490_1101" cx="0" cy="0" r="1" gradientUnits="userSpaceOnUse" gradientTransform="translate(22.1832 11.2004) rotate(-90) scale(0.169787 0.196459)">
<stop stop-color="white"/>
<stop offset="1" stop-color="#6C6A6A"/>
</radialGradient>
<radialGradient id="paint55_radial_490_1101" cx="0" cy="0" r="1" gradientUnits="userSpaceOnUse" gradientTransform="translate(22.1154 11.2543) rotate(-90) scale(0.0716683 0.082928)">
<stop stop-color="white"/>
<stop offset="1" stop-color="#6C6A6A"/>
</radialGradient>
<radialGradient id="paint56_radial_490_1101" cx="0" cy="0" r="1" gradientUnits="userSpaceOnUse" gradientTransform="translate(22.6048 10.4242) rotate(-40.8345) scale(0.183608 0.181671)">
<stop stop-color="white"/>
<stop offset="1" stop-color="#6C6A6A"/>
</radialGradient>
<radialGradient id="paint57_radial_490_1101" cx="0" cy="0" r="1" gradientUnits="userSpaceOnUse" gradientTransform="translate(22.5128 10.4211) rotate(-40.8351) scale(0.0775021 0.0766845)">
<stop stop-color="white"/>
<stop offset="1" stop-color="#6C6A6A"/>
</radialGradient>
<radialGradient id="paint58_radial_490_1101" cx="0" cy="0" r="1" gradientUnits="userSpaceOnUse" gradientTransform="translate(23.542 10.1339) scale(0.196462 0.169786)">
<stop stop-color="white"/>
<stop offset="1" stop-color="#6C6A6A"/>
</radialGradient>
<radialGradient id="paint59_radial_490_1101" cx="0" cy="0" r="1" gradientUnits="userSpaceOnUse" gradientTransform="translate(23.4794 10.0766) scale(0.082928 0.0716686)">
<stop stop-color="white"/>
<stop offset="1" stop-color="#6C6A6A"/>
</radialGradient>
<radialGradient id="paint60_radial_490_1101" cx="0" cy="0" r="1" gradientUnits="userSpaceOnUse" gradientTransform="translate(24.4397 10.5006) rotate(40.835) scale(0.183606 0.181669)">
<stop stop-color="white"/>
<stop offset="1" stop-color="#6C6A6A"/>
</radialGradient>
<radialGradient id="paint61_radial_490_1101" cx="0" cy="0" r="1" gradientUnits="userSpaceOnUse" gradientTransform="translate(24.4437 10.421) rotate(40.8338) scale(0.0775042 0.076686)">
<stop stop-color="white"/>
<stop offset="1" stop-color="#6C6A6A"/>
</radialGradient>
<radialGradient id="paint62_radial_490_1101" cx="0" cy="0" r="1" gradientUnits="userSpaceOnUse" gradientTransform="translate(23.109 10.312) rotate(40.8343) scale(1.80657 1.7875)">
<stop stop-color="white" stop-opacity="0.53"/>
<stop offset="0.22" stop-color="white" stop-opacity="0.39"/>
<stop offset="0.58" stop-color="white" stop-opacity="0.18"/>
<stop offset="0.85" stop-color="white" stop-opacity="0.05"/>
<stop offset="1" stop-color="white" stop-opacity="0"/>
</radialGradient>
<radialGradient id="paint63_radial_490_1101" cx="0" cy="0" r="1" gradientUnits="userSpaceOnUse" gradientTransform="translate(23.4836 11.6658) rotate(40.8342) scale(0.609877 0.603441)">
<stop stop-color="white" stop-opacity="0.53"/>
<stop offset="0.22" stop-color="white" stop-opacity="0.39"/>
<stop offset="0.58" stop-color="white" stop-opacity="0.18"/>
<stop offset="0.85" stop-color="white" stop-opacity="0.05"/>
<stop offset="1" stop-color="white" stop-opacity="0"/>
</radialGradient>
<radialGradient id="paint64_radial_490_1101" cx="0" cy="0" r="1" gradientUnits="userSpaceOnUse" gradientTransform="translate(25.1313 9.4491) rotate(40.8343) scale(2.06214 0.142827)">
<stop stop-color="white" stop-opacity="0.53"/>
<stop offset="0.22" stop-color="white" stop-opacity="0.39"/>
<stop offset="0.58" stop-color="white" stop-opacity="0.18"/>
<stop offset="0.85" stop-color="white" stop-opacity="0.05"/>
<stop offset="1" stop-color="white" stop-opacity="0"/>
</radialGradient>
<radialGradient id="paint65_radial_490_1101" cx="0" cy="0" r="1" gradientUnits="userSpaceOnUse" gradientTransform="translate(21.0958 8.38164) rotate(139.166) scale(2.06214 0.142827)">
<stop stop-color="white" stop-opacity="0.53"/>
<stop offset="0.22" stop-color="white" stop-opacity="0.39"/>
<stop offset="0.58" stop-color="white" stop-opacity="0.18"/>
<stop offset="0.85" stop-color="white" stop-opacity="0.05"/>
<stop offset="1" stop-color="white" stop-opacity="0"/>
</radialGradient>
<radialGradient id="paint66_radial_490_1101" cx="0" cy="0" r="1" gradientUnits="userSpaceOnUse" gradientTransform="translate(22.1482 11.93) rotate(93.9715) scale(1.32051 0.106445)">
<stop stop-color="white" stop-opacity="0.53"/>
<stop offset="0.22" stop-color="white" stop-opacity="0.39"/>
<stop offset="0.58" stop-color="white" stop-opacity="0.18"/>
<stop offset="0.85" stop-color="white" stop-opacity="0.05"/>
<stop offset="1" stop-color="white" stop-opacity="0"/>
</radialGradient>
<radialGradient id="paint67_radial_490_1101" cx="0" cy="0" r="1" gradientUnits="userSpaceOnUse" gradientTransform="translate(19.643 6.83715) rotate(-177.032) scale(1.52635 0.0920898)">
<stop stop-color="white" stop-opacity="0.53"/>
<stop offset="0.22" stop-color="white" stop-opacity="0.39"/>
<stop offset="0.58" stop-color="white" stop-opacity="0.18"/>
<stop offset="0.85" stop-color="white" stop-opacity="0.05"/>
<stop offset="1" stop-color="white" stop-opacity="0"/>
</radialGradient>
<radialGradient id="paint68_radial_490_1101" cx="0" cy="0" r="1" gradientUnits="userSpaceOnUse" gradientTransform="translate(23.7084 10.6824) rotate(40.8343) scale(2.00032 1.97921)">
<stop offset="0.61" stop-color="white" stop-opacity="0"/>
<stop offset="0.71" stop-color="white" stop-opacity="0.01"/>
<stop offset="0.74" stop-color="white" stop-opacity="0.03"/>
<stop offset="0.77" stop-color="white" stop-opacity="0.08"/>
<stop offset="0.79" stop-color="white" stop-opacity="0.15"/>
<stop offset="0.82" stop-color="white" stop-opacity="0.08"/>
<stop offset="0.85" stop-color="white" stop-opacity="0.03"/>
<stop offset="0.89" stop-color="white" stop-opacity="0.01"/>
<stop offset="1" stop-color="white" stop-opacity="0"/>
</radialGradient>
<linearGradient id="paint69_linear_490_1101" x1="35.0392" y1="-0.692076" x2="31.6816" y2="3.70353" gradientUnits="userSpaceOnUse">
<stop/>
<stop offset="0.05" stop-color="#181818"/>
<stop offset="0.2" stop-color="#545454"/>
<stop offset="0.35" stop-color="#888888"/>
<stop offset="0.5" stop-color="#B3B3B3"/>
<stop offset="0.64" stop-color="#D4D4D4"/>
<stop offset="0.77" stop-color="#ECECEC"/>
<stop offset="0.89" stop-color="#FAFAFA"/>
<stop offset="1" stop-color="white"/>
</linearGradient>
<radialGradient id="paint70_radial_490_1101" cx="0" cy="0" r="1" gradientUnits="userSpaceOnUse" gradientTransform="translate(12.9906 20.0464) rotate(40.8343) scale(3.18038 3.34768)">
<stop stop-color="#D4D4D4"/>
<stop offset="0.14" stop-color="#CFCFCF"/>
<stop offset="0.29" stop-color="#C2C2C2"/>
<stop offset="0.45" stop-color="#ABABAB"/>
<stop offset="0.62" stop-color="#8C8C8C"/>
<stop offset="0.79" stop-color="#646464"/>
<stop offset="0.83" stop-color="#595959"/>
<stop offset="0.9" stop-color="#5B5B5B"/>
<stop offset="0.94" stop-color="#636363"/>
<stop offset="0.97" stop-color="#717171"/>
<stop offset="0.99" stop-color="#848484"/>
<stop offset="1" stop-color="#8C8C8C"/>
</radialGradient>
</defs>
</svg>
