<svg width="65" height="61" viewBox="0 0 65 61" fill="none" xmlns="http://www.w3.org/2000/svg">
<path d="M54.4139 7.60498H10.7867C9.63935 7.60498 8.70923 8.49321 8.70923 9.58889V35.3797C8.70923 36.4754 9.63935 37.3636 10.7867 37.3636H54.4139C55.5612 37.3636 56.4914 36.4754 56.4914 35.3797V9.58889C56.4914 8.49321 55.5612 7.60498 54.4139 7.60498Z" stroke="#242F65" stroke-width="1.8" stroke-miterlimit="10" stroke-linecap="round"/>
<path d="M31.5615 37.3636V44.1288" stroke="#242F65" stroke-width="1.8" stroke-miterlimit="10" stroke-linecap="round"/>
<path d="M21.1741 53.2346L30.0927 44.7177C30.4823 44.3458 31.0106 44.1368 31.5615 44.1368C32.1124 44.1368 32.6407 44.3458 33.0303 44.7177L41.9489 53.2346" stroke="#242F65" stroke-width="1.8" stroke-miterlimit="10" stroke-linecap="round"/>
<path d="M8.70923 23.4763H20.4886C20.6913 23.477 20.8898 23.421 21.0596 23.3152C21.2294 23.2095 21.3631 23.0586 21.4442 22.8811L23.2869 18.7744C23.3685 18.5933 23.5048 18.4394 23.6784 18.3326C23.8519 18.2257 24.0549 18.1707 24.2614 18.1745C24.4679 18.1783 24.6684 18.2409 24.8375 18.3541C25.0066 18.4673 25.1365 18.6261 25.2107 18.8101L28.6801 27.4263C28.7511 27.6032 28.8738 27.757 29.0335 27.8694C29.1932 27.9819 29.3833 28.0483 29.5813 28.0608C29.7793 28.0734 29.9769 28.0315 30.1508 27.9401C30.3246 27.8487 30.4674 27.7117 30.5623 27.5453L34.8689 20.0064C34.9557 19.8543 35.0827 19.7265 35.2372 19.6358C35.3918 19.5451 35.5685 19.4946 35.7498 19.4894C35.9312 19.4842 36.1108 19.5244 36.2708 19.6061C36.4308 19.6877 36.5656 19.808 36.6618 19.9548L39.886 24.8849C39.9854 25.0374 40.1263 25.1612 40.2937 25.2432C40.461 25.3253 40.6485 25.3623 40.8362 25.3505C41.0239 25.3387 41.2047 25.2784 41.3594 25.1762C41.514 25.0739 41.6366 24.9334 41.7142 24.7698L46.1039 15.5406" stroke="#242F65" stroke-width="1.8" stroke-miterlimit="10" stroke-linecap="round"/>
</svg>
