<svg width="65" height="61" viewBox="0 0 65 61" fill="none" xmlns="http://www.w3.org/2000/svg">
<path d="M32.1023 9.22095C32.4125 9.22095 32.71 9.10327 32.9293 8.8938C33.1487 8.68433 33.2719 8.40022 33.2719 8.10398V5.87003C33.2719 5.57378 33.1487 5.28968 32.9293 5.0802C32.71 4.87074 32.4125 4.75305 32.1023 4.75305C31.7921 4.75305 31.4945 4.87074 31.2752 5.0802C31.0559 5.28968 30.9326 5.57378 30.9326 5.87003V8.10398C30.9326 8.40022 31.0559 8.68433 31.2752 8.8938C31.4945 9.10327 31.7921 9.22095 32.1023 9.22095Z" fill="#242F65"/>
<path d="M54.3258 25.9755H51.9864C51.6762 25.9755 51.3787 26.0932 51.1594 26.3026C50.9401 26.5121 50.8168 26.7962 50.8168 27.0924C50.8168 27.3887 50.9401 27.6728 51.1594 27.8823C51.3787 28.0917 51.6762 28.2094 51.9864 28.2094H54.3258C54.6359 28.2094 54.9335 28.0917 55.1528 27.8823C55.3721 27.6728 55.4954 27.3887 55.4954 27.0924C55.4954 26.7962 55.3721 26.5121 55.1528 26.3026C54.9335 26.0932 54.6359 25.9755 54.3258 25.9755Z" fill="#242F65"/>
<path d="M12.2181 25.9755H9.87877C9.56855 25.9755 9.27105 26.0932 9.05169 26.3026C8.83234 26.5121 8.70911 26.7962 8.70911 27.0924C8.70911 27.3887 8.83234 27.6728 9.05169 27.8823C9.27105 28.0917 9.56855 28.2094 9.87877 28.2094H12.2181C12.5283 28.2094 12.8258 28.0917 13.0452 27.8823C13.2645 27.6728 13.3877 27.3887 13.3877 27.0924C13.3877 26.7962 13.2645 26.5121 13.0452 26.3026C12.8258 26.0932 12.5283 25.9755 12.2181 25.9755Z" fill="#242F65"/>
<path d="M17.2149 14.455C17.4355 14.6585 17.7309 14.7711 18.0376 14.7685C18.3443 14.766 18.6377 14.6485 18.8545 14.4414C19.0714 14.2343 19.1944 13.9542 19.1971 13.6613C19.1998 13.3684 19.0819 13.0863 18.8688 12.8756L17.2149 11.2962C16.9943 11.0927 16.6988 10.9802 16.3921 10.9827C16.0855 10.9853 15.7921 11.1027 15.5752 11.3098C15.3584 11.5169 15.2354 11.7971 15.2327 12.0899C15.23 12.3828 15.3479 12.665 15.561 12.8756L17.2149 14.455Z" fill="#242F65"/>
<path d="M46.9898 39.7288C46.8811 39.6251 46.7521 39.5428 46.6102 39.4867C46.4682 39.4307 46.316 39.4017 46.1625 39.4019C46.0088 39.4019 45.8567 39.4309 45.7147 39.4871C45.5728 39.5433 45.4439 39.6256 45.3353 39.7294C45.2267 39.8331 45.1405 39.9563 45.0818 40.0919C45.0231 40.2274 44.9929 40.3727 44.9929 40.5195C44.993 40.6662 45.0233 40.8115 45.0822 40.947C45.141 41.0825 45.2272 41.2057 45.3359 41.3093L46.9898 42.8887C47.2104 43.0922 47.5058 43.2047 47.8125 43.2023C48.1192 43.1997 48.4125 43.0822 48.6294 42.8751C48.8462 42.668 48.9693 42.3879 48.972 42.095C48.9747 41.8021 48.8568 41.52 48.6437 41.3093L46.9898 39.7288Z" fill="#242F65"/>
<path d="M46.9897 11.2962L45.3358 12.8756C45.2241 12.9786 45.135 13.1019 45.0737 13.2382C45.0124 13.3744 44.9801 13.521 44.9788 13.6693C44.9774 13.8176 45.007 13.9647 45.0658 14.102C45.1247 14.2393 45.2115 14.364 45.3213 14.4689C45.4311 14.5737 45.5618 14.6567 45.7055 14.7128C45.8493 14.769 46.0032 14.7973 46.1585 14.796C46.3139 14.7947 46.4673 14.7639 46.61 14.7053C46.7527 14.6468 46.8818 14.5617 46.9897 14.455L48.6436 12.8756C48.7553 12.7726 48.8444 12.6493 48.9057 12.513C48.967 12.3768 48.9993 12.2302 49.0007 12.0819C49.002 11.9336 48.9724 11.7865 48.9135 11.6492C48.8548 11.5119 48.7679 11.3872 48.6581 11.2824C48.5483 11.1775 48.4177 11.0945 48.274 11.0384C48.1302 10.9822 47.9762 10.954 47.8208 10.9552C47.6655 10.9565 47.5121 10.9873 47.3694 11.0459C47.2267 11.1044 47.0976 11.1895 46.9897 11.2962Z" fill="#242F65"/>
<path d="M17.2149 39.7288L15.5609 41.3093C15.4492 41.4123 15.3601 41.5356 15.2988 41.6719C15.2375 41.8082 15.2053 41.9547 15.2039 42.103C15.2026 42.2514 15.2321 42.3985 15.291 42.5358C15.3498 42.6729 15.4366 42.7977 15.5464 42.9026C15.6563 43.0075 15.7868 43.0903 15.9306 43.1465C16.0743 43.2027 16.2284 43.231 16.3837 43.2296C16.539 43.2284 16.6925 43.1976 16.8352 43.139C16.9779 43.0805 17.1069 42.9954 17.2149 42.8887L18.8687 41.3093C18.9774 41.2057 19.0636 41.0825 19.1224 40.947C19.1813 40.8115 19.2116 40.6662 19.2117 40.5195C19.2117 40.3727 19.1815 40.2274 19.1228 40.0919C19.0641 39.9563 18.9779 39.8331 18.8693 39.7294C18.7607 39.6256 18.6318 39.5433 18.4899 39.4871C18.3479 39.4309 18.1958 39.4019 18.0422 39.4019C17.8886 39.4017 17.7364 39.4307 17.5945 39.4867C17.4525 39.5428 17.3235 39.6251 17.2149 39.7288Z" fill="#242F65"/>
<path d="M32.1023 11.455C27.7608 11.4594 23.5983 13.1083 20.5284 16.04C17.4584 18.9716 15.7318 22.9466 15.7271 27.0926C15.6638 29.2743 16.0713 31.4451 16.9242 33.4699C17.7773 35.4947 19.0575 37.3303 20.6853 38.8622C21.6932 39.7693 22.4987 40.8615 23.0537 42.0732C23.6086 43.2849 23.9015 44.5912 23.9147 45.9137V48.3152C23.9178 49.0058 24.1441 49.6785 24.5628 50.2416C24.9816 50.8047 25.5722 51.2304 26.254 51.4606V51.6661C26.254 52.8511 26.7469 53.9875 27.6244 54.8253C28.5018 55.6633 29.6918 56.134 30.9327 56.134H33.272C34.5129 56.134 35.7029 55.6633 36.5803 54.8253C37.4577 53.9875 37.9506 52.8511 37.9506 51.6661V51.4606C38.6324 51.2304 39.2231 50.8047 39.6418 50.2416C40.0606 49.6785 40.2869 49.0058 40.29 48.3152V45.9137C40.3032 44.5912 40.5961 43.2849 41.1509 42.0732C41.7059 40.8615 42.5115 39.7693 43.5194 38.8622C45.1472 37.3303 46.4274 35.4947 47.2804 33.4699C48.1335 31.4451 48.541 29.2743 48.4776 27.0926C48.4729 22.9466 46.7462 18.9716 43.6762 16.04C40.6063 13.1083 36.4439 11.4594 32.1023 11.455ZM33.272 53.9H30.9327C30.3123 53.9 29.7173 53.6647 29.2785 53.2457C28.8398 52.8267 28.5934 52.2585 28.5934 51.6661H35.6113C35.6113 52.2585 35.3649 52.8267 34.9261 53.2457C34.4874 53.6647 33.8924 53.9 33.272 53.9ZM36.781 49.4321H27.4237C27.1135 49.4321 26.8159 49.3144 26.5966 49.105C26.3773 48.8955 26.254 48.6114 26.254 48.3152V47.1982H37.9506V48.3152C37.9506 48.6114 37.8275 48.8955 37.608 49.105C37.3887 49.3144 37.0912 49.4321 36.781 49.4321ZM28.5934 34.9114H27.4237C27.1923 34.9114 26.9662 34.846 26.7738 34.7232C26.5815 34.6005 26.4316 34.426 26.343 34.2219C26.2545 34.0179 26.2313 33.7932 26.2765 33.5765C26.3216 33.3599 26.433 33.1608 26.5966 33.0047C26.7603 32.8484 26.9686 32.7421 27.1955 32.6989C27.4224 32.6558 27.6576 32.6779 27.8713 32.7625C28.085 32.8471 28.2677 32.9902 28.3963 33.1739C28.5248 33.3576 28.5934 33.5735 28.5934 33.7945V34.9114ZM30.9327 37.1454H33.272V44.9642H30.9327V37.1454ZM41.8877 37.2571C39.6505 39.288 38.2653 42.0281 37.9916 44.9642H35.6113V37.1454H36.781C37.475 37.1454 38.1535 36.9489 38.7304 36.5807C39.3076 36.2125 39.7573 35.6891 40.0228 35.0769C40.2884 34.4645 40.3579 33.7908 40.2226 33.1407C40.0871 32.4907 39.753 31.8936 39.2622 31.425C38.7715 30.9563 38.1462 30.6372 37.4656 30.5079C36.7848 30.3786 36.0793 30.445 35.4382 30.6987C34.797 30.9522 34.2489 31.3817 33.8634 31.9328C33.4779 32.4838 33.272 33.1318 33.272 33.7945V34.9114H30.9327V33.7945C30.9327 33.1318 30.7269 32.4838 30.3413 31.9328C29.9558 31.3817 29.4077 30.9522 28.7666 30.6987C28.1254 30.445 27.4198 30.3786 26.7391 30.5079C26.0585 30.6372 25.4332 30.9563 24.9425 31.425C24.4517 31.8936 24.1175 32.4907 23.9822 33.1407C23.8468 33.7908 23.9162 34.4645 24.1819 35.0769C24.4474 35.6891 24.8972 36.2125 25.4742 36.5807C26.0512 36.9489 26.7297 37.1454 27.4237 37.1454H28.5934V44.9642H26.2131C25.9394 42.0281 24.5542 39.288 22.317 37.2571C20.9161 35.932 19.8158 34.3457 19.0845 32.5971C18.3533 30.8484 18.0068 28.9747 18.0664 27.0926C18.0664 23.5377 19.5452 20.1285 22.1774 17.6147C24.8097 15.1011 28.3798 13.6889 32.1023 13.6889C35.8249 13.6889 39.395 15.1011 42.0272 17.6147C44.6594 20.1285 46.1382 23.5377 46.1382 27.0926C46.1979 28.9747 45.8514 30.8484 45.1202 32.5971C44.3889 34.3457 43.2886 35.932 41.8877 37.2571ZM35.6113 34.9114V33.7945C35.6113 33.5735 35.68 33.3576 35.8084 33.1739C35.9369 32.9902 36.1196 32.8471 36.3333 32.7625C36.5472 32.6779 36.7823 32.6558 37.0092 32.6989C37.2361 32.7421 37.4445 32.8484 37.608 33.0047C37.7717 33.1608 37.883 33.3599 37.9282 33.5765C37.9733 33.7932 37.9502 34.0179 37.8616 34.2219C37.7731 34.426 37.6231 34.6005 37.4308 34.7232C37.2384 34.846 37.0123 34.9114 36.781 34.9114H35.6113Z" fill="#242F65"/>
</svg>
