<svg width="65" height="61" viewBox="0 0 65 61" fill="none" xmlns="http://www.w3.org/2000/svg">
<path d="M48.228 9.00474C48.1501 21.3791 48.0723 33.7534 47.9944 46.1277C48.6159 45.8819 49.2373 45.6361 49.8587 45.3903C44.6155 40.5151 41.0211 36.847 33.5617 35.7667C30.0478 35.2579 26.469 35.0231 22.9209 34.8629C20.232 34.7416 16.8536 35.2948 14.6341 33.5388C12.933 32.193 11.3137 29.5551 11.1341 27.4964C10.288 17.7978 27.756 21.7162 33.8037 19.7012C36.7495 18.7197 39.9564 17.3583 42.5205 15.6615C45.1881 13.8962 46.7614 11.3185 49.6131 9.57508C50.7933 8.85357 49.6992 7.0475 48.5107 7.77408C45.3656 9.69686 43.2803 12.5858 40.2393 14.5049C35.3687 17.5786 30.4241 18.4377 24.7234 18.5373C19.7625 18.624 9.33028 18.4022 8.75065 24.9049C8.26781 30.3217 12.0375 36.0365 17.7777 36.7769C23.3218 37.492 28.9539 37.0104 34.5069 38.0067C40.5434 39.0897 44.098 42.9448 48.3143 46.8652C48.9915 47.4949 50.1729 47.038 50.1786 46.1277C50.2564 33.7534 50.3343 21.3791 50.4122 9.00474C50.4206 7.66235 48.2365 7.66082 48.228 9.00474Z" fill="#242F65"/>
<path d="M23.6731 19.6654C23.6731 24.8669 23.6731 30.0685 23.6731 35.2701C23.6731 36.6122 25.8573 36.6144 25.8573 35.2701C25.8573 30.0685 25.8573 24.8669 25.8573 19.6654C25.8573 18.3233 23.6731 18.321 23.6731 19.6654Z" fill="#242F65"/>
<path d="M49.6301 22.1606C51.9119 22.5985 54.0341 24.9836 54.3858 27.0813C54.8233 29.6914 53.1803 32.5036 50.1743 32.6084C48.7729 32.6573 48.7662 34.7433 50.1743 34.6942C59.0069 34.3861 58.1643 21.6756 50.2107 20.1493C48.8382 19.886 48.2509 21.896 49.6301 22.1606Z" fill="#242F65"/>
<path d="M19.3985 36.2742C19.4753 38.9035 19.6354 41.5226 19.942 44.1373C20.0356 44.936 20.2396 45.7486 20.2563 46.5483C20.7965 47.7702 20.456 48.7844 19.2351 49.5911C18.3849 51.7573 17.6278 51.7588 16.9635 49.5955C16.2536 47.6403 16.6204 44.6326 16.4769 42.5562C16.2823 39.7404 16.0876 36.9247 15.893 34.109C15.8009 32.7765 13.616 32.7667 13.7088 34.109C14.0633 39.2376 14.0925 44.4992 14.7794 49.5955C15.0688 51.7429 15.9317 53.1227 18.3525 53.3798C20.6042 53.6188 22.6851 52.6648 22.9512 50.3894C23.1572 48.6276 22.429 46.5825 22.2096 44.8495C21.8489 42.0004 21.6665 39.1421 21.5826 36.2742C21.5435 34.9348 19.3591 34.9293 19.3985 36.2742Z" fill="#242F65"/>
</svg>
