<svg width="65" height="61" viewBox="0 0 65 61" fill="none" xmlns="http://www.w3.org/2000/svg">
<path d="M58.5571 31.5898H57.0234C56.7351 22.5867 51.3365 15.0578 43.2877 11.6999H53.3426V13.1624C53.3426 13.3952 53.4395 13.6184 53.6121 13.7829C53.7847 13.9475 54.0187 14.0399 54.2628 14.0399C54.5068 14.0399 54.7409 13.9475 54.9135 13.7829C55.0861 13.6184 55.183 13.3952 55.183 13.1624V8.48247C55.183 8.24975 55.0861 8.02655 54.9135 7.86199C54.7409 7.69743 54.5068 7.60498 54.2628 7.60498C54.0187 7.60498 53.7847 7.69743 53.6121 7.86199C53.4395 8.02655 53.3426 8.24975 53.3426 8.48247V9.94496H36.7787V8.48247C36.7787 8.24975 36.6817 8.02655 36.5091 7.86199C36.3366 7.69743 36.1025 7.60498 35.8585 7.60498H30.9506C30.7066 7.60498 30.4725 7.69743 30.2999 7.86199C30.1274 8.02655 30.0304 8.24975 30.0304 8.48247V9.94496H13.4665V8.48247C13.4665 8.24975 13.3696 8.02655 13.197 7.86199C13.0244 7.69743 12.7904 7.60498 12.5463 7.60498C12.3022 7.60498 12.0682 7.69743 11.8956 7.86199C11.723 8.02655 11.6261 8.24975 11.6261 8.48247V13.1624C11.6261 13.3952 11.723 13.6184 11.8956 13.7829C12.0682 13.9475 12.3022 14.0399 12.5463 14.0399C12.7904 14.0399 13.0244 13.9475 13.197 13.7829C13.3696 13.6184 13.4665 13.3952 13.4665 13.1624V11.6999H23.4907C19.2738 13.4142 15.6729 16.2644 13.1295 19.9013C10.5862 23.5381 9.21087 27.8036 9.17217 32.1748H7.63848C7.39442 32.1748 7.16036 32.2672 6.98779 32.4318C6.81521 32.5964 6.71826 32.8195 6.71826 33.0523V37.7322C6.71826 37.965 6.81521 38.1882 6.98779 38.3527C7.16036 38.5173 7.39442 38.6097 7.63848 38.6097H12.5463C12.7904 38.6097 13.0244 38.5173 13.197 38.3527C13.3696 38.1882 13.4665 37.965 13.4665 37.7322V33.0523C13.4665 32.8195 13.3696 32.5964 13.197 32.4318C13.0244 32.2672 12.7904 32.1748 12.5463 32.1748H11.0126C11.074 27.1611 13.0319 22.3371 16.5261 18.5903C20.0203 14.8434 24.8158 12.4257 30.0304 11.7818V13.1624C30.0304 13.3952 30.1274 13.6184 30.2999 13.7829C30.4725 13.9475 30.7066 14.0399 30.9506 14.0399H32.5334L22.9816 37.1531C22.9009 37.3546 22.9009 37.5775 22.9816 37.779L26.4048 46.6651L26.3496 52.3513C26.3487 52.467 26.3719 52.5817 26.4178 52.6889C26.4637 52.796 26.5314 52.8934 26.6169 52.9755C26.7024 53.0576 26.8041 53.1228 26.9162 53.1673C27.0282 53.2117 27.1484 53.2346 27.2698 53.2346H38.9258C39.1699 53.2346 39.404 53.1422 39.5765 52.9776C39.7491 52.813 39.8461 52.5898 39.8461 52.3571V46.6944L44.0238 37.8317C44.0719 37.7234 44.0967 37.607 44.0967 37.4895C44.0967 37.3719 44.0719 37.2555 44.0238 37.1472L34.2757 14.0399H35.8585C36.1025 14.0399 36.3366 13.9475 36.5091 13.7829C36.6817 13.6184 36.7787 13.3952 36.7787 13.1624V11.7818C47.2078 13.1449 54.8088 21.3173 55.183 31.5898H53.6493C53.4053 31.5898 53.1712 31.6822 52.9986 31.8468C52.826 32.0114 52.7291 32.2346 52.7291 32.4673V37.1472C52.7291 37.38 52.826 37.6032 52.9986 37.7677C53.1712 37.9323 53.4053 38.0247 53.6493 38.0247H58.5571C58.8012 38.0247 59.0353 37.9323 59.2078 37.7677C59.3804 37.6032 59.4773 37.38 59.4773 37.1472V32.4673C59.4773 32.2346 59.3804 32.0114 59.2078 31.8468C59.0353 31.6822 58.8012 31.5898 58.5571 31.5898ZM11.6261 36.8547H8.5587V33.9298H11.6261V36.8547ZM28.19 51.4796L28.2268 47.3847H38.0056V51.4796H28.19ZM38.3308 45.6297H27.963L24.822 37.4865L32.4843 18.948V34.8073C32.4843 35.04 32.5813 35.2632 32.7539 35.4277C32.9264 35.5923 33.1605 35.6848 33.4045 35.6848C33.6486 35.6848 33.8827 35.5923 34.0552 35.4277C34.2278 35.2632 34.3248 35.04 34.3248 34.8073V18.8603L42.1834 37.4397L38.3308 45.6297ZM34.9382 12.2849H31.8708V9.35997H34.9382V12.2849ZM57.6369 36.2697H54.5695V33.3448H57.6369V36.2697Z" fill="#242F65"/>
</svg>
