<svg width="65" height="61" viewBox="0 0 65 61" fill="none" xmlns="http://www.w3.org/2000/svg">
<path d="M17.1519 34.9207C17.1519 34.4947 16.7851 34.1444 16.339 34.1444C15.8929 34.1444 15.5261 34.4947 15.5261 34.9207V51.3174C15.5261 51.7434 15.8929 52.0937 16.339 52.0937C16.7851 52.0937 17.1519 51.7434 17.1519 51.3174V34.9207Z" fill="#242F65" stroke="#242F65"/>
<path d="M28.2947 34.0878C28.2947 33.6618 27.9279 33.3115 27.4818 33.3115C27.0357 33.3115 26.6689 33.6618 26.6689 34.0878V51.3081C26.6689 51.7341 27.0357 52.0844 27.4818 52.0844C27.9279 52.0844 28.2947 51.7341 28.2947 51.3081V34.0878Z" fill="#242F65" stroke="#242F65"/>
<path d="M39.4472 31.0105C39.4472 30.5845 39.0804 30.2343 38.6343 30.2343C38.1882 30.2343 37.8214 30.5845 37.8214 31.0105V51.317C37.8214 51.7431 38.1882 52.0933 38.6343 52.0933C39.0804 52.0933 39.4472 51.7431 39.4472 51.317V31.0105Z" fill="#242F65" stroke="#242F65"/>
<path d="M50.59 25.4065C50.59 24.9805 50.2232 24.6302 49.7771 24.6302C49.331 24.6302 48.9642 24.9805 48.9642 25.4065V51.3174C48.9642 51.7435 49.331 52.0937 49.7771 52.0937C50.2232 52.0937 50.59 51.7435 50.59 51.3174V25.4065Z" fill="#242F65" stroke="#242F65"/>
<path d="M8.55707 31.323C8.11097 31.3041 7.73426 31.6354 7.71443 32.0615C7.69461 32.4875 8.04158 32.8472 8.48768 32.8661C8.56699 32.8661 36.275 34.3524 58.2134 9.89944C58.5009 9.57757 58.4612 9.08529 58.1242 8.81075C57.7871 8.53621 57.2716 8.57408 56.9841 8.89595C35.5711 32.762 8.63638 31.323 8.55707 31.323Z" fill="#242F65" stroke="#242F65"/>
<path d="M43.3927 8.55554C42.9466 8.55554 42.5798 8.89635 42.5798 9.33183C42.5798 9.75784 42.9367 10.1081 43.3927 10.1081H56.8552V22.9642C56.8552 23.3902 57.212 23.7405 57.6681 23.7405C58.1142 23.7405 58.481 23.3996 58.481 22.9642C58.481 18.4201 58.481 13.8759 58.481 9.34129C58.481 8.91528 58.1142 8.56501 57.6681 8.56501H43.4026L43.3927 8.55554Z" fill="#242F65" stroke="#242F65"/>
</svg>
