<svg width="32" height="32" viewBox="0 0 32 32" fill="none" xmlns="http://www.w3.org/2000/svg">
<path d="M14.1119 24.7178L12.2483 28.0132C1.51466 23.9049 2.72745 13.9456 5.14514 10.0212C5.14514 10.0212 9.4365 17.3895 11.7742 20.3027C14.1119 23.216 18.3876 22.1818 19.5875 21.2052L15.3489 28.4217C15.3489 28.4217 20.4844 29.3631 25.2125 24.7178C29.2868 20.7145 28.7697 15.0052 27.8743 12.5191H17.8515C19.5875 13.5261 20.2033 16.5618 18.8775 17.8429C16.561 20.0815 14.1119 19.2986 12.5712 16.6945L6.53802 7.51741C10.1377 3.94818 19.3786 -0.157887 26.8485 9.38899H17.0622C15.3489 9.38899 13.6997 9.7066 12.2483 10.9923" stroke="#FF5733" stroke-width="2" stroke-linecap="round" stroke-linejoin="round"/>
</svg>
