<svg width="65" height="61" viewBox="0 0 65 61" fill="none" xmlns="http://www.w3.org/2000/svg">
<path d="M53.0527 8.55554H12.1473C9.71763 8.55554 7.77256 10.0753 7.71362 12.0453V40.6514C7.71362 42.6089 9.67834 44.2037 12.1473 44.2037H31.2902V51.0832H19.8294C19.5688 51.0832 19.3189 51.182 19.1347 51.3579C18.9505 51.5339 18.847 51.7725 18.847 52.0213C18.847 52.2701 18.9505 52.5087 19.1347 52.6846C19.3189 52.8605 19.5688 52.9594 19.8294 52.9594H45.3706C45.6312 52.9594 45.881 52.8605 46.0653 52.6846C46.2495 52.5087 46.353 52.2701 46.353 52.0213C46.353 51.7725 46.2495 51.5339 46.0653 51.3579C45.881 51.182 45.6312 51.0832 45.3706 51.0832H33.2549V44.2037H53.0527C55.5216 44.2037 57.4864 42.6089 57.4864 40.6514V12.1078C57.4864 10.1503 55.5216 8.55554 53.0527 8.55554ZM55.5216 40.6514C55.5216 41.5582 54.3887 42.3275 53.0527 42.3275H12.1473C10.8375 42.3275 9.67834 41.5582 9.67834 40.6514V12.0703C9.67834 11.1697 10.8113 10.4318 12.1473 10.4318H53.0527C54.3625 10.4318 55.5216 11.201 55.5216 12.1078V40.6514Z" fill="#242F65"/>
<path d="M36.0514 20.8323C35.8208 20.7226 35.5544 20.7037 35.3094 20.7797C35.0644 20.8557 34.8605 21.0206 34.7416 21.2389L29.4499 31.0702C29.391 31.1799 29.3553 31.2995 29.3448 31.4224C29.3343 31.5452 29.3493 31.6688 29.3888 31.7861C29.4283 31.9034 29.4917 32.0121 29.5752 32.1061C29.6587 32.2 29.7608 32.2773 29.8756 32.3336C29.9904 32.3898 30.1157 32.4239 30.2443 32.434C30.373 32.444 30.5024 32.4297 30.6252 32.392C30.7481 32.3542 30.8619 32.2937 30.9603 32.2139C31.0587 32.1342 31.1396 32.0367 31.1985 31.9271L36.4771 22.0769C36.59 21.8574 36.6087 21.6045 36.5292 21.372C36.4496 21.1395 36.2782 20.9459 36.0514 20.8323Z" fill="#242F65"/>
<path d="M42.3319 20.4884C42.1457 20.3226 41.8994 20.2324 41.6449 20.2367C41.3904 20.241 41.1476 20.3395 40.9676 20.5113C40.7876 20.6832 40.6845 20.9151 40.68 21.1581C40.6755 21.4012 40.77 21.6364 40.9435 21.8142L45.8422 26.486L40.9435 31.1578C40.847 31.2437 40.7696 31.3472 40.7159 31.4623C40.6622 31.5774 40.6333 31.7016 40.631 31.8276C40.6287 31.9535 40.6529 32.0786 40.7024 32.1954C40.7518 32.3123 40.8253 32.4184 40.9186 32.5075C41.0119 32.5965 41.123 32.6668 41.2453 32.7139C41.3676 32.7611 41.4986 32.7843 41.6305 32.7821C41.7624 32.7799 41.8925 32.7523 42.013 32.701C42.1335 32.6497 42.242 32.5758 42.3319 32.4836L47.9248 27.1489C48.1088 26.973 48.2121 26.7346 48.2121 26.486C48.2121 26.2374 48.1088 25.999 47.9248 25.8231L42.3319 20.4884Z" fill="#242F65"/>
<path d="M25.0031 20.4883C24.8189 20.3127 24.5692 20.214 24.3089 20.214C24.0485 20.214 23.7989 20.3127 23.6147 20.4883L18.0218 25.8293C17.8378 26.0052 17.7345 26.2436 17.7345 26.4922C17.7345 26.7408 17.8378 26.9793 18.0218 27.1552L23.6147 32.4961C23.8009 32.6618 24.0472 32.7521 24.3017 32.7478C24.5562 32.7435 24.799 32.645 24.979 32.4732C25.159 32.3013 25.2621 32.0694 25.2666 31.8264C25.2711 31.5833 25.1766 31.3481 25.0031 31.1703L20.1044 26.4985L25.0031 21.8142C25.187 21.6383 25.2904 21.3999 25.2904 21.1513C25.2904 20.9027 25.187 20.6642 25.0031 20.4883Z" fill="#242F65"/>
</svg>
