<svg width="32" height="32" viewBox="0 0 32 32" fill="none" xmlns="http://www.w3.org/2000/svg">
<path d="M8.2097 8.3871L8.29289 8.29289C8.65338 7.93241 9.22061 7.90468 9.6129 8.2097L9.70711 8.29289L16 14.585L22.2929 8.29289C22.6834 7.90237 23.3166 7.90237 23.7071 8.29289C24.0976 8.68342 24.0976 9.31658 23.7071 9.70711L17.415 16L23.7071 22.2929C24.0676 22.6534 24.0953 23.2206 23.7903 23.6129L23.7071 23.7071C23.3466 24.0676 22.7794 24.0953 22.3871 23.7903L22.2929 23.7071L16 17.415L9.70711 23.7071C9.31658 24.0976 8.68342 24.0976 8.29289 23.7071C7.90237 23.3166 7.90237 22.6834 8.29289 22.2929L14.585 16L8.29289 9.70711C7.93241 9.34662 7.90468 8.77939 8.2097 8.3871L8.29289 8.29289L8.2097 8.3871Z" fill="#737373"/>
</svg>
