<svg width="72" height="72" viewBox="0 0 72 72" fill="none" xmlns="http://www.w3.org/2000/svg">
<circle cx="36" cy="36" r="36" fill="#00B795"/>
<path d="M19.8889 26.6825C19.3335 28.7491 19.3335 31.6001 19.3335 36C19.3335 42.2496 19.3335 45.3743 20.925 47.5649C21.439 48.2723 22.0612 48.8945 22.7686 49.4085C24.9592 51 28.0839 51 34.3335 51H37.6668C43.9164 51 47.0412 51 49.2317 49.4085C49.9392 48.8945 50.5613 48.2723 51.0753 47.5649C52.6668 45.3743 52.6668 42.2496 52.6668 36C52.6668 31.5855 52.6668 28.7301 52.1059 26.6618L48.6013 30.1664C45.8808 32.8869 43.7489 35.0189 41.8618 36.4587C39.9303 37.9324 38.109 38.7982 35.9999 38.7982C33.8908 38.7982 32.0696 37.9324 30.1381 36.4587C28.251 35.0189 26.119 32.8869 23.3986 30.1664L20.1399 26.9078L19.8889 26.6825Z" fill="white"/>
<path d="M21.0002 24.3333L21.1816 24.4834L21.8599 25.0923L25.0987 28.331C27.9015 31.1338 29.9165 33.1451 31.6545 34.4711C33.3637 35.7752 34.6572 36.2982 35.9999 36.2982C37.3426 36.2982 38.6362 35.7752 40.3453 34.4711C42.0834 33.1451 44.0984 31.1338 46.9012 28.331L50.7477 24.4845L50.957 24.2763C50.443 23.5689 49.9392 23.1055 49.2317 22.5915C47.0412 21 43.9164 21 37.6668 21H34.3335C28.0839 21 24.9592 21 22.7686 22.5915C22.0612 23.1055 21.5142 23.6259 21.0002 24.3333Z" fill="white"/>
</svg>
