<svg width="120" height="120" viewBox="0 0 120 120" fill="none" xmlns="http://www.w3.org/2000/svg">
<ellipse cx="61.4988" cy="57.7502" rx="41.2503" ry="41.2503" fill="#22C55E"/>
<path fill-rule="evenodd" clip-rule="evenodd" d="M55.25 42.7521C50.8317 42.7521 47.25 46.3338 47.25 50.7521V65.5023C47.25 69.9206 50.8317 73.5023 55.25 73.5023H70.0002C74.4185 73.5023 78.0002 69.9206 78.0002 65.5023V50.7521C78.0002 46.3338 74.4185 42.7521 70.0002 42.7521H55.25ZM70.5454 54.0465C70.7651 53.8271 70.875 53.5391 70.875 53.2513C70.875 52.6079 70.3512 52.1263 69.75 52.1263C69.4617 52.1263 69.1734 52.2363 68.9555 52.4567L60.7499 60.6623L57.0452 56.9559C56.8258 56.7362 56.5378 56.6263 56.2499 56.6263C55.6505 56.6263 55.1249 57.1086 55.1249 57.7513C55.1249 58.0396 55.2349 58.3279 55.4547 58.5467L59.9547 63.0467C60.1741 63.2665 60.4617 63.3763 60.7499 63.3763C61.0382 63.3763 61.3265 63.2673 61.5454 63.0466L70.5454 54.0465Z" fill="white"/>
<circle cx="13.4995" cy="17.9994" r="5.25003" fill="#22C55E"/>
<circle cx="115.126" cy="38.6246" r="4.12503" fill="#22C55E"/>
<ellipse cx="77.2505" cy="2.25001" rx="2.25001" ry="2.25001" fill="#22C55E"/>
<ellipse cx="117.001" cy="73.4999" rx="2.25001" ry="2.25001" fill="#22C55E"/>
<ellipse cx="104.25" cy="96.75" rx="2.25001" ry="2.25001" fill="#22C55E"/>
<circle cx="42.7495" cy="111" r="3.00002" fill="#22C55E"/>
<circle cx="4.49954" cy="84.7497" r="3.75002" fill="#22C55E"/>
<ellipse cx="81.3755" cy="118.875" rx="1.12501" ry="1.12501" fill="#22C55E"/>
</svg>
