<svg width="72" height="72" viewBox="0 0 72 72" fill="none" xmlns="http://www.w3.org/2000/svg">
<circle cx="36" cy="36" r="36" fill="#00B795"/>
<path fill-rule="evenodd" clip-rule="evenodd" d="M45.2047 28.3267V30.8823C48.0753 31.7783 50.1668 34.3769 50.1668 37.4807V45.7088C50.1668 49.5513 46.9812 52.6667 43.0539 52.6667H28.9482C25.0191 52.6667 21.8335 49.5513 21.8335 45.7088V37.4807C21.8335 34.3769 23.9267 31.7783 26.7956 30.8823V28.3267C26.8126 23.358 30.9279 19.3333 35.9748 19.3333C41.0893 19.3333 45.2047 23.358 45.2047 28.3267ZM36.0086 22.2318C39.4466 22.2318 42.2409 24.9645 42.2409 28.3267V30.5229H29.7594V28.2936C29.7763 24.948 32.5707 22.2318 36.0086 22.2318ZM37.482 43.4249C37.482 44.2365 36.8215 44.8824 35.9917 44.8824C35.1788 44.8824 34.5183 44.2365 34.5183 43.4249V39.7481C34.5183 38.9531 35.1788 38.3071 35.9917 38.3071C36.8215 38.3071 37.482 38.9531 37.482 39.7481V43.4249Z" fill="white"/>
<circle cx="47.7458" cy="50.2797" r="5.65503" fill="white"/>
<path fill-rule="evenodd" clip-rule="evenodd" d="M47.7459 58.3333C52.3483 58.3333 56.0793 54.6024 56.0793 50C56.0793 45.3976 52.3483 41.6667 47.7459 41.6667C43.1436 41.6667 39.4126 45.3976 39.4126 50C39.4126 54.6024 43.1436 58.3333 47.7459 58.3333ZM52.3782 47.9169C52.6085 47.6597 52.5867 47.2646 52.3295 47.0343C52.0723 46.8041 51.6772 46.8259 51.447 47.0831L48.6393 50.2191C48.0704 50.8545 47.6873 51.2802 47.3597 51.5555C47.0477 51.8178 46.8644 51.875 46.7043 51.875C46.5442 51.875 46.3609 51.8178 46.0488 51.5555C45.7213 51.2802 45.3381 50.8545 44.7692 50.2191L44.0449 49.4101C43.8147 49.1529 43.4195 49.1311 43.1624 49.3613C42.9052 49.5916 42.8834 49.9867 43.1136 50.2439L43.8689 51.0874C44.3987 51.6793 44.8407 52.173 45.2446 52.5124C45.6718 52.8715 46.1325 53.125 46.7043 53.125C47.276 53.125 47.7368 52.8715 48.164 52.5124C48.5678 52.173 49.0098 51.6793 49.5397 51.0874L52.3782 47.9169Z" fill="#00B795"/>
</svg>
