<svg width="32" height="32" viewBox="0 0 32 32" fill="none" xmlns="http://www.w3.org/2000/svg">
<path d="M15.9984 13.0046C18.2075 13.0046 19.9984 14.7955 19.9984 17.0046C19.9984 19.2138 18.2075 21.0046 15.9984 21.0046C13.7893 21.0046 11.9984 19.2138 11.9984 17.0046C11.9984 14.7955 13.7893 13.0046 15.9984 13.0046ZM15.9984 9.5C20.6119 9.5 24.5945 12.65 25.6995 17.0644C25.8001 17.4662 25.5559 17.8735 25.1541 17.9741C24.7523 18.0746 24.345 17.8305 24.2444 17.4286C23.3055 13.678 19.9198 11 15.9984 11C12.0753 11 8.68851 13.6803 7.75127 17.4332C7.6509 17.835 7.24376 18.0794 6.84189 17.9791C6.44002 17.8787 6.1956 17.4716 6.29596 17.0697C7.39905 12.6527 11.3829 9.5 15.9984 9.5Z" fill="#737373"/>
</svg>
