<svg width="112" height="72" viewBox="0 0 112 72" fill="none" xmlns="http://www.w3.org/2000/svg">
<path d="M56.7699 0L54.0898 4.28L56.7699 8.58L59.4498 4.28L56.7699 0Z" fill="#2E3192"/>
<path d="M56.9698 35.6902L41.5498 21.1702L56.9698 6.66016L72.3999 21.1702L56.9698 35.6902ZM43.3899 21.1702L56.9698 33.9502L70.5398 21.1702L56.9698 8.3902L43.3899 21.1702Z" fill="#2E3192"/>
<path d="M61.0299 35.13L60.3799 34.51L74.5399 21.18L60.3799 7.82996L61.0299 7.20996L75.8499 21.18L61.0299 35.13Z" fill="#2E3192"/>
<path d="M52.5101 35.13L37.6802 21.18L52.5101 7.20996L53.1602 7.82996L39.0001 21.18L53.1602 34.51L52.5101 35.13Z" fill="#2E3192"/>
<path d="M56.77 36.52L57.49 38.63H59.85L57.9399 39.92L58.67 42.03L56.77 40.73L54.87 42.03L55.6 39.92L53.6899 38.63H56.05L56.77 36.52Z" fill="#2E3192"/>
<path d="M49.0199 37.5498L49.4799 38.8698H50.9498L49.7599 39.6898L50.2098 40.9998L49.0199 40.1998L47.8298 40.9998L48.2799 39.6898L47.0898 38.8698H48.5599L49.0199 37.5498Z" fill="#2E3192"/>
<path d="M64.5201 37.5498L64.0602 38.8698H62.5801L63.7902 39.6898L63.3201 40.9998L64.5201 40.1998L65.7101 40.9998L65.2601 39.6898L66.4501 38.8698H64.9701L64.5201 37.5498Z" fill="#2E3192"/>
<path d="M72.2699 38.0601L71.9498 39.0001H70.8999L71.7499 39.5701L71.4398 40.5001L72.2699 39.9201L73.1199 40.5001L72.7899 39.5701L73.6399 39.0001H72.5999L72.2699 38.0601Z" fill="#2E3192"/>
<path d="M93.58 37.0602C93.822 36.9901 94.0564 36.8963 94.2799 36.7801C94.1253 36.8824 93.9651 36.9759 93.7999 37.0602H94.9299C95.0928 36.8713 95.2369 36.667 95.36 36.4502C94.8941 36.3531 94.4127 36.3573 93.9486 36.4626C93.4845 36.5678 93.0484 36.7716 92.6699 37.0602H93.58Z" fill="#2E3192"/>
<path d="M87.9099 29.92C87.9099 29.58 87.72 29.15 86.99 28.77C87.3362 29.0004 87.6074 29.3272 87.77 29.71C87.7299 29.6784 87.6863 29.6516 87.64 29.63C87.3465 29.5107 87.0856 29.3233 86.8787 29.0834C86.6718 28.8434 86.5248 28.5578 86.45 28.25C88.35 28.25 87.9199 29.93 87.9199 29.93" fill="#2E3192"/>
<path d="M102.27 34.1802C102.27 33.6902 101.99 33.0702 100.92 32.5302C101.432 32.8567 101.833 33.331 102.07 33.8903C102.012 33.8391 101.949 33.7955 101.88 33.7603C101.456 33.5825 101.079 33.3096 100.777 32.9628C100.476 32.6161 100.258 32.2046 100.14 31.7603C102.91 31.7603 102.29 34.1802 102.29 34.1802" fill="#2E3192"/>
<path d="M97.74 31.4902C97.5615 31.6901 97.447 31.9389 97.4114 32.2045C97.3757 32.4701 97.4204 32.7403 97.5399 32.9802C97.4563 32.5615 97.5089 32.127 97.6899 31.7402C97.6777 31.7895 97.6777 31.841 97.6899 31.8903C97.8056 32.1936 97.8487 32.5198 97.8157 32.8428C97.7827 33.1658 97.6746 33.4766 97.5 33.7502C97.3122 33.6174 97.1626 33.4373 97.0664 33.2283C96.9702 33.0193 96.9309 32.7887 96.9522 32.5596C96.9734 32.3305 97.0547 32.1111 97.1878 31.9233C97.3208 31.7356 97.5009 31.5862 97.71 31.4902" fill="#2E3192"/>
<path d="M75.7399 29.1899C75.6376 29.0966 75.5131 29.031 75.3783 28.9995C75.2435 28.968 75.1029 28.9716 74.9698 29.0099C75.192 28.9963 75.4136 29.0447 75.6099 29.1499H75.5298C75.3598 29.1915 75.183 29.1971 75.0107 29.1661C74.8385 29.1351 74.6746 29.0682 74.5298 28.9699C74.6146 28.8869 74.7182 28.8255 74.8317 28.7909C74.9452 28.7563 75.0652 28.7496 75.1819 28.7711C75.2986 28.7927 75.4083 28.842 75.502 28.9149C75.5956 28.9878 75.6703 29.0821 75.7198 29.1899" fill="#2E3192"/>
<path d="M84.1401 30.0102C84.2882 30.0731 84.4501 30.096 84.6097 30.0767C84.7694 30.0574 84.9212 29.9965 85.05 29.9002C84.8134 29.9998 84.5545 30.0344 84.3 30.0002H84.3801C84.5464 29.8951 84.7331 29.8265 84.9279 29.7989C85.1227 29.7713 85.3212 29.7854 85.5101 29.8402C85.4461 29.9582 85.3556 30.0597 85.2458 30.137C85.1361 30.2142 85.0099 30.2649 84.8772 30.2853C84.7445 30.3056 84.609 30.295 84.4811 30.2542C84.3532 30.2134 84.2365 30.1436 84.1401 30.0502" fill="#2E3192"/>
<path d="M75.6699 30.8901C76.0446 30.8844 76.4101 30.7736 76.7249 30.5703C77.0396 30.3669 77.2908 30.0793 77.45 29.7401C77.0681 30.2098 76.5571 30.5575 75.98 30.7401C76.0378 30.6946 76.0883 30.6407 76.13 30.5801C76.3555 30.193 76.663 29.8598 77.031 29.6041C77.399 29.3484 77.8185 29.1764 78.26 29.1001C78.2627 29.4117 78.1897 29.7194 78.0476 29.9968C77.9055 30.2741 77.6983 30.5129 77.4437 30.6927C77.1892 30.8726 76.895 30.9881 76.5861 31.0294C76.2772 31.0708 75.9628 31.0367 75.6699 30.9301" fill="#2E3192"/>
<path d="M77.4 37.0601L77.5499 37.0001C77.7099 36.9401 77.8999 36.8801 78.0599 36.8101L78.6599 36.66C79.5382 36.4236 80.4409 36.2894 81.35 36.2601H82.52H82.9199C83.0599 36.2601 83.1899 36.2601 83.3199 36.2601C83.4583 36.272 83.5955 36.2954 83.73 36.3301C84.01 36.3301 84.2899 36.41 84.5599 36.48C85.0992 36.6041 85.6276 36.7713 86.14 36.98H88.5699L88.4099 36.8801C87.2776 36.253 86.0467 35.8235 84.77 35.61C83.6283 35.407 82.4643 35.3599 81.3099 35.47C80.346 35.5766 79.3989 35.8017 78.49 36.1401L77.9099 36.35L77.4 36.6L76.9299 36.84C76.8478 36.877 76.7705 36.924 76.7 36.98L77.4 37.0601Z" fill="#2E3192"/>
<path d="M73.34 30.07V30.13C73.3666 30.1756 73.3966 30.2191 73.43 30.26C73.5157 30.3606 73.6094 30.4542 73.71 30.5399C74.0729 30.808 74.5204 30.9358 74.97 30.8999C75.0654 30.8761 75.1623 30.8594 75.2601 30.8499L75.5201 30.7499H75.6C75.635 30.7188 75.6758 30.695 75.72 30.6799C75.7871 30.6268 75.8447 30.5625 75.8901 30.4899C75.9844 30.3801 76.0501 30.2488 76.0815 30.1075C76.1129 29.9662 76.1089 29.8193 76.07 29.6799C76.0372 29.5733 75.9827 29.4746 75.91 29.39C75.8518 29.316 75.7763 29.2576 75.69 29.2199C75.5654 29.1877 75.4346 29.1877 75.31 29.2199C75.2706 29.2297 75.2333 29.2466 75.2 29.2699C75.2 29.2699 75.2 29.2699 75.31 29.2699C75.4281 29.2479 75.5503 29.2731 75.6501 29.3399C75.7206 29.4028 75.7769 29.4798 75.8155 29.566C75.8541 29.6522 75.8741 29.7455 75.8741 29.8399C75.8741 29.9343 75.8541 30.0277 75.8155 30.1139C75.7769 30.2001 75.7206 30.2771 75.6501 30.3399C75.6501 30.3999 75.5501 30.4099 75.5201 30.4599H75.41H75.35L75.1201 30.51H74.8901C74.5541 30.5088 74.2302 30.3842 73.9801 30.1599C73.9236 30.1027 73.8702 30.0427 73.82 29.9799C73.7855 29.9382 73.7585 29.8908 73.7401 29.8399L73.67 29.7299C73.6078 29.5516 73.5642 29.3673 73.54 29.1799C73.4969 28.7713 73.5807 28.3593 73.78 27.9999C73.8922 27.8171 74.0229 27.6462 74.17 27.4899C74.2592 27.4177 74.3527 27.3509 74.45 27.2899L74.58 27.2L74.7301 27.13C75.2055 26.9287 75.714 26.8168 76.2301 26.7999C76.7673 26.7879 77.3011 26.8884 77.7971 27.0951C78.2931 27.3018 78.7403 27.61 79.1101 27.9999L79.3701 28.32L79.47 28.4699V28.5399C79.4958 28.5731 79.516 28.6103 79.53 28.6499L79.6401 28.8599V28.9599L79.79 29.3699C79.79 29.5099 79.87 29.6499 79.91 29.7799C79.95 29.9099 79.91 29.9299 79.97 29.9899V30.2099C79.97 30.3499 79.97 30.5 80.04 30.64V31.08C80.047 31.664 79.9729 32.2462 79.82 32.8099C79.6444 33.3814 79.3921 33.9263 79.07 34.4299C78.7192 34.9275 78.3058 35.3778 77.84 35.7699L77.4901 36.0499C77.3701 36.1399 77.2401 36.2099 77.1101 36.2899L76.93 36.3999L76.7 36.51L76.47 36.6199L76.3601 36.6799H76.31C76.18 36.7399 76.06 36.77 75.94 36.83H78.46L78.71 36.64C79.8577 35.7452 80.6855 34.5035 81.07 33.0999C81.257 32.4162 81.3412 31.7085 81.32 30.9999C81.2749 30.3168 81.1336 29.6435 80.9001 28.9999C80.8301 28.8399 80.76 28.6799 80.71 28.5299L80.6401 28.4099V28.3499L80.5201 28.1499C80.5201 28.0799 80.4201 28.0099 80.3801 27.9199L80.21 27.69C80.1 27.55 79.9801 27.4199 79.8601 27.2899C79.3614 26.7839 78.752 26.4005 78.08 26.1699C77.4412 25.9346 76.7584 25.8424 76.08 25.8999C75.443 25.944 74.821 26.1139 74.2501 26.3999L74.04 26.5199L73.85 26.6699C73.7243 26.7625 73.6072 26.8663 73.5001 26.9799C73.3061 27.1955 73.1445 27.438 73.0201 27.7C72.8486 28.0509 72.7653 28.4383 72.7775 28.8286C72.7897 29.219 72.897 29.6005 73.09 29.94" fill="#2E3192"/>
<path d="M78.4301 32.4802H78.5102C78.5395 32.4894 78.5708 32.4894 78.6001 32.4802C78.6633 32.4874 78.7269 32.4874 78.7901 32.4802C78.9048 32.4799 79.018 32.4525 79.1201 32.4002C79.2161 32.3422 79.2981 32.2637 79.3601 32.1702V32.1002C79.3657 32.0806 79.3657 32.0598 79.3601 32.0402C79.3704 31.9874 79.3704 31.9331 79.3601 31.8803C79.3436 31.7935 79.3015 31.7138 79.239 31.6514C79.1766 31.589 79.0969 31.5467 79.0102 31.5302C78.9411 31.514 78.8691 31.514 78.8001 31.5302C78.7711 31.5435 78.7455 31.5629 78.7248 31.587C78.704 31.6112 78.6888 31.6396 78.6801 31.6702C78.6663 31.6891 78.6588 31.7119 78.6588 31.7352C78.6588 31.7586 78.6663 31.7814 78.6801 31.8002C78.6801 31.8502 78.6801 31.8603 78.6801 31.8903H78.7401C78.7401 31.8403 78.6801 31.7902 78.7401 31.7102C78.7657 31.672 78.8026 31.6428 78.8456 31.6267C78.8887 31.6105 78.9357 31.6083 78.9801 31.6202C79.0376 31.6333 79.0893 31.6648 79.1272 31.7099C79.1651 31.7551 79.1872 31.8114 79.1901 31.8702C79.1901 31.8702 79.1901 31.9403 79.1901 31.9503C79.1901 31.9603 79.1901 31.9503 79.1901 32.0103C79.1493 32.0696 79.0943 32.1177 79.0301 32.1502C78.9626 32.187 78.887 32.2062 78.8101 32.2062C78.7332 32.2062 78.6576 32.187 78.5901 32.1502C78.5198 32.1065 78.4613 32.0464 78.4195 31.9749C78.3777 31.9035 78.3539 31.8229 78.3501 31.7402C78.3424 31.6557 78.3537 31.5706 78.3831 31.491C78.4125 31.4115 78.4594 31.3394 78.5202 31.2802C78.6481 31.1443 78.8164 31.0531 79.0002 31.0202C79.043 31.0107 79.0873 31.0107 79.1302 31.0202C79.1767 31.0152 79.2236 31.0152 79.2702 31.0202H79.3902L79.5401 31.0803C79.6101 31.0803 79.6902 31.1603 79.7702 31.1903L79.9801 31.3602L80.1302 31.5502C80.1302 31.6202 80.2001 31.6903 80.2401 31.7503C80.2801 31.8103 80.2401 31.9002 80.3001 31.9602C80.3601 32.0202 80.3001 32.0803 80.3001 32.1403C80.311 32.2467 80.311 32.3538 80.3001 32.4602C80.3001 32.6402 80.2301 32.7402 80.2301 32.7402V32.6702C80.2301 32.6702 80.2901 32.5702 80.3301 32.4802C80.3593 32.3687 80.3794 32.255 80.3902 32.1403C80.4002 32.074 80.4002 32.0065 80.3902 31.9403C80.395 31.8603 80.395 31.7802 80.3902 31.7003C80.3596 31.6176 80.3227 31.5373 80.2801 31.4602C80.2801 31.3802 80.1802 31.3002 80.1302 31.2102C80.0802 31.1202 79.9901 31.0803 79.9101 31.0103C79.8301 30.9403 79.7401 30.8903 79.6201 30.8303H79.4701C79.4701 30.8303 79.3501 30.8303 79.2801 30.8303C79.2205 30.8196 79.1597 30.8196 79.1001 30.8303H78.9101C78.6646 30.8811 78.4411 31.0069 78.2702 31.1903C78.1821 31.279 78.1141 31.3857 78.071 31.503C78.0278 31.6203 78.0105 31.7456 78.0202 31.8702C78.0359 31.9931 78.0803 32.1104 78.1498 32.2129C78.2193 32.3154 78.3118 32.4001 78.4201 32.4602" fill="#2E3192"/>
<path d="M98.3401 33.8999H98.4801C98.5328 33.9142 98.581 33.9417 98.6201 33.9799C98.6578 34.0096 98.6827 34.0525 98.6901 34.0999C98.6913 34.1232 98.6913 34.1466 98.6901 34.1699C98.6713 34.2067 98.6427 34.2374 98.6073 34.2586C98.5719 34.2798 98.5313 34.2907 98.4901 34.2899C98.476 34.2963 98.4606 34.2996 98.4451 34.2996C98.4296 34.2996 98.4143 34.2963 98.4001 34.2899C98.4001 34.2899 98.4001 34.2899 98.4001 34.2199C98.4001 34.1499 98.4001 34.2199 98.4001 34.1599C98.3938 34.1741 98.3905 34.1894 98.3905 34.205C98.3905 34.2205 98.3938 34.2358 98.4001 34.2499C98.408 34.2702 98.4217 34.2876 98.4395 34.3C98.4572 34.3125 98.4784 34.3195 98.5001 34.3199C98.527 34.3192 98.5529 34.3101 98.5743 34.294C98.5958 34.2779 98.6119 34.2555 98.6201 34.2299C98.6118 34.2046 98.5979 34.1815 98.5795 34.1622C98.5611 34.1429 98.5387 34.1279 98.5138 34.1183C98.4889 34.1088 98.4622 34.1049 98.4357 34.1069C98.4091 34.1089 98.3833 34.1168 98.3601 34.1299C98.3238 34.1379 98.2901 34.1548 98.2621 34.1793C98.2341 34.2038 98.2127 34.2349 98.2001 34.2699C98.1716 34.3439 98.1716 34.4259 98.2001 34.4999C98.2349 34.5749 98.2952 34.6351 98.3701 34.6699H98.4301H98.4901H98.6201H98.7501H98.8501L98.9501 34.6099C98.9651 34.5799 98.9855 34.5528 99.0101 34.5299L99.0801 34.45C99.0801 34.45 99.0801 34.3899 99.0801 34.3699C99.0932 34.3208 99.0932 34.269 99.0801 34.2199V34.08C99.0724 34.1128 99.0724 34.147 99.0801 34.1799C99.0801 34.1799 99.0801 34.2799 99.0801 34.3399C99.0893 34.3692 99.0893 34.4006 99.0801 34.4299C99.0655 34.4662 99.0453 34.5 99.0201 34.5299C99.0201 34.5299 99.0201 34.6099 98.9501 34.6299L98.8601 34.7199C98.8138 34.7372 98.77 34.7607 98.7301 34.7899C98.6805 34.7985 98.6297 34.7985 98.5801 34.7899H98.41H98.3301H98.2501C98.1472 34.7367 98.0634 34.6528 98.0101 34.5499C97.983 34.4992 97.9688 34.4425 97.9688 34.3849C97.9688 34.3274 97.983 34.2707 98.0101 34.2199C98.0312 34.1641 98.0661 34.1147 98.1116 34.0762C98.1571 34.0377 98.2117 34.0114 98.2701 33.9999" fill="#2E3192"/>
<path d="M86.13 28.3801C86.13 28.3801 86.13 28.38 86.13 28.31C86.14 28.2572 86.14 28.2029 86.13 28.15C86.098 28.1147 86.0609 28.0844 86.02 28.06H85.8699C85.832 28.0679 85.797 28.086 85.7687 28.1125C85.7405 28.1389 85.7202 28.1727 85.7099 28.21C85.6985 28.2424 85.6985 28.2777 85.7099 28.31C85.7099 28.31 85.7099 28.31 85.7099 28.36H85.7799C85.7799 28.36 85.7799 28.36 85.6999 28.36C85.6199 28.36 85.6299 28.3001 85.6999 28.2501C85.7087 28.2228 85.7262 28.1992 85.7497 28.183C85.7732 28.1667 85.8014 28.1586 85.8299 28.16L85.9 28.23C85.9167 28.2589 85.9254 28.2917 85.9254 28.3251C85.9254 28.3584 85.9167 28.3912 85.9 28.42C85.8788 28.4516 85.8505 28.4779 85.8176 28.497C85.7847 28.5161 85.7479 28.5274 85.7099 28.53C85.6704 28.5347 85.6303 28.5309 85.5924 28.5188C85.5544 28.5067 85.5195 28.4866 85.4899 28.46C85.4186 28.408 85.366 28.3344 85.3399 28.2501V28.0701V28.0101C85.3688 27.981 85.3924 27.9471 85.4099 27.91L85.4899 27.8201L85.5899 27.7501L85.6899 27.7001H85.7799H85.8699C85.9194 27.6898 85.9705 27.6898 86.02 27.7001H86.1699H86.0799C86.0235 27.6926 85.9663 27.6926 85.9099 27.7001H85.8199H85.6999H85.5799C85.5389 27.7276 85.4954 27.751 85.4499 27.77L85.3599 27.87C85.3221 27.9055 85.2944 27.9504 85.2799 28.0001V28.06C85.2764 28.0866 85.2764 28.1135 85.2799 28.1401C85.2707 28.1659 85.2707 28.1941 85.2799 28.22C85.2706 28.2493 85.2706 28.2808 85.2799 28.31C85.3069 28.4209 85.3703 28.5194 85.4599 28.59C85.5038 28.6273 85.5548 28.6554 85.6098 28.6725C85.6648 28.6897 85.7225 28.6957 85.7799 28.6901C85.8394 28.6859 85.8973 28.6684 85.9492 28.639C86.0011 28.6096 86.0457 28.5689 86.0799 28.52" fill="#2E3192"/>
<path d="M78.46 37.0598L78.6699 36.8398C78.8999 36.5898 79.2199 36.3098 79.5699 35.9798C79.9874 35.6481 80.4213 35.3377 80.87 35.0498C80.9899 34.9595 81.117 34.8793 81.25 34.8098C81.37 34.7398 81.5099 34.6898 81.6599 34.6098C81.7993 34.535 81.9429 34.4682 82.09 34.4098L82.5599 34.2698C82.8852 34.1636 83.2202 34.0899 83.5599 34.0498C83.8999 34.0498 84.2399 34.0498 84.5599 34.0498C84.9241 34.0624 85.2861 34.1127 85.64 34.1998C85.9804 34.2787 86.3147 34.3823 86.64 34.5098C87.01 34.6398 87.33 34.8398 87.64 34.9898L88.64 35.5998C88.94 35.8398 89.2799 36.0498 89.5699 36.2998C89.8599 36.5498 90.1399 36.7698 90.4299 37.0398L90.5 37.1098H91.27C91.14 36.9598 90.99 36.8198 90.85 36.6798C90.55 36.3998 90.24 36.1498 89.95 35.8798C89.66 35.6098 89.31 35.3998 88.95 35.1498C88.59 34.8998 88.26 34.7398 87.95 34.5098C87.64 34.2798 87.23 34.1398 86.84 34.0198C86.4622 33.8807 86.0744 33.7705 85.6799 33.6898C85.2955 33.606 84.9035 33.5624 84.51 33.5598C84.3203 33.5452 84.1297 33.5452 83.9399 33.5598C83.7534 33.549 83.5665 33.549 83.38 33.5598C83.0405 33.6336 82.7063 33.7304 82.38 33.8498L81.89 34.0298L81.4399 34.2598L81.01 34.4898L80.64 34.7598C80.1858 35.0563 79.7576 35.3908 79.36 35.7598C79.04 36.1198 78.73 36.4098 78.52 36.6898C78.4301 36.7876 78.3466 36.8912 78.27 36.9998L78.46 37.0598Z" fill="#2E3192"/>
<path d="M97.56 34.9401C97.7551 35.0245 97.9675 35.0613 98.1797 35.0474C98.3918 35.0334 98.5976 34.9693 98.78 34.8601C99.0037 34.7277 99.1711 34.5177 99.2501 34.2701C99.2602 34.1837 99.2602 34.0965 99.2501 34.0101C99.2356 34.098 99.2155 34.1848 99.19 34.2701C99.102 34.5106 98.932 34.7124 98.7101 34.8401C98.5285 34.9249 98.3305 34.9689 98.1301 34.9689C97.9297 34.9689 97.7316 34.9249 97.55 34.8401C97.3152 34.7662 97.1017 34.6367 96.9276 34.4626C96.7535 34.2885 96.6239 34.0749 96.55 33.8401C96.4881 33.5578 96.4845 33.2658 96.5395 32.982C96.5945 32.6983 96.7071 32.4288 96.8701 32.1901C97.0517 31.9108 97.288 31.6711 97.5647 31.4855C97.8414 31.2999 98.1527 31.1722 98.4801 31.1101C98.6552 31.0589 98.838 31.0386 99.0201 31.0501C99.1001 31.0501 99.22 31.0501 99.28 31.0501H99.56C99.7417 31.0738 99.922 31.1071 100.1 31.1501L100.62 31.3501C101.301 31.6345 101.884 32.1104 102.3 32.7201C102.407 32.859 102.498 33.01 102.57 33.1701C102.656 33.3248 102.723 33.4893 102.77 33.6601L102.91 34.1701C102.91 34.3501 102.91 34.5301 102.91 34.7101C102.911 35.3957 102.778 36.0749 102.52 36.7101L102.37 37.0201H102.77C102.804 36.9621 102.834 36.902 102.86 36.8401C103.135 36.1533 103.274 35.4198 103.27 34.6801V34.1201L103.11 33.5701C103.057 33.3794 102.983 33.1949 102.89 33.0201C102.814 32.8373 102.713 32.6658 102.59 32.5101C102.122 31.8608 101.476 31.3607 100.73 31.0701L100.17 30.8701C99.9794 30.8248 99.7855 30.7946 99.5901 30.7801H99.3C99.2037 30.7693 99.1065 30.7693 99.0101 30.7801C98.815 30.7758 98.6201 30.796 98.43 30.8401C98.0763 30.9215 97.7423 31.0721 97.4471 31.2832C97.1519 31.4943 96.9014 31.7618 96.7101 32.0701C96.6601 32.1344 96.6133 32.2011 96.57 32.2701L96.4801 32.5001C96.42 32.6434 96.3829 32.7953 96.3701 32.9501C96.3454 33.1058 96.3454 33.2644 96.3701 33.4201C96.3698 33.563 96.3934 33.705 96.44 33.8401C96.5227 34.0982 96.6671 34.3324 96.8604 34.5223C97.0538 34.7122 97.2904 34.8521 97.55 34.9301" fill="#2E3192"/>
<path d="M99.3401 32.47C99.4865 32.4829 99.6336 32.4829 99.78 32.47C99.637 32.4829 99.4931 32.4829 99.3501 32.47C99.1502 32.4435 98.958 32.3755 98.7858 32.2705C98.6136 32.1654 98.4652 32.0257 98.3501 31.86C98.2179 31.5926 98.149 31.2983 98.149 31C98.149 30.7017 98.2179 30.4074 98.3501 30.1401C98.5271 29.7852 98.7918 29.4814 99.119 29.2574C99.4463 29.0334 99.8252 28.8966 100.22 28.86C101.185 28.7349 102.163 28.966 102.97 29.51C103.397 29.8035 103.757 30.1844 104.026 30.6275C104.295 31.0705 104.467 31.5656 104.53 32.0801C104.677 33.1629 104.504 34.2651 104.03 35.25C103.698 35.9305 103.244 36.544 102.69 37.06H102.91C103.425 36.551 103.851 35.9595 104.17 35.31C104.639 34.2953 104.802 33.166 104.64 32.06C104.572 31.5331 104.393 31.0268 104.113 30.575C103.834 30.1231 103.461 29.7362 103.02 29.44C102.203 28.8766 101.202 28.6443 100.22 28.79C100.107 28.7748 99.9929 28.7748 99.8801 28.79C99.7745 28.8157 99.6708 28.8492 99.5701 28.8901C99.3722 28.9652 99.1869 29.0697 99.0201 29.2C98.7081 29.4262 98.46 29.7294 98.3 30.0801C98.1622 30.3511 98.0903 30.6509 98.0903 30.9551C98.0903 31.2592 98.1622 31.559 98.3 31.8301C98.4171 31.992 98.5663 32.1279 98.7384 32.2295C98.9105 32.331 99.1017 32.3959 99.3 32.42" fill="#2E3192"/>
<path d="M84.34 36.5098C84.55 36.5698 84.7399 36.6498 84.9399 36.7098L85.49 36.9498C85.5522 36.9828 85.6122 37.0195 85.6699 37.0598H86.1C85.9416 36.9407 85.7745 36.8337 85.6 36.7398C85.4182 36.6399 85.2312 36.5498 85.0399 36.4698C84.8499 36.3798 84.6299 36.3098 84.4299 36.2298C83.9999 36.1298 83.57 36.0098 83.11 35.8898C82.9911 35.8606 82.8742 35.8238 82.76 35.7798L82.5 36.0198L83.0399 36.1798C83.4699 36.2998 83.91 36.4098 84.34 36.5098Z" fill="#2E3192"/>
<path d="M84.58 37.0599H84.6699C84.3609 36.808 84.0256 36.59 83.6699 36.4099C83.3019 36.2108 82.9129 36.0532 82.51 35.9399C82.9176 36.0487 83.3104 36.2065 83.6799 36.4099C83.9961 36.5935 84.3001 36.7972 84.59 37.0199" fill="#2E3192"/>
<path d="M85.6998 33.8002L85.0498 33.9001L83.6898 33.9902C83.5598 33.9902 83.4198 33.9902 83.2998 34.0402L83.1099 33.7602C83.2937 33.7194 83.4815 33.6993 83.6698 33.7002L85.0099 33.6202C85.2299 33.6202 85.4398 33.6202 85.6598 33.5302L86.2399 33.4001C86.5907 33.2969 86.9268 33.149 87.2399 32.9601C87.502 32.8004 87.738 32.6015 87.9398 32.3702C88.0811 32.1856 88.1987 31.984 88.2898 31.7701C88.3693 31.5827 88.4167 31.3833 88.4298 31.1802C88.4362 31.2333 88.4362 31.287 88.4298 31.3401C88.4305 31.4962 88.407 31.6514 88.3599 31.8002C88.2823 32.0319 88.1711 32.2509 88.0298 32.4502C87.8461 32.7168 87.6117 32.9444 87.3398 33.1202C87.0119 33.3361 86.655 33.5045 86.2798 33.6202C86.0898 33.6802 85.8898 33.7502 85.6698 33.8002" fill="#2E3192"/>
<path d="M87.4801 32.8L87.5801 32.69C87.6834 32.5942 87.7712 32.4829 87.8401 32.36C87.9673 32.1787 88.0745 31.9842 88.16 31.78C88.3532 31.3295 88.4392 30.8405 88.4115 30.3512C88.3837 29.8619 88.2429 29.3856 88.0001 28.96C87.7973 28.6116 87.5249 28.3087 87.2001 28.07C87.1236 27.9981 87.0398 27.9344 86.9501 27.88L86.66 27.74C86.5658 27.7027 86.4689 27.6726 86.3701 27.65C86.2657 27.6195 86.1584 27.5994 86.05 27.59C85.6271 27.5366 85.1976 27.6024 84.81 27.78L84.53 27.92C84.43 27.92 84.37 28.05 84.29 28.09L84.17 28.19C84.17 28.19 84.1 28.27 84.06 28.3C84.0019 28.3801 83.9486 28.4636 83.9001 28.55C83.8167 28.7015 83.7663 28.869 83.7525 29.0414C83.7388 29.2138 83.7617 29.3871 83.8201 29.55C83.8694 29.7098 83.952 29.8574 84.0622 29.9832C84.1725 30.109 84.3081 30.2101 84.4601 30.28C84.5903 30.3394 84.7319 30.3702 84.8751 30.3702C85.0183 30.3702 85.1597 30.3394 85.29 30.28C85.3938 30.2389 85.4856 30.1726 85.5572 30.087C85.6288 30.0015 85.6779 29.8993 85.7001 29.79C85.7292 29.6494 85.7043 29.503 85.6301 29.38C85.5908 29.3493 85.5569 29.312 85.53 29.2699L85.6301 29.38C85.7131 29.5036 85.7518 29.6516 85.7401 29.8C85.7148 29.913 85.6649 30.019 85.5941 30.1106C85.5232 30.2022 85.4331 30.2771 85.3301 30.33C85.1908 30.4029 85.0375 30.445 84.8805 30.4537C84.7235 30.4623 84.5665 30.4372 84.42 30.38C84.3354 30.3478 84.2575 30.3003 84.19 30.24C84.1 30.24 84.0601 30.13 83.9901 30.06C83.9243 29.9966 83.8701 29.9221 83.8301 29.84L83.7501 29.73C83.7501 29.73 83.7501 29.64 83.7001 29.6C83.6316 29.4135 83.6034 29.2146 83.6172 29.0164C83.631 28.8182 83.6864 28.6252 83.78 28.45C83.8247 28.3537 83.8857 28.2657 83.9601 28.19C83.9894 28.1437 84.0229 28.1002 84.06 28.06L84.18 27.97C84.27 27.9 84.35 27.8199 84.43 27.7699L84.7401 27.6C85.1535 27.4016 85.6148 27.3253 86.0701 27.38C86.1831 27.3689 86.297 27.3689 86.41 27.38C86.5246 27.4062 86.6355 27.4465 86.7401 27.5L87.0701 27.64L87.3301 27.82C87.6736 28.0971 87.9619 28.4363 88.18 28.82C88.3816 29.1581 88.5173 29.5314 88.5801 29.92C88.6446 30.267 88.6446 30.6229 88.5801 30.97C88.5408 31.2632 88.46 31.5495 88.3401 31.82C88.2861 31.9332 88.2259 32.0433 88.16 32.15L88.0001 32.42L87.7101 32.76L87.6101 32.87C87.5888 32.887 87.5623 32.8963 87.535 32.8963C87.5078 32.8963 87.4813 32.887 87.4601 32.87C87.4513 32.8616 87.4443 32.8515 87.4396 32.8403C87.4348 32.8292 87.4324 32.8171 87.4324 32.805C87.4324 32.7928 87.4348 32.7808 87.4396 32.7696C87.4443 32.7585 87.4513 32.7484 87.4601 32.74" fill="#2E3192"/>
<path d="M83.1599 33.7999C83.5911 33.7631 84.017 33.6793 84.4299 33.5499C85.0065 33.366 85.555 33.1035 86.0599 32.7699C86.5834 32.4014 87.0485 31.9565 87.4399 31.4499C87.8451 30.9471 88.1014 30.3409 88.1799 29.6999C88.2577 29.0609 88.1429 28.4132 87.85 27.8399C87.5542 27.2759 87.1075 26.8051 86.5599 26.4799C86.304 26.3178 86.0185 26.2078 85.7198 26.1563C85.4212 26.1048 85.1154 26.1128 84.8199 26.1799C84.295 26.3017 83.8328 26.6111 83.52 27.0499C83.3865 27.2273 83.306 27.439 83.2883 27.6604C83.2706 27.8817 83.3163 28.1035 83.4199 28.2999C83.5017 28.453 83.6155 28.5868 83.7535 28.692C83.8916 28.7973 84.0507 28.8716 84.22 28.9099C84.3325 28.926 84.4472 28.9175 84.556 28.8846C84.6649 28.8518 84.7652 28.7956 84.85 28.7199C84.9141 28.6751 84.9714 28.6212 85.02 28.5599C84.976 28.6186 84.9257 28.6722 84.87 28.7199C84.783 28.7989 84.6796 28.8579 84.5673 28.8924C84.4549 28.927 84.3364 28.9364 84.22 28.9199C84.0448 28.8869 83.8793 28.815 83.7356 28.7094C83.5919 28.6038 83.4738 28.4673 83.39 28.3099C83.2981 28.1193 83.247 27.9115 83.24 27.6999C83.2498 27.581 83.2732 27.4635 83.3099 27.3499C83.3291 27.2981 83.3526 27.2479 83.38 27.1999C83.405 27.1418 83.4387 27.0878 83.48 27.0399C83.7862 26.5777 84.2591 26.2517 84.7999 26.1299C85.416 25.9879 86.0633 26.0958 86.6 26.4299C87.1594 26.763 87.6161 27.244 87.9199 27.8199C88.2193 28.402 88.3411 29.0592 88.27 29.7099C88.1809 30.3613 87.9106 30.9746 87.49 31.4799C87.1059 31.9993 86.6358 32.4492 86.1 32.8099C85.5904 33.148 85.0346 33.4107 84.45 33.5899C84.0404 33.7192 83.6178 33.8031 83.1899 33.8399" fill="#2E3192"/>
<path d="M74.1798 26.5898L73.8298 26.6498C73.7011 26.6897 73.5771 26.7434 73.4598 26.8098L73.2699 26.9398C73.1983 26.9942 73.1314 27.0544 73.0698 27.1198L72.8999 27.3298L72.7599 27.5898C72.7599 27.6798 72.6998 27.7798 72.6798 27.8798C72.6698 27.9762 72.6698 28.0734 72.6798 28.1698V28.3498C72.6798 28.3998 72.6798 28.4398 72.7298 28.4798C72.7408 28.5317 72.7649 28.5799 72.7998 28.6198C72.8148 28.6691 72.8467 28.7116 72.8899 28.7398C73.0331 28.9128 73.2303 29.0326 73.4498 29.0798C73.5504 29.1104 73.6562 29.1208 73.7608 29.1105C73.8655 29.1002 73.9671 29.0694 74.0598 29.0198C74.1438 28.9703 74.2166 28.9039 74.2734 28.8246C74.3302 28.7454 74.3699 28.6552 74.3899 28.5598C74.408 28.4739 74.4006 28.3846 74.3686 28.3029C74.3367 28.2212 74.2814 28.1506 74.2098 28.0998C74.1476 28.0476 74.0708 28.0162 73.9898 28.0098H73.8398H73.7398C73.6789 28.0409 73.6295 28.0907 73.5989 28.1519C73.5683 28.213 73.5581 28.2824 73.5698 28.3498C73.5854 28.4032 73.6165 28.4508 73.6593 28.4864C73.702 28.522 73.7544 28.5441 73.8098 28.5498C73.849 28.5525 73.8883 28.5447 73.9234 28.5271C73.9586 28.5095 73.9885 28.4829 74.0099 28.4498C74.0159 28.4235 74.0159 28.3961 74.0099 28.3698V28.4598C74.0099 28.4598 74.0098 28.5198 73.9298 28.5498C73.8899 28.5847 73.8417 28.6088 73.7898 28.6198C73.7107 28.6175 73.6327 28.6006 73.5598 28.5698C73.4865 28.522 73.4305 28.4519 73.3999 28.3698C73.3711 28.2696 73.3771 28.1626 73.4171 28.0663C73.4571 27.97 73.5285 27.8901 73.6199 27.8398C73.6199 27.8398 73.7098 27.7798 73.7898 27.7598H73.9598C74.0957 27.7633 74.2291 27.7974 74.3498 27.8598C74.4599 27.941 74.5491 28.0473 74.6098 28.1698C74.641 28.2361 74.6612 28.307 74.6698 28.3798C74.6698 28.3798 74.6698 28.3798 74.6698 28.4798V28.5798C74.6508 28.7237 74.6008 28.8618 74.5231 28.9844C74.4453 29.107 74.3419 29.2112 74.2198 29.2898C73.9487 29.4287 73.6376 29.4688 73.3401 29.4031C73.0426 29.3374 72.7773 29.17 72.5898 28.9298C72.5405 28.878 72.4969 28.821 72.4598 28.7598C72.422 28.6969 72.3919 28.6298 72.3699 28.5598C72.3607 28.4935 72.3607 28.4262 72.3699 28.3598V28.1798C72.3591 28.0534 72.3591 27.9262 72.3699 27.7998C72.3699 27.6898 72.4699 27.5698 72.4999 27.4698C72.5299 27.3698 72.6198 27.2698 72.6798 27.1798C72.7398 27.0898 72.8398 27.0298 72.9098 26.9498C72.9798 26.8698 73.0699 26.8298 73.1499 26.7898C73.2272 26.7408 73.3115 26.7037 73.3999 26.6798C73.5317 26.6271 73.6693 26.5902 73.8098 26.5698H74.1698L74.1798 26.5898Z" fill="#2E3192"/>
<path d="M78.5298 36.9999L79.2599 36.3099C79.4999 36.0799 79.7498 35.7799 80.0498 35.4399C80.4066 35.0635 80.7405 34.6661 81.0498 34.2499C81.2198 34.0199 81.3599 33.7698 81.5099 33.5298C81.682 33.2691 81.8389 32.9987 81.9799 32.7198C82.2846 32.128 82.5324 31.5086 82.7198 30.8699C82.8214 30.5427 82.8982 30.2085 82.9498 29.8699C83.0238 29.5109 83.0673 29.1462 83.0798 28.7798C83.1177 28.0502 83.0707 27.3187 82.9398 26.5999C82.621 25.1675 82.0304 23.8096 81.1998 22.5999C80.46 21.5567 79.6009 20.6036 78.6399 19.7599C77.9546 19.1616 77.2296 18.6103 76.4698 18.1099C75.9098 17.7599 75.5698 17.5898 75.5698 17.5898C75.5698 17.5898 75.8799 17.7999 76.3999 18.1999C77.102 18.7486 77.77 19.3396 78.3999 19.9698C79.2935 20.8361 80.0883 21.7986 80.7699 22.8398C81.5511 23.9982 82.0949 25.3 82.3699 26.6699C82.514 27.3499 82.5744 28.0451 82.5498 28.7399C82.5456 29.0755 82.5121 29.4101 82.4498 29.7399C82.4005 30.0772 82.3304 30.4112 82.2399 30.7399C82.0717 31.3563 81.8543 31.9582 81.5898 32.5399C81.4747 32.8152 81.341 33.0825 81.1898 33.3398C81.0623 33.5902 80.9222 33.8339 80.7699 34.0699C80.3043 34.8189 79.7863 35.5339 79.2198 36.2098L78.5698 36.9799" fill="#2E3192"/>
<path d="M75.8301 17.3501C76.3401 16.7601 76.7601 17.5001 75.9601 17.5801C76.7601 17.5001 76.5202 18.3001 75.8902 17.8201C76.5202 18.3001 75.7402 18.7001 75.6402 17.9501C75.7402 18.7001 74.8802 18.4701 75.3902 17.8801C74.8802 18.4701 74.4601 17.7401 75.2501 17.6501C74.4601 17.7401 74.7001 16.9301 75.3301 17.4101C74.7001 16.9301 75.4801 16.5301 75.5701 17.2901C75.4801 16.5301 76.3401 16.7601 75.8301 17.3501Z" fill="#2E3192"/>
<path d="M111.75 37.0801H73.8V37.7401H111.75V37.0801Z" fill="#2E3192"/>
<path d="M19.73 37.0602C19.59 36.9802 19.43 36.8901 19.27 36.7801C19.4925 36.8986 19.7272 36.9925 19.97 37.0602H20.87C20.4915 36.7716 20.0554 36.5678 19.5913 36.4626C19.1272 36.3573 18.6458 36.3531 18.1799 36.4502C18.2963 36.6688 18.4373 36.8734 18.6 37.0602H19.73Z" fill="#2E3192"/>
<path d="M25.6401 29.92C25.6401 29.58 25.8401 29.15 26.5701 28.77C26.2198 28.9985 25.9449 29.3256 25.78 29.71C25.8186 29.6762 25.8626 29.6492 25.91 29.63C26.2034 29.5072 26.465 29.319 26.6747 29.0799C26.8844 28.8407 27.0367 28.5569 27.1201 28.25C25.2001 28.25 25.6401 29.93 25.6401 29.93" fill="#2E3192"/>
<path d="M11.27 34.1802C11.27 33.6902 11.5399 33.0702 12.6199 32.5302C12.1078 32.8567 11.7067 33.331 11.4699 33.8903C11.5276 33.8391 11.5913 33.7955 11.6599 33.7603C12.0837 33.5825 12.4611 33.3096 12.7628 32.9628C13.0645 32.6161 13.2825 32.2046 13.4 31.7603C10.63 31.7603 11.25 34.1802 11.25 34.1802" fill="#2E3192"/>
<path d="M15.79 31.4902C15.969 31.6897 16.0846 31.9379 16.122 32.2032C16.1594 32.4686 16.117 32.7391 16.0001 32.9802C16.0807 32.5604 16.0246 32.1258 15.8401 31.7402C15.8524 31.7895 15.8524 31.841 15.8401 31.8903C15.7249 32.1947 15.684 32.5221 15.7205 32.8456C15.757 33.169 15.8699 33.4791 16.0501 33.7502C16.2341 33.6133 16.3794 33.4307 16.4714 33.2206C16.5635 33.0104 16.5991 32.7799 16.5748 32.5518C16.5506 32.3236 16.4674 32.1058 16.3333 31.9196C16.1992 31.7335 16.0188 31.5855 15.8101 31.4902" fill="#2E3192"/>
<path d="M37.7998 29.1903C37.901 29.0953 38.0255 29.0286 38.1606 28.997C38.2958 28.9654 38.437 28.97 38.5698 29.0103C38.3444 28.9964 38.1195 29.0448 37.9198 29.1502H38.0099C38.1797 29.1945 38.357 29.2014 38.5297 29.1703C38.7023 29.1392 38.8662 29.0709 39.0099 28.9702C38.9261 28.8872 38.8234 28.8257 38.7106 28.791C38.5978 28.7564 38.4782 28.7495 38.3622 28.7711C38.2462 28.7928 38.1372 28.8422 38.0444 28.9152C37.9517 28.9882 37.8781 29.0826 37.8298 29.1903" fill="#2E3192"/>
<path d="M29.4001 30.0101C29.2521 30.0729 29.0901 30.0958 28.9304 30.0765C28.7707 30.0572 28.6189 29.9963 28.4901 29.9001C28.7267 29.9997 28.9857 30.0342 29.2401 30.0001H29.1501C28.9877 29.8948 28.8043 29.826 28.6127 29.7984C28.4211 29.7708 28.2256 29.785 28.04 29.8401C28.1014 29.9595 28.1902 30.0627 28.2991 30.1413C28.408 30.2198 28.5338 30.2714 28.6665 30.2919C28.7992 30.3124 28.9349 30.3012 29.0624 30.2591C29.1899 30.2171 29.3057 30.1455 29.4001 30.0501" fill="#2E3192"/>
<path d="M37.8799 30.8901C37.5087 30.8807 37.1474 30.7681 36.8366 30.565C36.5257 30.3619 36.2776 30.0763 36.1199 29.7401C36.4923 30.211 36.9973 30.5594 37.5698 30.7401C37.5176 30.6919 37.4707 30.6383 37.4298 30.5801C37.2048 30.1925 36.8975 29.859 36.5294 29.6033C36.1614 29.3475 35.7416 29.1757 35.2998 29.1001C35.2989 29.4121 35.3733 29.7198 35.5166 29.997C35.6599 30.2742 35.868 30.5127 36.1232 30.6923C36.3784 30.8719 36.6731 30.9873 36.9824 31.0287C37.2917 31.0701 37.6065 31.0363 37.8999 30.9301" fill="#2E3192"/>
<path d="M27.4 37.0603C27.9129 36.8529 28.4412 36.6857 28.98 36.5603C29.25 36.4903 29.5299 36.4602 29.8099 36.4102C29.9444 36.3755 30.0816 36.3521 30.22 36.3402C30.35 36.3402 30.48 36.3402 30.62 36.3402H31.01H32.1699C33.0889 36.3689 34.0017 36.5031 34.89 36.7402L35.47 36.8903L35.99 37.0803L36.13 37.1403H36.84C36.7709 37.0821 36.6934 37.0348 36.61 37.0003L36.14 36.7603L35.62 36.5103L35.0499 36.3002C34.1407 35.9629 33.1938 35.738 32.23 35.6303C31.079 35.52 29.9182 35.5671 28.7799 35.7702C27.4996 35.982 26.2652 36.4115 25.13 37.0402L24.97 37.1403L27.4 37.0603Z" fill="#2E3192"/>
<path d="M33.02 35.27C33.4327 35.8727 33.9313 36.4117 34.5 36.87L34.75 37.06H37.27C37.15 37 37.01 36.97 36.89 36.91H36.83L36.72 36.85L36.49 36.74L36.26 36.6301L36.08 36.52C35.95 36.44 35.83 36.37 35.71 36.28L35.34 36.0001C34.8805 35.6075 34.4738 35.1571 34.13 34.66C33.4528 33.6763 33.1029 32.5041 33.13 31.31V30.87C33.13 30.73 33.13 30.5801 33.19 30.4401V30.22C33.19 30.16 33.21 30.0901 33.25 30.0101C33.25 29.8801 33.32 29.74 33.37 29.6L33.52 29.1901V29.09L33.63 28.8801V28.77L33.69 28.7001L33.7899 28.55L34.05 28.23C34.4208 27.8388 34.8697 27.5299 35.3676 27.3232C35.8654 27.1165 36.4011 27.0166 36.94 27.03C37.4528 27.047 37.958 27.1589 38.43 27.36L38.58 27.43L38.71 27.52C38.8073 27.5809 38.9008 27.6477 38.99 27.72C39.1401 27.8737 39.2711 28.0449 39.38 28.23C39.5752 28.5909 39.6587 29.0016 39.62 29.41C39.5922 29.5977 39.5453 29.7819 39.48 29.96L39.4099 30.0701C39.3948 30.1204 39.3712 30.1677 39.34 30.21L39.18 30.3901C38.9298 30.6144 38.606 30.7389 38.27 30.74H38.0399L37.81 30.6901H37.75H37.65C37.65 30.6401 37.55 30.6301 37.51 30.5701C37.4426 30.5038 37.3899 30.4239 37.3555 30.3358C37.3211 30.2477 37.3058 30.1533 37.3106 30.0588C37.3153 29.9644 37.34 29.872 37.383 29.7877C37.426 29.7035 37.4862 29.6293 37.56 29.5701C37.6598 29.5032 37.7819 29.4781 37.9 29.5001C37.9431 29.4926 37.9869 29.4926 38.0299 29.5001L37.9099 29.4501C37.7819 29.4179 37.6481 29.4179 37.52 29.4501C37.4322 29.4898 37.3537 29.5477 37.2899 29.62C37.22 29.7037 37.1721 29.8033 37.15 29.91C37.1101 30.048 37.1038 30.1935 37.1316 30.3345C37.1595 30.4754 37.2206 30.6076 37.31 30.72C37.3639 30.7955 37.4319 30.86 37.51 30.91L37.61 30.98H37.68L37.95 31.0801C38.0481 31.087 38.1453 31.1037 38.24 31.1301C38.6896 31.1651 39.1368 31.0372 39.5 30.77C39.6007 30.6843 39.6942 30.5907 39.7799 30.49C39.8165 30.4517 39.847 30.4078 39.87 30.36V30.3C39.9826 30.0862 40.0634 29.8572 40.11 29.62C40.2228 29.0944 40.1595 28.5462 39.93 28.06C39.8056 27.7981 39.6439 27.5556 39.45 27.34C39.3452 27.224 39.2278 27.12 39.1 27.03C39.0406 26.9752 38.977 26.9251 38.9099 26.8801L38.7 26.7601C38.1054 26.4687 37.459 26.2984 36.7981 26.2589C36.1372 26.2194 35.475 26.3115 34.85 26.53C34.1822 26.7632 33.5767 27.1464 33.08 27.65L32.73 28.05L32.56 28.28L32.4199 28.5101L32.3 28.71V28.77V28.8901L32.09 29.36C31.8519 30.0023 31.7103 30.6763 31.6699 31.36C31.6537 32.0683 31.7378 32.7753 31.9199 33.46C32.121 34.1464 32.4209 34.7999 32.81 35.4" fill="#2E3192"/>
<path d="M35.1101 32.48H35.03H34.9501C34.8869 32.4872 34.8232 32.4872 34.7601 32.48C34.6421 32.4798 34.5257 32.4524 34.42 32.4C34.3223 32.3478 34.2423 32.2678 34.19 32.17C34.1845 32.1504 34.1845 32.1297 34.19 32.11C34.1798 32.0572 34.1798 32.0029 34.19 31.9501C34.2065 31.8634 34.2487 31.7836 34.3111 31.7212C34.3736 31.6588 34.4533 31.6165 34.54 31.6C34.6125 31.584 34.6877 31.584 34.7601 31.6C34.8201 31.6 34.8401 31.69 34.8901 31.74C34.8951 31.7832 34.8951 31.8269 34.8901 31.8701C34.8901 31.9201 34.8901 31.93 34.8301 31.96H34.7701H34.82C34.82 31.91 34.82 31.86 34.82 31.78C34.7935 31.7429 34.7565 31.7146 34.7137 31.6985C34.671 31.6825 34.6245 31.6796 34.5801 31.6901C34.5221 31.7041 34.47 31.7356 34.4306 31.7803C34.3913 31.8251 34.3666 31.8808 34.3601 31.9401C34.3601 31.9401 34.3601 32.01 34.3601 32.02C34.3572 32.0399 34.3572 32.0602 34.3601 32.0801C34.4009 32.1394 34.4559 32.1875 34.5201 32.22C34.5876 32.2568 34.6632 32.2761 34.7401 32.2761C34.817 32.2761 34.8926 32.2568 34.9601 32.22C35.0286 32.1735 35.0864 32.1128 35.1295 32.0421C35.1726 31.9714 35.2001 31.8923 35.2101 31.8101C35.2132 31.7251 35.1988 31.6405 35.1678 31.5613C35.1369 31.4822 35.0899 31.4103 35.03 31.35C34.9034 31.2123 34.7345 31.1208 34.55 31.09C34.5072 31.0805 34.4628 31.0805 34.42 31.09C34.3735 31.085 34.3265 31.085 34.28 31.09H34.16L34.0101 31.15C33.9401 31.15 33.86 31.2301 33.78 31.2601C33.715 31.3227 33.6448 31.3795 33.57 31.4301L33.42 31.6201C33.42 31.6901 33.35 31.7601 33.31 31.8201L33.2401 32.03C33.2353 32.0899 33.2353 32.1501 33.2401 32.21C33.2296 32.3164 33.2296 32.4236 33.2401 32.53L33.32 32.8101V32.74C33.2844 32.6796 33.2543 32.616 33.2301 32.55C33.1871 32.4417 33.1633 32.3266 33.16 32.21C33.155 32.1434 33.155 32.0766 33.16 32.0101C33.16 31.9301 33.16 31.85 33.16 31.77C33.1873 31.6876 33.2208 31.6074 33.2601 31.53C33.2601 31.45 33.37 31.37 33.42 31.28C33.4982 31.2189 33.5718 31.1521 33.6401 31.0801C33.7401 31.0301 33.82 30.96 33.93 30.9H34.0801H34.2701C34.3331 30.8901 34.3971 30.8901 34.4601 30.9H34.6401C34.8856 30.9508 35.1091 31.0767 35.28 31.2601C35.3681 31.3488 35.4361 31.4555 35.4792 31.5728C35.5224 31.6902 35.5396 31.8154 35.53 31.9401C35.5167 32.0636 35.4733 32.182 35.4035 32.2848C35.3338 32.3877 35.2399 32.4719 35.1301 32.53" fill="#2E3192"/>
<path d="M15.2401 33.8999H15.1101C15.0583 33.9165 15.0106 33.9438 14.97 33.9799C14.9334 34.0122 14.9058 34.0536 14.8901 34.0999C14.8901 34.0999 14.8901 34.1599 14.8901 34.1699C14.9105 34.2075 14.9409 34.2386 14.978 34.2598C15.0151 34.281 15.0574 34.2914 15.1 34.2899C15.1294 34.2985 15.1606 34.2985 15.19 34.2899C15.19 34.2899 15.19 34.2899 15.19 34.2199C15.19 34.1499 15.19 34.2199 15.19 34.1599C15.2006 34.1725 15.2064 34.1885 15.2064 34.205C15.2064 34.2214 15.2006 34.2373 15.19 34.2499C15.1839 34.2694 15.172 34.2865 15.156 34.299C15.1399 34.3115 15.1204 34.3188 15.1 34.3199C15.0715 34.3213 15.0432 34.3132 15.0197 34.2969C14.9962 34.2807 14.9788 34.2571 14.97 34.2299C14.97 34.2299 14.9701 34.17 15.0201 34.14C15.0485 34.1172 15.0837 34.1048 15.1201 34.1048C15.1564 34.1048 15.1917 34.1172 15.22 34.14C15.2576 34.1447 15.293 34.1605 15.3215 34.1854C15.35 34.2104 15.3704 34.2433 15.3801 34.2799C15.397 34.3159 15.4057 34.3551 15.4057 34.3949C15.4057 34.4347 15.397 34.474 15.3801 34.5099C15.3385 34.5834 15.2757 34.6426 15.2 34.6799H15.1401H15.08H14.95H14.82H14.72C14.72 34.6799 14.6601 34.6299 14.6201 34.6199C14.6019 34.5892 14.5781 34.562 14.55 34.5399C14.5356 34.5119 14.519 34.4851 14.5001 34.4599V34.3799C14.4922 34.3303 14.4922 34.2796 14.5001 34.2299V34.0899C14.5001 34.0899 14.5001 34.1499 14.5001 34.1899C14.4909 34.2429 14.4909 34.297 14.5001 34.3499C14.4909 34.3792 14.4909 34.4106 14.5001 34.4399V34.5399C14.5001 34.5399 14.55 34.62 14.58 34.64L14.68 34.7299L14.8 34.7999H14.95H15.1201H15.2H15.28C15.3829 34.7467 15.4668 34.6628 15.5201 34.5599C15.5449 34.5085 15.5577 34.452 15.5577 34.3949C15.5577 34.3378 15.5449 34.2814 15.5201 34.2299C15.4985 34.1763 15.4646 34.1284 15.4212 34.0902C15.3778 34.052 15.3261 34.0245 15.2701 34.0099" fill="#2E3192"/>
<path d="M27.4198 28.3802C27.4198 28.3802 27.4198 28.3801 27.4198 28.3101C27.4095 28.2573 27.4095 28.203 27.4198 28.1501C27.4495 28.1125 27.487 28.0818 27.5298 28.0601H27.6698C27.711 28.0619 27.7504 28.0777 27.7814 28.105C27.8123 28.1323 27.833 28.1694 27.8398 28.2101C27.8513 28.2425 27.8513 28.2778 27.8398 28.3101C27.8254 28.3326 27.8044 28.35 27.7798 28.3601H27.7198C27.7338 28.3672 27.7493 28.3708 27.7649 28.3708C27.7805 28.3708 27.7959 28.3672 27.8098 28.3601C27.8098 28.3601 27.8698 28.3002 27.8098 28.2502C27.803 28.2237 27.7874 28.2004 27.7656 28.184C27.7438 28.1677 27.7171 28.1593 27.6898 28.1601L27.6199 28.2301C27.5996 28.2576 27.5886 28.291 27.5886 28.3252C27.5886 28.3594 27.5996 28.3926 27.6199 28.4201C27.6426 28.4525 27.6725 28.4792 27.7072 28.4983C27.7418 28.5173 27.7803 28.5282 27.8198 28.5301C27.8994 28.536 27.9782 28.5109 28.0398 28.4601C28.1059 28.4071 28.1518 28.333 28.1698 28.2502C28.1741 28.227 28.1741 28.2033 28.1698 28.1801C28.1651 28.1604 28.1651 28.1399 28.1698 28.1201V28.0601C28.1441 28.0285 28.1208 27.9951 28.0999 27.9601C28.0788 27.9256 28.0517 27.8951 28.0199 27.8701L27.9298 27.8001L27.8298 27.7502H27.7299H27.6299C27.5804 27.7402 27.5294 27.7402 27.4799 27.7502H27.3398H27.4298C27.4829 27.7436 27.5367 27.7436 27.5898 27.7502H27.6998H27.8198H27.9398L28.0498 27.8202L28.1598 27.9201C28.1598 27.9201 28.1599 27.9901 28.2399 28.0501V28.1101C28.2399 28.1101 28.2399 28.1702 28.2399 28.1902C28.2448 28.2166 28.2448 28.2437 28.2399 28.2701C28.2447 28.2999 28.2447 28.3303 28.2399 28.3601C28.2179 28.4759 28.1533 28.5791 28.0588 28.6495C27.9644 28.7199 27.847 28.7522 27.7299 28.7401C27.6735 28.7345 27.619 28.7163 27.5706 28.6869C27.5221 28.6574 27.4809 28.6176 27.4498 28.5702" fill="#2E3192"/>
<path d="M22.97 37.0598L23.0399 36.9898C23.3199 36.7198 23.6199 36.4998 23.9099 36.2498C24.1999 35.9998 24.53 35.7898 24.83 35.5498L25.83 34.9398C26.18 34.7898 26.51 34.5898 26.83 34.4598C27.1738 34.3263 27.5285 34.2226 27.89 34.1498C28.24 34.06 28.5988 34.0097 28.96 33.9998C29.31 33.9998 29.66 33.9998 29.96 33.9998C30.2996 34.0406 30.6345 34.1142 30.96 34.2198L31.4199 34.3598C31.5678 34.4163 31.7115 34.4831 31.85 34.5598L32.26 34.7598C32.4 34.8398 32.52 34.9098 32.65 34.9998C33.15 35.2998 33.5499 35.6498 33.9399 35.9298C34.3299 36.2098 34.61 36.5398 34.85 36.7898L35.0499 37.0098H35.22L34.98 36.6998C34.76 36.4198 34.45 36.1298 34.13 35.7698C33.734 35.4031 33.3093 35.0687 32.86 34.7698L32.48 34.4998L32.0499 34.2698L31.6 34.0398L31.12 33.8598C30.7732 33.7408 30.4191 33.644 30.0599 33.5698C29.8734 33.5595 29.6865 33.5595 29.5 33.5698C29.3103 33.5548 29.1196 33.5548 28.9299 33.5698C28.5332 33.5735 28.138 33.6171 27.75 33.6998C27.3589 33.7806 26.9744 33.8909 26.6 34.0298C26.21 34.1498 25.86 34.3698 25.49 34.5198C25.12 34.6698 24.79 34.9398 24.49 35.1598C24.19 35.3798 23.83 35.6298 23.49 35.8898C23.15 36.1498 22.88 36.4098 22.6 36.6898L22.1699 37.1198L22.97 37.0598Z" fill="#2E3192"/>
<path d="M10.6901 37.0601H11.0901C11.0375 36.9596 10.9907 36.8561 10.9501 36.7501C10.6888 36.1156 10.5529 35.4364 10.5501 34.7501C10.5402 34.5703 10.5402 34.39 10.5501 34.2101L10.6801 33.7001C10.7305 33.5291 10.8011 33.3646 10.8902 33.2101C10.9549 33.0484 11.0424 32.8969 11.1502 32.7601C11.5657 32.1504 12.1493 31.6745 12.8301 31.3902L13.3501 31.1901C13.5314 31.1463 13.7151 31.1129 13.9002 31.0901H14.1701C14.2301 31.0901 14.3501 31.0901 14.4401 31.0901C14.6189 31.0787 14.7984 31.099 14.9701 31.1501C15.2969 31.2139 15.6076 31.3423 15.8841 31.5277C16.1606 31.7132 16.3972 31.952 16.5801 32.2301C16.747 32.467 16.8627 32.7361 16.9195 33.0203C16.9763 33.3044 16.973 33.5973 16.9101 33.8801C16.8312 34.1123 16.7001 34.3232 16.5267 34.4966C16.3533 34.67 16.1423 34.8012 15.9101 34.8801C15.7268 34.9652 15.5272 35.0092 15.3251 35.0092C15.1231 35.0092 14.9235 34.9652 14.7402 34.8801C14.5233 34.7464 14.355 34.5466 14.2602 34.3101C14.2347 34.2248 14.2146 34.138 14.2001 34.0501C14.19 34.1365 14.19 34.2238 14.2001 34.3101C14.2738 34.5606 14.4424 34.7723 14.6701 34.9001C14.8525 35.0093 15.0583 35.0734 15.2704 35.0874C15.4826 35.1013 15.6951 35.0645 15.8902 34.9801C16.1498 34.9021 16.3864 34.7622 16.5798 34.5723C16.7731 34.3824 16.9175 34.1483 17.0002 33.8902C17.0498 33.7555 17.0768 33.6136 17.0801 33.4701C17.0999 33.3141 17.0999 33.1562 17.0801 33.0001C17.0601 32.8444 17.0163 32.6926 16.9501 32.5501L16.8602 32.3201C16.8204 32.2512 16.777 32.1845 16.7302 32.1201C16.5388 31.8118 16.2883 31.5443 15.9931 31.3332C15.6979 31.1221 15.3639 30.9715 15.0102 30.8902C14.8234 30.8466 14.6319 30.8264 14.4401 30.8302C14.3404 30.8196 14.2399 30.8196 14.1402 30.8302H13.8501C13.6548 30.8455 13.461 30.8755 13.2702 30.9201L12.7001 31.1201C11.9601 31.4162 11.3188 31.9154 10.8501 32.5601C10.7344 32.7186 10.6371 32.8897 10.5601 33.0701C10.4554 33.2405 10.3778 33.426 10.3301 33.6201L10.1701 34.1701V34.7301C10.1643 35.471 10.3071 36.2055 10.5901 36.8902C10.6126 36.9519 10.6393 37.0121 10.6701 37.0701" fill="#2E3192"/>
<path d="M10.6599 37.0598H10.88C10.3231 36.5465 9.86834 35.9323 9.53992 35.2498C9.06644 34.2649 8.89258 33.1627 9.03992 32.0798C9.10128 31.5649 9.27229 31.0691 9.54139 30.6257C9.81048 30.1824 10.1715 29.8019 10.6 29.5098C11.4043 28.9682 12.378 28.7372 13.34 28.8598C13.7366 28.8948 14.1177 29.0308 14.4468 29.2548C14.7759 29.4789 15.0421 29.7836 15.22 30.1398C15.3522 30.4072 15.421 30.7015 15.421 30.9998C15.421 31.2981 15.3522 31.5924 15.22 31.8598C15.1049 32.0255 14.9565 32.1652 14.7843 32.2703C14.6121 32.3753 14.4199 32.4433 14.22 32.4698C14.0769 32.4827 13.933 32.4827 13.7899 32.4698C13.9363 32.4827 14.0836 32.4827 14.23 32.4698C14.4287 32.4469 14.6202 32.3825 14.7925 32.2809C14.9647 32.1793 15.1138 32.0426 15.23 31.8798C15.3702 31.6095 15.4435 31.3094 15.4435 31.0048C15.4435 30.7003 15.3702 30.4002 15.23 30.1298C15.0733 29.7772 14.8246 29.4732 14.51 29.2498C14.3443 29.118 14.1586 29.0134 13.96 28.9398C13.8569 28.896 13.7497 28.8625 13.64 28.8398C13.5305 28.8246 13.4194 28.8246 13.3099 28.8398C12.325 28.6995 11.3232 28.9313 10.5 29.4898C10.0617 29.7879 9.69159 30.1756 9.41407 30.6272C9.13655 31.0788 8.95797 31.5841 8.89002 32.1098C8.73483 33.2177 8.90506 34.3469 9.38001 35.3598C9.68872 36.0107 10.1083 36.6028 10.62 37.1098" fill="#2E3192"/>
<path d="M27.9299 37.0598C27.9792 37.0175 28.0329 36.9807 28.09 36.9498L28.65 36.7098L29.25 36.5098L30.5499 36.1798L31.1 36.0198L30.84 35.7798L30.48 35.8898L29.1699 36.2298C28.9599 36.3098 28.7399 36.3798 28.5399 36.4698L27.97 36.7398L27.49 37.0598H27.9299Z" fill="#2E3192"/>
<path d="M28.9598 37.06C29.2481 36.8351 29.5523 36.6312 29.8699 36.45C30.2436 36.2481 30.6396 36.0903 31.0498 35.98C30.6437 36.0931 30.2514 36.2508 29.8799 36.45C29.5239 36.6297 29.1886 36.8476 28.8799 37.1L28.9598 37.06Z" fill="#2E3192"/>
<path d="M27.84 33.8002L28.5 33.9001L29.85 33.9902C29.98 33.9902 30.11 33.9902 30.24 34.0402L30.44 33.7602C30.2526 33.7205 30.0616 33.7004 29.87 33.7002L28.5299 33.6202C28.3199 33.6202 28.1001 33.6202 27.9001 33.5302L27.3 33.4001C26.9516 33.2904 26.6162 33.1429 26.3 32.9601C26.0406 32.8007 25.8079 32.6016 25.61 32.3702C25.466 32.1856 25.3451 31.9841 25.25 31.7701C25.1748 31.5827 25.1374 31.3822 25.14 31.1802C25.1337 31.2333 25.1337 31.287 25.14 31.3401C25.1444 31.4958 25.1679 31.6503 25.21 31.8002C25.2836 32.0316 25.3914 32.2507 25.5299 32.4502C25.7227 32.7124 25.9596 32.9391 26.23 33.1202C26.559 33.3342 26.9155 33.5024 27.2899 33.6202C27.4899 33.6802 27.6901 33.7502 27.9001 33.8002" fill="#2E3192"/>
<path d="M26.07 32.8002L25.9601 32.6902C25.8656 32.5866 25.7787 32.4763 25.7001 32.3602C25.5691 32.1813 25.4616 31.9864 25.3801 31.7802C25.2677 31.5224 25.1935 31.2495 25.16 30.9702C25.1029 30.6393 25.1029 30.3011 25.16 29.9702C25.228 29.6189 25.353 29.2811 25.53 28.9702C25.7352 28.6266 26.0032 28.3247 26.32 28.0803L26.5801 27.8903L26.8601 27.7502C26.9612 27.713 27.0647 27.6829 27.17 27.6602C27.2708 27.6287 27.3748 27.6086 27.4801 27.6002C27.903 27.5469 28.3325 27.6127 28.7201 27.7902L29.0001 27.9302C29.0901 27.9302 29.1601 28.0602 29.2401 28.1002L29.3701 28.2002C29.3701 28.2002 29.4301 28.2802 29.4701 28.3102C29.5312 28.3904 29.588 28.4739 29.6401 28.5602C29.7909 28.8715 29.8229 29.2271 29.7301 29.5602C29.6157 29.8783 29.3828 30.1399 29.0801 30.2902C28.9484 30.3511 28.8051 30.3827 28.66 30.3827C28.515 30.3827 28.3717 30.3511 28.2401 30.2902C28.1359 30.2482 28.0433 30.1818 27.9702 30.0965C27.8971 30.0112 27.8456 29.9096 27.82 29.8002C27.803 29.6586 27.8311 29.5151 27.9001 29.3903L28.0001 29.2802C27.9623 29.3125 27.9287 29.3495 27.9001 29.3903C27.8167 29.5134 27.781 29.6627 27.8 29.8102C27.8219 29.9246 27.8704 30.0322 27.9416 30.1243C28.0129 30.2164 28.1048 30.2903 28.2101 30.3402C28.3474 30.4135 28.4991 30.456 28.6545 30.4646C28.81 30.4732 28.9655 30.4479 29.1101 30.3903C29.1962 30.355 29.277 30.3078 29.3501 30.2502C29.4229 30.2011 29.487 30.1403 29.54 30.0702C29.6119 30.0124 29.6672 29.9364 29.7001 29.8502L29.7701 29.7402C29.7859 29.6951 29.806 29.6515 29.8301 29.6102C29.8961 29.4233 29.923 29.2247 29.9093 29.0269C29.8955 28.8291 29.8414 28.6362 29.7501 28.4602C29.7089 28.3643 29.6514 28.2764 29.5801 28.2002C29.5468 28.1541 29.5101 28.1106 29.4701 28.0702L29.3501 27.9802C29.2703 27.905 29.1832 27.838 29.0901 27.7802L28.8 27.6102C28.3795 27.4118 27.9118 27.3356 27.4501 27.3903C27.3403 27.3806 27.2299 27.3806 27.1201 27.3903C27.0034 27.4199 26.8895 27.4601 26.78 27.5102L26.4701 27.6502L26.2001 27.8303C25.8592 28.1101 25.5714 28.4488 25.3501 28.8303C25.1527 29.1703 25.0172 29.5428 24.9501 29.9302C24.8903 30.2777 24.8903 30.6328 24.9501 30.9802C24.9879 31.275 25.0723 31.5619 25.2001 31.8303C25.2432 31.9449 25.2968 32.0553 25.3601 32.1602C25.4142 32.254 25.4743 32.3442 25.54 32.4302C25.65 32.5802 25.75 32.6902 25.82 32.7702L25.92 32.8802C25.9397 32.8965 25.9645 32.9054 25.9901 32.9054C26.0156 32.9054 26.0403 32.8965 26.06 32.8802C26.0688 32.8718 26.0758 32.8618 26.0805 32.8506C26.0853 32.8394 26.0879 32.8274 26.0879 32.8152C26.0879 32.8031 26.0853 32.7911 26.0805 32.7799C26.0758 32.7687 26.0688 32.7586 26.06 32.7502" fill="#2E3192"/>
<path d="M30.34 33.8002C29.9153 33.7633 29.4961 33.6795 29.09 33.5502C28.511 33.3644 27.9595 33.102 27.4499 32.7702C26.9287 32.399 26.4639 31.9544 26.0699 31.4502C25.661 30.9497 25.4042 30.3423 25.33 29.7002C25.2521 29.0612 25.367 28.4135 25.6599 27.8402C25.9531 27.2743 26.4003 26.8029 26.9499 26.4802C27.4673 26.1538 28.0931 26.0459 28.6899 26.1802C29.2148 26.302 29.6772 26.6114 29.99 27.0502C30.1178 27.23 30.1954 27.4405 30.2147 27.6603C30.2341 27.88 30.1945 28.1009 30.1 28.3002C30.0166 28.454 29.9011 28.5881 29.7613 28.6934C29.6216 28.7986 29.4608 28.8726 29.2899 28.9102C29.1759 28.9252 29.06 28.916 28.9497 28.8833C28.8394 28.8506 28.7374 28.795 28.65 28.7202C28.7362 28.8005 28.8394 28.8601 28.952 28.8948C29.0646 28.9294 29.1835 28.9381 29.2999 28.9202C29.4738 28.8872 29.6381 28.8151 29.7801 28.7095C29.9222 28.6038 30.0384 28.4673 30.12 28.3102C30.2222 28.1238 30.2706 27.9126 30.26 27.7002C30.2587 27.5811 30.2384 27.4629 30.1999 27.3502C30.1849 27.2967 30.1613 27.2461 30.13 27.2002C30.1086 27.1403 30.0744 27.0857 30.0299 27.0402C29.7215 26.5802 29.2496 26.2549 28.71 26.1302C28.0939 25.9893 27.447 26.0971 26.9099 26.4302C26.3504 26.7633 25.8938 27.2443 25.59 27.8202C25.286 28.4007 25.1641 29.0593 25.24 29.7102C25.3298 30.3596 25.5961 30.9718 26.01 31.4802C26.7809 32.4897 27.8523 33.2285 29.0699 33.5902C29.4758 33.7204 29.8952 33.8043 30.3199 33.8402" fill="#2E3192"/>
<path d="M39.34 26.59L39.69 26.65C39.8161 26.6882 39.937 26.742 40.0499 26.8101L40.26 26.9401L40.45 27.1201L40.62 27.3301L40.76 27.59C40.76 27.68 40.82 27.7801 40.84 27.8801C40.86 27.9801 40.84 28.09 40.84 28.17V28.35C40.84 28.4 40.84 28.44 40.84 28.48C40.8248 28.5304 40.8012 28.5777 40.77 28.6201C40.752 28.6678 40.7207 28.7094 40.68 28.7401C40.5432 28.9155 40.3481 29.0362 40.13 29.0801C40.0295 29.1112 39.9237 29.1219 39.819 29.1116C39.7142 29.1013 39.6126 29.0702 39.52 29.02C39.4348 28.9721 39.361 28.9061 39.304 28.8266C39.247 28.7471 39.2081 28.6562 39.19 28.5601C39.168 28.4752 39.1726 28.3857 39.203 28.3035C39.2334 28.2213 39.2882 28.1502 39.36 28.1C39.4287 28.0458 39.5126 28.0143 39.6 28.0101H39.72H39.82C39.8828 28.0396 39.9344 28.0886 39.9668 28.15C39.9993 28.2113 40.0109 28.2815 40 28.35C39.9844 28.4034 39.9532 28.451 39.9104 28.4866C39.8677 28.5223 39.8154 28.5443 39.76 28.55C39.7208 28.5528 39.6816 28.5449 39.6464 28.5273C39.6112 28.5098 39.5813 28.4831 39.56 28.4501C39.554 28.4237 39.554 28.3964 39.56 28.3701C39.5578 28.4 39.5578 28.4301 39.56 28.46C39.56 28.46 39.56 28.52 39.63 28.55C39.6699 28.585 39.7182 28.6091 39.77 28.6201C39.8458 28.6168 39.9203 28.5998 39.99 28.5701C40.0686 28.5257 40.1288 28.4548 40.1599 28.3701C40.1871 28.2719 40.1825 28.1677 40.1465 28.0724C40.1106 27.9771 40.0452 27.8957 39.96 27.84C39.907 27.7998 39.8453 27.7725 39.7799 27.7601H39.6C39.4673 27.7636 39.3372 27.7978 39.22 27.86C39.1059 27.9425 39.0104 28.0482 38.94 28.17C38.9282 28.2396 38.9282 28.3106 38.94 28.3801C38.9332 28.4131 38.9332 28.447 38.94 28.48V28.5801C38.9534 28.7268 39.0023 28.8681 39.0824 28.9918C39.1625 29.1154 39.2716 29.2178 39.4 29.29C39.6766 29.4353 39.9966 29.4744 40.2999 29.4C40.5884 29.328 40.845 29.1628 41.0299 28.9301C41.0765 28.8783 41.1169 28.8213 41.15 28.7601C41.1878 28.6972 41.218 28.63 41.24 28.5601C41.2446 28.4935 41.2446 28.4266 41.24 28.36V28.1801C41.24 28.0301 41.24 27.93 41.24 27.8C41.24 27.67 41.14 27.57 41.1 27.47C41.0496 27.3677 40.9893 27.2706 40.9199 27.1801L40.7 26.9501L40.34 26.8C40.2627 26.751 40.1784 26.7139 40.09 26.6901C39.9574 26.6397 39.82 26.6029 39.68 26.5801H39.34V26.59Z" fill="#2E3192"/>
<path d="M35.0201 36.9999L34.28 36.3099C34.05 36.0799 33.79 35.7799 33.48 35.4399C33.1438 35.0618 32.8299 34.6645 32.54 34.2499C32.38 34.0199 32.23 33.7698 32.07 33.5298C31.9045 33.2688 31.7543 32.9983 31.6201 32.7198C31.3078 32.1303 31.0565 31.5104 30.8701 30.8699C30.7685 30.5427 30.6917 30.2085 30.6401 29.8699C30.5645 29.5113 30.5243 29.1462 30.5201 28.7798C30.4722 28.0502 30.5192 27.3174 30.66 26.5999C30.9733 25.164 31.568 23.8044 32.41 22.5999C33.1378 21.5502 33.9945 20.5961 34.96 19.7599C35.6422 19.1621 36.3639 18.6108 37.1201 18.1099C37.6801 17.7599 38.0201 17.5898 38.0201 17.5898C38.0201 17.5898 37.71 17.7999 37.19 18.1999C36.4856 18.7458 35.8175 19.337 35.19 19.9698C34.3026 20.8391 33.5114 21.8013 32.83 22.8398C32.0499 23.9999 31.503 25.3008 31.22 26.6699C31.0824 27.3507 31.0287 28.0459 31.06 28.7399C31.0657 29.0749 31.0958 29.4092 31.1501 29.7399C31.1946 30.0781 31.2647 30.4124 31.3601 30.7399C31.5282 31.3563 31.7456 31.9582 32.0101 32.5399C32.1252 32.8152 32.2588 33.0825 32.41 33.3398C32.5337 33.5922 32.674 33.8361 32.83 34.0699C33.2956 34.8189 33.8136 35.5339 34.3801 36.2098L35.04 36.9799" fill="#2E3192"/>
<path d="M37.7098 17.3501C37.2098 16.7601 36.7798 17.5001 37.5798 17.5801C36.7798 17.5001 37.0299 18.3001 37.6499 17.8201C37.0299 18.3001 37.8099 18.7001 37.8899 17.9501C37.8099 18.7001 38.6498 18.4701 38.1598 17.8801C38.6498 18.4701 39.0797 17.7401 38.2797 17.6501C39.0797 17.7401 38.8298 16.9301 38.2098 17.4101C38.8298 16.9301 38.0598 16.5301 37.9698 17.2901C38.0598 16.5301 37.2098 16.7601 37.7098 17.3501Z" fill="#2E3192"/>
<path d="M42.2 37.0801H1.79004V37.7401H42.2V37.0801Z" fill="#2E3192"/>
<path d="M56.8199 24.93C56.8199 25.54 56.8199 26.04 56.8199 26.43C56.8195 26.4888 56.8407 26.5457 56.8794 26.5899C56.9181 26.6341 56.9716 26.6626 57.0299 26.67L58.1599 26.99V27.33H56H54V26.99L55 26.71C55.0585 26.701 55.1122 26.6723 55.1522 26.6287C55.1922 26.585 55.2161 26.529 55.22 26.47C55.22 26.05 55.22 25.54 55.22 24.93V18.68C55.22 18.41 55.22 18.18 55.22 17.97C55.22 17.76 55.22 17.56 55.22 17.4C55.222 17.339 55.2034 17.2791 55.1671 17.2301C55.1308 17.1811 55.079 17.1458 55.02 17.13L54.02 16.83V16.5H56.02H58.02H61.9V16.56L61.4299 18.95L61.1 19L60.59 17.22H56.7999V21.62H59.49C59.5526 21.6244 59.6148 21.6069 59.6659 21.5704C59.717 21.5339 59.7539 21.4807 59.77 21.42L60.11 20.42H60.5C60.5 21.14 60.5 21.67 60.5 22.02C60.5 22.37 60.5 22.88 60.5 23.59H60.11L59.76 22.59C59.7527 22.5316 59.7242 22.4781 59.6799 22.4394C59.6357 22.4007 59.5788 22.3795 59.52 22.38H57.58H56.7999L56.8199 24.93Z" fill="#2E3192"/>
<path d="M56.15 63.4302L52.71 67.6602L56.15 71.9002L59.6 67.6602L56.15 63.4302Z" fill="#2E3192"/>
<path d="M26.7599 62.5997L25.5598 62.8497C25.1698 62.9597 24.8098 63.1198 24.4398 63.2498C23.1353 63.7352 21.9193 64.431 20.8398 65.3097C20.0314 65.9941 19.3154 66.7807 18.7098 67.6497C18.1537 68.3709 17.7057 69.1693 17.3799 70.0197C17.6887 69.1611 18.1162 68.3499 18.6499 67.6097C19.2506 66.728 19.9594 65.925 20.7599 65.2197C21.8328 64.3013 23.0533 63.571 24.3699 63.0597C24.7399 62.9397 25.1099 62.7797 25.4999 62.6697C25.8899 62.5597 26.3098 62.4898 26.7198 62.3898C27.5773 62.2218 28.4466 62.1214 29.3198 62.0897C30.2443 62.074 31.1689 62.1074 32.0898 62.1898C33.0898 62.2698 33.9798 62.5097 34.9498 62.6697C36.9056 63.1054 38.8195 63.711 40.6698 64.4797C42.5547 65.2985 44.4924 65.9901 46.4698 66.5497C48.4621 67.0693 50.5296 67.2385 52.5798 67.0497C53.8027 66.8882 55.0036 66.5896 56.1598 66.1597C57.3153 66.5919 58.5165 66.8905 59.7399 67.0497C61.7868 67.2373 63.8508 67.0682 65.8398 66.5497C67.814 65.99 69.7484 65.2985 71.6299 64.4797C73.4865 63.7095 75.4072 63.1039 77.3699 62.6697C78.3699 62.5097 79.2698 62.2698 80.1998 62.1898C81.1241 62.1074 82.0521 62.074 82.9799 62.0897C83.8564 62.1203 84.7292 62.2206 85.5898 62.3898L86.7998 62.6697C87.2098 62.7797 87.5598 62.9397 87.9298 63.0597C89.2498 63.564 90.4715 64.295 91.5398 65.2197C92.343 65.9223 93.0523 66.7256 93.6499 67.6097C94.1882 68.3502 94.6222 69.1611 94.9398 70.0197C94.6034 69.1743 94.1562 68.3773 93.6099 67.6497C92.9907 66.7855 92.2687 65.9998 91.4598 65.3097C90.3819 64.4289 89.1654 63.7328 87.8599 63.2498C87.4899 63.1198 87.1299 62.9597 86.7599 62.8497L85.5498 62.5997C84.704 62.4248 83.8435 62.3311 82.9799 62.3198C82.0654 62.3037 81.1507 62.337 80.2399 62.4197C79.3099 62.5097 78.3698 62.7397 77.4098 62.8997C75.475 63.3623 73.5819 63.9844 71.7499 64.7598C69.8631 65.6048 67.9181 66.3133 65.9298 66.8798C63.8936 67.4027 61.78 67.5551 59.6898 67.3298C58.4822 67.184 57.2968 66.8918 56.1598 66.4597C55.016 66.8923 53.824 67.1845 52.6099 67.3298C50.5197 67.5551 48.4061 67.4027 46.3699 66.8798C44.3848 66.3135 42.4431 65.605 40.5598 64.7598C38.7238 63.9858 36.8276 63.3637 34.8899 62.8997C33.8899 62.7397 32.9898 62.5097 32.0698 62.4197C31.1589 62.3372 30.2443 62.3039 29.3298 62.3198C28.4661 62.3295 27.6054 62.4232 26.7599 62.5997Z" fill="#2E3192"/>
<path d="M31.4799 66.0299C30.0099 65.5399 31.1699 64.3299 31.8399 65.6599C31.1699 64.3299 32.84 64.2399 32.37 65.6599C32.89 64.2699 34.17 65.35 32.76 66C34.05 65.41 34.23 66.69 33.14 66.55C33.3987 66.65 33.6623 66.7368 33.9299 66.81C35.6365 67.352 37.3727 67.7961 39.13 68.14C41.5984 68.6153 44.1062 68.8564 46.62 68.86C49.4792 68.8728 52.3187 68.3855 55.01 67.42C55.4 67.26 55.7299 66.95 56.1599 66.95C56.5899 66.95 56.9199 67.26 57.3099 67.42C59.9941 68.3862 62.8271 68.8736 65.6799 68.86C68.197 68.8568 70.7082 68.6158 73.1799 68.14C74.924 67.792 76.6469 67.3445 78.3399 66.8C78.6299 66.72 78.89 66.6299 79.15 66.5399C78.05 66.6799 78.24 65.4 79.5 65.99C78.1 65.34 79.3899 64.2599 79.9099 65.6499C79.3899 64.2599 81.0999 64.3499 80.4299 65.6499C81.0999 64.3199 82.2699 65.5299 80.7899 66.0199C82.2699 65.5299 82.1699 67.16 80.7899 66.51C82.1999 67.16 80.92 68.2199 80.4 66.8399C80.92 68.2199 79.1799 68.1399 79.8599 66.8399C79.2899 67.9599 78.39 67.26 79.02 66.74L78.4499 66.99C76.7828 67.68 75.0642 68.2384 73.3099 68.6599C70.8151 69.3035 68.2555 69.6624 65.6799 69.73C62.6999 69.7873 59.7335 69.3133 56.9199 68.33C56.6599 68.24 56.4299 68.0299 56.1599 68.0299C55.8899 68.0299 55.65 68.24 55.4 68.33C52.579 69.3117 49.6063 69.7856 46.62 69.73C44.0444 69.6617 41.4849 69.3028 38.9899 68.6599C37.2416 68.2404 35.5295 67.682 33.87 66.99L33.2799 66.74C33.9099 67.26 33.0099 67.9599 32.4399 66.8399C33.1099 68.1599 31.44 68.2399 31.9 66.8399C31.39 68.2199 30.1 67.16 31.51 66.51C30.1 67.16 30.01 65.5099 31.51 66.0199" fill="#2E3192"/>
<path d="M111.41 67.23H0.879883V67.83H111.41V67.23Z" fill="#2E3192"/>
<path d="M35.1699 59.1901L34.65 60.28H33.98L35.6899 56.8301H36.46L38.1799 60.28H37.48L36.95 59.1901H35.1699ZM36.8199 58.85L36.3199 57.85C36.2099 57.63 36.1399 57.42 36.0599 57.22C35.9799 57.42 35.9099 57.64 35.8099 57.85L35.3099 58.85H36.8199Z" fill="#2E3192"/>
<path d="M38.9099 60.2798V56.7998H39.63L41.23 58.5498C41.5564 58.8985 41.854 59.2731 42.12 59.6698C42.0647 59.1986 42.0413 58.7242 42.0499 58.2498V56.7998H42.6599V60.2498H42L40.4099 58.4998C40.0749 58.1374 39.7643 57.7532 39.48 57.3498C39.48 57.7898 39.48 58.1998 39.48 58.7798V60.2498L38.9099 60.2798Z" fill="#2E3192"/>
<path d="M44.4598 56.7998V60.2498H43.7998V56.7998H44.4598Z" fill="#2E3192"/>
<path d="M45.5898 56.7998H46.2399V58.4598L46.6299 58.0898L48.1598 56.7998H48.9698L47.1499 58.2598L49.1499 60.2598H48.3398L46.6998 58.5698L46.2198 58.9398V60.2598H45.5698L45.5898 56.7998Z" fill="#2E3192"/>
<path d="M50.4999 59.1901L49.9799 60.28H49.3398L51.0498 56.8301H51.8198L53.5398 60.28H52.8398L52.3098 59.1901H50.4999ZM52.1499 58.85L51.6499 57.85C51.5399 57.63 51.4699 57.42 51.3899 57.22C51.3143 57.4344 51.2275 57.6447 51.1299 57.85L50.6399 58.85H52.1499Z" fill="#2E3192"/>
<path d="M56.48 57.2098H54.95V56.7998H58.6599V57.1798H57.13V60.2498H56.48V57.2098Z" fill="#2E3192"/>
<path d="M59.4799 59.1901L58.9598 60.28H58.3398L60.0498 56.8301H60.8298L62.5398 60.28H61.8499L61.3098 59.1901H59.4799ZM61.1299 58.85L60.6299 57.85C60.5199 57.63 60.4499 57.42 60.3699 57.22C60.2979 57.4343 60.2144 57.6447 60.1199 57.85L59.6299 58.85H61.1299Z" fill="#2E3192"/>
<path d="M63.1401 59.7399C63.5084 59.8893 63.9026 59.9641 64.3 59.9598C64.96 59.9598 65.3 59.7199 65.3 59.3699C65.3 59.0199 65.03 58.8699 64.3 58.6899C63.57 58.5099 62.9801 58.1899 62.9801 57.6899C62.9801 57.1899 63.6201 56.7499 64.6001 56.7499C64.9741 56.7388 65.3469 56.7964 65.7001 56.9199L65.5201 57.2798C65.2188 57.1712 64.9004 57.117 64.5801 57.1199C63.8901 57.1199 63.6301 57.3999 63.6301 57.6399C63.6301 57.8799 63.9401 58.1199 64.6301 58.2999C65.4801 58.5299 65.9001 58.8099 65.9001 59.2999C65.9001 59.7899 65.3301 60.2999 64.1501 60.2999C63.7131 60.3011 63.2794 60.2232 62.8701 60.0699L63.1401 59.7399Z" fill="#2E3192"/>
<path d="M66.8901 60.2798V56.7998H67.6101L69.2101 58.5498C69.5365 58.8985 69.8341 59.2731 70.1001 59.6698C70.0448 59.1986 70.0214 58.7242 70.03 58.2498V56.7998H70.6401V60.2498H69.9801L68.3901 58.4998C68.0551 58.1374 67.7444 57.7532 67.4601 57.3498C67.4601 57.7898 67.4601 58.1998 67.4601 58.7798V60.2498L66.8901 60.2798Z" fill="#2E3192"/>
<path d="M72.4398 56.7998V60.2498H71.7798V56.7998H72.4398Z" fill="#2E3192"/>
<path d="M77.7899 58.8001C77.7899 58.3201 77.71 57.7401 77.71 57.3101C77.53 57.7101 77.33 58.1501 77.08 58.6301L76.1899 60.3001H75.7L74.88 58.6601C74.6637 58.2216 74.4734 57.7709 74.3099 57.3101C74.3099 57.7401 74.31 58.3101 74.22 58.8401L74.08 60.3201H73.46L73.8099 56.8701H74.64L75.5 58.5401C75.7 58.9601 75.87 59.3401 76 59.7001C76.1543 59.3036 76.3312 58.9163 76.5299 58.5401L77.4199 56.8701H78.25L78.5599 60.3201H77.9199L77.7899 58.8001Z" fill="#2E3192"/>
<path d="M10.6998 51.9498H9.5498V45.7998H13.4698V46.7998H10.6998V48.4898H12.8799V49.4298H10.6998V51.9498Z" fill="#2E3192"/>
<path d="M18.7101 51.95H17.5101L17.0201 50.48H14.6301L14.1401 51.95H13.1401L15.2001 45.75H16.5801L18.7101 51.95ZM16.7101 49.58L15.8 46.81L14.9001 49.58H16.7101Z" fill="#2E3192"/>
<path d="M18.7998 50.46L19.8899 50.23C20.0199 50.84 20.5199 51.15 21.3899 51.15C21.7113 51.1718 22.031 51.0875 22.2998 50.91C22.3994 50.8491 22.482 50.764 22.5397 50.6625C22.5974 50.5611 22.6284 50.4467 22.6299 50.33C22.6306 50.1615 22.5781 49.9969 22.4799 49.86C22.3215 49.6749 22.101 49.554 21.8599 49.52L20.6698 49.21C20.3532 49.1365 20.0498 49.0151 19.7699 48.85C19.5701 48.7001 19.4089 48.5046 19.2998 48.28C19.188 48.0316 19.1302 47.7624 19.1299 47.49C19.1221 47.2353 19.1741 46.9823 19.2817 46.7513C19.3894 46.5203 19.5498 46.3178 19.7499 46.16C20.1991 45.8074 20.7593 45.6266 21.3298 45.65C21.8285 45.6435 22.3206 45.7639 22.7599 46C22.9553 46.1021 23.1273 46.2437 23.265 46.4159C23.4027 46.588 23.5031 46.787 23.5598 47L22.4999 47.27C22.416 47.0395 22.2569 46.844 22.0482 46.7152C21.8395 46.5864 21.5935 46.5317 21.3499 46.56C21.0664 46.5447 20.7856 46.6219 20.5498 46.78C20.4641 46.8457 20.395 46.9306 20.3481 47.0278C20.3013 47.1251 20.2778 47.232 20.2798 47.34C20.2798 47.69 20.5699 47.94 21.1399 48.08L22.1998 48.35C22.6987 48.4229 23.1539 48.6753 23.4799 49.06C23.6893 49.3518 23.8044 49.7008 23.8098 50.06C23.8199 50.3365 23.7623 50.6113 23.6421 50.8605C23.5218 51.1097 23.3426 51.3258 23.1199 51.49C22.6024 51.8604 21.9757 52.047 21.3398 52.02C20.7751 52.0334 20.2166 51.899 19.7198 51.63C19.4949 51.5079 19.2974 51.3411 19.1392 51.1399C18.981 50.9387 18.8654 50.7073 18.7998 50.46Z" fill="#2E3192"/>
<path d="M29.34 51.9498H28.22V49.2598H25.85V51.9498H24.73V45.7998H25.85V48.3498H28.22V45.7998H29.34V51.9498Z" fill="#2E3192"/>
<path d="M31.86 51.9498H30.74V45.7998H31.86V51.9498Z" fill="#2E3192"/>
<path d="M35.5101 52.0501C35.1365 52.0668 34.7646 51.9906 34.4278 51.8283C34.0909 51.666 33.7997 51.4226 33.58 51.1201C33.1049 50.4532 32.8625 49.6485 32.8901 48.8301C32.8647 48.0103 33.1265 47.2074 33.63 46.5601C33.8577 46.2675 34.1509 46.0326 34.4863 45.8745C34.8216 45.7164 35.1894 45.6395 35.56 45.65C35.9278 45.6386 36.2931 45.7153 36.6253 45.8736C36.9575 46.0318 37.2472 46.2672 37.47 46.5601C37.9542 47.2192 38.2009 48.0228 38.17 48.84C38.2115 49.6788 37.9527 50.505 37.44 51.1701C37.2077 51.4554 36.9127 51.6833 36.5779 51.8359C36.2432 51.9885 35.8778 52.0618 35.5101 52.0501ZM35.5101 51.15C35.7034 51.1463 35.8935 51.0996 36.0665 51.0131C36.2394 50.9266 36.3911 50.8025 36.5101 50.65C36.8455 50.1094 36.993 49.4732 36.93 48.84C36.9593 48.2593 36.8388 47.6808 36.58 47.16C36.4769 46.9682 36.3218 46.8092 36.1326 46.7013C35.9434 46.5934 35.7277 46.541 35.5101 46.5501C34.5101 46.5501 34.07 47.3301 34.07 48.8701C34.0313 49.4602 34.1595 50.0494 34.44 50.5701C34.5479 50.758 34.7063 50.9118 34.8971 51.0144C35.088 51.1169 35.3038 51.1639 35.5201 51.15H35.5101Z" fill="#2E3192"/>
<path d="M43.9 51.9498H42.8099L40.46 47.9498L40.2799 47.6498C40.2799 47.5898 40.19 47.4998 40.11 47.3698V51.9098H39.21V45.7998H40.45L42.62 49.4498L43.02 50.1198V45.7998H43.9V51.9498Z" fill="#2E3192"/>
<path d="M50.1299 51.95H48.9398L48.4398 50.48H46.0498L45.5698 51.95H44.5698L46.6299 45.75H48.0099L50.1299 51.95ZM48.1299 49.58L47.2299 46.81L46.3198 49.58H48.1299Z" fill="#2E3192"/>
<path d="M50.8799 51.9501V45.8001H53.3398C53.6779 45.7906 54.0154 45.8345 54.3398 45.9301C54.6268 46.0217 54.8738 46.2087 55.0398 46.4601C55.2423 46.7347 55.3479 47.0689 55.3398 47.4101C55.3494 47.7376 55.2403 48.0576 55.0327 48.3112C54.8251 48.5647 54.5329 48.7348 54.2098 48.7901C54.5828 48.8279 54.9276 49.0058 55.1744 49.2879C55.4213 49.5701 55.5518 49.9354 55.5398 50.3101C55.5493 50.7597 55.3804 51.1948 55.0698 51.5201C54.669 51.8656 54.1477 52.0382 53.6199 52.0001L50.8799 51.9501ZM51.9398 48.3501H53.3398C53.4586 48.357 53.5775 48.3393 53.6891 48.2979C53.8006 48.2565 53.9024 48.1925 53.9879 48.1098C54.0734 48.0271 54.141 47.9275 54.186 47.8174C54.2311 47.7073 54.2528 47.589 54.2499 47.4701C54.2587 47.3501 54.2377 47.2299 54.1888 47.12C54.14 47.0101 54.0648 46.9139 53.9698 46.8401C53.7832 46.6995 53.5532 46.6288 53.3198 46.6401H51.9799L51.9398 48.3501ZM51.9398 51.0201H53.3398C53.6048 51.0352 53.8656 50.9494 54.0698 50.7801C54.1563 50.696 54.2241 50.5947 54.2689 50.4828C54.3137 50.3708 54.3345 50.2506 54.3298 50.1301C54.3331 50.0103 54.3106 49.8912 54.264 49.7809C54.2175 49.6705 54.1479 49.5713 54.0598 49.4901C53.8647 49.3175 53.61 49.2278 53.3499 49.2401H51.8999L51.9398 51.0201Z" fill="#2E3192"/>
<path d="M60.34 51.9498H56.52V45.7998H57.7V50.9898H60.34V51.9498Z" fill="#2E3192"/>
<path d="M65.21 51.9498H61.21V45.7998H65.21V46.7198H62.34V48.3998H64.65V49.2998H62.34V51.0398H65.26L65.21 51.9498Z" fill="#2E3192"/>
<path d="M68.47 51.95V45.8H70.75C71.1294 45.7911 71.5059 45.8673 71.8521 46.023C72.1982 46.1788 72.5051 46.4101 72.75 46.7C73.2689 47.3174 73.5429 48.1039 73.52 48.91C73.5443 49.7216 73.2582 50.512 72.72 51.12C72.4308 51.4233 72.0784 51.6594 71.6879 51.8114C71.2973 51.9635 70.8781 52.0279 70.46 52L68.47 51.95ZM69.61 51.04H70.5499C70.7893 51.0425 71.0265 50.9939 71.2455 50.8973C71.4645 50.8007 71.6604 50.6584 71.8199 50.48C72.1996 50.006 72.3854 49.4056 72.34 48.8C72.3581 48.2518 72.2005 47.7122 71.89 47.26C71.7568 47.0626 71.5763 46.9014 71.365 46.7914C71.1537 46.6814 70.9181 46.6259 70.6799 46.63H69.61V51.04Z" fill="#2E3192"/>
<path d="M79.4301 51.9499H78.2501L77.2501 49.3998H75.6801V51.9499H74.5601V45.7998H77.2501C77.8455 45.749 78.4373 45.932 78.9001 46.3098C79.0778 46.477 79.2171 46.6806 79.3086 46.9068C79.4001 47.1329 79.4415 47.3762 79.4301 47.6198C79.4484 47.9781 79.3489 48.3324 79.1466 48.6286C78.9443 48.9248 78.6504 49.1466 78.3101 49.2599L79.4301 51.9499ZM75.7101 48.5099H77.1001C77.4214 48.5325 77.7404 48.4404 78.0001 48.2498C78.0999 48.1636 78.1787 48.0557 78.2307 47.9344C78.2827 47.8131 78.3064 47.6816 78.3 47.5498C78.303 47.4253 78.2786 47.3016 78.2285 47.1876C78.1784 47.0735 78.1039 46.9719 78.0101 46.8899C77.776 46.7101 77.4846 46.6213 77.1901 46.6399H75.7101V48.5099Z" fill="#2E3192"/>
<path d="M84.6099 51.9498H80.6099V45.7998H84.6099V46.7198H81.7299V48.3998H84.0398V49.2998H81.7299V51.0398H84.6499L84.6099 51.9498Z" fill="#2E3192"/>
<path d="M84.9199 50.46L86.01 50.23C86.14 50.84 86.64 51.15 87.51 51.15C87.8313 51.1704 88.1505 51.0862 88.4199 50.91C88.519 50.8493 88.6005 50.764 88.6566 50.6623C88.7127 50.5606 88.7415 50.4461 88.74 50.33C88.7444 50.1625 88.6953 49.9978 88.6 49.86C88.4416 49.6749 88.2212 49.554 87.98 49.52L86.7899 49.21C86.4727 49.1384 86.1691 49.0169 85.89 48.85C85.6874 48.7031 85.5255 48.5069 85.4199 48.28C85.3081 48.0316 85.2503 47.7624 85.25 47.49C85.2397 47.2349 85.2907 46.9811 85.3986 46.7497C85.5064 46.5183 85.668 46.3161 85.87 46.16C86.3192 45.8074 86.8794 45.6266 87.45 45.65C87.9486 45.6435 88.4407 45.7639 88.88 46C89.0743 46.1036 89.2454 46.2457 89.3829 46.4176C89.5205 46.5895 89.6215 46.7877 89.6799 47L88.62 47.27C88.5361 47.0395 88.377 46.844 88.1683 46.7152C87.9597 46.5864 87.7136 46.5317 87.47 46.56C87.1865 46.5447 86.9057 46.6219 86.6699 46.78C86.5842 46.8457 86.5153 46.9306 86.4684 47.0278C86.4215 47.1251 86.3981 47.232 86.4 47.34C86.4 47.69 86.69 47.94 87.26 48.08L88.3199 48.35C88.8188 48.4229 89.274 48.6753 89.6 49.06C89.8095 49.3518 89.9246 49.7008 89.9299 50.06C89.94 50.3365 89.8825 50.6113 89.7622 50.8605C89.642 51.1097 89.4627 51.3258 89.24 51.49C88.7225 51.8604 88.0958 52.047 87.46 52.02C86.8952 52.0334 86.3367 51.899 85.84 51.63C85.6151 51.5079 85.4175 51.3411 85.2593 51.1399C85.1011 50.9387 84.9856 50.7073 84.9199 50.46Z" fill="#2E3192"/>
<path d="M90.24 50.4599L91.33 50.2299C91.46 50.8399 91.96 51.1499 92.83 51.1499C93.1513 51.1703 93.4706 51.0861 93.74 50.9099C93.839 50.8493 93.9206 50.7639 93.9767 50.6623C94.0328 50.5606 94.0614 50.4461 94.0599 50.33C94.0599 50.163 94.0112 49.9997 93.9199 49.8599C93.7591 49.6728 93.5347 49.5516 93.2899 49.5199L92.11 49.2099C91.7928 49.1383 91.489 49.0168 91.21 48.8499C91.0073 48.703 90.8456 48.5068 90.74 48.2799C90.6235 48.0331 90.5653 47.7628 90.5699 47.49C90.5602 47.236 90.6103 46.9832 90.7163 46.7522C90.8223 46.5211 90.981 46.3182 91.1799 46.1599C91.6331 45.8075 92.1964 45.6268 92.77 45.6499C93.2687 45.6434 93.7607 45.7639 94.2 46C94.3943 46.1035 94.5655 46.2456 94.703 46.4176C94.8406 46.5895 94.9416 46.7877 95 47L93.9299 47.2699C93.8495 47.0392 93.6926 46.843 93.4852 46.7138C93.2778 46.5847 93.0324 46.5304 92.7899 46.56C92.5065 46.5447 92.2258 46.6219 91.99 46.7799C91.9043 46.8456 91.8352 46.9305 91.7883 47.0278C91.7414 47.1251 91.718 47.232 91.72 47.3399C91.72 47.6899 92 47.94 92.58 48.08L93.64 48.3499C94.1372 48.428 94.5905 48.6795 94.9199 49.06C95.1294 49.3518 95.2446 49.7008 95.25 50.06C95.26 50.3365 95.2024 50.6112 95.0822 50.8604C94.9619 51.1096 94.7826 51.3257 94.5599 51.49C94.0424 51.8604 93.4158 52.047 92.7799 52.0199C92.2151 52.0334 91.6567 51.899 91.1599 51.63C90.935 51.5078 90.7374 51.341 90.5792 51.1399C90.421 50.9387 90.3056 50.7073 90.24 50.4599Z" fill="#2E3192"/>
<path d="M100.24 51.9498H96.24V45.7998H100.24V46.7198H97.34V48.3998H99.65V49.2998H97.34V51.0398H100.25L100.24 51.9498Z" fill="#2E3192"/>
<path d="M100.55 50.46L101.64 50.23C101.77 50.84 102.27 51.15 103.14 51.15C103.464 51.1697 103.786 51.0856 104.06 50.91C104.157 50.8472 104.237 50.7614 104.293 50.6602C104.349 50.559 104.379 50.4456 104.38 50.33C104.381 50.1615 104.328 49.9969 104.23 49.86C104.071 49.6749 103.851 49.554 103.61 49.52L102.42 49.21C102.104 49.1345 101.801 49.0132 101.52 48.85C101.32 48.7025 101.162 48.5062 101.06 48.28C100.94 48.0339 100.879 47.7636 100.88 47.49C100.872 47.2353 100.924 46.9823 101.032 46.7513C101.139 46.5203 101.3 46.3178 101.5 46.16C101.949 45.8074 102.509 45.6266 103.08 45.65C103.578 45.6435 104.071 45.7639 104.51 46C104.705 46.1021 104.877 46.2437 105.015 46.4159C105.153 46.588 105.253 46.787 105.31 47L104.25 47.27C104.168 47.0384 104.009 46.842 103.8 46.7129C103.591 46.5838 103.344 46.5299 103.1 46.56C102.82 46.5447 102.542 46.622 102.31 46.78C102.221 46.8435 102.149 46.9277 102.1 47.0253C102.052 47.1229 102.027 47.2309 102.03 47.34C102.03 47.69 102.32 47.94 102.89 48.08L103.95 48.35C104.451 48.4258 104.908 48.6775 105.24 49.06C105.442 49.3547 105.554 49.7025 105.56 50.06C105.57 50.3365 105.512 50.6113 105.392 50.8605C105.272 51.1097 105.093 51.3258 104.87 51.49C104.353 51.8619 103.726 52.0486 103.09 52.02C102.525 52.0325 101.967 51.8981 101.47 51.63C101.246 51.506 101.05 51.3387 100.892 51.1378C100.734 50.9368 100.618 50.7064 100.55 50.46Z" fill="#2E3192"/>
</svg>
