<svg width="112" height="72" viewBox="0 0 112 72" fill="none" xmlns="http://www.w3.org/2000/svg">
<path d="M56.7699 0L54.0898 4.28L56.7699 8.58L59.4498 4.28L56.7699 0Z" fill="#CBCDD2"/>
<path d="M56.9701 35.6902L41.55 21.1801L56.9701 6.66016L72.4 21.1801L56.9701 35.6902ZM43.39 21.1801L56.9701 33.9601L70.54 21.1902L56.9701 8.40015L43.39 21.1801Z" fill="#CBCDD2"/>
<path d="M61.0299 35.13L60.3799 34.51L74.5399 21.18L60.3799 7.82996L61.0299 7.20996L75.8499 21.18L61.0299 35.13Z" fill="#CBCDD2"/>
<path d="M52.5101 35.13L37.6802 21.18L52.5101 7.20996L53.1602 7.82996L39.0001 21.18L53.1602 34.51L52.5101 35.13Z" fill="#CBCDD2"/>
<path d="M56.77 36.52L57.49 38.63H59.85L57.9399 39.92L58.67 42.03L56.77 40.73L54.87 42.03L55.6 39.92L53.6899 38.63H56.05L56.77 36.52Z" fill="#CBCDD2"/>
<path d="M49.0199 37.5498L49.4799 38.8698H50.9498L49.7599 39.6898L50.2098 40.9998L49.0199 40.1998L47.8298 40.9998L48.2799 39.6898L47.0898 38.8698H48.5599L49.0199 37.5498Z" fill="#CBCDD2"/>
<path d="M64.5201 37.5498L64.0602 38.8698H62.5801L63.7902 39.6898L63.3201 40.9998L64.5201 40.1998L65.7101 40.9998L65.2601 39.6898L66.4501 38.8698H64.9701L64.5201 37.5498Z" fill="#CBCDD2"/>
<path d="M72.2699 38.0601L71.9498 39.0001H70.8999L71.7499 39.5701L71.4398 40.5001L72.2699 39.9201L73.1199 40.5001L72.7899 39.5701L73.6399 39.0001H72.5999L72.2699 38.0601Z" fill="#CBCDD2"/>
<path d="M93.58 37.0598C93.822 36.9897 94.0564 36.896 94.2799 36.7798C94.1286 36.8873 93.968 36.981 93.7999 37.0598H94.9299C95.0974 36.8746 95.2417 36.6697 95.3599 36.4498C94.8939 36.3553 94.4132 36.3609 93.9495 36.466C93.4857 36.5712 93.0496 36.7735 92.6699 37.0598H93.58Z" fill="#CBCDD2"/>
<path d="M87.9102 29.9601C87.9102 29.6301 87.7201 29.19 86.9801 28.82C87.3281 29.0468 87.6026 29.37 87.7701 29.7501C87.7701 29.7501 87.6801 29.68 87.6401 29.67C87.3467 29.5507 87.0858 29.3634 86.8789 29.1234C86.672 28.8835 86.5251 28.5979 86.4502 28.29C88.3502 28.29 87.9202 29.9701 87.9202 29.9701" fill="#CBCDD2"/>
<path d="M102.26 34.19C102.26 33.7 101.98 33.08 100.91 32.55C101.424 32.8699 101.826 33.3417 102.06 33.9C101.98 33.85 101.93 33.8 101.87 33.77C101.446 33.5922 101.069 33.3194 100.767 32.9727C100.465 32.6259 100.247 32.2144 100.13 31.77C102.9 31.77 102.27 34.2 102.27 34.2" fill="#CBCDD2"/>
<path d="M97.79 31.49C97.6103 31.6892 97.495 31.9381 97.4593 32.204C97.4236 32.4699 97.4692 32.7404 97.5901 32.98C97.5011 32.5591 97.5501 32.1207 97.73 31.73C97.7158 31.779 97.7158 31.831 97.73 31.88C97.8458 32.1838 97.8881 32.5107 97.8534 32.834C97.8186 33.1573 97.7078 33.4677 97.53 33.74C97.3452 33.6046 97.1989 33.4234 97.1053 33.2143C97.0118 33.0052 96.9742 32.7753 96.9964 32.5473C97.0186 32.3193 97.0998 32.101 97.2319 31.9139C97.3641 31.7267 97.5426 31.5772 97.75 31.48" fill="#CBCDD2"/>
<path d="M75.79 29.2002C75.6863 29.1093 75.5618 29.0453 75.4275 29.0139C75.2932 28.9825 75.1533 28.9847 75.02 29.0202C75.2417 29.0123 75.4619 29.0605 75.66 29.1602H75.5701C75.3996 29.2031 75.2218 29.2083 75.0491 29.1755C74.8764 29.1426 74.7129 29.0726 74.5701 28.9702C74.6565 28.8897 74.7607 28.8307 74.8743 28.7981C74.9878 28.7656 75.1075 28.7603 75.2235 28.7827C75.3395 28.8051 75.4485 28.8546 75.5417 28.9271C75.635 28.9997 75.7098 29.0932 75.76 29.2002" fill="#CBCDD2"/>
<path d="M84.1401 30.01C84.286 30.0751 84.4469 30.0993 84.6055 30.0799C84.764 30.0605 84.9143 29.9983 85.0402 29.9C84.8072 30.0003 84.5513 30.0348 84.3002 30.0001H84.3801C84.5451 29.8921 84.7316 29.821 84.9266 29.7916C85.1217 29.7623 85.3206 29.7754 85.5101 29.83C85.4476 29.9496 85.3579 30.0528 85.2482 30.1313C85.1384 30.2097 85.0117 30.2613 84.8783 30.2817C84.7449 30.3022 84.6086 30.2909 84.4803 30.249C84.3521 30.207 84.2356 30.1354 84.1401 30.04" fill="#CBCDD2"/>
<path d="M75.6699 30.8901C76.0437 30.8756 76.4067 30.7601 76.7201 30.5559C77.0335 30.3516 77.2858 30.0662 77.45 29.7301C77.0658 30.1972 76.5555 30.5443 75.9799 30.7301C76.0327 30.6794 76.0828 30.626 76.1299 30.5701C76.3543 30.181 76.6614 29.846 77.0294 29.5885C77.3974 29.3311 77.8175 29.1575 78.2599 29.0801C78.2625 29.3917 78.1897 29.6994 78.0476 29.9767C77.9055 30.2541 77.6983 30.4929 77.4437 30.6727C77.1892 30.8525 76.8948 30.9681 76.5859 31.0094C76.277 31.0507 75.9628 31.0167 75.6699 30.9101" fill="#CBCDD2"/>
<path d="M77.4001 37.06L77.5502 37.0099C77.7102 36.9499 77.9002 36.8899 78.0602 36.8199L78.6501 36.66C79.5328 36.4284 80.4383 36.2942 81.3502 36.2599H82.5201C82.65 36.2698 82.7803 36.2698 82.9102 36.2599H83.3202C83.4702 36.2599 83.5901 36.2599 83.7301 36.3199C83.8701 36.3799 84.2902 36.4 84.5602 36.47C85.0981 36.5986 85.6261 36.7657 86.1401 36.97H88.5702L88.4102 36.87C87.2752 36.2486 86.0453 35.8195 84.7701 35.6C83.6247 35.3998 82.4574 35.3561 81.3002 35.47C80.3388 35.5728 79.3945 35.7979 78.4901 36.1399C78.2901 36.2199 78.1002 36.28 77.9102 36.34L77.4001 36.59L76.9302 36.84C76.8481 36.8729 76.7708 36.9166 76.7002 36.97L77.4001 37.06Z" fill="#CBCDD2"/>
<path d="M73.36 30.08L73.41 30.14C73.4365 30.1889 73.4665 30.2357 73.5 30.28C73.5884 30.375 73.6819 30.4652 73.78 30.55C74.1399 30.8241 74.5897 30.9526 75.0401 30.91L75.3301 30.86L75.5901 30.77H75.6701L75.7901 30.7C75.9362 30.5828 76.0465 30.427 76.1084 30.2502C76.1703 30.0734 76.1812 29.8827 76.14 29.7C76.1096 29.5923 76.0548 29.4931 75.98 29.41C75.9246 29.3333 75.8482 29.2742 75.76 29.24C75.6361 29.2027 75.5039 29.2027 75.38 29.24L75.26 29.29C75.2996 29.2819 75.3404 29.2819 75.38 29.29C75.4981 29.268 75.6203 29.2932 75.7201 29.36C75.7976 29.4238 75.86 29.504 75.9028 29.5947C75.9457 29.6855 75.9679 29.7846 75.9679 29.885C75.9679 29.9854 75.9457 30.0845 75.9028 30.1753C75.86 30.266 75.7976 30.3462 75.7201 30.41C75.7201 30.46 75.6201 30.48 75.5901 30.52L75.4701 30.58L75.25 30.64H75.02C74.6857 30.6302 74.3647 30.5068 74.11 30.29L73.9501 30.11C73.9176 30.0669 73.8907 30.0199 73.87 29.97L73.8001 29.86C73.7368 29.6785 73.6932 29.4908 73.6701 29.3C73.6269 28.8914 73.7107 28.4793 73.91 28.12C74.0199 27.9385 74.1508 27.7707 74.3001 27.62C74.3866 27.5414 74.4804 27.4711 74.5801 27.41C74.6206 27.3789 74.6641 27.3521 74.7101 27.33L74.86 27.25C75.3367 27.0525 75.8445 26.9408 76.36 26.92C76.8972 26.908 77.431 27.0085 77.927 27.2152C78.423 27.4219 78.8703 27.7301 79.24 28.12C79.33 28.23 79.41 28.34 79.5 28.44L79.6001 28.6L79.65 28.66C79.674 28.6979 79.6942 28.7381 79.7101 28.78L79.8201 28.98V29.03V29.14L79.98 29.55C79.98 29.68 80.0601 29.82 80.1001 29.96C80.1401 30.1 80.1 30.1 80.16 30.17V30.38C80.16 30.53 80.16 30.67 80.23 30.82V31.25C80.2364 31.8373 80.1624 32.4227 80.01 32.99C79.8349 33.5602 79.579 34.1024 79.25 34.6C78.9083 35.1018 78.4977 35.5529 78.03 35.94L77.6801 36.22C77.5596 36.3094 77.4326 36.3896 77.3001 36.46L77.12 36.57L76.89 36.68L76.66 36.79L76.5501 36.86C76.4201 36.92 76.2901 36.95 76.1701 37H78.7901L79.03 36.82C79.5992 36.3583 80.0978 35.8159 80.51 35.21C80.8951 34.6077 81.1946 33.9548 81.4 33.27C81.5886 32.5901 81.6696 31.8849 81.64 31.18C81.604 30.4966 81.4658 29.8224 81.23 29.18C81.16 29.01 81.09 28.86 81.03 28.7L80.9701 28.58V28.5V28.45L80.86 28.25C80.8148 28.1703 80.7648 28.0935 80.7101 28.02L80.5501 27.79C80.4401 27.65 80.3201 27.51 80.2001 27.38C79.6944 26.8828 79.0872 26.5007 78.4201 26.26C77.7971 26.0377 77.1355 25.9443 76.4754 25.9856C75.8152 26.0268 75.1705 26.2019 74.5801 26.5C74.5062 26.5328 74.4358 26.573 74.37 26.62C74.31 26.67 74.2301 26.71 74.1801 26.76C74.0517 26.8532 73.9344 26.9605 73.8301 27.08C73.6341 27.294 73.4723 27.5368 73.3501 27.8C73.1228 28.2866 73.0562 28.833 73.16 29.36C73.2151 29.5975 73.3026 29.8263 73.4201 30.04" fill="#CBCDD2"/>
<path d="M78.43 32.4801L78.51 32.5301C78.5239 32.5371 78.5394 32.5408 78.555 32.5408C78.5706 32.5408 78.5861 32.5371 78.6001 32.5301C78.6595 32.5414 78.7205 32.5414 78.78 32.5301C78.8975 32.5261 79.013 32.4989 79.12 32.4501C79.2166 32.3887 79.2985 32.3067 79.3599 32.2101V32.1501C79.3639 32.1269 79.3639 32.1033 79.3599 32.0801C79.37 32.0272 79.37 31.9729 79.3599 31.9201C79.3417 31.8352 79.2987 31.7576 79.2364 31.6971C79.1741 31.6366 79.0954 31.5959 79.01 31.5801C78.9409 31.5639 78.8691 31.5639 78.8 31.5801C78.7431 31.6165 78.698 31.6686 78.67 31.7301C78.6603 31.7504 78.6552 31.7726 78.6552 31.7951C78.6552 31.8176 78.6603 31.8398 78.67 31.8601C78.67 31.8601 78.67 31.9201 78.67 31.9401H78.7299V31.8801C78.7141 31.8527 78.7059 31.8217 78.7059 31.7901C78.7059 31.7585 78.7141 31.7274 78.7299 31.7001C78.7597 31.664 78.7986 31.6366 78.8426 31.6207C78.8866 31.6049 78.934 31.6012 78.9799 31.6101C79.0367 31.6246 79.0875 31.6565 79.1252 31.7013C79.1629 31.7461 79.1856 31.8017 79.19 31.8601C79.19 31.8601 79.19 31.9301 79.19 31.9401C79.1944 31.9599 79.1944 31.9803 79.19 32.0001C79.19 32.0701 79.09 32.1001 79.03 32.1501C78.9591 32.1772 78.8825 32.1859 78.8073 32.1754C78.7322 32.1649 78.6609 32.1356 78.6001 32.0901C78.5303 32.0472 78.4714 31.9888 78.4281 31.9194C78.3847 31.85 78.358 31.7715 78.3501 31.6901C78.3473 31.6037 78.3618 31.5177 78.3927 31.437C78.4236 31.3563 78.4703 31.2825 78.53 31.2201C78.6589 31.0873 78.8272 30.9996 79.01 30.9701C79.0527 30.9595 79.0973 30.9595 79.14 30.9701C79.1861 30.9601 79.2339 30.9601 79.28 30.9701H79.4L79.55 31.0201C79.6237 31.0627 79.7006 31.0995 79.78 31.1301L79.99 31.3101L80.14 31.5001C80.14 31.5701 80.21 31.6401 80.25 31.7001C80.29 31.7601 80.25 31.8401 80.31 31.9001C80.37 31.9601 80.31 32.0201 80.31 32.0901C80.3206 32.1965 80.3206 32.3037 80.31 32.4101C80.31 32.5801 80.24 32.6801 80.24 32.6801V32.6101C80.2661 32.5464 80.2998 32.486 80.3401 32.4301C80.3693 32.3186 80.3893 32.2049 80.4 32.0901C80.41 32.0205 80.41 31.9497 80.4 31.8801C80.3939 31.8015 80.3772 31.7241 80.3501 31.6501C80.3211 31.5651 80.2876 31.4816 80.25 31.4001C80.25 31.3201 80.1501 31.2501 80.1001 31.1601C80.0501 31.0701 79.96 31.0201 79.88 30.9601C79.79 30.8899 79.6929 30.8296 79.5901 30.7801L79.44 30.7201C79.3768 30.7141 79.3132 30.7141 79.25 30.7201C79.1904 30.7098 79.1296 30.7098 79.07 30.7201H78.88C78.6328 30.7662 78.4077 30.8928 78.24 31.0801C78.1532 31.1677 78.086 31.2727 78.0429 31.3882C77.9998 31.5037 77.9818 31.6271 77.99 31.7501C78.0057 31.8729 78.0502 31.9903 78.1197 32.0928C78.1892 32.1953 78.2817 32.28 78.39 32.3401" fill="#CBCDD2"/>
<path d="M98.3101 33.8999H98.4701C98.5234 33.9128 98.5718 33.9405 98.61 33.9799C98.6294 33.9938 98.6458 34.0117 98.6578 34.0324C98.6699 34.0531 98.6775 34.0761 98.6801 34.0999C98.6827 34.1231 98.6827 34.1466 98.6801 34.1699C98.6618 34.2077 98.6335 34.2399 98.5983 34.2628C98.563 34.2857 98.522 34.2986 98.48 34.2999C98.4608 34.2995 98.4422 34.2937 98.4263 34.2831C98.4103 34.2724 98.3977 34.2574 98.39 34.2399C98.39 34.2399 98.39 34.2399 98.39 34.1699C98.3839 34.1538 98.3839 34.136 98.39 34.1199C98.39 34.1199 98.39 34.1699 98.39 34.2099C98.3966 34.2309 98.41 34.2492 98.4281 34.2619C98.4462 34.2746 98.4679 34.2809 98.49 34.2799C98.5165 34.2778 98.5419 34.2682 98.5631 34.2523C98.5844 34.2364 98.6006 34.2147 98.61 34.1899C98.5907 34.157 98.5672 34.1267 98.54 34.0999C98.5115 34.0822 98.4786 34.0728 98.4451 34.0728C98.4115 34.0728 98.3786 34.0822 98.3501 34.0999C98.3126 34.1087 98.2781 34.1272 98.25 34.1535C98.2219 34.1798 98.2013 34.2131 98.1901 34.2499C98.1612 34.3204 98.1612 34.3994 98.1901 34.4699C98.2212 34.5497 98.2821 34.6142 98.36 34.6499H98.42H98.61H98.74L98.8401 34.5999L98.9401 34.5399C98.9514 34.5049 98.9721 34.4738 99 34.4499C99.0284 34.4281 99.0523 34.4009 99.0701 34.3699C99.0701 34.3699 99.0701 34.3099 99.0701 34.2899C99.0824 34.244 99.0824 34.1957 99.0701 34.1499V33.9599C99.063 33.9928 99.063 34.0269 99.0701 34.0599C99.0701 34.0599 99.0701 34.1599 99.0701 34.2099C99.0795 34.2425 99.0795 34.2772 99.0701 34.3099L99.01 34.3999C99.01 34.3999 99.0101 34.4799 98.9401 34.4999L98.8501 34.5899C98.8021 34.6082 98.758 34.6353 98.7201 34.6699H98.5701H98.4H98.3201H98.24C98.1366 34.6184 98.0499 34.5387 97.99 34.4399C97.965 34.3867 97.9521 34.3286 97.9521 34.2699C97.9521 34.2111 97.965 34.1531 97.99 34.0999C98.0125 34.0451 98.048 33.9964 98.0933 33.9582C98.1385 33.9199 98.1922 33.893 98.25 33.8799" fill="#CBCDD2"/>
<path d="M86.13 28.3802C86.1355 28.3572 86.1355 28.3332 86.13 28.3102C86.1255 28.2538 86.1084 28.1991 86.0801 28.1502C86.0484 28.1118 86.0114 28.0781 85.9701 28.0502H85.8201C85.7806 28.0541 85.7435 28.0709 85.7146 28.098C85.6857 28.1251 85.6665 28.161 85.66 28.2002C85.6511 28.2329 85.6511 28.2675 85.66 28.3002C85.66 28.3002 85.66 28.3002 85.66 28.3502H85.73C85.7011 28.3619 85.6689 28.3619 85.64 28.3502C85.64 28.3502 85.58 28.2802 85.64 28.2402C85.6449 28.2101 85.6612 28.1831 85.6853 28.1645C85.7094 28.1459 85.7397 28.1372 85.77 28.1402C85.77 28.1402 85.7701 28.1402 85.8301 28.2102C85.849 28.2383 85.859 28.2713 85.859 28.3052C85.859 28.339 85.849 28.3721 85.8301 28.4002C85.8083 28.4305 85.7798 28.4553 85.7468 28.4726C85.7138 28.49 85.6773 28.4994 85.64 28.5002C85.6004 28.5055 85.5603 28.502 85.5222 28.4899C85.4842 28.4778 85.4493 28.4574 85.42 28.4302C85.3451 28.3819 85.2914 28.3068 85.27 28.2202V27.9602V27.9102L85.3401 27.8102C85.3643 27.7749 85.391 27.7415 85.42 27.7102L85.52 27.6402C85.5561 27.6297 85.59 27.6128 85.62 27.5902H85.7101H85.8C85.8495 27.58 85.9006 27.58 85.9501 27.5902H86.0901H85.99C85.9369 27.5827 85.8831 27.5827 85.8301 27.5902C85.8301 27.5902 85.76 27.5902 85.73 27.5902H85.79L85.67 27.6402C85.6291 27.6677 85.5855 27.6911 85.54 27.7102L85.4501 27.8102C85.4094 27.8389 85.3808 27.8816 85.37 27.9302V28.0002C85.36 28.0259 85.36 28.0545 85.37 28.0802C85.3616 28.1028 85.3616 28.1276 85.37 28.1502C85.3593 28.1792 85.3593 28.2112 85.37 28.2402C85.397 28.351 85.4604 28.4496 85.55 28.5202C85.5926 28.5596 85.6434 28.589 85.6987 28.6063C85.7541 28.6236 85.8126 28.6284 85.87 28.6202C85.9295 28.616 85.9874 28.5986 86.0393 28.5692C86.0912 28.5398 86.1359 28.4991 86.17 28.4502" fill="#CBCDD2"/>
<path d="M78.4601 37.0598L78.67 36.8498C78.9 36.5998 79.2201 36.3197 79.5701 35.9897C79.9826 35.6516 80.4168 35.341 80.87 35.0598C80.9896 34.9662 81.1167 34.8826 81.25 34.8098L81.65 34.6198C81.7917 34.5426 81.9388 34.4758 82.0901 34.4197L82.5601 34.2697C82.884 34.1609 83.2197 34.0904 83.5601 34.0598C83.9001 34.0598 84.2401 33.9998 84.5601 33.9998C84.9206 34.0167 85.2787 34.0669 85.63 34.1498C85.9878 34.2288 86.339 34.3358 86.6801 34.4698C87.0222 34.6107 87.3561 34.771 87.6801 34.9497L88.6801 35.5598C88.9801 35.7998 89.32 35.9998 89.61 36.2498C89.9 36.4998 90.1801 36.7197 90.4601 36.9897L90.54 37.0598H91.3101L90.89 36.6298L89.98 35.8398C89.68 35.5798 89.35 35.3497 88.98 35.1097C88.61 34.8697 88.28 34.6898 87.98 34.4698C87.6193 34.2861 87.2487 34.1225 86.87 33.9797C86.4939 33.8332 86.1058 33.7194 85.7101 33.6397C85.3253 33.5592 84.9331 33.519 84.54 33.5197C84.3506 33.4999 84.1596 33.4999 83.9701 33.5197C83.7823 33.5202 83.5949 33.5369 83.41 33.5697C83.0484 33.6332 82.6936 33.7303 82.3501 33.8597L81.87 34.0397C81.716 34.1084 81.5659 34.1852 81.42 34.2697L80.99 34.4998L80.61 34.7697C80.1585 35.0656 79.7336 35.4002 79.3401 35.7697C79.0201 36.1197 78.71 36.4197 78.5 36.6997C78.408 36.7922 78.3243 36.8926 78.25 36.9998L78.4601 37.0598Z" fill="#CBCDD2"/>
<path d="M97.5501 34.9603C97.7475 35.0424 97.9612 35.0779 98.1745 35.064C98.3878 35.0502 98.595 34.9873 98.7801 34.8803C99.0051 34.7447 99.1723 34.5312 99.2501 34.2803C99.2614 34.194 99.2614 34.1065 99.2501 34.0202C99.2356 34.1091 99.2122 34.1962 99.1801 34.2803C99.1019 34.5233 98.9338 34.7272 98.7101 34.8503C98.528 34.9332 98.3302 34.9761 98.1301 34.9761C97.93 34.9761 97.7322 34.9332 97.5501 34.8503C97.3104 34.77 97.094 34.6324 96.9197 34.4494C96.7454 34.2664 96.6186 34.0435 96.5501 33.8002C96.4887 33.5179 96.4854 33.226 96.5405 32.9424C96.5955 32.6587 96.7076 32.3892 96.87 32.1503C97.2412 31.5945 97.8159 31.2067 98.4701 31.0702C98.6498 31.0249 98.8348 31.0047 99.0201 31.0102C99.1065 31.0002 99.1937 31.0002 99.2801 31.0102H99.5601C99.7426 31.0334 99.9231 31.0702 100.1 31.1203L100.62 31.3103C101.299 31.598 101.882 32.0732 102.3 32.6803C102.402 32.8264 102.492 32.9802 102.57 33.1402C102.661 33.2917 102.725 33.4574 102.76 33.6303L102.91 34.1303C102.91 34.3103 102.91 34.5002 102.91 34.6702C102.91 35.3558 102.778 36.0349 102.52 36.6702L102.37 36.9703H102.77C102.77 36.9103 102.84 36.8502 102.86 36.8002C103.134 36.1097 103.273 35.3731 103.27 34.6303V34.0802L103.11 33.5202C103.053 33.3307 102.98 33.1467 102.89 32.9703C102.813 32.7907 102.712 32.6225 102.59 32.4703C102.123 31.818 101.477 31.3145 100.73 31.0202L100.17 30.8202C99.9801 30.7702 99.7901 30.7702 99.5901 30.7302H99.3001C99.2037 30.7201 99.1065 30.7201 99.0101 30.7302C98.8143 30.7251 98.619 30.7487 98.4301 30.8002C98.0768 30.8794 97.7429 31.028 97.4476 31.2375C97.1523 31.4469 96.9016 31.713 96.7101 32.0202L96.5701 32.2203L96.48 32.4603C96.4142 32.6016 96.3769 32.7545 96.37 32.9103C96.3454 33.0626 96.3454 33.2179 96.37 33.3703C96.3688 33.5133 96.3925 33.6554 96.4401 33.7902C96.5241 34.0471 96.6675 34.2806 96.8586 34.4717C97.0497 34.6628 97.2832 34.8062 97.5401 34.8902" fill="#CBCDD2"/>
<path d="M99.33 32.4803C99.4762 32.4973 99.6238 32.4973 99.77 32.4803C99.6273 32.4995 99.4827 32.4995 99.34 32.4803C99.1412 32.4538 98.9499 32.3869 98.7779 32.2837C98.6059 32.1805 98.457 32.0432 98.34 31.8803C98.2055 31.6136 98.1355 31.319 98.1355 31.0203C98.1355 30.7216 98.2055 30.427 98.34 30.1603C98.515 29.803 98.7788 29.4966 99.1063 29.2707C99.4338 29.0448 99.8139 28.9069 100.21 28.8703C101.175 28.7452 102.153 28.9763 102.96 29.5203C103.385 29.8161 103.743 30.1976 104.012 30.6402C104.281 31.0828 104.454 31.5768 104.52 32.0903C104.666 33.1764 104.493 34.2815 104.02 35.2703C103.688 35.95 103.229 36.5608 102.67 37.0703H102.9C103.417 36.5656 103.84 35.973 104.15 35.3203C104.627 34.3079 104.794 33.1772 104.63 32.0703C104.562 31.5434 104.382 31.0371 104.103 30.5852C103.824 30.1334 103.451 29.7464 103.01 29.4503C102.193 28.8869 101.192 28.6546 100.21 28.8003C100.095 28.8048 99.9801 28.825 99.87 28.8603C99.77 28.8603 99.66 28.9103 99.56 28.9503C99.363 29.0272 99.1778 29.1316 99.01 29.2603C98.7001 29.4914 98.4499 29.793 98.28 30.1403C98.1566 30.4174 98.098 30.719 98.1084 31.0222C98.1187 31.3254 98.198 31.6222 98.34 31.8903C98.457 32.0532 98.6059 32.1905 98.7779 32.2937C98.9499 32.3969 99.1412 32.4638 99.34 32.4903" fill="#CBCDD2"/>
<path d="M84.2902 36.5203C84.4902 36.5703 84.6901 36.6503 84.8901 36.7103L85.4402 36.9603L85.6201 37.0603H86.0402C85.8842 36.9457 85.7205 36.8421 85.5502 36.7503L84.9901 36.4703L84.3801 36.2403C83.9401 36.1403 83.5202 36.0203 83.0602 35.8903C82.9401 35.8657 82.8228 35.8288 82.7102 35.7803L82.4502 36.0303L82.9901 36.1903C83.4201 36.3103 83.8602 36.4103 84.2902 36.5203Z" fill="#CBCDD2"/>
<path d="M84.5801 37.0599H84.67C84.3583 36.8146 84.0234 36.6002 83.67 36.4199C83.3016 36.2117 82.9085 36.0505 82.5 35.9399C82.9111 36.0521 83.3074 36.2132 83.6801 36.4199C83.9983 36.5964 84.3025 36.797 84.5901 37.0199" fill="#CBCDD2"/>
<path d="M85.7001 33.7599L85.04 33.8699L83.6801 33.9499C83.5501 33.9499 83.42 33.9499 83.3 33.9999L83.1001 33.7199C83.2882 33.6846 83.4787 33.6645 83.67 33.6599L85.01 33.5799C85.23 33.5799 85.44 33.5299 85.65 33.4999L86.24 33.3599C86.5917 33.2591 86.9281 33.1111 87.24 32.9199C87.6944 32.6477 88.046 32.2328 88.24 31.7399C88.3186 31.5522 88.3659 31.3529 88.38 31.1499C88.3866 31.1997 88.3866 31.2501 88.38 31.2999C88.3807 31.4559 88.3572 31.6111 88.3101 31.7599C88.2308 31.994 88.1197 32.216 87.98 32.4199C87.7924 32.6866 87.5547 32.9142 87.28 33.0899C86.968 33.2962 86.6323 33.4641 86.28 33.5899L85.67 33.7599" fill="#CBCDD2"/>
<path d="M87.4801 32.7803L87.5802 32.6703C87.6806 32.5718 87.7679 32.4609 87.8402 32.3403C87.9654 32.1613 88.0725 31.9704 88.1601 31.7703C88.2703 31.5109 88.3475 31.2388 88.3901 30.9603C88.4461 30.6293 88.4461 30.2913 88.3901 29.9603C88.3352 29.5775 88.2043 29.2095 88.0051 28.8781C87.8059 28.5466 87.5424 28.2584 87.2301 28.0303L86.9801 27.8403L86.6902 27.7103C86.5946 27.6671 86.4937 27.6368 86.3901 27.6203C86.2863 27.5853 86.1791 27.5618 86.0702 27.5503C85.6507 27.5076 85.2273 27.573 84.8402 27.7403L84.5602 27.8903C84.4753 27.9397 84.395 27.9966 84.3202 28.0603L84.2002 28.1603C84.2002 28.1603 84.1302 28.2403 84.0902 28.2703C84.03 28.3455 83.9765 28.4258 83.9302 28.5103C83.8396 28.6682 83.7846 28.844 83.769 29.0253C83.7535 29.2067 83.7778 29.3893 83.8402 29.5603C83.9505 29.8832 84.1841 30.1493 84.4901 30.3003C84.6204 30.3597 84.7619 30.3904 84.9051 30.3904C85.0483 30.3904 85.1899 30.3597 85.3202 30.3003C85.422 30.2563 85.5122 30.1891 85.5834 30.104C85.6546 30.0189 85.7048 29.9183 85.7301 29.8103C85.7613 29.6697 85.7362 29.5225 85.6601 29.4003C85.739 29.522 85.7775 29.6654 85.7701 29.8103C85.743 29.9225 85.6925 30.0277 85.6218 30.119C85.5512 30.2104 85.4619 30.2858 85.3601 30.3403C85.2217 30.4158 85.0682 30.4594 84.9107 30.468C84.7533 30.4767 84.596 30.4501 84.4502 30.3903C84.3645 30.3652 84.2858 30.3207 84.2202 30.2603C84.1302 30.2603 84.0901 30.1503 84.0201 30.0803C83.9589 30.013 83.9053 29.9392 83.8601 29.8603L83.7801 29.7403C83.7801 29.7403 83.7801 29.6503 83.7801 29.6103C83.7117 29.4238 83.6835 29.2249 83.6972 29.0267C83.711 28.8285 83.7665 28.6355 83.8601 28.4603C83.9014 28.3649 83.9628 28.2796 84.0401 28.2103C84.067 28.1623 84.1007 28.1185 84.1401 28.0803L84.2601 27.9803C84.3501 27.9103 84.4301 27.8303 84.5101 27.7803L84.8202 27.6203C85.2325 27.4185 85.6939 27.3387 86.1501 27.3903C86.2651 27.3997 86.3789 27.4198 86.4901 27.4503C86.6042 27.4733 86.7151 27.5102 86.8202 27.5603L87.1501 27.7103L87.4101 27.8903C87.7568 28.1641 88.0457 28.504 88.2601 28.8903C88.4587 29.2298 88.5943 29.6025 88.6601 29.9903C88.7247 30.3373 88.7247 30.6932 88.6601 31.0403C88.6161 31.3325 88.5355 31.6181 88.4201 31.8903C88.3683 32.0045 88.3081 32.1148 88.2401 32.2203C88.1916 32.3152 88.1348 32.4055 88.0702 32.4903C87.9844 32.6128 87.8909 32.7297 87.7901 32.8403C87.7566 32.88 87.7199 32.9168 87.6802 32.9503C87.6605 32.9665 87.6356 32.9754 87.6101 32.9754C87.5845 32.9754 87.5598 32.9665 87.5401 32.9503C87.5218 32.9316 87.5116 32.9065 87.5116 32.8803C87.5116 32.8541 87.5218 32.829 87.5401 32.8103" fill="#CBCDD2"/>
<path d="M83.1602 33.8099C83.5909 33.7647 84.0163 33.6776 84.4302 33.5499C85.0068 33.3662 85.5554 33.1037 86.0602 32.7699C86.5877 32.4064 87.0536 31.9607 87.4402 31.4499C87.8436 30.9499 88.0998 30.3474 88.1802 29.7099C88.2532 29.071 88.1386 28.4247 87.8502 27.8499C87.554 27.2862 87.1075 26.8155 86.5602 26.4899C86.3051 26.3257 86.0196 26.2145 85.7207 26.1629C85.4218 26.1114 85.1155 26.1206 84.8202 26.1899C84.2918 26.3036 83.8267 26.6148 83.5201 27.0599C83.3874 27.2358 83.3076 27.4458 83.2899 27.6654C83.2722 27.885 83.3174 28.1051 83.4202 28.2999C83.5014 28.4545 83.6148 28.5898 83.7528 28.6968C83.8908 28.8037 84.0503 28.8798 84.2202 28.9199C84.3327 28.9334 84.4466 28.9236 84.5551 28.8909C84.6635 28.8582 84.764 28.8034 84.8502 28.7299C84.9165 28.6838 84.974 28.6262 85.0201 28.5599C84.9785 28.6234 84.9279 28.6806 84.8701 28.7299C84.7817 28.8067 84.6782 28.8642 84.5663 28.8986C84.4543 28.9331 84.3365 28.9437 84.2202 28.9299C84.0465 28.893 83.8825 28.8195 83.7394 28.7144C83.5963 28.6092 83.4772 28.4747 83.3901 28.3199C83.2938 28.1273 83.2424 27.9153 83.2401 27.6999C83.2489 27.5841 83.2725 27.4698 83.3102 27.3599C83.3293 27.3048 83.3526 27.2513 83.3801 27.1999C83.4075 27.1431 83.441 27.0894 83.4801 27.0399C83.7863 26.5777 84.2593 26.2517 84.8002 26.1299C85.4165 25.9985 86.0598 26.1057 86.6002 26.4299C87.1581 26.7693 87.6141 27.253 87.9202 27.8299C88.2204 28.4081 88.3422 29.0624 88.2701 29.7099C88.1813 30.3644 87.9111 30.981 87.4901 31.4899C87.1058 32.0063 86.6357 32.4528 86.1002 32.8099C85.591 33.151 85.0352 33.4171 84.4502 33.5999C84.0403 33.7261 83.6177 33.8066 83.1902 33.8399" fill="#CBCDD2"/>
<path d="M74.1699 26.5898L73.83 26.6599C73.7013 26.6998 73.5772 26.7534 73.46 26.8198C73.41 26.8198 73.3299 26.8898 73.2599 26.9498L73.07 27.1299C73.0033 27.1911 72.946 27.2619 72.8999 27.3398C72.8574 27.4274 72.8072 27.5111 72.7499 27.5898C72.7499 27.6898 72.75 27.7799 72.68 27.8799C72.6699 27.9796 72.6699 28.0801 72.68 28.1798V28.3598C72.68 28.3598 72.68 28.4398 72.68 28.4898C72.6912 28.5387 72.7154 28.5836 72.7499 28.6198C72.7644 28.6721 72.7962 28.7179 72.84 28.7498C72.9832 28.9228 73.1804 29.0426 73.3999 29.0898C73.5012 29.1189 73.6073 29.1277 73.7119 29.1157C73.8166 29.1037 73.9179 29.0711 74.0099 29.0198C74.0952 28.9719 74.1688 28.9059 74.2259 28.8264C74.2829 28.7469 74.3219 28.656 74.34 28.5598C74.3561 28.4755 74.3476 28.3883 74.3157 28.3085C74.2838 28.2288 74.2298 28.1598 74.1599 28.1098C74.0961 28.0587 74.0205 28.0243 73.94 28.0098H73.7899H73.69C73.6292 28.0438 73.5804 28.0955 73.55 28.1581C73.5196 28.2207 73.509 28.2911 73.5199 28.3598C73.5199 28.4698 73.6599 28.5298 73.7499 28.5598C73.7904 28.5614 73.8308 28.5532 73.8673 28.5357C73.9039 28.5183 73.9357 28.4923 73.96 28.4598C73.9642 28.43 73.9642 28.3997 73.96 28.3698V28.4698C73.96 28.4698 73.9599 28.4698 73.8899 28.5598C73.8473 28.5882 73.7998 28.6085 73.7499 28.6198C73.6699 28.6273 73.5896 28.6098 73.5199 28.5698C73.4468 28.5262 73.3904 28.4593 73.3599 28.3799C73.3313 28.2793 73.3364 28.1721 73.3743 28.0746C73.4122 27.9771 73.4809 27.8947 73.57 27.8398C73.6253 27.8038 73.686 27.7767 73.7499 27.7598H73.9199C74.0565 27.7671 74.1898 27.8046 74.31 27.8698C74.4245 27.9462 74.5147 28.0538 74.57 28.1798C74.601 28.2427 74.6212 28.3103 74.6299 28.3799C74.6299 28.3799 74.6299 28.3798 74.6299 28.4898V28.5898C74.6137 28.7332 74.5646 28.871 74.4866 28.9923C74.4086 29.1137 74.3037 29.2155 74.18 29.2898C73.9062 29.4438 73.5827 29.4834 73.2799 29.3998C72.986 29.3344 72.7242 29.1681 72.5399 28.9298C72.5399 28.8798 72.4499 28.8298 72.4099 28.7698C72.379 28.705 72.3523 28.6381 72.33 28.5698C72.3162 28.5005 72.3162 28.4292 72.33 28.3598V28.1898C72.3093 28.064 72.3093 27.9357 72.33 27.8098C72.33 27.6898 72.43 27.5698 72.46 27.4698C72.49 27.3698 72.5699 27.2698 72.6399 27.1798L72.8699 26.9598C72.9499 26.9598 73.0299 26.8398 73.1099 26.7998C73.1891 26.7518 73.2728 26.7116 73.3599 26.6798C73.4887 26.6285 73.6229 26.5915 73.7599 26.5698H74.1199L74.1699 26.5898Z" fill="#CBCDD2"/>
<path d="M78.52 37.0098L79.26 36.3098C79.5 36.0798 79.75 35.7798 80.05 35.4498C80.35 35.1198 80.67 34.6998 81.05 34.2598C81.22 34.0298 81.35 33.7798 81.51 33.5298C81.6827 33.2695 81.8396 32.999 81.98 32.7198C82.2881 32.1296 82.5361 31.5098 82.7201 30.8698C82.8216 30.5427 82.8985 30.2085 82.9501 29.8698C83.0241 29.5142 83.0676 29.1529 83.0801 28.7898C83.1202 28.0598 83.0698 27.3275 82.9301 26.6098C82.6231 25.1754 82.0352 23.8159 81.2001 22.6098C80.4656 21.5625 79.6058 20.6087 78.64 19.7698C77.9599 19.1652 77.2345 18.6136 76.4701 18.1198C75.9101 17.7598 75.5701 17.5898 75.5701 17.5898C75.5701 17.5898 75.88 17.7998 76.4 18.1998C77.0973 18.7544 77.7648 19.3452 78.4 19.9698C79.2884 20.8382 80.0797 21.8005 80.76 22.8398C81.5483 23.9955 82.0959 25.298 82.37 26.6698C82.5141 27.3499 82.5746 28.0451 82.55 28.7398C82.5453 29.0754 82.5118 29.41 82.4501 29.7398C82.4011 30.0772 82.3309 30.4112 82.24 30.7398C82.0735 31.3568 81.8562 31.9588 81.5901 32.5398C81.4768 32.8161 81.3431 33.0835 81.1901 33.3398C81.0631 33.5956 80.9194 33.8428 80.76 34.0798C80.2992 34.8289 79.7811 35.541 79.2101 36.2098L78.5601 36.9898" fill="#CBCDD2"/>
<path d="M75.7901 17.3601C76.3001 16.7701 76.7201 17.5001 75.9201 17.5801C76.7201 17.5001 76.4801 18.3001 75.8501 17.8301C76.4801 18.3001 75.7001 18.7001 75.6001 17.9601C75.7001 18.7001 74.8401 18.4701 75.3501 17.8801C74.8401 18.4701 74.4201 17.7401 75.2101 17.6601C74.4201 17.7401 74.6601 16.9301 75.2901 17.4101C74.6601 16.9301 75.4401 16.5401 75.5301 17.2901C75.4401 16.5401 76.3001 16.7701 75.7901 17.3601Z" fill="#CBCDD2"/>
<path d="M111.75 37.0801H73.8V37.7401H111.75V37.0801Z" fill="#CBCDD2"/>
<path d="M19.7301 37.0598C19.5687 36.9804 19.4148 36.8867 19.2701 36.7798C19.4926 36.8983 19.7274 36.9921 19.9702 37.0598H20.8701C20.4904 36.7735 20.0544 36.5712 19.5907 36.466C19.127 36.3609 18.6462 36.3553 18.1802 36.4498C18.2916 36.6713 18.433 36.8766 18.6002 37.0598H19.7301Z" fill="#CBCDD2"/>
<path d="M25.6298 29.9601C25.6298 29.6301 25.8399 29.19 26.5699 28.82C26.2219 29.0468 25.9474 29.37 25.7799 29.7501C25.8209 29.7198 25.8644 29.693 25.9099 29.67C26.2052 29.552 26.4681 29.3652 26.6768 29.1252C26.8855 28.8852 27.0339 28.5989 27.1098 28.29C25.1998 28.29 25.6298 29.9701 25.6298 29.9701" fill="#CBCDD2"/>
<path d="M11.27 34.19C11.27 33.7 11.54 33.08 12.61 32.55C12.1031 32.8754 11.706 33.3458 11.4701 33.9C11.5303 33.8522 11.5937 33.8088 11.66 33.77C12.082 33.591 12.4574 33.3176 12.7573 32.9709C13.0572 32.6242 13.2736 32.2134 13.39 31.77C10.63 31.77 11.25 34.2 11.25 34.2" fill="#CBCDD2"/>
<path d="M15.7901 31.49C15.9678 31.6901 16.0826 31.9383 16.1199 32.2033C16.1573 32.4684 16.1156 32.7385 16 32.98C16.0759 32.5568 16.0202 32.1204 15.8401 31.73C15.8538 31.779 15.8538 31.8309 15.8401 31.88C15.7208 32.1836 15.6774 32.5119 15.714 32.8361C15.7506 33.1603 15.866 33.4706 16.0501 33.74C16.2342 33.6031 16.3793 33.4205 16.4714 33.2103C16.5634 33.0002 16.5991 32.7697 16.5749 32.5415C16.5506 32.3134 16.4673 32.0955 16.3332 31.9094C16.1991 31.7232 16.0188 31.5752 15.8101 31.48" fill="#CBCDD2"/>
<path d="M37.79 29.2002C37.8928 29.1077 38.0172 29.0427 38.1519 29.0112C38.2865 28.9798 38.4269 28.9828 38.5601 29.0202C38.3351 29.0119 38.1116 29.0601 37.91 29.1602H38C38.1704 29.2038 38.3484 29.2093 38.5212 29.1765C38.694 29.1436 38.8574 29.0732 39 28.9702C38.9135 28.8897 38.8094 28.8307 38.6958 28.7981C38.5822 28.7656 38.4626 28.7603 38.3466 28.7827C38.2306 28.8051 38.1216 28.8546 38.0283 28.9271C37.9351 28.9997 37.8603 29.0932 37.8101 29.2002" fill="#CBCDD2"/>
<path d="M29.4 30.01C29.2524 30.0749 29.09 30.0989 28.9299 30.0795C28.7698 30.0602 28.6179 29.9982 28.49 29.9C28.7266 29.9996 28.9855 30.0341 29.24 30H29.15C28.9889 29.8918 28.8059 29.8205 28.614 29.7911C28.4222 29.7617 28.2262 29.775 28.04 29.83C28.1014 29.9494 28.1901 30.0527 28.299 30.1312C28.4078 30.2097 28.5338 30.2613 28.6665 30.2818C28.7992 30.3023 28.9348 30.2911 29.0623 30.249C29.1898 30.207 29.3055 30.1354 29.4 30.04" fill="#CBCDD2"/>
<path d="M37.88 30.8901C37.5077 30.8798 37.1458 30.7657 36.8348 30.5608C36.5239 30.3558 36.2763 30.0681 36.12 29.7301C36.4924 30.201 36.9976 30.5493 37.5701 30.7301C37.5202 30.6796 37.4735 30.6262 37.4301 30.5701C37.2051 30.1794 36.8967 29.8433 36.5267 29.5857C36.1568 29.3281 35.7345 29.1555 35.29 29.0801C35.3015 29.3886 35.3842 29.6903 35.5317 29.9615C35.6793 30.2328 35.8877 30.4661 36.1405 30.6434C36.3933 30.8207 36.6837 30.937 36.989 30.9832C37.2943 31.0295 37.606 31.0045 37.9 30.9101" fill="#CBCDD2"/>
<path d="M27.4001 37.0602C27.9142 36.8559 28.4422 36.6888 28.9801 36.5602C29.2501 36.4902 29.5302 36.4602 29.8102 36.4102C30.0902 36.3602 30.0702 36.3602 30.2102 36.3502H30.6201C30.7499 36.36 30.8803 36.36 31.0101 36.3502H32.1702C33.0887 36.3838 34.0008 36.5179 34.8901 36.7502L35.4702 36.9102L35.9901 37.1002L36.1301 37.1502H36.8402C36.768 37.0994 36.6909 37.0558 36.6101 37.0202L36.1401 36.7702L35.6201 36.5202C35.4401 36.4602 35.2402 36.4001 35.0502 36.3201C34.1423 35.9783 33.1947 35.7531 32.2301 35.6502C31.0795 35.5363 29.9189 35.58 28.7802 35.7802C27.501 35.9964 26.2672 36.4257 25.1301 37.0502L24.9702 37.1502L27.4001 37.0602Z" fill="#CBCDD2"/>
<path d="M33.0201 35.2698C33.4352 35.8733 33.9335 36.4154 34.5001 36.8798L34.7501 37.0598H37.2701C37.1401 37.0098 37.0101 36.9797 36.8901 36.9197H36.8301L36.7101 36.8498L36.49 36.7398L36.2601 36.6298L36.0701 36.5198C35.9456 36.4467 35.8254 36.3666 35.7101 36.2798L35.3401 35.9998C34.8757 35.6123 34.4683 35.1612 34.1301 34.6598C33.8011 34.1622 33.5451 33.62 33.37 33.0498C33.2177 32.4825 33.1437 31.8971 33.1501 31.3098V30.8798C33.1501 30.7298 33.1501 30.5898 33.2101 30.4398V30.2297C33.2101 30.1597 33.2101 30.0998 33.2701 30.0198C33.3301 29.9398 33.3401 29.7397 33.3901 29.6097L33.5401 29.1997V29.0898V29.0397L33.6501 28.8398C33.6501 28.8398 33.6501 28.7598 33.6501 28.7198L33.7101 28.6598L33.8101 28.4998L34.0601 28.1798C34.4325 27.7878 34.883 27.4784 35.3826 27.2717C35.8822 27.065 36.4197 26.9655 36.9601 26.9797C37.4723 27.0015 37.9767 27.1132 38.4501 27.3098L38.6002 27.3897L38.73 27.4698C38.8298 27.5308 38.9235 27.6011 39.0101 27.6798C39.1622 27.8279 39.2935 27.9961 39.4001 28.1798C39.5947 28.5408 39.6782 28.9514 39.6401 29.3597C39.6135 29.5509 39.5666 29.7386 39.5001 29.9197L39.4301 30.0298C39.4129 30.0792 39.3893 30.1263 39.36 30.1697L39.2001 30.3498C38.9454 30.5666 38.6244 30.69 38.2901 30.6997H38.0601L37.8301 30.6397H37.7701C37.739 30.6161 37.7055 30.596 37.6701 30.5797C37.6701 30.5797 37.5701 30.5198 37.5301 30.4698C37.4526 30.406 37.3902 30.3258 37.3473 30.235C37.3045 30.1443 37.2823 30.0451 37.2823 29.9447C37.2823 29.8444 37.3045 29.7453 37.3473 29.6545C37.3902 29.5637 37.4526 29.4835 37.5301 29.4197C37.6299 29.3529 37.7519 29.3278 37.87 29.3498H38.0001L37.8801 29.2998C37.7528 29.2622 37.6173 29.2622 37.49 29.2998C37.4002 29.3359 37.321 29.3945 37.2601 29.4698C37.1885 29.5537 37.1372 29.6529 37.11 29.7597C37.0739 29.8987 37.0705 30.0442 37.1 30.1847C37.1295 30.3252 37.1911 30.457 37.2801 30.5697C37.3361 30.637 37.3999 30.6975 37.4701 30.7498C37.5053 30.7754 37.5421 30.7987 37.5801 30.8197C37.5801 30.8197 37.5801 30.8197 37.6501 30.8197C37.7201 30.8197 37.8301 30.8698 37.9201 30.9098L38.2101 30.9598C38.6602 30.9994 39.109 30.8712 39.4701 30.5998C39.5675 30.5174 39.6577 30.4271 39.74 30.3297C39.7798 30.288 39.8136 30.2409 39.8401 30.1898V30.1298C39.9511 29.9152 40.0319 29.6864 40.0801 29.4497C40.1878 28.9238 40.1247 28.3773 39.9001 27.8897C39.7779 27.6266 39.6161 27.3837 39.4201 27.1697C39.3158 27.0503 39.1984 26.9429 39.0701 26.8498C39.0104 26.7984 38.9468 26.7516 38.8801 26.7098C38.8156 26.6607 38.7451 26.6203 38.6701 26.5898C38.0998 26.3005 37.4778 26.1272 36.8401 26.0797C36.1455 26.0243 35.4471 26.1199 34.7929 26.3598C34.1387 26.5997 33.5442 26.9784 33.0501 27.4698C32.9301 27.5998 32.8201 27.7398 32.7001 27.8798L32.5301 28.1097C32.4783 28.1832 32.4315 28.26 32.3901 28.3398L32.2701 28.5397V28.5898V28.7098L32.0701 29.1898C31.831 29.8317 31.6894 30.5059 31.6501 31.1898C31.6056 32.6091 32.0041 34.0071 32.7901 35.1898" fill="#CBCDD2"/>
<path d="M35.11 32.48L35.0301 32.53C35.0301 32.53 35.0301 32.53 34.9501 32.53C34.8873 32.5415 34.8229 32.5415 34.7601 32.53C34.6427 32.5248 34.5274 32.4977 34.4201 32.45C34.322 32.3937 34.2422 32.3104 34.1901 32.21C34.1858 32.1869 34.1858 32.1632 34.1901 32.14C34.1801 32.0872 34.1801 32.0329 34.1901 31.98C34.2084 31.8951 34.2514 31.8176 34.3136 31.7571C34.3759 31.6966 34.4547 31.6558 34.5401 31.64C34.6125 31.624 34.6876 31.624 34.7601 31.64C34.806 31.685 34.8463 31.7353 34.88 31.79C34.88 31.79 34.88 31.87 34.88 31.92C34.88 31.97 34.88 31.98 34.88 32H34.8201V31.94C34.8359 31.9127 34.8442 31.8816 34.8442 31.85C34.8442 31.8184 34.8359 31.7874 34.8201 31.76C34.792 31.7248 34.7547 31.6978 34.7124 31.6819C34.6702 31.6661 34.6245 31.662 34.5801 31.67C34.5229 31.6853 34.4713 31.7172 34.4322 31.7617C34.393 31.8062 34.3679 31.8613 34.36 31.92C34.3577 31.9466 34.3577 31.9734 34.36 32C34.3557 32.0198 34.3557 32.0403 34.36 32.06C34.4031 32.1199 34.4575 32.1709 34.5201 32.21C34.5927 32.2371 34.6708 32.2457 34.7476 32.2353C34.8244 32.2248 34.8974 32.1955 34.9601 32.15C35.0284 32.1056 35.086 32.0467 35.1292 31.9776C35.1724 31.9086 35.2001 31.8309 35.2101 31.75C35.2105 31.5765 35.1463 31.409 35.0301 31.28C34.9025 31.1454 34.7335 31.0574 34.5501 31.03C34.5073 31.0205 34.4629 31.0205 34.4201 31.03C34.3701 31.03 34.3301 31.03 34.2801 31.03H34.1601L34.0101 31.08C33.9354 31.1207 33.8586 31.1575 33.7801 31.19C33.7101 31.26 33.6401 31.31 33.5701 31.37L33.4201 31.56C33.4201 31.63 33.3501 31.7 33.3101 31.76C33.2701 31.82 33.31 31.9 33.24 31.96C33.2344 32.0232 33.2344 32.0868 33.24 32.15C33.2297 32.2565 33.2297 32.3636 33.24 32.47L33.3201 32.74V32.67C33.2861 32.6121 33.2559 32.552 33.23 32.49C33.187 32.3816 33.1634 32.2666 33.1601 32.15C33.1501 32.0804 33.1501 32.0097 33.1601 31.94C33.1601 31.86 33.1601 31.78 33.1601 31.71C33.1891 31.625 33.2224 31.5416 33.2601 31.46C33.2601 31.38 33.3701 31.31 33.4201 31.22C33.4701 31.13 33.5601 31.08 33.6401 31.02C33.7314 30.9519 33.8285 30.8917 33.9301 30.84L34.0801 30.78C34.14 30.7746 34.2002 30.7746 34.2601 30.78C34.323 30.7706 34.3871 30.7706 34.4501 30.78H34.6401C34.8873 30.8262 35.1123 30.9527 35.2801 31.14C35.3678 31.2265 35.4351 31.3316 35.4766 31.4476C35.5182 31.5636 35.533 31.6875 35.5201 31.81C35.5104 31.9334 35.4695 32.0522 35.4013 32.1554C35.3331 32.2586 35.2397 32.3428 35.13 32.4" fill="#CBCDD2"/>
<path d="M15.2399 33.8999H15.07C15.0167 33.9128 14.9681 33.9405 14.9299 33.9799C14.8911 34.0102 14.8631 34.0523 14.85 34.0999C14.85 34.0999 14.85 34.1599 14.85 34.1699C14.8699 34.2085 14.8999 34.241 14.9369 34.2639C14.9739 34.2868 15.0164 34.2993 15.0599 34.2999C15.0774 34.2978 15.0939 34.2911 15.1079 34.2806C15.122 34.27 15.133 34.256 15.1399 34.2399C15.1399 34.2399 15.1399 34.2399 15.1399 34.1699C15.1461 34.1538 15.1461 34.136 15.1399 34.1199C15.1399 34.1199 15.1399 34.1699 15.1399 34.2099C15.1353 34.2301 15.1238 34.2482 15.1074 34.2609C15.091 34.2737 15.0707 34.2804 15.0499 34.2799C15.021 34.2832 14.9919 34.2759 14.968 34.2593C14.9441 34.2428 14.927 34.2181 14.9199 34.1899C14.9199 34.1899 14.9199 34.1399 14.9199 34.0999C14.9527 34.085 14.9881 34.0768 15.0241 34.0758C15.06 34.0748 15.0959 34.081 15.1294 34.0941C15.1629 34.1071 15.1935 34.1267 15.2194 34.1518C15.2452 34.1768 15.2658 34.2068 15.2799 34.2399C15.3088 34.3104 15.3088 34.3894 15.2799 34.4599C15.2379 34.539 15.1713 34.6022 15.09 34.6399H14.8999H14.7699L14.6699 34.5899C14.6699 34.5899 14.61 34.5399 14.57 34.5299C14.5517 34.4963 14.528 34.4659 14.4999 34.4399C14.495 34.4134 14.495 34.3863 14.4999 34.3599C14.4981 34.3332 14.4981 34.3065 14.4999 34.2799C14.4934 34.2334 14.4934 34.1863 14.4999 34.1399V33.9599C14.4999 33.9599 14.4999 34.0099 14.4999 34.0599C14.4857 34.1089 14.4857 34.1609 14.4999 34.2099C14.4904 34.2425 14.4904 34.2772 14.4999 34.3099L14.5499 34.3999C14.5716 34.4369 14.5985 34.4706 14.6299 34.4999C14.6583 34.5349 14.692 34.5653 14.7299 34.5899L14.85 34.6699H14.9999H15.1699H15.2499H15.33C15.4326 34.6209 15.5167 34.5403 15.57 34.4399C15.5943 34.3865 15.6068 34.3285 15.6068 34.2699C15.6068 34.2112 15.5943 34.1533 15.57 34.0999C15.5471 34.047 15.5128 33.9999 15.4696 33.9619C15.4264 33.9238 15.3753 33.8958 15.32 33.8799" fill="#CBCDD2"/>
<path d="M27.4201 28.38C27.4201 28.38 27.4201 28.33 27.4201 28.31C27.4039 28.2579 27.4039 28.2021 27.4201 28.15L27.5201 28.05H27.6701C27.7119 28.0497 27.7524 28.0649 27.7837 28.0925C27.8151 28.1202 27.8352 28.1584 27.8401 28.2C27.8467 28.2158 27.8501 28.2328 27.8501 28.25C27.8501 28.2672 27.8467 28.2841 27.8401 28.3C27.8401 28.3 27.8401 28.3 27.8401 28.35H27.7801C27.7638 28.3553 27.7463 28.3553 27.73 28.35C27.73 28.35 27.7801 28.35 27.8201 28.35C27.8281 28.3328 27.8323 28.314 27.8323 28.295C27.8323 28.276 27.8281 28.2572 27.8201 28.24C27.8153 28.2117 27.8006 28.1861 27.7786 28.1678C27.7566 28.1494 27.7288 28.1396 27.7001 28.14C27.6795 28.1548 27.6626 28.1743 27.651 28.1969C27.6394 28.2195 27.6333 28.2446 27.6333 28.27C27.6333 28.2954 27.6394 28.3204 27.651 28.343C27.6626 28.3657 27.6795 28.3852 27.7001 28.4C27.7222 28.4323 27.7522 28.4584 27.7871 28.4759C27.8221 28.4934 27.861 28.5017 27.9001 28.5C27.9797 28.5059 28.0584 28.4808 28.12 28.43C28.1545 28.4053 28.1838 28.3741 28.2061 28.338C28.2284 28.302 28.2434 28.2619 28.25 28.22C28.2556 28.2004 28.2556 28.1796 28.25 28.16C28.25 28.16 28.25 28.16 28.25 28.11V27.96V27.91C28.2291 27.8751 28.2058 27.8416 28.1801 27.81C28.1591 27.7725 28.1321 27.7387 28.1001 27.71L28.01 27.64C27.9725 27.6337 27.9376 27.6163 27.9101 27.59H27.8101H27.7101C27.6606 27.58 27.6096 27.58 27.5601 27.59H27.4201H27.51C27.5632 27.5834 27.617 27.5834 27.6701 27.59C27.6701 27.59 27.7401 27.59 27.7801 27.59H27.9001L28.0201 27.64L28.13 27.71L28.24 27.81L28.3201 27.93V28C28.3258 28.0264 28.3258 28.0536 28.3201 28.08C28.3201 28.08 28.3201 28.13 28.3201 28.15C28.3256 28.1797 28.3256 28.2102 28.3201 28.24C28.2932 28.3484 28.2339 28.4461 28.1501 28.52C28.1031 28.5588 28.0488 28.5877 27.9904 28.6049C27.932 28.622 27.8706 28.6272 27.8101 28.62C27.7533 28.6158 27.6982 28.5982 27.6496 28.5687C27.6009 28.5391 27.56 28.4984 27.5301 28.45" fill="#CBCDD2"/>
<path d="M22.9702 37.0601L23.0402 36.9901C23.3202 36.7201 23.6202 36.5001 23.9102 36.2501C24.2002 36.0001 24.5302 35.8001 24.8302 35.5601L25.8302 34.95C26.1551 34.773 26.4889 34.6128 26.8302 34.4701C27.1738 34.3334 27.5283 34.2263 27.8901 34.1501C28.241 34.0652 28.5995 34.015 28.9602 34.0001C29.3002 34.0001 29.6502 34.0001 29.9602 34.0601C30.3003 34.0925 30.6357 34.163 30.9602 34.2701L31.4202 34.4201C31.5698 34.4723 31.7139 34.5393 31.8502 34.6201L32.2601 34.8101L32.6501 35.0601C33.0986 35.3436 33.5294 35.6542 33.9402 35.9901C34.2902 36.3201 34.6102 36.6001 34.8502 36.8501L35.0502 37.0601H35.2202C35.1402 36.9601 35.0701 36.86 34.9801 36.76C34.7601 36.48 34.4501 36.1801 34.1301 35.8301C33.7366 35.4605 33.3116 35.1259 32.8601 34.8301C32.7349 34.7333 32.6048 34.6432 32.4702 34.5601L32.0502 34.3301C31.9043 34.2455 31.7542 34.1688 31.6002 34.1001C31.4402 34.0401 31.2801 33.9701 31.1101 33.9201C30.7862 33.7935 30.4515 33.6965 30.1101 33.6301C29.9251 33.5981 29.7379 33.5814 29.5502 33.5801C29.3574 33.5599 29.163 33.5599 28.9702 33.5801C28.5772 33.5809 28.1852 33.621 27.8002 33.7C27.4076 33.7796 27.0228 33.8934 26.6501 34.04C26.2714 34.1828 25.9009 34.3464 25.5402 34.5301C25.1902 34.7501 24.8402 34.9401 24.5402 35.1701C24.2402 35.4001 23.8802 35.6401 23.5402 35.9001C23.2002 36.1601 22.9301 36.4201 22.6501 36.6901L22.2202 37.1201L22.9702 37.0601Z" fill="#CBCDD2"/>
<path d="M10.6902 37.0599H11.0902C11.0902 36.9599 10.9902 36.8598 10.9502 36.7598C10.6891 36.1252 10.5532 35.4461 10.5501 34.7598C10.5406 34.58 10.5406 34.3997 10.5501 34.2199L10.6801 33.7199C10.7277 33.5494 10.7948 33.3849 10.8801 33.2298C10.9548 33.07 11.0417 32.9163 11.1401 32.7699C11.5621 32.1621 12.1483 31.687 12.8302 31.3999L13.3502 31.2099C13.5301 31.1579 13.714 31.1211 13.9001 31.0999H14.1701C14.2565 31.0899 14.3438 31.0899 14.4301 31.0999C14.6121 31.0933 14.7941 31.1135 14.9702 31.1599C15.6273 31.2959 16.2051 31.6835 16.5802 32.2399C16.746 32.4773 16.8608 32.7464 16.9176 33.0304C16.9744 33.3143 16.9719 33.6069 16.9101 33.8898C16.8372 34.1309 16.7087 34.3514 16.535 34.5338C16.3613 34.7162 16.1473 34.8553 15.9101 34.9399C15.7263 35.023 15.5269 35.066 15.3252 35.066C15.1234 35.066 14.9239 35.023 14.7401 34.9399C14.5232 34.8062 14.355 34.6063 14.2601 34.3699C14.2334 34.2849 14.2134 34.1979 14.2002 34.1099C14.2123 34.2842 14.2657 34.4532 14.3562 34.6027C14.4466 34.7523 14.5714 34.8781 14.7202 34.9699C14.9035 35.0768 15.1091 35.1396 15.3208 35.1535C15.5325 35.1674 15.7445 35.1319 15.9402 35.0499C16.1985 34.9665 16.4336 34.8234 16.6264 34.6323C16.8193 34.4412 16.9644 34.2074 17.0501 33.9498C17.1007 33.8155 17.1278 33.6734 17.1301 33.5299C17.145 33.3769 17.145 33.2228 17.1301 33.0698C17.1114 32.9138 17.0675 32.7618 17.0001 32.6199L16.9101 32.3799C16.9101 32.3199 16.8201 32.2499 16.7801 32.1799C16.5886 31.8726 16.338 31.6065 16.0427 31.3971C15.7474 31.1876 15.4134 31.039 15.0602 30.9599C14.8747 30.9082 14.6825 30.8846 14.4901 30.8898C14.387 30.8798 14.2832 30.8798 14.1801 30.8898H13.9001C13.7101 30.8898 13.5002 30.8898 13.3102 30.9798L12.7501 31.1799C12.0094 31.4797 11.3682 31.9822 10.9001 32.6299C10.7809 32.7824 10.6832 32.9506 10.6101 33.1299C10.5089 33.302 10.4316 33.487 10.3801 33.6799L10.2202 34.2399V34.7898C10.2105 35.5343 10.3534 36.2728 10.6401 36.9599L10.7202 37.1299" fill="#CBCDD2"/>
<path d="M10.6602 37.0602H10.8802C10.3236 36.548 9.86606 35.9379 9.53019 35.2602C9.06486 34.2693 8.89476 33.1653 9.0402 32.0802C9.10405 31.566 9.27608 31.0711 9.54496 30.6282C9.81384 30.1852 10.1735 29.8042 10.6003 29.5102C11.4046 28.9686 12.3783 28.7376 13.3402 28.8602C13.7382 28.8952 14.1203 29.0324 14.4496 29.2583C14.779 29.4843 15.0444 29.7916 15.2203 30.1502C15.3525 30.4176 15.4212 30.7119 15.4212 31.0102C15.4212 31.3085 15.3525 31.6028 15.2203 31.8702C15.1025 32.0323 14.9531 32.169 14.7813 32.2721C14.6095 32.3752 14.4187 32.4426 14.2203 32.4702C14.0776 32.49 13.9329 32.49 13.7902 32.4702C13.9363 32.4877 14.084 32.4877 14.2301 32.4702C14.4293 32.4449 14.621 32.3785 14.7931 32.2752C14.9653 32.1719 15.1141 32.034 15.2301 31.8702C15.368 31.5992 15.44 31.2993 15.44 30.9952C15.44 30.6911 15.368 30.3913 15.2301 30.1202C15.0676 29.7713 14.82 29.4687 14.5102 29.2402C14.3401 29.1094 14.1514 29.0049 13.9502 28.9302C13.8491 28.893 13.7455 28.8629 13.6402 28.8402C13.5335 28.8049 13.4225 28.7847 13.3102 28.7802C12.3253 28.6399 11.3234 28.8717 10.5002 29.4302C10.0622 29.7297 9.69177 30.1175 9.41276 30.5687C9.13374 31.02 8.95233 31.5246 8.88016 32.0502C8.73012 33.1581 8.90014 34.2858 9.37015 35.3002C9.68344 35.9509 10.1063 36.5428 10.6202 37.0502" fill="#CBCDD2"/>
<path d="M27.92 37.0603L28.0901 36.9603L28.65 36.7103C28.85 36.6503 29.04 36.5703 29.25 36.5203L30.55 36.1903L31.1001 36.0303L30.8401 35.7803C30.7201 35.8274 30.5963 35.8642 30.4701 35.8903C30.0301 36.0203 29.59 36.1403 29.17 36.2403C28.95 36.3103 28.74 36.3903 28.54 36.4703L27.9701 36.7503L27.49 37.0603H27.92Z" fill="#CBCDD2"/>
<path d="M28.96 37.06C29.2459 36.8348 29.5503 36.6341 29.8699 36.46C30.2426 36.2533 30.6388 36.0921 31.0499 35.98C30.642 36.0923 30.2491 36.2534 29.8799 36.46C29.5262 36.6397 29.1912 36.8541 28.8799 37.1L28.96 37.06Z" fill="#CBCDD2"/>
<path d="M27.84 33.7599L28.5 33.8699L29.85 33.9499C29.98 33.9499 30.1099 33.9499 30.2399 33.9999L30.44 33.7199C30.2519 33.6851 30.0612 33.6651 29.8699 33.6599L28.53 33.5799C28.31 33.5799 28.1 33.5299 27.89 33.4999L27.3 33.3599C26.9493 33.2563 26.6133 33.1085 26.3 32.9199C26.0385 32.7634 25.8051 32.564 25.6099 32.3299C25.4663 32.1487 25.3454 31.9505 25.25 31.7399C25.176 31.5517 25.1354 31.352 25.13 31.1499C25.1233 31.1997 25.1233 31.2501 25.13 31.2999C25.1344 31.4555 25.1579 31.61 25.2 31.7599C25.2752 31.9938 25.3829 32.216 25.52 32.4199C25.7155 32.6797 25.9519 32.906 26.22 33.0899C26.5526 33.2975 26.9083 33.4654 27.28 33.5899L27.89 33.7599" fill="#CBCDD2"/>
<path d="M26.07 32.7803C26.03 32.7471 25.9932 32.7102 25.96 32.6703C25.8619 32.5672 25.7716 32.4569 25.69 32.3403C25.5683 32.1608 25.4644 31.9699 25.38 31.7703C25.269 31.5119 25.195 31.2392 25.16 30.9603C25.0977 30.6298 25.0977 30.2907 25.16 29.9603C25.2814 29.1907 25.6974 28.4986 26.32 28.0303L26.58 27.8403L26.86 27.7103C26.9595 27.6684 27.0636 27.6382 27.17 27.6203C27.2701 27.5842 27.3741 27.5607 27.4799 27.5503C27.9027 27.5076 28.3295 27.573 28.7201 27.7403L29 27.8903C29.09 27.9403 29.16 28.0103 29.24 28.0603L29.36 28.1603C29.3957 28.1946 29.4293 28.2314 29.46 28.2703C29.5295 28.3427 29.5898 28.4233 29.64 28.5103C29.8036 28.8358 29.8357 29.2117 29.7299 29.5603C29.6127 29.8823 29.3766 30.1471 29.07 30.3003C28.9384 30.3612 28.795 30.3927 28.65 30.3927C28.5049 30.3927 28.3616 30.3612 28.2299 30.3003C28.1289 30.255 28.0396 30.1874 27.9686 30.1025C27.8976 30.0176 27.8468 29.9177 27.82 29.8103C27.8016 29.6685 27.8296 29.5247 27.9 29.4003L28 29.2903C27.9621 29.3226 27.9286 29.3595 27.9 29.4003C27.8164 29.5195 27.7807 29.6659 27.8 29.8103C27.8215 29.9234 27.8688 30.03 27.9382 30.1219C28.0076 30.2139 28.0972 30.2886 28.2 30.3403C28.3385 30.4158 28.492 30.4594 28.6494 30.468C28.8068 30.4767 28.9641 30.4501 29.11 30.3903C29.1977 30.3631 29.2794 30.3189 29.3501 30.2603C29.4228 30.2111 29.487 30.1503 29.54 30.0803C29.6043 30.0156 29.6583 29.9414 29.7 29.8603L29.77 29.7403C29.7858 29.6951 29.8059 29.6516 29.83 29.6103C29.896 29.4233 29.9229 29.2248 29.9091 29.027C29.8954 28.8292 29.8412 28.6363 29.75 28.4603C29.7087 28.3674 29.6512 28.2828 29.58 28.2103L29.4701 28.0803L29.3501 27.9803C29.2703 27.9051 29.1832 27.8381 29.0901 27.7803L28.8 27.6203C28.3805 27.4184 27.9127 27.3387 27.45 27.3903C27.3384 27.3996 27.2278 27.4197 27.12 27.4503C27.0031 27.4748 26.8891 27.5117 26.78 27.5603L26.46 27.7103L26.2 27.8903C25.8562 28.167 25.5678 28.5063 25.3501 28.8903C25.1515 29.2298 25.0159 29.6025 24.95 29.9903C24.8855 30.3373 24.8855 30.6932 24.95 31.0403C24.9893 31.3335 25.0701 31.6197 25.19 31.8903C25.2386 32.0042 25.2953 32.1146 25.36 32.2203C25.4117 32.3155 25.472 32.4058 25.54 32.4903C25.6258 32.6128 25.7193 32.7297 25.82 32.8403L25.92 32.9503C25.9397 32.9665 25.9644 32.9754 25.99 32.9754C26.0155 32.9754 26.0403 32.9665 26.06 32.9503C26.0783 32.9316 26.0886 32.9065 26.0886 32.8803C26.0886 32.8541 26.0783 32.829 26.06 32.8103" fill="#CBCDD2"/>
<path d="M30.37 33.81C29.9458 33.7647 29.5271 33.6776 29.12 33.55C28.537 33.3665 27.982 33.1041 27.4701 32.77C26.9496 32.4015 26.4877 31.9565 26.1001 31.45C25.6929 30.9522 25.4361 30.3486 25.36 29.71C25.2822 29.071 25.3972 28.4233 25.6901 27.85C25.9801 27.2819 26.4279 26.8096 26.98 26.49C27.235 26.3258 27.5207 26.2146 27.8196 26.1631C28.1185 26.1115 28.4248 26.1207 28.7201 26.19C29.2485 26.3037 29.7134 26.6149 30.02 27.06C30.148 27.2378 30.2258 27.4468 30.2451 27.6649C30.2645 27.8831 30.2247 28.1025 30.13 28.3C30.0467 28.4549 29.9314 28.5903 29.7918 28.6972C29.6521 28.8041 29.4913 28.88 29.3201 28.92C29.2061 28.9338 29.0904 28.924 28.9804 28.8913C28.8703 28.8586 28.7681 28.8037 28.6801 28.73C28.7671 28.8091 28.8705 28.868 28.9828 28.9025C29.0951 28.9371 29.2137 28.9465 29.3301 28.93C29.5025 28.8931 29.6649 28.8195 29.8064 28.7142C29.9479 28.609 30.0651 28.4745 30.15 28.32C30.2525 28.13 30.301 27.9156 30.2901 27.7C30.2899 27.5841 30.2696 27.469 30.23 27.36L30.16 27.2C30.1364 27.1412 30.1025 27.0871 30.0601 27.04C29.7495 26.5821 29.2784 26.2574 28.74 26.13C28.1237 25.9976 27.4801 26.1049 26.9401 26.43C26.3799 26.7667 25.9232 27.251 25.62 27.83C25.3151 28.4066 25.193 29.0624 25.27 29.71C25.3555 30.3636 25.6222 30.9802 26.0401 31.49C26.4355 31.9999 26.9079 32.4452 27.4401 32.81C27.9518 33.1531 28.5111 33.4193 29.1001 33.6C29.5032 33.7261 29.9191 33.8066 30.3401 33.84" fill="#CBCDD2"/>
<path d="M39.3601 26.5898L39.7102 26.6599C39.8364 26.6981 39.9573 26.7518 40.0702 26.8198C40.1413 26.856 40.2082 26.8996 40.2701 26.9498C40.3417 27.0042 40.4087 27.0644 40.4702 27.1299C40.5312 27.1963 40.5879 27.2664 40.6401 27.3398L40.7802 27.5898C40.7802 27.6898 40.8402 27.7799 40.8502 27.8799C40.8602 27.9799 40.8502 28.0998 40.8502 28.1798V28.3598C40.8502 28.3598 40.8502 28.4398 40.8502 28.4898C40.8347 28.537 40.811 28.581 40.7802 28.6198C40.7623 28.6704 40.7313 28.7153 40.6902 28.7498C40.5496 28.921 40.3561 29.0405 40.1401 29.0898C40.0389 29.1195 39.9329 29.1285 39.8281 29.1165C39.7234 29.1045 39.622 29.0716 39.5302 29.0198C39.4439 28.9719 39.369 28.9061 39.3103 28.8267C39.2517 28.7474 39.2107 28.6564 39.1902 28.5598C39.1715 28.4754 39.1786 28.3873 39.2107 28.3071C39.2428 28.2268 39.2984 28.158 39.3701 28.1098C39.4401 28.0563 39.5228 28.0219 39.6101 28.0098H39.7301H39.8302C39.8942 28.04 39.946 28.0912 39.9769 28.1548C40.0079 28.2185 40.016 28.2909 40.0001 28.3598C40.0001 28.4698 39.8701 28.5298 39.7701 28.5598C39.7312 28.5607 39.6927 28.552 39.6578 28.5345C39.623 28.5171 39.5929 28.4915 39.5702 28.4598C39.5643 28.4301 39.5643 28.3995 39.5702 28.3698C39.5682 28.4031 39.5682 28.4365 39.5702 28.4698C39.5702 28.4698 39.5701 28.4698 39.6401 28.5598C39.6818 28.5899 39.7296 28.6104 39.7802 28.6198C39.8538 28.6272 39.9277 28.6096 39.9901 28.5698C40.0312 28.5516 40.0682 28.5255 40.0991 28.4929C40.13 28.4602 40.1542 28.4218 40.1702 28.3799C40.1997 28.2803 40.1962 28.1739 40.1602 28.0765C40.1241 27.9791 40.0575 27.8961 39.9702 27.8398L39.7902 27.7598H39.6002C39.4698 27.7657 39.3426 27.8035 39.2301 27.8698C39.1122 27.9479 39.0159 28.0546 38.9502 28.1798C38.9192 28.2427 38.8989 28.3103 38.8901 28.3799C38.8901 28.3799 38.8901 28.3798 38.8901 28.4898V28.5898C38.9062 28.7358 38.9573 28.8757 39.0392 28.9976C39.121 29.1195 39.2311 29.2197 39.3601 29.2898C39.4955 29.3666 39.6447 29.4158 39.7992 29.4347C39.9537 29.4536 40.1103 29.4418 40.2601 29.3998C40.5501 29.3315 40.8078 29.1655 40.9901 28.9298C41.0386 28.8835 41.0792 28.8294 41.1101 28.7698C41.1442 28.7051 41.1744 28.6383 41.2002 28.5698C41.2216 28.501 41.2382 28.4309 41.2501 28.3598V28.1898C41.2501 28.0398 41.2501 27.9398 41.2501 27.8098C41.2501 27.6798 41.1501 27.5698 41.1101 27.4698C41.0597 27.3675 40.9995 27.2704 40.9302 27.1798L40.7102 26.9598L40.4702 26.7998C40.391 26.7518 40.3073 26.7116 40.2202 26.6798C40.0876 26.6295 39.9502 26.5926 39.8102 26.5698H39.4502L39.3601 26.5898Z" fill="#CBCDD2"/>
<path d="M35.0199 37.0098L34.2799 36.3098C34.0499 36.0798 33.7899 35.7798 33.4799 35.4498C33.1699 35.1198 32.8699 34.6998 32.5399 34.2598C32.3699 34.0298 32.2299 33.7798 32.0699 33.5298C31.9002 33.2713 31.7497 33.0006 31.6199 32.7198C31.3042 32.1319 31.0527 31.5117 30.8699 30.8698C30.7696 30.5417 30.6894 30.2078 30.6299 29.8698C30.5626 29.5136 30.5258 29.1523 30.5199 28.7898C30.4715 28.0602 30.5186 27.3273 30.6599 26.6098C30.9704 25.1748 31.5617 23.8153 32.3999 22.6098C33.1283 21.5606 33.985 20.6066 34.95 19.7698C35.6301 19.1652 36.3554 18.6136 37.1199 18.1198C37.6799 17.7598 38.0199 17.5898 38.0199 17.5898C38.0199 17.5898 37.7099 17.7998 37.1899 18.1998C36.4904 18.7516 35.8227 19.3426 35.1899 19.9698C34.3073 20.8434 33.5165 21.8051 32.83 22.8398C32.0498 23.9999 31.503 25.3008 31.22 26.6698C31.0824 27.3507 31.0286 28.0459 31.0599 28.7398C31.066 29.0749 31.096 29.4091 31.1499 29.7398C31.1939 30.0781 31.264 30.4125 31.3599 30.7398C31.5276 31.3551 31.7416 31.9568 31.9999 32.5398C32.1204 32.8145 32.2573 33.0816 32.4099 33.3398C32.5336 33.5954 32.6739 33.8426 32.83 34.0798C33.2977 34.8242 33.8155 35.5358 34.3799 36.2098L35.0399 36.9898" fill="#CBCDD2"/>
<path d="M37.7101 17.3601C37.2101 16.7701 36.7801 17.5001 37.5801 17.5801C36.7801 17.5001 37.03 18.3001 37.65 17.8301C37.03 18.3001 37.81 18.7001 37.89 17.9601C37.81 18.7001 38.65 18.4701 38.16 17.8801C38.65 18.4701 39.08 17.7401 38.28 17.6601C39.08 17.7401 38.8301 16.9301 38.2101 17.4101C38.8301 16.9301 38.0601 16.5401 37.9701 17.2901C38.0601 16.5401 37.2101 16.7701 37.7101 17.3601Z" fill="#CBCDD2"/>
<path d="M42.2 37.0801H1.79004V37.7401H42.2V37.0801Z" fill="#CBCDD2"/>
<path d="M56.7899 24.9602C56.7899 25.5702 56.7899 26.0602 56.7899 26.4502C56.7871 26.5096 56.8074 26.5678 56.8466 26.6125C56.8857 26.6573 56.9406 26.6851 56.9999 26.6902L58.1299 27.0202V27.3503C57.3399 27.3503 56.61 27.3503 55.96 27.3503C55.31 27.3503 54.64 27.3503 53.96 27.3503V27.0202L54.96 26.7302C55.0185 26.7212 55.0722 26.6926 55.1122 26.6489C55.1522 26.6053 55.1761 26.5493 55.1799 26.4902C55.1799 26.0802 55.1799 25.5702 55.1799 24.9602V17.9602C55.1799 17.7502 55.1799 17.5602 55.1799 17.3902C55.1798 17.3309 55.16 17.2734 55.1239 17.2264C55.0878 17.1794 55.0371 17.1456 54.9799 17.1302L53.9799 16.8302V16.4902C54.6799 16.4902 55.3599 16.4902 55.9799 16.4902H57.9799C59.2099 16.4902 60.4999 16.4902 61.8599 16.4902L61.9099 16.5602L61.4299 18.9402L61.1099 18.9902L60.6 17.2102H56.7899V21.6202H57.58H59.4799C59.5429 21.6267 59.6062 21.61 59.6577 21.5732C59.7093 21.5364 59.7456 21.482 59.7599 21.4202L60.09 20.4202H60.4899C60.4899 21.1402 60.4899 21.6802 60.4899 22.0202C60.4899 22.3602 60.4899 22.8802 60.4899 23.6003H60.09L59.7499 22.5402C59.7368 22.4827 59.7054 22.4311 59.6603 22.3932C59.6151 22.3552 59.5588 22.3331 59.4999 22.3302H56.7899V24.9602Z" fill="#CBCDD2"/>
<path d="M56.15 63.4302L52.71 67.6602L56.15 71.9002L59.6 67.6602L56.15 63.4302Z" fill="#CBCDD2"/>
<path d="M26.7899 62.6C26.3799 62.68 25.97 62.76 25.59 62.86C25.21 62.96 24.84 63.13 24.47 63.25C23.1639 63.7364 21.9473 64.4359 20.8699 65.3199C20.062 66.0011 19.346 66.7843 18.7399 67.65C18.1822 68.3755 17.731 69.1769 17.3999 70.03C17.7136 69.1684 18.1443 68.3541 18.6799 67.61C19.2794 66.7303 19.9847 65.9277 20.7799 65.22C21.8561 64.3035 23.0802 63.5764 24.3999 63.0699C24.7699 62.9399 25.1399 62.78 25.5299 62.67L26.7499 62.4C27.6073 62.232 28.4768 62.1317 29.35 62.1C30.2744 62.0842 31.199 62.1176 32.1199 62.1999C33.1199 62.2699 34.01 62.51 34.97 62.67C36.9284 63.1122 38.8453 63.7211 40.7 64.49C42.5851 65.3053 44.5227 65.9935 46.4999 66.55C48.4888 67.0692 50.553 67.2384 52.6 67.05C53.8264 66.8895 55.0306 66.591 56.1899 66.16C57.3454 66.5922 58.5465 66.8907 59.7699 67.05C61.8168 67.2371 63.8807 67.068 65.8699 66.55C67.8438 65.9937 69.7782 65.3055 71.6599 64.49C73.5174 63.7195 75.4378 63.1106 77.3999 62.67C78.3999 62.51 79.2999 62.2699 80.2299 62.1999C81.1541 62.1176 82.0821 62.0842 83.0099 62.1C83.8865 62.1305 84.7592 62.2308 85.6199 62.4L86.83 62.67C87.24 62.78 87.59 62.9399 87.96 63.0699C89.2804 63.5687 90.5024 64.2966 91.5699 65.22C92.3732 65.9225 93.0824 66.7258 93.6799 67.61C94.22 68.3529 94.6542 69.1674 94.97 70.03C94.6352 69.1806 94.1878 68.3801 93.6399 67.65C93.0203 66.7891 92.2983 66.0066 91.4899 65.3199C90.4124 64.4359 89.196 63.7364 87.8899 63.25C87.5199 63.13 87.1599 62.96 86.7899 62.86C86.4199 62.76 85.99 62.68 85.58 62.6C84.7338 62.4284 83.8732 62.338 83.0099 62.33C82.0954 62.3139 81.1808 62.3473 80.2699 62.43C79.3399 62.52 78.3999 62.75 77.4399 62.9C75.5048 63.3658 73.6116 63.9912 71.7799 64.77C69.889 65.6047 67.9448 66.3129 65.96 66.89C63.9224 67.4047 61.8096 67.5536 59.72 67.33C58.6256 66.7586 57.4094 66.4603 56.1749 66.4603C54.9404 66.4603 53.7242 66.7586 52.6299 67.33C50.5436 67.5537 48.4341 67.4047 46.3999 66.89C44.4151 66.3129 42.4709 65.6047 40.58 64.77C38.7482 63.9912 36.855 63.3658 34.9199 62.9C33.9199 62.75 33.02 62.52 32.1 62.43C31.1891 62.3474 30.2743 62.314 29.3599 62.33C28.4965 62.3364 27.6358 62.4269 26.7899 62.6Z" fill="#CBCDD2"/>
<path d="M31.4799 66.0302C30.0099 65.5402 31.16 64.3402 31.84 65.6602C31.16 64.3402 32.84 64.2402 32.37 65.6602C32.89 64.2702 34.17 65.3602 32.76 66.0002C34.05 65.4102 34.23 66.6902 33.13 66.5602L33.93 66.8201C35.6379 67.3575 37.3738 67.8015 39.13 68.1502C41.5994 68.6169 44.1068 68.8546 46.62 68.8601C49.476 68.8737 52.3123 68.3863 55 67.4201C55.39 67.2701 55.73 66.9501 56.16 66.9501C56.59 66.9501 56.92 67.2701 57.3 67.4201C59.9846 68.3847 62.8174 68.8721 65.67 68.8601C68.1899 68.8555 70.7039 68.6178 73.18 68.1502C74.9327 67.8005 76.6651 67.3565 78.37 66.8201L79.18 66.5602C78.08 66.6902 78.27 65.4102 79.53 66.0002C78.13 65.3602 79.42 64.2702 79.94 65.6602C79.42 64.2702 81.13 64.3702 80.46 65.6602C81.13 64.3402 82.3 65.5402 80.82 66.0302C82.3 65.5402 82.2 67.1702 80.82 66.5302C82.23 67.1702 80.95 68.2301 80.43 66.8601C80.95 68.2301 79.21 68.1601 79.89 66.8601C79.32 67.9901 78.41 67.2802 79.05 66.7702C78.87 66.8302 78.6901 66.9201 78.4701 67.0101C76.807 67.7045 75.0917 68.2662 73.34 68.6902C70.8425 69.3356 68.2789 69.6913 65.7 69.7502C62.723 69.8115 59.7593 69.3373 56.95 68.3502C56.69 68.2602 56.46 68.0502 56.19 68.0502C55.92 68.0502 55.68 68.2602 55.42 68.3502C52.6037 69.3365 49.6334 69.8106 46.65 69.7502C42.2703 69.607 37.9518 68.679 33.9 67.0101C33.67 66.9201 33.49 66.8302 33.31 66.7702C33.94 67.2802 33.0401 67.9901 32.4701 66.8601C33.1401 68.1901 31.42 68.2601 31.93 66.8601C31.42 68.2301 30.13 67.1702 31.54 66.5302C30.13 67.1702 30.04 65.5302 31.54 66.0302" fill="#CBCDD2"/>
<path d="M111.41 67.23H0.879883V67.83H111.41V67.23Z" fill="#CBCDD2"/>
<path d="M35.17 59.2001L34.65 60.2901H33.98L35.6901 56.8301H36.4601L38.17 60.2901H37.48L36.9501 59.2001H35.17ZM36.8201 58.8501L36.3201 57.8501C36.2101 57.6201 36.1401 57.4201 36.0601 57.2201C35.9844 57.4312 35.8976 57.6382 35.8 57.8401L35.3101 58.8401L36.8201 58.8501Z" fill="#CBCDD2"/>
<path d="M38.9102 60.2901V56.8301H39.6301L41.2301 58.5801C41.5541 58.9308 41.8516 59.3052 42.1201 59.7001C42.0651 59.2288 42.0418 58.7545 42.0502 58.2801V56.8301H42.6602V60.2901H42.0001L40.4102 58.5301C40.0727 58.1698 39.7619 57.7854 39.4801 57.3801C39.4801 57.8101 39.4801 58.2301 39.4801 58.8001V60.2801L38.9102 60.2901Z" fill="#CBCDD2"/>
<path d="M44.4601 56.8301V60.2901H43.79V56.8301H44.4601Z" fill="#CBCDD2"/>
<path d="M45.5901 56.8301H46.23V58.5001C46.3524 58.369 46.4826 58.2454 46.62 58.1301L48.15 56.8301H48.9601L47.14 58.3001L49.14 60.3001H48.37L46.73 58.6001L46.24 58.9801V60.3001H45.6001L45.5901 56.8301Z" fill="#CBCDD2"/>
<path d="M50.5 59.2001L49.98 60.2901H49.3101L51.02 56.8301H51.79L53.5 60.2901H52.79L52.26 59.2001H50.5ZM52.15 58.8501L51.65 57.8501C51.54 57.6201 51.47 57.4201 51.39 57.2201C51.3144 57.4312 51.2276 57.6382 51.13 57.8401L50.64 58.8401L52.15 58.8501Z" fill="#CBCDD2"/>
<path d="M56.4702 57.2101H54.9502V56.8301H58.6602V57.2101H57.1301V60.2901H56.4702V57.2101Z" fill="#CBCDD2"/>
<path d="M59.48 59.2001L58.9601 60.2901H58.29L60 56.8301H60.77L62.49 60.2901H61.79L61.26 59.2001H59.48ZM61.13 58.8501L60.63 57.8501C60.52 57.6201 60.45 57.4201 60.37 57.2201C60.29 57.4201 60.22 57.6301 60.12 57.8401L59.62 58.8401L61.13 58.8501Z" fill="#CBCDD2"/>
<path d="M63.1399 59.7398C63.5038 59.8932 63.895 59.9715 64.2899 59.9698C64.9599 59.9698 65.2899 59.7299 65.2899 59.3799C65.2899 59.0299 65.03 58.8698 64.35 58.6998C63.67 58.5298 63.0199 58.1898 63.0199 57.6998C63.0199 57.2098 63.6699 56.7698 64.6499 56.7698C65.0229 56.7617 65.3946 56.8158 65.7499 56.9298L65.5699 57.2998C65.2666 57.1854 64.9439 57.1311 64.6199 57.1398C63.9399 57.1398 63.6799 57.4198 63.6799 57.6498C63.6799 57.8798 63.9799 58.1298 64.6799 58.3198C65.3799 58.5098 65.95 58.8298 65.95 59.3198C65.95 59.8098 65.38 60.3198 64.2 60.3198C63.7635 60.3238 63.3299 60.2493 62.9199 60.0999L63.1399 59.7398Z" fill="#CBCDD2"/>
<path d="M66.8901 60.2901V56.8301H67.6101L69.2102 58.5801C69.5342 58.9308 69.8317 59.3052 70.1002 59.7001C70.0452 59.2288 70.0218 58.7545 70.0302 58.2801V56.8301H70.6401V60.2901H69.9801L68.3901 58.5301C68.0527 58.1698 67.742 57.7854 67.4602 57.3801C67.4602 57.8101 67.4602 58.2301 67.4602 58.8001V60.2801L66.8901 60.2901Z" fill="#CBCDD2"/>
<path d="M72.4401 56.8301V60.2901H71.79V56.8301H72.4401Z" fill="#CBCDD2"/>
<path d="M77.7899 58.7701C77.7899 58.2901 77.71 57.7001 77.71 57.2801C77.53 57.6801 77.3299 58.1101 77.0699 58.5901L76.1899 60.2601H75.7L74.8799 58.6201C74.6621 58.1858 74.4717 57.7382 74.3099 57.2801C74.3099 57.7101 74.31 58.2801 74.22 58.8101L74.08 60.2901H73.46L73.8099 56.8301H74.6399L75.4899 58.5001C75.6806 58.8807 75.8509 59.2713 75.9999 59.6701C76.1559 59.271 76.3328 58.8805 76.5299 58.5001L77.4199 56.8301H78.2499L78.5599 60.2901H77.9199L77.7899 58.7701Z" fill="#CBCDD2"/>
<path d="M10.7001 51.96H9.55005V45.75H13.4701V46.75H10.7001V48.45H12.88V49.38H10.7001V51.96Z" fill="#CBCDD2"/>
<path d="M18.71 51.96H17.5099L17.0099 50.48H14.6299L14.1399 51.96H13.1899L15.2499 45.75H16.6199L18.71 51.96ZM16.71 49.59L15.8099 46.82L14.9099 49.59H16.71Z" fill="#CBCDD2"/>
<path d="M18.79 50.46L19.88 50.23C20.01 50.85 20.51 51.15 21.38 51.15C21.6998 51.1692 22.0178 51.0889 22.29 50.92C22.3885 50.8563 22.4695 50.7689 22.5254 50.6659C22.5813 50.5628 22.6103 50.4473 22.61 50.33C22.6144 50.1625 22.5654 49.9979 22.4701 49.86C22.307 49.6809 22.0888 49.5613 21.8501 49.52L20.66 49.21C20.3401 49.1475 20.0348 49.0254 19.76 48.85C19.5558 48.7048 19.3937 48.5082 19.29 48.28C19.1774 48.0319 19.1194 47.7625 19.12 47.49C19.1122 47.2353 19.1642 46.9823 19.2719 46.7513C19.3795 46.5203 19.5399 46.3178 19.74 46.16C20.1926 45.8149 20.7513 45.6381 21.3201 45.66C21.8193 45.6485 22.3126 45.7692 22.75 46.01C22.9473 46.1095 23.1209 46.2504 23.2589 46.4229C23.3969 46.5954 23.4963 46.7957 23.55 47.01L22.49 47.27C22.4059 47.0404 22.2464 46.8461 22.0375 46.7189C21.8286 46.5917 21.5827 46.5392 21.3401 46.57C21.0562 46.5501 20.7739 46.6277 20.54 46.79C20.4545 46.8536 20.3855 46.9367 20.3385 47.0323C20.2915 47.128 20.268 47.2335 20.27 47.34C20.27 47.7 20.56 47.94 21.13 48.09L22.1901 48.35C22.6875 48.4272 23.1413 48.6789 23.4701 49.06C23.6796 49.3519 23.7947 49.7008 23.8 50.06C23.8109 50.3381 23.7537 50.6146 23.6334 50.8655C23.5132 51.1164 23.3335 51.3342 23.11 51.5C22.5912 51.8669 21.9648 52.0499 21.3301 52.02C20.7662 52.037 20.2076 51.906 19.7101 51.64C19.4849 51.5158 19.2872 51.3472 19.129 51.1444C18.9709 50.9416 18.8555 50.7087 18.79 50.46Z" fill="#CBCDD2"/>
<path d="M29.38 51.96H28.26V49.26H25.89V51.96H24.79V45.75H25.91V48.3H28.28V45.75H29.4L29.38 51.96Z" fill="#CBCDD2"/>
<path d="M31.86 51.96H30.79V45.75H31.91L31.86 51.96Z" fill="#CBCDD2"/>
<path d="M35.5101 52.0498C35.1377 52.0659 34.7671 51.9905 34.4306 51.8301C34.0942 51.6697 33.8021 51.4293 33.5802 51.1298C33.1064 50.4623 32.864 49.658 32.8901 48.8398C32.8631 48.0198 33.125 47.2164 33.6301 46.5698C33.856 46.2754 34.1491 46.0392 34.4848 45.8809C34.8205 45.7226 35.1892 45.6468 35.5601 45.6598C35.9283 45.6459 36.2944 45.7214 36.627 45.8799C36.9597 46.0384 37.249 46.2751 37.4702 46.5698C37.9544 47.2289 38.201 48.0326 38.1701 48.8498C38.2119 49.6856 37.953 50.5086 37.4401 51.1698C37.2084 51.4557 36.9135 51.684 36.5786 51.8367C36.2437 51.9894 35.8779 52.0624 35.5101 52.0498ZM35.5101 51.1498C35.7039 51.1483 35.8947 51.1025 36.0681 51.0158C36.2414 50.9291 36.3926 50.8039 36.5101 50.6498C36.8469 50.1098 36.9947 49.473 36.9301 48.8398C36.9573 48.2593 36.8369 47.6813 36.5802 47.1598C36.4766 46.969 36.3211 46.8114 36.1318 46.7052C35.9424 46.5991 35.7269 46.5487 35.5101 46.5598C34.5501 46.5598 34.0701 47.3298 34.0701 48.8698C34.0303 49.4601 34.1586 50.0495 34.4401 50.5698C34.548 50.7577 34.7064 50.9116 34.8973 51.0141C35.0882 51.1167 35.3039 51.1637 35.5201 51.1498H35.5101Z" fill="#CBCDD2"/>
<path d="M43.8999 51.96H42.7899L40.4399 47.96C40.4399 47.9 40.3399 47.81 40.2599 47.67L40.09 47.38V51.96H39.1899V45.75H40.4299L42.6 49.41L42.9999 50.08V45.75H43.8799L43.8999 51.96Z" fill="#CBCDD2"/>
<path d="M50.13 51.96H48.9301L48.4401 50.48H46.05L45.5701 51.96H44.5701L46.63 45.75H48.01L50.13 51.96ZM48.13 49.59L47.2201 46.82L46.3201 49.59H48.13Z" fill="#CBCDD2"/>
<path d="M50.8799 51.9602V45.7502H53.2999C53.6377 45.7463 53.9744 45.7901 54.2999 45.8802C54.5851 45.9753 54.831 46.1616 54.9999 46.4102C55.201 46.6856 55.3064 47.0193 55.2999 47.3602C55.3045 47.6855 55.1987 48.0027 54.9999 48.2602C54.7901 48.515 54.4954 48.6854 54.1699 48.7402C54.5581 48.7845 54.9153 48.9738 55.1699 49.2702C55.3999 49.5518 55.5206 49.9068 55.5099 50.2702C55.5194 50.7199 55.3505 51.1549 55.0399 51.4802C54.8444 51.6565 54.615 51.7909 54.3656 51.8751C54.1162 51.9594 53.8523 51.9918 53.59 51.9702L50.8799 51.9602ZM51.9399 48.3602H53.2999C53.4195 48.369 53.5396 48.3521 53.6521 48.3106C53.7646 48.2692 53.8669 48.2041 53.9521 48.1198C54.0374 48.0355 54.1036 47.9339 54.1464 47.8218C54.1891 47.7098 54.2074 47.5899 54.2 47.4702C54.2082 47.3513 54.1881 47.2321 54.1411 47.1226C54.0942 47.013 54.0218 46.9162 53.9299 46.8402C53.7387 46.709 53.5119 46.6392 53.2799 46.6402H51.9399V48.3602ZM51.9399 51.0302H53.3799C53.6448 51.0454 53.9056 50.9596 54.1099 50.7902C54.1959 50.7058 54.2635 50.6044 54.3082 50.4926C54.353 50.3807 54.3739 50.2607 54.3699 50.1402C54.3739 50.0189 54.3519 49.8981 54.3053 49.786C54.2587 49.6739 54.1888 49.573 54.1 49.4902C53.9049 49.3176 53.6501 49.2279 53.3899 49.2402H51.9399V51.0302Z" fill="#CBCDD2"/>
<path d="M60.3501 51.96H56.53V45.75H57.7101V50.96H60.3501V51.96Z" fill="#CBCDD2"/>
<path d="M65.2002 51.96H61.2002V45.75H65.2002V46.68H62.3302V48.36H64.6401V49.26H62.3302V50.96H65.2401L65.2002 51.96Z" fill="#CBCDD2"/>
<path d="M68.46 51.96V45.75H70.7899C71.1691 45.7425 71.5453 45.8193 71.8912 45.975C72.2371 46.1306 72.544 46.3612 72.7899 46.65C73.3058 47.2724 73.5762 48.062 73.5499 48.87C73.5775 49.6774 73.2947 50.4646 72.7599 51.07C72.4716 51.3751 72.1197 51.613 71.7291 51.7668C71.3385 51.9206 70.9188 51.9866 70.4999 51.96H68.46ZM69.6099 51.04H70.5499C70.7896 51.0445 71.0274 50.9967 71.2467 50.9C71.466 50.8033 71.6616 50.66 71.8199 50.48C72.2023 50.0074 72.3885 49.406 72.34 48.8C72.3581 48.2503 72.1965 47.7097 71.8799 47.26C71.7484 47.0638 71.5694 46.9041 71.3596 46.7957C71.1498 46.6873 70.916 46.6337 70.6799 46.64H69.6099V51.04Z" fill="#CBCDD2"/>
<path d="M79.4301 51.96H78.25L77.25 49.41H75.6801V51.96H74.5601V45.75H77.25C77.8454 45.6992 78.4372 45.8821 78.9 46.26C79.0741 46.4299 79.211 46.634 79.3022 46.8595C79.3935 47.085 79.437 47.3269 79.4301 47.57C79.4507 47.9299 79.3521 48.2866 79.1497 48.5848C78.9472 48.8831 78.6521 49.1063 78.3101 49.22L79.4301 51.96ZM75.7101 48.51H77.1001C77.4202 48.5355 77.7389 48.447 78 48.26C78.0998 48.1737 78.1787 48.0659 78.2307 47.9446C78.2827 47.8233 78.3064 47.6918 78.3 47.56C78.3047 47.4343 78.2801 47.3091 78.228 47.1946C78.176 47.08 78.0978 46.9792 78 46.9C77.7717 46.7157 77.483 46.623 77.1901 46.64H75.7101V48.51Z" fill="#CBCDD2"/>
<path d="M84.6099 51.96H80.6099V45.75H84.6099V46.68H81.7399V48.36H84.0499V49.26H81.7399V50.96H84.6599L84.6099 51.96Z" fill="#CBCDD2"/>
<path d="M84.9199 50.4598L86.0099 50.2298C86.1399 50.8498 86.6399 51.1498 87.5099 51.1498C87.8296 51.1677 88.1471 51.0875 88.4199 50.9198C88.5184 50.8561 88.5994 50.7687 88.6553 50.6656C88.7112 50.5625 88.7402 50.4471 88.7399 50.3298C88.7398 50.1629 88.6913 49.9995 88.6 49.8598C88.4347 49.6781 88.2125 49.5582 87.97 49.5198L86.7899 49.2098C86.47 49.1473 86.1647 49.0252 85.8899 48.8498C85.6829 48.7076 85.5201 48.5101 85.4199 48.2798C85.3024 48.0333 85.2441 47.7628 85.2499 47.4898C85.2396 47.2347 85.2906 46.9809 85.3984 46.7495C85.5063 46.5182 85.6679 46.316 85.8699 46.1598C86.3217 45.8132 86.881 45.6362 87.45 45.6598C87.9491 45.6483 88.4424 45.769 88.8799 46.0098C89.076 46.1109 89.2486 46.2522 89.3865 46.4245C89.5243 46.5968 89.6243 46.7962 89.6799 47.0098L88.6199 47.2698C88.5358 47.0401 88.3763 46.8458 88.1674 46.7187C87.9584 46.5915 87.7126 46.539 87.47 46.5698C87.186 46.5499 86.9038 46.6275 86.6699 46.7898C86.5844 46.8534 86.5153 46.9365 86.4684 47.0321C86.4214 47.1278 86.3979 47.2333 86.3999 47.3398C86.3999 47.6998 86.6799 47.9398 87.2599 48.0898L88.3199 48.3498C88.8157 48.4319 89.2679 48.6827 89.6 49.0598C89.8095 49.3516 89.9246 49.7006 89.9299 50.0598C89.9408 50.3379 89.8835 50.6143 89.7633 50.8653C89.6431 51.1162 89.4634 51.334 89.2399 51.4998C88.7211 51.8667 88.0947 52.0497 87.46 52.0198C86.896 52.0368 86.3375 51.9058 85.84 51.6398C85.6147 51.5156 85.4171 51.347 85.2589 51.1442C85.1008 50.9413 84.9854 50.7085 84.9199 50.4598Z" fill="#CBCDD2"/>
<path d="M90.24 50.46L91.3201 50.23C91.4501 50.85 91.9601 51.15 92.8201 51.15C93.1431 51.1693 93.4641 51.089 93.74 50.92C93.8366 50.8544 93.9162 50.7666 93.9719 50.6639C94.0276 50.5613 94.0578 50.4468 94.0601 50.33C94.06 50.163 94.0113 49.9997 93.92 49.86C93.7548 49.6783 93.5326 49.5584 93.29 49.52L92.11 49.21C91.7901 49.1475 91.4849 49.0254 91.2101 48.85C91.0031 48.7078 90.8402 48.5103 90.74 48.28C90.6225 48.0335 90.5643 47.763 90.5701 47.49C90.5603 47.236 90.6103 46.9832 90.7163 46.7522C90.8223 46.5211 90.9812 46.3183 91.1801 46.16C91.6365 45.8149 92.1982 45.6382 92.77 45.66C93.2692 45.6485 93.7626 45.7692 94.2001 46.01C94.3951 46.1126 94.5668 46.2544 94.7045 46.4264C94.8421 46.5985 94.9427 46.7972 95 47.01L93.9301 47.27C93.8494 47.0401 93.692 46.8449 93.4844 46.7174C93.2767 46.5899 93.0316 46.5379 92.79 46.57C92.5059 46.5484 92.2231 46.6262 91.99 46.79C91.9032 46.8531 91.8327 46.9358 91.7841 47.0314C91.7354 47.127 91.7101 47.2327 91.7101 47.34C91.7101 47.7 92.0001 47.94 92.5801 48.09L93.5801 48.35C94.0794 48.4299 94.5354 48.6809 94.87 49.06C95.0795 49.3518 95.1947 49.7008 95.2001 50.06C95.2109 50.338 95.1537 50.6145 95.0334 50.8655C94.9132 51.1164 94.7335 51.3342 94.51 51.5C93.9875 51.867 93.3579 52.0499 92.7201 52.02C92.1595 52.0357 91.6044 51.9047 91.11 51.64C90.894 51.5107 90.706 51.3398 90.5566 51.1373C90.4073 50.9347 90.2996 50.7045 90.24 50.46Z" fill="#CBCDD2"/>
<path d="M100.24 51.96H96.24V45.75H100.24V46.68H97.36V48.36H99.67V49.26H97.36V50.96H100.28L100.24 51.96Z" fill="#CBCDD2"/>
<path d="M100.55 50.46L101.64 50.23C101.77 50.85 102.27 51.15 103.14 51.15C103.46 51.1692 103.778 51.0889 104.05 50.92C104.15 50.8568 104.232 50.7698 104.29 50.6668C104.347 50.5638 104.378 50.448 104.38 50.33C104.381 50.1614 104.328 49.997 104.23 49.86C104.067 49.6809 103.849 49.5613 103.61 49.52L102.42 49.21C102.1 49.1475 101.795 49.0254 101.52 48.85C101.316 48.7048 101.154 48.5082 101.05 48.28C100.937 48.0319 100.879 47.7625 100.88 47.49C100.872 47.2353 100.924 46.9823 101.032 46.7513C101.14 46.5203 101.3 46.3178 101.5 46.16C101.953 45.8149 102.511 45.6381 103.08 45.66C103.579 45.6485 104.073 45.7692 104.51 46.01C104.707 46.1095 104.881 46.2504 105.019 46.4229C105.157 46.5954 105.256 46.7957 105.31 47.01L104.25 47.27C104.166 47.0404 104.006 46.8461 103.797 46.7189C103.589 46.5917 103.343 46.5392 103.1 46.57C102.816 46.5501 102.534 46.6277 102.3 46.79C102.215 46.8536 102.145 46.9367 102.099 47.0323C102.052 47.128 102.028 47.2335 102.03 47.34C102.03 47.7 102.32 47.94 102.89 48.09L103.95 48.35C104.448 48.4272 104.901 48.6789 105.23 49.06C105.439 49.3519 105.555 49.7008 105.56 50.06C105.571 50.3381 105.514 50.6146 105.393 50.8655C105.273 51.1164 105.093 51.3342 104.87 51.5C104.351 51.8669 103.725 52.0499 103.09 52.02C102.526 52.037 101.968 51.906 101.47 51.64C101.245 51.5158 101.047 51.3472 100.889 51.1444C100.731 50.9416 100.616 50.7087 100.55 50.46Z" fill="#CBCDD2"/>
</svg>
