<svg width="208" height="50" viewBox="0 0 208 50" fill="none" xmlns="http://www.w3.org/2000/svg">
<path d="M12.5199 13.3502C11.6125 12.3103 10.7709 11.2148 9.99992 10.0702C9.18701 8.92169 8.5155 7.67942 7.99992 6.37021C7.72512 5.66424 7.61233 4.90558 7.66991 4.15021C7.71355 3.71942 7.87248 3.30835 8.12993 2.9602C8.391 2.61889 8.73532 2.35032 9.12993 2.18021C9.85848 1.91194 10.6352 1.79954 11.4099 1.85022C12.1212 1.9091 12.8289 2.00588 13.5299 2.1402C14.927 2.38668 16.2993 2.75819 17.6299 3.25021C18.9878 3.75518 20.2544 4.47797 21.3799 5.3902C22.5212 6.31385 23.4577 7.46493 24.1299 8.7702C24.7776 10.0549 25.0906 11.4823 25.0399 12.9202H24.8799C24.4915 11.6423 23.897 10.4365 23.1199 9.35022C22.3484 8.32139 21.4165 7.42327 20.3599 6.69022C19.2969 5.94971 18.1689 5.30707 16.9899 4.7702C15.7897 4.20563 14.5371 3.76018 13.2499 3.44021C12.6099 3.28021 11.9299 3.1402 11.3099 3.0502C10.7138 2.97533 10.1088 3.01953 9.52989 3.18021C9.29455 3.26274 9.0821 3.3998 8.9099 3.5802C8.74774 3.77897 8.64082 4.01696 8.5999 4.2702C8.52912 4.88606 8.59048 5.50995 8.77989 6.10022C9.16998 7.38275 9.71039 8.61463 10.3899 9.7702C11.064 10.9591 11.8017 12.1108 12.5999 13.2202L12.5199 13.3502Z" fill="#CBCDD2"/>
<path d="M21.3799 13.2401C22.2266 12.0135 23.0133 10.7468 23.7399 9.44016C24.4674 8.15839 25.0509 6.80013 25.4799 5.39014C25.6866 4.72773 25.7647 4.0319 25.7099 3.34015C25.694 3.05242 25.5961 2.77522 25.4278 2.54133C25.2595 2.30743 25.0277 2.12658 24.7599 2.02015C24.1411 1.80339 23.48 1.73487 22.8299 1.82013L22.3199 1.89014L21.7899 1.99015L20.7299 2.24015C19.32 2.59362 17.9496 3.08952 16.6399 3.72016C15.353 4.3459 14.1306 5.09614 12.9899 5.96015C11.8538 6.79417 10.8608 7.80739 10.0499 8.96015C9.23297 10.1887 8.61533 11.5387 8.21991 12.9601H8.05994C8.02395 11.3917 8.367 9.8377 9.05994 8.43015C9.40227 7.71981 9.82144 7.04914 10.3099 6.43015C10.8078 5.80901 11.36 5.23341 11.9599 4.71015C13.1541 3.69569 14.505 2.88177 15.9599 2.30015C17.4044 1.7384 18.8973 1.30995 20.4199 1.02015C20.7999 0.950146 21.1799 0.880144 21.5599 0.830144L22.1399 0.750157L22.7499 0.700139C23.1609 0.690409 23.5719 0.710459 23.9799 0.760137C24.41 0.818355 24.8283 0.94321 25.2199 1.13016C25.6319 1.34306 25.9777 1.66468 26.2199 2.06015C26.453 2.45199 26.5869 2.89482 26.6099 3.35016C26.6329 4.16111 26.5005 4.96894 26.2199 5.73014C25.6788 7.16123 24.9778 8.52657 24.1299 9.80015C23.3149 11.0667 22.4232 12.2823 21.4599 13.4402L21.3799 13.2401Z" fill="#CBCDD2"/>
<path d="M9.42987 38.9201L5.37988 34.7701L6.05988 34.0801L10.1099 38.2401L9.42987 38.9201Z" fill="#CBCDD2"/>
<path d="M30.79 13.9004H11.46L11.11 14.0004L10.28 39.5104H34.28L30.79 13.9004ZM12.14 14.9004H29.91L33.16 38.5504H11.3201L12.14 14.9004Z" fill="#CBCDD2"/>
<path d="M11.4299 13.8999L11.0899 13.9999L7.71991 14.9999L4.10992 13.6699L0.419922 38.6699L10.2499 39.4899H10.4399L11.6099 13.8399L11.4299 13.8999ZM9.50989 38.0599V38.4699H9.22992L8.48993 38.4099L2.36993 37.8999L1.5899 37.8299L1.68994 37.1599L4.93994 15.0899L7.18994 15.9199L7.7099 16.1099L8.18994 15.9599L10.5699 15.2399L9.50989 38.0599Z" fill="#CBCDD2"/>
<path d="M1.29993 38.65L0.699951 37.85L5.37994 34.36L7.20996 15.5L8.20996 15.6L6.32996 34.89L1.29993 38.65Z" fill="#CBCDD2"/>
<path d="M21.32 23.8403C21.6201 23.4092 22.0059 23.0446 22.4532 22.7693C22.9006 22.494 23.3999 22.3139 23.92 22.2403C24.334 22.202 24.7514 22.2468 25.1477 22.3721C25.5441 22.4973 25.9114 22.7006 26.2282 22.9698C26.5449 23.239 26.8047 23.5688 26.9922 23.9399C27.1797 24.3109 27.2912 24.7156 27.32 25.1303C27.42 26.6903 25.91 28.2603 24.96 29.1303C22.96 31.0703 22.03 31.6503 21.34 32.2903C20.65 31.6503 19.75 31.0803 17.71 29.1503C16.76 28.2503 15.24 26.6903 15.33 25.1503C15.3577 24.737 15.4676 24.3334 15.6534 23.9631C15.8392 23.5929 16.0972 23.2634 16.412 22.9942C16.7269 22.725 17.0924 22.5214 17.487 22.3954C17.8816 22.2694 18.2974 22.2234 18.71 22.2603C19.2303 22.3302 19.7305 22.5066 20.1796 22.7784C20.6287 23.0503 21.0169 23.4118 21.32 23.8403Z" fill="#CBCDD2"/>
<path d="M46.53 11.1299H51.27V20.3899C52.1059 19.6428 53.0542 19.032 54.08 18.5799C54.9864 18.1884 55.9627 17.9843 56.95 17.9799C57.84 17.9666 58.7231 18.1375 59.5439 18.4816C60.3648 18.8258 61.1056 19.3359 61.72 19.9799C62.3145 20.6616 62.7673 21.4547 63.0523 22.3131C63.3373 23.1715 63.4487 24.078 63.3801 24.9799V37.5499H58.6801V29.2099C58.7377 27.7126 58.6304 26.2136 58.36 24.7399C58.2164 24.042 57.8389 23.4141 57.29 22.9599C56.7451 22.5643 56.0829 22.3635 55.41 22.3899C54.4808 22.3824 53.5861 22.7418 52.92 23.3899C52.1896 24.1001 51.6881 25.0125 51.48 26.0099C51.2918 27.3041 51.2214 28.6129 51.27 29.9199V37.5599H46.53V11.1299Z" fill="#CBCDD2"/>
<path d="M84.24 18.4702H89.0099V37.4701H84.24V35.4701C83.4305 36.2717 82.4816 36.919 81.44 37.3802C80.4882 37.7713 79.4689 37.9718 78.44 37.9701C77.2362 37.9717 76.0459 37.7175 74.9477 37.2245C73.8496 36.7314 72.8687 36.0107 72.07 35.1101C70.2784 33.1875 69.3156 30.637 69.3899 28.0101C69.2826 25.3566 70.2156 22.766 71.99 20.7901C72.7766 19.8941 73.7479 19.1789 74.8371 18.6939C75.9264 18.2088 77.1077 17.9653 78.3 17.9801C79.4057 17.972 80.5014 18.1898 81.5199 18.6201C82.5604 19.081 83.5012 19.7399 84.2899 20.5601L84.24 18.4702ZM79.24 22.3802C78.5508 22.3631 77.8661 22.4935 77.2314 22.7625C76.5968 23.0315 76.0269 23.4331 75.56 23.9402C74.6081 25.0692 74.086 26.4984 74.086 27.9752C74.086 29.4519 74.6081 30.8811 75.56 32.0101C76.0207 32.5216 76.5858 32.9283 77.2172 33.2026C77.8487 33.4769 78.5316 33.6125 79.2199 33.6002C79.9176 33.6192 80.6113 33.489 81.2546 33.2182C81.8979 32.9474 82.4759 32.5424 82.9499 32.0301C83.4532 31.4791 83.843 30.8342 84.0969 30.1324C84.3509 29.4306 84.4641 28.6857 84.43 27.9402C84.4609 27.2086 84.346 26.4782 84.0919 25.7914C83.8378 25.1047 83.4496 24.4754 82.9499 23.9402C82.4722 23.436 81.8947 23.0369 81.2542 22.7683C80.6138 22.4997 79.9243 22.3676 79.2299 22.3802H79.24Z" fill="#CBCDD2"/>
<path d="M96.6299 11.46H101.4V18.46H104.23V22.56H101.4V37.47H96.6299V22.5699H94.1799V18.47H96.6299V11.46Z" fill="#CBCDD2"/>
<path d="M113.73 11.1299V20.5599C114.533 19.7431 115.483 19.0849 116.53 18.6199C117.558 18.1739 118.669 17.949 119.79 17.9599C120.984 17.9449 122.167 18.1883 123.258 18.6734C124.348 19.1584 125.321 19.8736 126.11 20.7699C127.884 22.7458 128.817 25.3363 128.71 27.9899C128.788 30.6192 127.821 33.1724 126.02 35.0899C125.222 35.9915 124.241 36.7128 123.143 37.2059C122.045 37.6991 120.854 37.9527 119.65 37.9499C118.601 37.9581 117.561 37.7575 116.59 37.3599C115.542 36.8992 114.587 36.2521 113.77 35.4499V37.4499H109.04V11.1299H113.73ZM118.73 22.3799C118.034 22.3619 117.341 22.4896 116.697 22.7548C116.053 23.02 115.472 23.4168 114.99 23.9199C114.489 24.4546 114.099 25.0836 113.844 25.7703C113.588 26.457 113.471 27.1877 113.5 27.9199C113.467 28.6661 113.582 29.4115 113.838 30.1133C114.093 30.8151 114.485 31.4596 114.99 32.0099C115.466 32.5224 116.046 32.9275 116.691 33.1982C117.336 33.4689 118.031 33.5991 118.73 33.5799C119.421 33.5925 120.107 33.4571 120.742 33.1829C121.377 32.9086 121.945 32.5019 122.41 31.9899C123.42 30.8842 123.955 29.4262 123.9 27.9299C123.953 26.4554 123.425 25.0191 122.43 23.9299C121.966 23.4307 121.402 23.0348 120.775 22.7677C120.148 22.5007 119.472 22.3686 118.79 22.3799H118.73Z" fill="#CBCDD2"/>
<path d="M148.87 18.4703H153.64V37.4703H148.87V35.4703C148.061 36.2719 147.112 36.9192 146.07 37.3803C145.119 37.772 144.099 37.9724 143.07 37.9703C141.866 37.9738 140.675 37.7204 139.577 37.2273C138.478 36.7341 137.498 36.0124 136.7 35.1103C134.899 33.1928 133.932 30.6397 134.01 28.0103C133.903 25.3568 134.836 22.7662 136.61 20.7903C137.392 19.8944 138.357 19.1778 139.441 18.6894C140.525 18.201 141.701 17.9523 142.89 17.9603C143.993 17.9501 145.086 18.168 146.1 18.6003C147.141 19.0612 148.081 19.72 148.87 20.5403V18.4703ZM143.87 22.3803C143.181 22.3633 142.496 22.4936 141.862 22.7627C141.227 23.0317 140.657 23.4332 140.19 23.9403C139.238 25.0694 138.716 26.4986 138.716 27.9753C138.716 29.4521 139.238 30.8812 140.19 32.0103C140.652 32.5226 141.219 32.9296 141.852 33.2039C142.486 33.4782 143.17 33.6134 143.86 33.6003C144.556 33.6192 145.248 33.4889 145.89 33.2181C146.532 32.9473 147.108 32.5423 147.58 32.0303C148.083 31.4792 148.473 30.8344 148.727 30.1326C148.981 29.4308 149.094 28.6859 149.06 27.9403C149.091 27.2087 148.976 26.4783 148.722 25.7916C148.468 25.1049 148.08 24.4756 147.58 23.9403C147.105 23.4332 146.528 23.0321 145.887 22.7633C145.246 22.4945 144.555 22.364 143.86 22.3803H143.87Z" fill="#CBCDD2"/>
<path d="M160.54 18.4699H165.31V38.1099C165.372 39.4641 165.192 40.8184 164.78 42.1099C164.461 42.9596 163.87 43.6803 163.1 44.1599C162.26 44.6581 161.296 44.9078 160.32 44.8799C159.099 44.8299 157.895 44.5869 156.75 44.1599V40.4099C157.368 40.7367 158.051 40.9212 158.75 40.9499C159.003 40.9683 159.256 40.9293 159.492 40.8357C159.727 40.7422 159.939 40.5967 160.11 40.4099C160.473 39.8098 160.631 39.1077 160.56 38.4099L160.54 18.4699ZM162.92 10.6399C163.325 10.6348 163.727 10.712 164.102 10.8667C164.477 11.0214 164.816 11.2504 165.1 11.5399C165.678 12.1224 166.002 12.9095 166.002 13.7299C166.002 14.5503 165.678 15.3374 165.1 15.9199C164.82 16.2071 164.486 16.4355 164.117 16.5914C163.748 16.7473 163.351 16.8277 162.95 16.8277C162.549 16.8277 162.152 16.7473 161.783 16.5914C161.414 16.4355 161.08 16.2071 160.8 15.9199C160.509 15.6272 160.279 15.2791 160.124 14.896C159.97 14.513 159.893 14.1029 159.9 13.6899C159.9 12.8942 160.216 12.1312 160.779 11.5686C161.341 11.006 162.104 10.6899 162.9 10.6899L162.92 10.6399Z" fill="#CBCDD2"/>
<path d="M186.23 18.4702H191V37.4702H186.23V35.4702C185.419 36.2695 184.47 36.9165 183.43 37.3802C182.463 37.7778 181.426 37.9784 180.38 37.9702C179.176 37.973 177.985 37.7194 176.887 37.2262C175.789 36.7331 174.808 36.0117 174.01 35.1101C172.215 33.1891 171.248 30.6384 171.32 28.0101C171.218 25.3574 172.15 22.7688 173.92 20.7901C174.709 19.8938 175.682 19.1787 176.773 18.6936C177.863 18.2086 179.046 17.9652 180.24 17.9801C181.343 17.97 182.436 18.1879 183.45 18.6202C184.494 19.0808 185.438 19.7396 186.23 20.5602V18.4702ZM181.23 22.3802C180.542 22.3639 179.859 22.4947 179.227 22.7637C178.594 23.0327 178.025 23.4338 177.56 23.9402C176.608 25.0692 176.086 26.4984 176.086 27.9752C176.086 29.4519 176.608 30.8811 177.56 32.0101C178.021 32.5216 178.586 32.9283 179.217 33.2026C179.849 33.4769 180.532 33.6125 181.22 33.6002C181.918 33.6192 182.611 33.489 183.255 33.2182C183.898 32.9474 184.476 32.5424 184.95 32.0302C185.453 31.4791 185.843 30.8342 186.097 30.1324C186.351 29.4306 186.464 28.6857 186.43 27.9402C186.461 27.2086 186.346 26.4782 186.092 25.7914C185.838 25.1047 185.45 24.4754 184.95 23.9402C184.47 23.4335 183.889 23.033 183.245 22.7643C182.601 22.4956 181.908 22.3648 181.21 22.3802H181.23Z" fill="#CBCDD2"/>
<path d="M196.92 18.4702H201.01V20.8602C201.388 19.9926 202.001 19.248 202.78 18.7102C203.49 18.2272 204.331 17.9725 205.19 17.9801C205.865 17.9941 206.529 18.1617 207.13 18.4702L205.64 22.5701C205.217 22.3295 204.745 22.186 204.26 22.1502C203.853 22.1836 203.464 22.3295 203.136 22.5714C202.807 22.8133 202.552 23.1418 202.4 23.5202C201.89 24.4202 201.64 26.2101 201.64 28.8602V29.7901V37.4801H196.9L196.92 18.4702Z" fill="#CBCDD2"/>
<path d="M179.27 49.1902C179.227 49.1924 179.185 49.1855 179.145 49.1699C179.106 49.1544 179.07 49.1307 179.04 49.1002C178.986 49.0401 178.957 48.9612 178.96 48.8802V47.3202C178.959 47.2395 178.987 47.1613 179.04 47.1002C179.07 47.0697 179.106 47.0459 179.145 47.0304C179.185 47.0149 179.227 47.008 179.27 47.0102H180.79C180.875 47.0093 180.958 47.0415 181.02 47.1002C181.05 47.1284 181.073 47.1626 181.088 47.2005C181.104 47.2384 181.111 47.2792 181.11 47.3202V48.8802C181.112 48.9212 181.105 48.9622 181.089 49.0002C181.074 49.0382 181.05 49.0724 181.02 49.1002C180.958 49.1588 180.875 49.1911 180.79 49.1902H179.27Z" fill="#CBCDD2"/>
<path d="M185.4 49.3099C184.844 49.3158 184.293 49.1961 183.79 48.9599C183.328 48.742 182.939 48.3946 182.67 47.9599C182.389 47.5016 182.234 46.9773 182.22 46.4399C182.22 46.3099 182.22 46.1399 182.22 45.9399C182.22 45.7399 182.22 45.5799 182.22 45.4399C182.229 44.8987 182.385 44.37 182.67 43.9099C182.938 43.4785 183.323 43.1318 183.78 42.9099C184.289 42.6818 184.842 42.569 185.4 42.5799C185.894 42.5671 186.386 42.6485 186.85 42.8199C187.219 42.9542 187.558 43.1579 187.85 43.4199C188.079 43.6306 188.271 43.8772 188.42 44.1499C188.537 44.3513 188.606 44.5773 188.62 44.8099C188.623 44.8502 188.618 44.8907 188.604 44.9287C188.59 44.9667 188.568 45.0012 188.54 45.0299C188.48 45.0862 188.402 45.1183 188.32 45.1199H186.79C186.715 45.1244 186.641 45.1032 186.58 45.0599C186.524 45.0061 186.48 44.9415 186.45 44.8699C186.376 44.6582 186.244 44.4712 186.07 44.3299C185.898 44.2183 185.695 44.1625 185.49 44.1699C185.348 44.1662 185.206 44.1928 185.075 44.248C184.944 44.3031 184.827 44.3856 184.73 44.4899C184.526 44.7823 184.424 45.1338 184.44 45.4899C184.44 45.8099 184.44 46.1099 184.44 46.3599C184.424 46.7161 184.526 47.0676 184.73 47.3599C184.828 47.4606 184.947 47.5394 185.078 47.5911C185.209 47.6428 185.349 47.6663 185.49 47.6599C185.702 47.6716 185.912 47.6156 186.09 47.4999C186.267 47.365 186.393 47.175 186.45 46.9599C186.48 46.8913 186.524 46.8299 186.58 46.7799C186.64 46.7331 186.714 46.7084 186.79 46.7099H188.36C188.443 46.7152 188.521 46.7508 188.58 46.8099C188.609 46.8363 188.631 46.869 188.645 46.9054C188.659 46.9419 188.664 46.9811 188.66 47.0199C188.648 47.1888 188.607 47.3545 188.54 47.5099C188.453 47.7174 188.338 47.9124 188.2 48.0899C188.027 48.3126 187.821 48.5081 187.59 48.6699C187.311 48.857 187.004 48.9988 186.68 49.0899C186.268 49.2305 185.836 49.3047 185.4 49.3099Z" fill="#CBCDD2"/>
<path d="M192.79 49.31C192.193 49.3284 191.599 49.2157 191.05 48.98C190.603 48.7785 190.227 48.4476 189.97 48.03C189.706 47.5764 189.558 47.0645 189.54 46.54C189.54 46.38 189.54 46.19 189.54 45.98C189.54 45.77 189.54 45.59 189.54 45.43C189.553 44.9033 189.705 44.3894 189.98 43.94C190.246 43.5071 190.632 43.16 191.09 42.94C192.188 42.5005 193.412 42.5005 194.51 42.94C194.966 43.1601 195.348 43.5075 195.61 43.94C195.888 44.3884 196.044 44.9024 196.06 45.43C196.06 45.59 196.06 45.77 196.06 45.98C196.06 46.19 196.06 46.38 196.06 46.54C196.037 47.0637 195.89 47.5745 195.63 48.03C195.373 48.4476 194.997 48.7785 194.55 48.98C193.994 49.2164 193.394 49.3291 192.79 49.31ZM192.79 47.81C192.941 47.8199 193.093 47.7954 193.233 47.7382C193.373 47.6811 193.499 47.5928 193.6 47.48C193.79 47.1811 193.891 46.8341 193.89 46.48C193.89 46.36 193.89 46.19 193.89 45.99C193.89 45.79 193.89 45.62 193.89 45.49C193.889 45.136 193.789 44.7894 193.6 44.49C193.496 44.382 193.37 44.2962 193.232 44.2375C193.094 44.1789 192.945 44.1487 192.795 44.1487C192.645 44.1487 192.496 44.1789 192.358 44.2375C192.22 44.2962 192.094 44.382 191.99 44.49C191.8 44.7883 191.703 45.1363 191.71 45.49C191.71 45.62 191.71 45.78 191.71 45.99C191.71 46.2 191.71 46.36 191.71 46.48C191.702 46.8337 191.799 47.1819 191.99 47.48C192.09 47.5914 192.214 47.6789 192.353 47.736C192.491 47.7931 192.64 47.8184 192.79 47.81Z" fill="#CBCDD2"/>
<path d="M197.54 49.1901C197.499 49.1915 197.458 49.1842 197.42 49.1687C197.382 49.1532 197.348 49.1298 197.32 49.1001C197.291 49.0718 197.269 49.0373 197.255 48.9992C197.241 48.9611 197.236 48.9204 197.24 48.8801V43.0901C197.237 43.0499 197.243 43.0095 197.257 42.9717C197.27 42.9338 197.292 42.8992 197.32 42.8701C197.348 42.8404 197.382 42.817 197.42 42.8015C197.458 42.786 197.499 42.7787 197.54 42.7801H198.89C198.931 42.7787 198.972 42.786 199.01 42.8015C199.047 42.817 199.082 42.8404 199.11 42.8701C199.138 42.8992 199.159 42.9338 199.173 42.9717C199.187 43.0095 199.193 43.0499 199.19 43.0901V43.5101C199.398 43.2472 199.662 43.0344 199.963 42.8873C200.264 42.7402 200.595 42.6626 200.93 42.6601C201.326 42.6155 201.725 42.6944 202.075 42.8859C202.424 43.0775 202.705 43.3723 202.88 43.7301C203.08 43.4088 203.359 43.1438 203.69 42.9601C204.043 42.7598 204.444 42.6563 204.85 42.6601C205.252 42.6564 205.648 42.7563 206 42.9501C206.355 43.1594 206.64 43.4691 206.82 43.8401C207.041 44.3225 207.147 44.8497 207.13 45.3801V48.8801C207.132 48.9221 207.124 48.9641 207.107 49.0024C207.09 49.0407 207.063 49.0743 207.03 49.1001C207.003 49.1285 206.97 49.1512 206.934 49.1666C206.898 49.1821 206.859 49.1901 206.82 49.1901H205.39C205.347 49.1911 205.305 49.1836 205.266 49.1682C205.226 49.1527 205.19 49.1296 205.16 49.1001C205.13 49.0723 205.106 49.0381 205.09 49.0001C205.075 48.9621 205.068 48.9211 205.07 48.8801V45.4701C205.081 45.2373 205.04 45.0049 204.95 44.7901C204.875 44.6363 204.757 44.5077 204.61 44.4201C204.461 44.3462 204.296 44.3086 204.13 44.3101C203.98 44.3141 203.833 44.3517 203.7 44.4201C203.548 44.5042 203.426 44.6335 203.35 44.7901C203.256 45.004 203.211 45.2365 203.22 45.4701V48.8801C203.223 48.9611 203.194 49.04 203.14 49.1001C203.109 49.1296 203.073 49.1527 203.034 49.1682C202.994 49.1836 202.952 49.1911 202.91 49.1901H201.49C201.447 49.1923 201.405 49.1854 201.365 49.1699C201.326 49.1543 201.29 49.1306 201.26 49.1001C201.205 49.04 201.177 48.9611 201.18 48.8801V45.4701C201.191 45.2353 201.143 45.0015 201.04 44.7901C200.965 44.6363 200.847 44.5077 200.7 44.4201C200.555 44.3456 200.393 44.3078 200.23 44.3101C200.077 44.3126 199.926 44.3502 199.79 44.4201C199.641 44.5048 199.522 44.6342 199.45 44.7901C199.352 44.9993 199.307 45.2294 199.32 45.4601V48.8801C199.322 48.9211 199.315 48.9621 199.299 49.0001C199.284 49.0381 199.26 49.0723 199.23 49.1001C199.168 49.1587 199.085 49.191 199 49.1901H197.54Z" fill="#CBCDD2"/>
</svg>
