<svg width="208" height="50" viewBox="0 0 208 50" fill="none" xmlns="http://www.w3.org/2000/svg">
<path d="M12.5202 13.3399C11.6105 12.3019 10.7687 11.2063 10.0001 10.0599C9.18896 8.91035 8.51756 7.66826 8.00015 6.3599C7.72954 5.65283 7.61683 4.89514 7.67007 4.13993C7.71372 3.70914 7.8727 3.29807 8.13015 2.94993C8.39085 2.61066 8.73553 2.34524 9.13015 2.17991C9.85741 1.90657 10.6351 1.79397 11.4101 1.84989C12.1212 1.9055 12.8289 1.999 13.5301 2.12992C14.9264 2.38451 16.2983 2.75923 17.6302 3.24991C18.9895 3.74736 20.2567 4.46716 21.3802 5.37992C22.5214 6.30357 23.4579 7.45465 24.1302 8.75992C24.777 10.0449 25.0899 11.4721 25.0401 12.9099H24.8802C24.4939 11.6312 23.8992 10.4249 23.1201 9.33988C22.3537 8.30654 21.421 7.40767 20.3601 6.67991C18.2039 5.17727 15.7958 4.07315 13.2501 3.4199C12.6101 3.2599 11.9301 3.12989 11.3201 3.03989C10.724 2.96422 10.1188 3.00842 9.54006 3.1699C9.29896 3.2464 9.08186 3.38426 8.91006 3.56992C8.74987 3.7661 8.64315 4.00033 8.60012 4.24991C8.52841 4.86577 8.58973 5.48985 8.78005 6.07993C9.17193 7.36498 9.71235 8.59997 10.3902 9.75992C11.0702 10.9399 11.8001 12.0899 12.6001 13.2099L12.5202 13.3399Z" fill="#DF5D59"/>
<path d="M21.3901 13.24C22.2401 12.01 23.0201 10.73 23.7401 9.42999C24.4642 8.16409 25.0477 6.82278 25.4801 5.42999C25.6817 4.78369 25.7597 4.10519 25.7101 3.42999C25.6963 3.14306 25.6004 2.86614 25.4337 2.63214C25.2671 2.39814 25.0368 2.2169 24.7702 2.10998C24.1519 1.89094 23.491 1.81902 22.8401 1.89996C22.7001 1.89996 22.5001 1.89998 22.3301 1.97998L21.7901 2.08002C21.4401 2.15002 21.0801 2.23001 20.7301 2.32001C19.3198 2.6769 17.9495 3.17611 16.6401 3.81C15.3533 4.41611 14.1305 5.14979 12.9901 6C11.8514 6.831 10.8579 7.84469 10.0501 9C9.23383 10.229 8.61631 11.5789 8.22011 13H8.06007C8.02491 11.4348 8.36795 9.88425 9.06007 8.47998C9.40241 7.76964 9.82158 7.09897 10.3101 6.47998C10.8081 5.85895 11.3603 5.28338 11.9601 4.76001C13.1517 3.74203 14.5032 2.92772 15.9601 2.34998C17.4031 1.78368 18.8964 1.35514 20.4201 1.07001C20.8001 0.990007 21.1801 0.929995 21.5601 0.869995L22.1401 0.799987C22.3424 0.771737 22.546 0.755056 22.7501 0.749999C23.1611 0.730291 23.573 0.750382 23.9801 0.809997C24.4111 0.863603 24.8302 0.988643 25.2201 1.17999C25.6335 1.38624 25.9802 1.70516 26.2201 2.09998C26.455 2.49531 26.5921 2.94098 26.6201 3.39996C26.6437 4.21182 26.5078 5.02043 26.2201 5.77997C25.679 7.21106 24.978 8.5764 24.1301 9.84997C23.3127 11.1149 22.4211 12.3303 21.4601 13.49L21.3901 13.24Z" fill="#DF5D59"/>
<path d="M9.42987 38.9201L5.37988 34.7701L6.05988 34.0801L10.1099 38.2401L9.42987 38.9201Z" fill="#DF5D59"/>
<path d="M30.7401 13.8901H11.4601L11.1201 14.0001L10.28 39.5101H10.4501H34.2601L30.7401 13.8901ZM12.0901 14.8901H29.8601L33.1101 38.5301H11.3401L12.0901 14.8901Z" fill="#DF5D59"/>
<path d="M11.4299 13.89L11.09 13.9999L7.71997 14.9999L4.10999 13.6699L0.419922 38.6699L10.25 39.4999H10.4199L11.58 13.8399L11.4299 13.89ZM9.51001 38.0599V38.4599H9.22998L8.48999 38.3999L2.37 37.8799L1.58997 37.8199L1.68994 37.14L4.93994 15.08L7.18994 15.9099L7.70996 16.0999L8.19995 15.95L10.5699 15.2299L9.51001 38.0599Z" fill="#DF5D59"/>
<path d="M1.29993 38.65L0.699951 37.85L5.37994 34.36L7.20996 15.5L8.20996 15.6L6.32996 34.89L1.29993 38.65Z" fill="#DF5D59"/>
<path d="M21.34 23.7998C21.6426 23.3698 22.0305 23.0067 22.4795 22.7332C22.9286 22.4596 23.4291 22.2814 23.95 22.2098C24.3626 22.1714 24.7787 22.216 25.1739 22.3407C25.569 22.4655 25.9353 22.668 26.2511 22.9363C26.5669 23.2046 26.826 23.5333 27.013 23.9031C27.2 24.2729 27.3111 24.6764 27.34 25.0898C27.44 26.6598 25.93 28.2198 24.98 29.0898C22.98 31.0198 22.05 31.6098 21.36 32.2498C20.67 31.6098 19.77 31.0298 17.73 29.0998C16.78 28.2098 15.26 26.6398 15.35 25.0998C15.3764 24.6856 15.4855 24.2809 15.6707 23.9095C15.8559 23.538 16.1136 23.2074 16.4286 22.9372C16.7436 22.6669 17.1095 22.4624 17.5048 22.3358C17.9 22.2091 18.3166 22.1629 18.73 22.1998C19.2519 22.2721 19.7531 22.4516 20.2023 22.7269C20.6515 23.0023 21.0388 23.3675 21.34 23.7998Z" fill="#0E93CE"/>
<path d="M46.54 11.1201H51.2701V20.3801C52.1088 19.6393 53.0565 19.0322 54.0801 18.5801C54.9844 18.1809 55.9616 17.9731 56.9501 17.9701C57.8403 17.955 58.7239 18.1251 59.545 18.4694C60.3661 18.8136 61.1068 19.3246 61.7201 19.9701C62.3145 20.6518 62.7674 21.4449 63.0524 22.3033C63.3374 23.1617 63.4488 24.0682 63.3801 24.9701V37.5301H58.6801V29.2001C58.7371 27.6996 58.6298 26.1973 58.3601 24.7201C58.2133 24.0347 57.8355 23.4204 57.29 22.9801C56.7464 22.5809 56.0841 22.3766 55.41 22.4001C54.4808 22.3927 53.5861 22.752 52.92 23.4001C52.1915 24.1118 51.6905 25.0236 51.4801 26.0201C51.292 27.3177 51.2217 28.6298 51.2701 29.9401V37.5701H46.54V11.1201Z" fill="#0E93CE"/>
<path d="M84.2401 18.4598H89.0101V37.4598H84.2401V35.4598C83.4333 36.2673 82.4839 36.9183 81.44 37.3799C80.4877 37.7681 79.4684 37.9651 78.44 37.9598C77.2356 37.9659 76.0438 37.7137 74.945 37.2204C73.8462 36.727 72.8658 36.004 72.07 35.0998C71.1774 34.151 70.4804 33.0356 70.0189 31.8174C69.5573 30.5991 69.3403 29.302 69.3801 27.9999C69.2733 25.3494 70.2063 22.7621 71.9801 20.7898C72.7673 19.8912 73.7399 19.1738 74.8309 18.687C75.9219 18.2002 77.1054 17.9555 78.3 17.9698C79.4034 17.9628 80.4964 18.1841 81.5101 18.6199C82.5505 19.0807 83.4913 19.7396 84.28 20.5599L84.2401 18.4598ZM79.2401 22.3799C78.551 22.3628 77.8662 22.4932 77.2315 22.7623C76.5969 23.0313 76.0269 23.4328 75.56 23.9399C74.607 25.0664 74.0842 26.4943 74.0842 27.9698C74.0842 29.4454 74.607 30.8733 75.56 31.9999C76.0208 32.5114 76.5859 32.918 77.2174 33.1923C77.8488 33.4666 78.5317 33.6022 79.22 33.5898C79.9167 33.6082 80.6093 33.4787 81.2523 33.2098C81.8952 32.9409 82.4739 32.5387 82.95 32.0298C83.9671 30.9132 84.4994 29.4386 84.43 27.9299C84.4587 27.1985 84.3428 26.4687 84.0888 25.7823C83.8348 25.0959 83.4478 24.4664 82.95 23.9299C82.4714 23.4275 81.8936 23.0303 81.2531 22.7635C80.6127 22.4966 79.9237 22.366 79.2301 22.3799H79.2401Z" fill="#0E93CE"/>
<path d="M96.63 11.4502H101.4V18.4502H104.23V22.5602H101.4V37.4601H96.63V22.5602H94.1799V18.4502H96.63V11.4502Z" fill="#0E93CE"/>
<path d="M113.74 11.1201V20.5601C114.538 19.7422 115.485 19.0838 116.53 18.6201C117.547 18.1847 118.643 17.9634 119.75 17.9701C120.945 17.9557 122.128 18.2004 123.219 18.6873C124.31 19.1741 125.283 19.8914 126.07 20.7901C127.847 22.7608 128.784 25.3483 128.68 28.0001C128.756 30.6311 127.785 33.1848 125.98 35.1001C125.183 36.0032 124.203 36.7256 123.104 37.2189C122.006 37.7121 120.814 37.9648 119.61 37.9601C118.562 37.9717 117.521 37.7746 116.55 37.3801C115.503 36.919 114.55 36.268 113.74 35.4601V37.4601H109V11.1201H113.74ZM118.74 22.3801C118.044 22.3609 117.352 22.487 116.708 22.7505C116.064 23.0139 115.483 23.4089 115 23.9101C114.502 24.4466 114.115 25.0762 113.861 25.7626C113.607 26.449 113.491 27.1788 113.52 27.9101C113.451 29.4189 113.983 30.8935 115 32.0101C115.48 32.5168 116.061 32.9173 116.705 33.186C117.349 33.4546 118.042 33.5855 118.74 33.5701C119.431 33.5827 120.117 33.4473 120.752 33.1731C121.387 32.8989 121.955 32.4921 122.42 31.9801C123.428 30.8776 123.963 29.4232 123.91 27.9301C123.964 26.4555 123.436 25.0188 122.44 23.9301C121.971 23.4241 121.399 23.024 120.762 22.7567C120.126 22.4894 119.44 22.361 118.75 22.3801H118.74Z" fill="#F1605D"/>
<path d="M148.87 18.4598H153.64V37.4598H148.87V35.4598C148.063 36.2673 147.114 36.9183 146.07 37.3799C145.118 37.7691 144.098 37.9662 143.07 37.9598C141.866 37.9659 140.674 37.7137 139.575 37.2204C138.476 36.727 137.496 36.004 136.7 35.0998C135.807 34.151 135.11 33.0356 134.649 31.8174C134.187 30.5991 133.97 29.302 134.01 27.9999C133.908 25.3501 134.84 22.7643 136.61 20.7898C137.397 19.8912 138.37 19.1738 139.461 18.687C140.552 18.2002 141.735 17.9555 142.93 17.9698C144.033 17.9628 145.126 18.1841 146.14 18.6199C147.181 19.0807 148.121 19.7396 148.91 20.5599L148.87 18.4598ZM143.87 22.3799C143.181 22.3628 142.496 22.4932 141.862 22.7623C141.227 23.0313 140.657 23.4328 140.19 23.9399C139.237 25.0664 138.714 26.4943 138.714 27.9698C138.714 29.4454 139.237 30.8733 140.19 31.9999C140.652 32.5121 141.219 32.9192 141.852 33.1935C142.486 33.4678 143.17 33.6029 143.86 33.5898C144.555 33.6081 145.246 33.4785 145.888 33.2095C146.529 32.9406 147.106 32.5385 147.58 32.0298C148.597 30.9132 149.129 29.4386 149.06 27.9299C149.089 27.1985 148.973 26.4687 148.719 25.7823C148.465 25.0959 148.078 24.4664 147.58 23.9299C147.101 23.4275 146.524 23.0303 145.883 22.7635C145.243 22.4966 144.554 22.366 143.86 22.3799H143.87Z" fill="#F1605D"/>
<path d="M160.55 18.4598H165.34V38.0999C165.405 39.4713 165.222 40.8432 164.8 42.1498C164.472 42.9814 163.883 43.6836 163.12 44.1498C162.28 44.6481 161.316 44.8978 160.34 44.8699C159.12 44.8188 157.915 44.5758 156.77 44.1498V40.3899C157.388 40.7167 158.071 40.9012 158.77 40.9299C159.023 40.9483 159.276 40.9093 159.512 40.8157C159.747 40.7222 159.959 40.5766 160.13 40.3899C160.499 39.7918 160.66 39.089 160.59 38.3899L160.55 18.4598ZM162.92 10.6299C163.53 10.6326 164.127 10.8156 164.633 11.1558C165.14 11.496 165.536 11.9783 165.769 12.5422C166.003 13.1061 166.066 13.7264 165.948 14.3256C165.831 14.9247 165.539 15.4758 165.11 15.9099C164.836 16.2015 164.504 16.433 164.135 16.5896C163.767 16.7462 163.37 16.8247 162.97 16.8199C162.564 16.8251 162.162 16.7461 161.788 16.5877C161.415 16.4293 161.078 16.1951 160.8 15.8998C160.508 15.6072 160.279 15.2591 160.124 14.876C159.97 14.493 159.893 14.0829 159.9 13.6699C159.9 12.8742 160.216 12.1111 160.779 11.5485C161.341 10.9859 162.104 10.6699 162.9 10.6699L162.92 10.6299Z" fill="#F1605D"/>
<path d="M186.23 18.4602H191V37.4602H186.23V35.4602C185.423 36.2676 184.474 36.9187 183.43 37.3802C182.478 37.7682 181.458 37.9652 180.43 37.9602C179.226 37.9649 178.034 37.7122 176.936 37.219C175.837 36.7257 174.857 36.0033 174.06 35.1002C172.268 33.1776 171.306 30.6271 171.38 28.0002C171.273 25.3498 172.206 22.7625 173.98 20.7902C174.766 19.8929 175.737 19.1762 176.826 18.6894C177.916 18.2027 179.097 17.9573 180.29 17.9702C181.393 17.9632 182.486 18.1845 183.5 18.6202C184.545 19.0784 185.489 19.7375 186.28 20.5602L186.23 18.4602ZM181.23 22.3802C180.541 22.3632 179.856 22.4936 179.222 22.7626C178.587 23.0317 178.017 23.4332 177.55 23.9402C176.597 25.0668 176.074 26.4946 176.074 27.9702C176.074 29.4458 176.597 30.8737 177.55 32.0002C178.011 32.5117 178.576 32.9184 179.207 33.1927C179.839 33.467 180.522 33.6025 181.21 33.5902C181.907 33.6086 182.599 33.4791 183.242 33.2102C183.885 32.9413 184.464 32.5391 184.94 32.0302C185.957 30.9136 186.489 29.439 186.42 27.9302C186.449 27.1989 186.333 26.4691 186.079 25.7826C185.825 25.0962 185.438 24.4667 184.94 23.9302C184.461 23.4279 183.884 23.0307 183.243 22.7639C182.603 22.497 181.914 22.3664 181.22 22.3802H181.23Z" fill="#F1605D"/>
<path d="M196.92 18.4598H201.01V20.8598C201.385 19.99 201.998 19.2443 202.78 18.7098C203.489 18.2239 204.33 17.9658 205.19 17.9698C205.865 17.9875 206.528 18.1548 207.13 18.4598L205.64 22.5698C205.217 22.3291 204.746 22.1856 204.26 22.1498C203.854 22.1812 203.465 22.3252 203.137 22.5654C202.808 22.8056 202.553 23.1327 202.4 23.5098C201.893 24.4231 201.64 26.2065 201.64 28.8598V29.7798V37.4698H196.9L196.92 18.4598Z" fill="#F1605D"/>
<path d="M179.27 49.18C179.228 49.1829 179.186 49.1773 179.147 49.1635C179.107 49.1498 179.071 49.1281 179.04 49.1C178.987 49.0389 178.959 48.9607 178.96 48.88V47.31C178.96 47.2278 178.993 47.1489 179.051 47.0908C179.109 47.0326 179.188 47 179.27 47H180.82C180.907 47.0028 180.989 47.0386 181.05 47.1C181.078 47.1271 181.101 47.1596 181.117 47.1957C181.132 47.2318 181.14 47.2707 181.14 47.31V48.88C181.141 48.921 181.134 48.9617 181.119 48.9996C181.103 49.0376 181.08 49.0717 181.05 49.1C180.987 49.1559 180.904 49.1847 180.82 49.18H179.27Z" fill="#0E93CE"/>
<path d="M185.4 49.31C184.845 49.321 184.295 49.2083 183.79 48.98C183.332 48.7557 182.944 48.4097 182.67 47.98C182.389 47.5216 182.234 46.9973 182.22 46.4599C182.22 46.3299 182.22 46.1599 182.22 45.9599C182.22 45.7599 182.22 45.5899 182.22 45.4599C182.232 44.9191 182.387 44.3912 182.67 43.93C182.932 43.4933 183.318 43.145 183.78 42.93C184.289 42.7018 184.842 42.5891 185.4 42.6C185.894 42.5871 186.386 42.6685 186.85 42.8399C187.216 42.975 187.555 43.1749 187.85 43.43C188.079 43.6441 188.271 43.894 188.42 44.17C188.536 44.3727 188.607 44.5977 188.63 44.83C188.63 44.8693 188.622 44.9081 188.607 44.9442C188.591 44.9803 188.568 45.0129 188.54 45.04C188.48 45.0962 188.402 45.1283 188.32 45.13H186.75C186.675 45.1344 186.601 45.1132 186.54 45.07C186.484 45.02 186.44 44.9586 186.41 44.89C186.342 44.6753 186.209 44.4868 186.03 44.35C185.858 44.2383 185.655 44.1825 185.45 44.19C185.307 44.1805 185.164 44.2045 185.032 44.26C184.9 44.3156 184.783 44.4012 184.69 44.51C184.485 44.802 184.383 45.1537 184.4 45.51C184.4 45.84 184.4 46.13 184.4 46.39C184.379 46.7467 184.482 47.0997 184.69 47.39C184.785 47.4958 184.903 47.5786 185.034 47.6323C185.166 47.686 185.308 47.7092 185.45 47.7C185.662 47.7117 185.872 47.6556 186.05 47.54C186.221 47.3998 186.346 47.2118 186.41 47C186.437 46.927 186.482 46.8618 186.54 46.81C186.601 46.7667 186.675 46.7456 186.75 46.75H188.34C188.422 46.7516 188.5 46.7837 188.56 46.8399C188.589 46.8689 188.611 46.9033 188.627 46.941C188.642 46.9788 188.65 47.0192 188.65 47.06C188.635 47.2263 188.591 47.3887 188.52 47.54C188.433 47.7506 188.319 47.949 188.18 48.13C188.009 48.3518 187.803 48.5444 187.57 48.7C187.292 48.8924 186.985 49.0377 186.66 49.13C186.251 49.2496 185.826 49.3102 185.4 49.31Z" fill="#0E93CE"/>
<path d="M192.75 49.3098C192.153 49.3282 191.559 49.2155 191.01 48.9797C190.557 48.7639 190.18 48.4151 189.93 47.9797C189.666 47.5298 189.518 47.0211 189.5 46.4998C189.5 46.3298 189.5 46.1498 189.5 45.9398C189.5 45.7298 189.5 45.5398 189.5 45.3898C189.512 44.8615 189.667 44.3463 189.95 43.8997C190.217 43.4834 190.599 43.1535 191.05 42.9498C192.148 42.5102 193.372 42.5102 194.47 42.9498C194.921 43.1535 195.303 43.4834 195.57 43.8997C195.848 44.3481 196.004 44.8622 196.02 45.3898C196.02 45.5398 196.02 45.7298 196.02 45.9398C196.02 46.1498 196.02 46.3298 196.02 46.4998C195.997 47.0204 195.85 47.528 195.59 47.9797C195.34 48.4151 194.963 48.7639 194.51 48.9797C193.954 49.2162 193.354 49.3288 192.75 49.3098ZM192.75 47.8098C192.902 47.8185 193.054 47.7924 193.194 47.7335C193.335 47.6745 193.46 47.5843 193.56 47.4697C193.756 47.1735 193.857 46.8248 193.85 46.4697C193.85 46.3497 193.85 46.1897 193.85 45.9797C193.85 45.7697 193.85 45.6097 193.85 45.4897C193.858 45.1346 193.756 44.7857 193.56 44.4897C193.455 44.3818 193.33 44.2959 193.192 44.2373C193.054 44.1787 192.905 44.1484 192.755 44.1484C192.605 44.1484 192.456 44.1787 192.318 44.2373C192.179 44.2959 192.054 44.3818 191.95 44.4897C191.757 44.7868 191.659 45.1357 191.67 45.4897C191.67 45.6097 191.67 45.7797 191.67 45.9797C191.67 46.1797 191.67 46.3497 191.67 46.4697C191.66 46.8237 191.758 47.1724 191.95 47.4697C192.05 47.5811 192.174 47.6686 192.312 47.7258C192.451 47.7829 192.6 47.8082 192.75 47.7997V47.8098Z" fill="#0E93CE"/>
<path d="M197.54 49.1801C197.5 49.1828 197.459 49.177 197.421 49.1632C197.384 49.1495 197.349 49.128 197.32 49.1001C197.267 49.039 197.239 48.9607 197.24 48.8801V43.0901C197.237 43.0091 197.266 42.9302 197.32 42.8701C197.348 42.8404 197.382 42.817 197.42 42.8015C197.458 42.786 197.499 42.7787 197.54 42.7801H198.89C198.931 42.7787 198.972 42.786 199.01 42.8015C199.048 42.817 199.082 42.8404 199.11 42.8701C199.14 42.8979 199.164 42.932 199.179 42.9701C199.195 43.0081 199.202 43.049 199.2 43.0901V43.5101C199.403 43.2441 199.665 43.0289 199.965 42.8814C200.265 42.7339 200.595 42.6581 200.93 42.6601C201.334 42.6029 201.745 42.6758 202.105 42.8682C202.464 43.0606 202.753 43.3624 202.93 43.7301C203.13 43.4088 203.409 43.1438 203.74 42.9601C204.094 42.7598 204.494 42.6563 204.9 42.6601C205.303 42.6502 205.7 42.7505 206.05 42.9501C206.404 43.1558 206.69 43.4621 206.87 43.8301C207.091 44.3161 207.197 44.8465 207.18 45.3801V48.8801C207.181 48.9211 207.174 48.9618 207.159 48.9997C207.143 49.0377 207.12 49.0718 207.09 49.1001C207.029 49.1536 206.951 49.1822 206.87 49.1801H205.44C205.398 49.183 205.356 49.1774 205.317 49.1636C205.277 49.1499 205.241 49.1282 205.21 49.1001C205.18 49.0718 205.157 49.0377 205.141 48.9997C205.126 48.9618 205.119 48.9211 205.12 48.8801V45.4601C205.129 45.2274 205.088 44.9956 205 44.7801C204.931 44.6278 204.816 44.5017 204.67 44.4201C204.519 44.3423 204.35 44.3045 204.18 44.3101C204.029 44.3085 203.881 44.3464 203.75 44.4201C203.596 44.4976 203.473 44.6243 203.4 44.7801C203.308 44.9946 203.264 45.2266 203.27 45.4601V48.8801C203.271 48.9607 203.243 49.039 203.19 49.1001C203.161 49.128 203.126 49.1495 203.088 49.1632C203.05 49.177 203.01 49.1828 202.97 49.1801H201.54C201.498 49.183 201.456 49.1774 201.417 49.1636C201.377 49.1499 201.341 49.1282 201.31 49.1001C201.257 49.039 201.229 48.9607 201.23 48.8801V45.4601C201.239 45.2254 201.191 44.9922 201.09 44.7801C201.018 44.6271 200.899 44.5011 200.75 44.4201C200.606 44.3427 200.444 44.3048 200.28 44.3101C200.126 44.3086 199.975 44.3465 199.84 44.4201C199.689 44.4981 199.569 44.625 199.5 44.7801C199.403 44.9896 199.359 45.2196 199.37 45.4501V48.8801C199.371 48.9211 199.364 48.9618 199.348 48.9997C199.333 49.0377 199.31 49.0718 199.28 49.1001C199.217 49.156 199.134 49.1848 199.05 49.1801H197.54Z" fill="#0E93CE"/>
</svg>
