<svg width="178" height="49" viewBox="0 0 178 49" fill="none" xmlns="http://www.w3.org/2000/svg">
<path d="M16.59 44.0198C16.59 44.5198 16.75 47.1099 16.25 46.9399C15.75 46.7699 13.58 46.3799 13.58 46.3799C13.58 46.3799 8.66 44.9398 8.16 43.0198C7.66 41.0998 6.07001 28.8298 6.23001 28.4098C6.39001 27.9898 8.06997 23.4798 8.06997 23.4798L6.56997 16.9399L7.56997 14.2998C7.56997 14.2998 17.79 13.8799 18.65 13.8799C19.51 13.8799 26.02 13.8199 26.65 15.0599C27.28 16.2999 31.56 22.1499 31.36 22.5599C31.16 22.9699 29.9 34.9199 29.57 35.4999C29.24 36.0799 21.72 46.3799 21.72 46.3799C21.72 46.3799 22.22 47.8099 20.38 46.3799C19.197 45.4709 17.9276 44.6804 16.59 44.0198Z" fill="white"/>
<path d="M36.03 16.8002C34.71 16.8002 33.37 16.8002 32.03 16.8002H29.84V9.93018H5.52002C5.00102 9.92989 4.4828 9.97001 3.97003 10.0502C2.90257 10.2383 1.93554 10.7965 1.23877 11.6268C0.541997 12.457 0.160047 13.5062 0.160034 14.5902V48.6501H2.34003C12.64 48.6501 22.93 48.6501 33.21 48.6501C34.1321 48.6274 35.0102 48.2517 35.6633 47.6005C36.3164 46.9492 36.6947 46.0721 36.72 45.1501C36.72 36.4301 36.72 27.7068 36.72 18.9802V16.8002H36.03ZM26.51 29.4402C25.4913 30.3074 24.2073 30.8012 22.8701 30.8402C20.8701 31.0302 18.76 31.1902 16.71 31.3602C16.4291 31.3767 16.1508 31.4236 15.88 31.5002C15.7864 31.5325 15.6986 31.5798 15.6201 31.6402V37.8002C15.6201 40.5202 15.6201 43.2502 15.6201 45.9702V46.4102C13.922 45.0963 12.3025 43.6839 10.77 42.1802C10.6493 42.0074 10.5864 41.8009 10.59 41.5902C10.59 40.3202 10.59 39.0602 10.59 37.8002V31.3002C10.5984 30.3103 10.8839 29.3425 11.4141 28.5065C11.9443 27.6705 12.6981 26.9998 13.59 26.5702C14.2266 26.31 14.9031 26.1612 15.59 26.1302C17.21 26.0102 18.85 26.0602 20.47 25.8802C21.2125 25.906 21.9408 25.6726 22.53 25.2202C22.7814 24.9152 22.9471 24.549 23.0104 24.1589C23.0736 23.7688 23.0321 23.3689 22.89 23.0002C22.7731 22.6583 22.552 22.3617 22.2579 22.1519C21.9637 21.942 21.6113 21.8295 21.25 21.8302H13.85C13.85 21.8302 8.78004 16.3302 8.67004 16.0802H9.67004C13.32 16.0802 16.99 16.0102 20.67 16.0802C22.2421 16.0421 23.789 16.48 25.1078 17.3366C26.4266 18.1932 27.4556 19.4284 28.06 20.8802C29.34 23.8702 28.62 27.6002 26.51 29.4802V29.4402Z" fill="#ED1651"/>
<path d="M99.66 39.5698C95.61 39.5698 86.86 39.5698 86.66 39.5698C87.9 38.3598 89.08 37.1498 90.26 36.0498C90.512 35.859 90.8248 35.7666 91.14 35.7898H99.63V29.8798H85.86C85.86 29.8798 85.86 40.7898 85.86 44.1798C85.86 44.7298 86.04 44.8798 86.58 44.8798C92.13 44.8798 97.67 44.8798 103.22 44.8798H104.04V48.6898C103.78 48.6898 103.55 48.6898 103.32 48.6898H86.02C85.4138 48.712 84.8095 48.6095 84.2446 48.3885C83.6797 48.1676 83.1661 47.833 82.7358 47.4055C82.3055 46.978 81.9675 46.4667 81.7429 45.9032C81.5183 45.3397 81.4118 44.7361 81.43 44.1298C81.43 39.6098 81.43 35.0865 81.43 30.5598C81.4077 29.9584 81.5095 29.3589 81.7291 28.7986C81.9487 28.2384 82.2814 27.7294 82.7065 27.3034C83.1315 26.8774 83.6398 26.5436 84.1996 26.3227C84.7593 26.1019 85.3586 25.9987 85.96 26.0198H99.54C100.14 26.0033 100.738 26.1092 101.296 26.3307C101.854 26.5523 102.361 26.8851 102.787 27.3088C103.212 27.7325 103.547 28.2382 103.771 28.7954C103.995 29.3526 104.104 29.9494 104.09 30.5498C104.09 31.8798 104.09 33.6998 104.09 35.0198L99.66 39.5698Z" fill="#ED1651"/>
<path d="M147.97 48.3301C147.982 48.4431 147.982 48.557 147.97 48.67H143.56V45.4C143.15 45.7 142.9 45.88 142.66 46.09C141.76 46.85 140.88 47.6301 139.97 48.3701C139.719 48.5576 139.422 48.6718 139.11 48.7001C136 48.7001 132.88 48.7001 129.78 48.7001C128.635 48.6984 127.534 48.2542 126.709 47.4604C125.883 46.6665 125.396 45.5844 125.35 44.4401C125.3 42.7201 125.29 40.99 125.35 39.28C125.4 38.1898 125.861 37.1589 126.64 36.3946C127.419 35.6303 128.459 35.1892 129.55 35.16H134.32H142.48L141.07 36.65L140.58 37.16L138.91 38.92H134.32C133.06 38.92 131.77 38.92 130.5 38.92H129.76V44.92H143.53V44.28C143.53 42.5 143.53 40.7101 143.53 38.9301C143.53 36.4101 143.53 33.8901 143.53 31.3701V29.92H125.34L125.88 29.3701L127.21 28.03L129.02 26.22L129.16 26.0801H131.42C135.51 26.0801 139.62 26.0801 143.72 26.0801C144.843 26.1257 145.906 26.5982 146.692 27.4011C147.478 28.2039 147.928 29.2766 147.95 30.4C148.01 36.35 147.97 42.3401 147.97 48.3301Z" fill="#ED1651"/>
<path d="M46.83 16.9399V22.0199H42.45V16.9399H46.83Z" fill="#ED1651"/>
<path d="M37.41 9.06006V15.0601H31.34V9.06006H37.41Z" fill="#ED1651"/>
<path d="M42.72 4.41992V7.57996H39.51V4.41992H42.72Z" fill="#ED1651"/>
<path d="M46.49 0.899902V3.04993H44.34V0.899902H46.49Z" fill="#ED1651"/>
<path d="M42.45 29.3502L46.8299 24.7402V48.7102H42.45V29.3502Z" fill="#ED1651"/>
<path d="M112 15.8598L116.38 11.2598V48.7098H112V15.8598Z" fill="#ED1651"/>
<path d="M76.28 48.7102H70.84L64.6899 39.9002C64.6463 39.8403 64.5892 39.7915 64.5231 39.7579C64.4571 39.7243 64.384 39.7068 64.3099 39.7068C64.2358 39.7068 64.1628 39.7243 64.0967 39.7579C64.0307 39.7915 63.9736 39.8403 63.93 39.9002L57.77 48.7102H52.21L61.35 36.7102L52.79 26.0103H58.47L63.93 33.8102C63.9722 33.8721 64.0289 33.9227 64.0951 33.9577C64.1613 33.9927 64.235 34.011 64.3099 34.011C64.3848 34.011 64.4586 33.9927 64.5248 33.9577C64.5911 33.9227 64.6477 33.8721 64.6899 33.8102L70.14 26.0103H75.6899L67.12 36.7102L76.28 48.7102Z" fill="#ED1651"/>
<path d="M177.11 48.7102H171.67L165.52 39.9002C165.476 39.8403 165.419 39.7915 165.353 39.7579C165.287 39.7243 165.214 39.7068 165.14 39.7068C165.066 39.7068 164.993 39.7243 164.927 39.7579C164.861 39.7915 164.804 39.8403 164.76 39.9002L158.6 48.7102H153.04L162.18 36.7102L153.62 26.0103H159.34L164.8 33.8102C164.842 33.8721 164.899 33.9227 164.965 33.9577C165.031 33.9927 165.105 34.011 165.18 34.011C165.255 34.011 165.329 33.9927 165.395 33.9577C165.461 33.9227 165.518 33.8721 165.56 33.8102L171.01 26.0103H176.56L167.99 36.7102L177.11 48.7102Z" fill="#ED1651"/>
</svg>
