<svg width="178" height="49" viewBox="0 0 178 49" fill="none" xmlns="http://www.w3.org/2000/svg">
<path d="M36.03 16.84C34.71 16.84 33.37 16.84 32.03 16.84H29.84V9.96002H5.52005C5.00059 9.95818 4.48193 10.0017 3.97003 10.09C2.90243 10.2757 1.93438 10.8316 1.23581 11.66C0.537241 12.4884 0.1528 13.5364 0.150024 14.62V48.69H2.34003C12.64 48.69 22.9301 48.69 33.2101 48.69C34.1312 48.6698 35.0093 48.2963 35.6627 47.6466C36.316 46.997 36.6946 46.121 36.72 45.2C36.72 36.48 36.72 27.7533 36.72 19.02V16.83L36.03 16.84ZM26.51 29.48C25.4923 30.3501 24.2084 30.8474 22.87 30.89C20.82 31.07 18.7601 31.23 16.7101 31.4C16.4288 31.4199 16.1505 31.4702 15.88 31.55C15.7869 31.579 15.6991 31.6229 15.62 31.68V37.77C15.62 40.5 15.62 43.23 15.62 45.94V46.38C13.9219 45.0662 12.3025 43.6538 10.7701 42.15C10.6494 41.9772 10.5864 41.7707 10.59 41.56C10.59 40.29 10.59 39.03 10.59 37.77V31.3C10.5996 30.3104 10.8856 29.3431 11.4156 28.5073C11.9457 27.6715 12.6989 27.0005 13.59 26.57C14.2261 26.3085 14.9029 26.1596 15.59 26.13C17.21 26.01 18.85 26.06 20.47 25.89C21.2118 25.9109 21.9385 25.678 22.53 25.23C22.7822 24.9235 22.9485 24.5556 23.0117 24.1637C23.075 23.7719 23.033 23.3703 22.89 23C22.7718 22.659 22.5504 22.3632 22.2566 22.1535C21.9628 21.9439 21.611 21.8308 21.25 21.83H13.79C13.79 21.83 8.72005 16.33 8.61005 16.09H9.61005C13.27 16.09 16.94 16.01 20.61 16.09C22.1818 16.0469 23.7297 16.4817 25.0492 17.3369C26.3687 18.1922 27.3976 19.4276 28 20.88C29.33 23.87 28.62 27.6 26.51 29.48Z" fill="#CBCDD2"/>
<path d="M99.65 39.57C95.65 39.57 86.86 39.57 86.65 39.57C87.88 38.36 89.0701 37.15 90.2401 36.05C90.4955 35.8662 90.8057 35.7746 91.12 35.79H99.62V29.89H99.1801C99.1272 29.8795 99.0729 29.8795 99.0201 29.89C95.4301 29.89 91.83 29.89 88.25 29.89H85.88C85.88 29.89 85.88 40.8 85.88 44.2C85.88 44.75 86.06 44.9 86.6 44.9C92.15 44.9 97.6901 44.9 103.24 44.9H104.06V48.72C103.8 48.72 103.57 48.72 103.34 48.72H86.04C85.4334 48.7408 84.8289 48.637 84.2639 48.4149C83.699 48.1929 83.1855 47.8573 82.7554 47.429C82.3252 47.0007 81.9874 46.4888 81.7629 45.9248C81.5384 45.3608 81.4319 44.7568 81.45 44.15C81.45 39.63 81.45 35.1067 81.45 30.58C81.4291 29.9795 81.532 29.3811 81.7522 28.822C81.9724 28.2629 82.3054 27.7551 82.7303 27.3302C83.1552 26.9053 83.6629 26.5724 84.222 26.3522C84.7811 26.1319 85.3795 26.0291 85.98 26.05H99.56C100.159 26.0351 100.755 26.1416 101.312 26.363C101.869 26.5845 102.375 26.9164 102.8 27.3387C103.225 27.761 103.56 28.265 103.785 28.8204C104.011 29.3757 104.121 29.9709 104.11 30.57C104.11 31.9 104.11 33.72 104.11 35.04L99.65 39.57Z" fill="#CBCDD2"/>
<path d="M147.97 48.3299C147.96 48.4474 147.943 48.5642 147.92 48.6799H143.51V45.3999C143.1 45.7099 142.85 45.8899 142.61 46.0999C141.71 46.8499 140.83 47.6399 139.92 48.3699C139.672 48.5618 139.373 48.6765 139.06 48.6999C135.95 48.6999 132.83 48.6999 129.73 48.6999C128.585 48.7033 127.483 48.2622 126.657 47.4694C125.83 46.6767 125.344 45.5941 125.3 44.4499C125.25 42.7199 125.24 40.9999 125.3 39.2899C125.348 38.1988 125.808 37.1665 126.588 36.4018C127.367 35.637 128.408 35.1967 129.5 35.1699H134.27H142.43L141.01 36.6599L140.52 37.1799L138.87 38.9599H134.28C133.02 38.9599 131.73 38.9599 130.46 38.9599H129.71V44.9599H143.49V44.3299C143.49 42.5399 143.49 40.7599 143.49 38.9699C143.49 36.4499 143.49 33.9699 143.49 31.4199V29.9599H125.35C125.53 29.7799 125.72 29.5999 125.89 29.4099L127.22 28.0699L129.03 26.2599L129.16 26.1299H131.43C135.52 26.1299 139.63 26.1299 143.73 26.1299C144.852 26.173 145.915 26.6434 146.701 27.4446C147.488 28.2459 147.938 29.3174 147.96 30.4399C148.01 36.3499 147.97 42.3399 147.97 48.3299Z" fill="#CBCDD2"/>
<path d="M46.79 16.96V22.05H42.4V16.96H46.79Z" fill="#CBCDD2"/>
<path d="M37.4101 9.06982V15.0698H31.3201V9.06982H37.4101Z" fill="#CBCDD2"/>
<path d="M42.72 4.41992V7.58994H39.51V4.41992H42.72Z" fill="#CBCDD2"/>
<path d="M46.4901 0.959961V3.10995H44.3101V0.959961H46.4901Z" fill="#CBCDD2"/>
<path d="M42.45 29.3497L46.8299 24.7397V48.7097H42.45V29.3497Z" fill="#CBCDD2"/>
<path d="M112 15.8598L116.38 11.2598V48.7098H112V15.8598Z" fill="#CBCDD2"/>
<path d="M76.28 48.7201H70.84L64.69 39.9601C64.6478 39.8982 64.5911 39.8476 64.5249 39.8126C64.4586 39.7776 64.3849 39.7593 64.31 39.7593C64.2351 39.7593 64.1613 39.7776 64.0951 39.8126C64.0289 39.8476 63.9722 39.8982 63.93 39.9601L57.79 48.7201H52.23L61.37 36.7201L52.79 26.04H58.47L63.93 33.8501C63.9736 33.91 64.0307 33.9587 64.0968 33.9923C64.1628 34.026 64.2359 34.0435 64.31 34.0435C64.3841 34.0435 64.4571 34.026 64.5232 33.9923C64.5892 33.9587 64.6464 33.91 64.69 33.8501L70.14 26.04H75.69L67.12 36.7401L76.28 48.7201Z" fill="#CBCDD2"/>
<path d="M177.11 48.7198H171.67L165.52 39.9598C165.478 39.898 165.421 39.8473 165.355 39.8123C165.289 39.7774 165.215 39.7591 165.14 39.7591C165.065 39.7591 164.991 39.7774 164.925 39.8123C164.859 39.8473 164.802 39.898 164.76 39.9598L158.6 48.7698H153.03L162.18 36.7698L153.62 26.0698H159.29L164.76 33.8799C164.804 33.9398 164.861 33.9885 164.927 34.0221C164.993 34.0557 165.066 34.0732 165.14 34.0732C165.214 34.0732 165.287 34.0557 165.353 34.0221C165.419 33.9885 165.476 33.9398 165.52 33.8799L170.97 26.0698H176.52L167.95 36.7698L177.11 48.7198Z" fill="#CBCDD2"/>
</svg>
