<svg width="207" height="44" viewBox="0 0 207 44" fill="none" xmlns="http://www.w3.org/2000/svg">
<path d="M15.12 13.5898L10.79 16.2898C10.79 16.2898 4.04 7.51984 0 5.20984L47.25 0.589844C47.25 0.589844 11.65 5.58983 8.86 7.32983L15.12 13.5898Z" fill="#CBCDD2"/>
<path d="M50.1299 0.589844C50.1299 0.589844 34.1299 4.84983 22.3399 27.7998L17.7899 17.6798L13.9399 20.5698C13.9399 20.5698 21.1599 33.7198 21.6099 40.5698C21.5899 40.5898 31.4699 11.9598 50.1299 0.589844Z" fill="#CBCDD2"/>
<path d="M2.79004 26.9598C2.79004 26.9598 15 11.8698 43.21 2.27979C28.3783 8.04141 14.6912 16.3986 2.79004 26.9598Z" fill="#CBCDD2"/>
<path d="M145.39 36.8198C145.125 36.3435 144.723 35.9575 144.236 35.7115C143.75 35.4656 143.201 35.3709 142.66 35.4398C141.582 35.4043 140.525 35.7358 139.66 36.3798C138.804 37.0236 138.222 37.9662 138.03 39.0198C137.956 39.3243 137.919 39.6365 137.92 39.9498C137.896 40.3303 137.964 40.7109 138.119 41.0592C138.274 41.4075 138.511 41.7131 138.81 41.9498C139.437 42.3996 140.199 42.6218 140.97 42.5798C141.599 42.5898 142.222 42.4697 142.802 42.227C143.382 41.9844 143.906 41.6244 144.34 41.1698L144.94 41.6098C144.413 42.1659 143.777 42.6068 143.071 42.9046C142.366 43.2023 141.606 43.3505 140.84 43.3398C140.271 43.3876 139.699 43.3083 139.164 43.1077C138.63 42.9071 138.147 42.5901 137.75 42.1798C137.288 41.6176 137.047 40.9069 137.07 40.1798C137.073 39.8134 137.113 39.4482 137.19 39.0898C137.435 37.803 138.147 36.6523 139.19 35.8598C140.232 35.0696 141.513 34.6602 142.82 34.6998C143.487 34.6212 144.162 34.7405 144.761 35.0428C145.36 35.3451 145.857 35.817 146.19 36.3998L145.39 36.8198Z" fill="#CBCDD2"/>
<path d="M155.41 42.4999C155.018 42.8449 154.563 43.1098 154.07 43.2799C153.646 43.3665 153.213 43.4034 152.78 43.3899C152.084 43.4295 151.396 43.2204 150.84 42.7999C150.575 42.5843 150.365 42.3086 150.227 41.9955C150.09 41.6825 150.029 41.3412 150.05 40.9999C150.053 40.7315 150.08 40.4638 150.13 40.1999C150.305 39.274 150.809 38.4428 151.55 37.8599C152.289 37.2772 153.209 36.9697 154.15 36.9899C154.865 36.9489 155.572 37.1575 156.15 37.5799C156.413 37.8017 156.621 38.0815 156.758 38.3973C156.896 38.713 156.958 39.0562 156.94 39.3999C156.932 39.994 156.795 40.5792 156.538 41.1146C156.28 41.6501 155.909 42.1229 155.45 42.4999H155.41ZM155.7 38.41C155.509 38.1467 155.244 37.9451 154.94 37.8299C154.613 37.7496 154.276 37.7192 153.94 37.7399C153.23 37.7284 152.538 37.9693 151.989 38.4197C151.439 38.8702 151.068 39.5011 150.94 40.1999C150.894 40.4034 150.87 40.6113 150.87 40.8199C150.853 41.0777 150.897 41.3357 150.998 41.5736C151.099 41.8114 151.253 42.0225 151.45 42.1899C151.872 42.5071 152.392 42.6663 152.92 42.6399C153.627 42.6523 154.317 42.4143 154.866 41.9678C155.414 41.5213 155.788 40.8951 155.92 40.1999C155.969 39.9866 155.996 39.7688 156 39.5499C156.03 39.1471 155.924 38.7458 155.7 38.41Z" fill="#CBCDD2"/>
<path d="M165.94 43.2697L166.07 42.5997C165.422 43.1349 164.6 43.4157 163.76 43.3896C163.219 43.4162 162.681 43.2879 162.21 43.0197C161.982 42.8763 161.796 42.6748 161.671 42.4358C161.546 42.1968 161.487 41.929 161.5 41.6597C161.501 41.4676 161.525 41.2763 161.57 41.0897L162.41 37.1396H163.23L162.39 41.0696C162.377 41.216 162.377 41.3633 162.39 41.5096C162.39 42.2596 162.91 42.6396 163.96 42.6396C164.588 42.6663 165.205 42.4598 165.69 42.0597C166.158 41.6362 166.475 41.0705 166.59 40.4496L167.29 37.1396H168.12L166.79 43.2697H165.94Z" fill="#CBCDD2"/>
<path d="M173.46 40.7699L172.94 43.2499H172.11L173.41 37.1299H174.24L174.06 37.9699C174.855 37.2839 175.881 36.9263 176.93 36.9699L176.78 37.7199C175 37.7399 173.9 38.7499 173.46 40.7699Z" fill="#CBCDD2"/>
<path d="M180.53 43.2499L181.85 36.9899H182.68L181.35 43.2499H180.53ZM182.42 36.1799C182.24 36.1799 182.13 36.0699 182.09 35.8699L182.29 34.9599C182.334 34.8758 182.399 34.8036 182.477 34.7497C182.555 34.6957 182.646 34.6615 182.74 34.6499C182.88 34.6499 183 34.7399 183.12 34.9299L182.92 35.9299C182.79 36.0721 182.612 36.1612 182.42 36.1799Z" fill="#CBCDD2"/>
<path d="M187.66 40.5097C187.651 40.6595 187.651 40.8098 187.66 40.9597C187.66 42.0797 188.32 42.6397 189.66 42.6397C190.188 42.6643 190.713 42.5429 191.177 42.2889C191.641 42.0349 192.026 41.658 192.29 41.1997H193.14C192.811 41.8823 192.288 42.4535 191.638 42.8427C190.988 43.2319 190.237 43.422 189.48 43.3897C188.81 43.4329 188.144 43.2497 187.59 42.8697C187.336 42.6624 187.135 42.3971 187.004 42.096C186.874 41.795 186.817 41.467 186.84 41.1397C186.844 40.8267 186.881 40.515 186.95 40.2097C187.131 39.2974 187.625 38.4769 188.346 37.8892C189.067 37.3015 189.97 36.9834 190.9 36.9897C191.573 36.9612 192.239 37.1467 192.8 37.5197C193.066 37.7157 193.279 37.9744 193.42 38.2728C193.561 38.5712 193.627 38.8999 193.61 39.2297C193.607 39.4849 193.58 39.7393 193.53 39.9897L193.43 40.4997L187.66 40.5097ZM190.66 37.7397C190.024 37.7265 189.401 37.9156 188.88 38.2797C188.371 38.6468 187.99 39.1644 187.79 39.7597H192.58C192.59 39.6499 192.59 39.5395 192.58 39.4297C192.593 39.1889 192.549 38.9486 192.451 38.728C192.354 38.5074 192.206 38.3128 192.02 38.1597C191.64 37.8826 191.18 37.7353 190.71 37.7397H190.66Z" fill="#CBCDD2"/>
<path d="M199.02 40.7699L198.49 43.2499H197.67L198.97 37.1299H199.79L199.61 37.9699C200.405 37.2839 201.431 36.9263 202.48 36.9699L202.33 37.7199C200.557 37.7332 199.453 38.7499 199.02 40.7699Z" fill="#CBCDD2"/>
<path d="M51.04 13.0197C50.8859 13.0139 50.7355 13.0676 50.62 13.1697C50.5078 13.2565 50.4242 13.3749 50.38 13.5097V13.5597C50.374 13.5995 50.374 13.6399 50.38 13.6797C50.38 13.7397 50.38 13.8197 50.38 13.9297C50.3552 14.0683 50.3218 14.2052 50.28 14.3397C50.28 14.5097 50.19 14.7097 50.14 14.9497L49.93 15.8097C49.9085 15.9091 49.91 16.0121 49.9343 16.1108C49.9585 16.2096 50.0049 16.3015 50.07 16.3797C50.1273 16.4576 50.2028 16.5203 50.29 16.5621C50.3772 16.604 50.4734 16.6237 50.57 16.6197H59.05C59.7769 16.5982 60.4983 16.7524 61.1529 17.0693C61.8074 17.3861 62.3759 17.8562 62.81 18.4397C63.2668 19.0244 63.5822 19.707 63.7314 20.4338C63.8806 21.1607 63.8595 21.9123 63.67 22.6297C63.6738 22.6461 63.6738 22.6632 63.67 22.6797C63.6724 22.7197 63.6724 22.7597 63.67 22.7997V23.0197C63.67 23.1197 63.62 23.2497 63.58 23.3997C63.54 23.5497 63.49 23.7397 63.44 23.9597L63.24 24.7597C63.17 25.0597 63.08 25.4097 62.98 25.7597C62.88 26.1097 62.78 26.5997 62.66 27.0997C62.3839 28.2052 61.747 29.187 60.85 29.8897C59.957 30.6041 58.8435 30.9859 57.7 30.9697H40.7C40.6966 30.9498 40.6966 30.9296 40.7 30.9097C40.6934 30.8633 40.6934 30.8161 40.7 30.7697L40.77 30.4997C40.77 30.3797 40.84 30.2297 40.88 30.0497C40.92 29.8697 40.98 29.6297 41.04 29.3697C41.1 29.1097 41.17 28.7797 41.26 28.4197C41.35 28.0597 41.45 27.6297 41.56 27.1497C41.67 26.6697 41.81 26.1497 41.95 25.5497H56.95C57.1027 25.5534 57.2523 25.5063 57.3754 25.4158C57.4984 25.3253 57.588 25.1965 57.63 25.0497C57.6261 25.0332 57.6261 25.0161 57.63 24.9997C57.63 24.9997 57.63 24.9297 57.63 24.8697C57.63 24.8097 57.63 24.7297 57.69 24.6197C57.75 24.5097 57.75 24.3697 57.79 24.2097L57.94 23.5997C58 23.3597 58.06 23.0697 58.13 22.7497C58.1686 22.6587 58.1837 22.5594 58.1739 22.4611C58.1641 22.3627 58.1297 22.2683 58.074 22.1867C58.0182 22.1051 57.9429 22.0387 57.8548 21.9938C57.7667 21.9489 57.6688 21.9269 57.57 21.9297H48.84C48.1169 21.9533 47.3986 21.8041 46.7446 21.4946C46.0907 21.185 45.5201 20.724 45.08 20.1497C44.617 19.5643 44.2972 18.8787 44.1462 18.1478C43.9951 17.4168 44.017 16.6607 44.21 15.9397C44.2076 15.8997 44.2076 15.8596 44.21 15.8197C44.2347 15.7409 44.2548 15.6608 44.27 15.5797C44.27 15.4797 44.33 15.3597 44.36 15.2097C44.39 15.0597 44.44 14.8697 44.5 14.6497C44.56 14.4297 44.62 14.1597 44.69 13.8597C44.76 13.5597 44.85 13.1997 44.95 12.7997C45.05 12.3997 45.16 11.9597 45.28 11.4597C46.2667 8.93969 47.9333 7.67969 50.28 7.67969H67.42C67.4183 7.69965 67.4183 7.71972 67.42 7.73969C67.42 7.73969 67.42 7.8197 67.42 7.8797C67.4012 7.97083 67.3779 8.06093 67.35 8.14969C67.35 8.26969 67.28 8.4197 67.23 8.5997C67.18 8.7797 67.12 8.99967 67.06 9.25967C67 9.51967 66.92 9.8297 66.82 10.1897L66.5 11.4397L66.09 13.0297H51.09L51.04 13.0197Z" fill="#CBCDD2"/>
<path d="M69.06 7.66992H74.79V7.72992C74.7843 7.76637 74.7843 7.80349 74.79 7.83994V8.01993L74.72 8.26993C74.72 8.36993 74.66 8.47992 74.63 8.60992C74.6 8.73992 74.57 8.87994 74.53 9.02994L74.39 9.56992C74.39 9.77992 74.28 9.99993 74.21 10.2399L74.01 11.0499C73.94 11.3399 73.87 11.6499 73.78 11.9899C73.69 12.3299 73.6 12.7099 73.49 13.0999H77.6L76.47 18.2699H72.31C72.31 18.2699 72.31 18.2699 72.31 18.3399C72.3125 18.3832 72.3125 18.4266 72.31 18.4699C72.31 18.5199 72.31 18.5899 72.31 18.6699C72.31 18.7499 72.31 18.8499 72.25 18.9599C72.19 19.0699 72.19 19.1999 72.15 19.3499L71.79 19.9599C71.79 20.1499 71.69 20.3699 71.64 20.6099C71.59 20.8499 71.51 21.1299 71.45 21.4199C71.39 21.7099 71.3 22.0499 71.21 22.4199C71.12 22.7899 71.03 23.1699 70.92 23.5899C70.81 24.0099 70.7 24.4599 70.57 24.9599C70.5353 25.2436 70.6104 25.5298 70.78 25.7599C70.8678 25.874 70.9818 25.9653 71.1123 26.0262C71.2428 26.0871 71.3861 26.1158 71.53 26.1099H74.53L73.38 31.0399H69.46C68.7374 31.0632 68.0202 30.9084 67.3715 30.5893C66.7228 30.2702 66.1625 29.7965 65.74 29.2099C65.2925 28.6086 64.9834 27.9158 64.8348 27.1811C64.6861 26.4464 64.7015 25.688 64.88 24.9599L69.06 7.66992Z" fill="#CBCDD2"/>
<path d="M80.79 16.68C82.9728 14.5014 85.9072 13.2418 88.99 13.16H93.24C93.9236 13.1334 94.6038 13.2679 95.2257 13.5528C95.8477 13.8377 96.3938 14.265 96.82 14.8C97.2532 15.3083 97.5553 15.9149 97.7 16.5668C97.8447 17.2188 97.8275 17.8962 97.65 18.54L97.41 19.45L97.23 20.09C97.1979 20.2355 97.1579 20.379 97.11 20.52C97.11 20.64 97.05 20.73 97.04 20.79C97.0442 20.8366 97.0442 20.8835 97.04 20.93C96.7893 21.9983 96.1695 22.9439 95.29 23.6001C94.4027 24.2658 93.3192 24.6176 92.21 24.6001H86.89C86.558 24.5679 86.2437 24.4347 85.9898 24.2183C85.7359 24.0019 85.5545 23.7128 85.47 23.39C85.372 23.0411 85.3517 22.6749 85.4104 22.3173C85.4691 21.9597 85.6056 21.6193 85.81 21.32C86.0775 20.9357 86.4253 20.6142 86.8293 20.3776C87.2334 20.141 87.684 19.9951 88.15 19.95H91.48C91.54 19.67 91.61 19.43 91.66 19.23C91.71 19.03 91.76 18.86 91.8 18.72C91.84 18.58 91.87 18.46 91.89 18.37C91.91 18.28 91.89 18.2 91.95 18.15V18.05C91.9539 18.0336 91.9539 18.0165 91.95 18H88.39C87.2368 17.9762 86.1069 18.3271 85.17 19C84.177 19.7953 83.4941 20.9134 83.24 22.16C83.0422 23.1379 83.217 24.1544 83.73 25.01C84.24 25.88 85.24 26.32 86.73 26.32H95.63C95.5 26.84 95.38 27.32 95.27 27.71C95.16 28.1 95.06 28.48 94.97 28.78C94.88 29.08 94.81 29.36 94.76 29.59C94.71 29.82 94.65 30.02 94.6 30.18C94.5588 30.3045 94.5254 30.4314 94.5 30.56C94.5 30.66 94.45 30.74 94.43 30.79C94.4333 30.8333 94.4333 30.8768 94.43 30.92C94.4262 30.9365 94.4262 30.9536 94.43 30.97H84.23C81.8234 30.97 80.0867 30.3934 79.02 29.24C77.9819 28.1108 77.4039 26.634 77.4 25.1001C77.3572 23.5391 77.636 21.986 78.2192 20.5374C78.8024 19.0889 79.6775 17.7758 80.79 16.68Z" fill="#CBCDD2"/>
<path d="M104.59 30.9599C101.657 30.6466 99.7233 29.3766 98.79 27.1499C97.8567 24.9233 98.1 22.1699 99.52 18.8899C101.96 14.8299 105.747 12.9366 110.88 13.2099H119.01L118.75 14.1399L117.32 19.78L114.46 31.03H108.79L104.59 30.9599ZM111.66 19.78L112.13 17.8999H109.4C108.116 17.8593 106.858 18.2736 105.85 19.0699C104.975 19.7753 104.331 20.726 104 21.7999C103.38 24.5999 104.35 25.98 106.91 25.94H110.08L111.66 19.78Z" fill="#CBCDD2"/>
<path d="M136.41 24.6899H130.79L132.37 18.0199H128.86C126.36 18.0199 124.71 19.3699 123.86 22.1399C123.634 23.1233 123.799 24.1559 124.32 25.0199C124.646 25.4741 125.085 25.8349 125.594 26.0665C126.103 26.2981 126.663 26.3924 127.22 26.3399H135.96L134.79 31.0099H124.85C122.537 30.9699 120.87 30.3766 119.85 29.2299C118.806 28.098 118.203 26.629 118.15 25.0899C118.139 21.9279 119.354 18.8848 121.54 16.5999C123.635 14.4084 126.51 13.1326 129.54 13.0499H133.71L135.13 7.66992H140.74L136.41 24.6899Z" fill="#CBCDD2"/>
<path d="M141.47 11.5399C142.37 8.95992 144.02 7.66992 146.42 7.66992H162.42L161.24 12.9599H151.91H147.4C147.252 12.9654 147.111 13.022 147 13.1199C146.866 13.2234 146.767 13.367 146.72 13.5299L146.02 16.6199H155.42L154.27 21.9499H144.79L142.79 30.9499H137.09L141.47 11.5399Z" fill="#CBCDD2"/>
<path d="M162.57 30.9599C159.65 30.6499 157.71 29.3799 156.77 27.1499C155.83 24.9199 156.08 22.1499 157.51 18.8899C159.943 14.8299 163.727 12.9366 168.86 13.2099H176.99L176.73 14.1399L175.3 19.78L172.44 31.03H166.79L162.57 30.9599ZM169.64 19.78L170.11 17.8999H167.37C166.086 17.861 164.829 18.2752 163.82 19.0699C162.948 19.7782 162.305 20.7278 161.97 21.7999C161.363 24.5999 162.333 25.98 164.88 25.94H168.05L169.64 19.78Z" fill="#CBCDD2"/>
<path d="M196.84 13.1799L198.17 7.66992H203.9V7.72992V7.83994V8.01993L203.83 8.26993C203.83 8.36993 203.77 8.47992 203.74 8.60992C203.71 8.73992 203.68 8.87994 203.64 9.02994C203.6 9.17994 203.55 9.36992 203.5 9.56992C203.45 9.76992 203.39 9.99993 203.32 10.2399L203.12 11.0499C203.05 11.3399 202.97 11.6499 202.89 11.9899L202.6 13.0999H206.71L205.58 18.2699H201.41C201.402 18.2925 201.402 18.3174 201.41 18.3399C201.408 18.3832 201.408 18.4266 201.41 18.4699C201.41 18.5199 201.41 18.5899 201.41 18.6699C201.41 18.7499 201.41 18.8499 201.35 18.9599L201.25 19.3499L201.12 19.8599C201.12 20.0499 201.02 20.2699 200.96 20.5099C200.9 20.7499 200.84 21.0299 200.77 21.3199C200.7 21.6099 200.63 21.9499 200.54 22.3199C200.45 22.6899 200.36 23.0699 200.25 23.4899C200.14 23.9099 200.03 24.3599 199.9 24.8599C199.865 25.1436 199.941 25.4298 200.11 25.6599C200.198 25.774 200.312 25.8654 200.442 25.9263C200.573 25.9872 200.716 26.0158 200.86 26.0099H203.86L202.71 30.9399H198.79C198.067 30.965 197.349 30.811 196.7 30.4917C196.051 30.1725 195.491 29.6978 195.07 29.1099C194.62 28.5098 194.309 27.8171 194.161 27.0819C194.012 26.3468 194.029 25.5877 194.21 24.8599L195.93 17.7599H184.55C183.83 17.7599 183.42 17.9799 183.31 18.5399C183.27 18.7146 183.297 18.8977 183.383 19.0544C183.47 19.2112 183.611 19.3306 183.78 19.3899C184.247 19.5431 184.741 19.5975 185.23 19.5499L187.55 19.4799C189.72 19.5499 191.15 20.1599 191.86 21.3199C192.601 22.7411 192.8 24.383 192.42 25.9399C191.7 29.3999 189.317 31.0666 185.27 30.9399H174.92L175.92 26.0999H185.1C186.1 26.1799 186.66 25.8799 186.86 25.1899C186.86 24.4399 186.32 24.0899 185.17 24.1899H182.59C181.822 24.2221 181.057 24.0846 180.348 23.7873C179.64 23.49 179.005 23.0402 178.49 22.4699C178.002 21.8193 177.669 21.0657 177.516 20.2668C177.364 19.4678 177.396 18.6446 177.61 17.8599C178.65 14.4733 181.257 12.8999 185.43 13.1399H196.85L196.84 13.1799Z" fill="#CBCDD2"/>
<path d="M134.74 39.3301H40.45V40.5901H134.74V39.3301Z" fill="#CBCDD2"/>
<mask id="mask0_445_2377" style="mask-type:luminance" maskUnits="userSpaceOnUse" x="40" y="39" width="95" height="2">
<path d="M134.74 39.3398H40.45V40.5999H134.74V39.3398Z" fill="white"/>
</mask>
<g mask="url(#mask0_445_2377)">
<path d="M40.9399 39.3301H40.45V40.5901H40.9399V39.3301Z" fill="#CBCDD2"/>
<path d="M41.4299 39.3301H40.9399V40.5901H41.4299V39.3301Z" fill="#CBCDD2"/>
<path d="M41.9199 39.3301H41.4299V40.5901H41.9199V39.3301Z" fill="#CBCDD2"/>
<path d="M42.4099 39.3301H41.9199V40.5901H42.4099V39.3301Z" fill="#CBCDD2"/>
<path d="M42.8899 39.3301H42.3999V40.5901H42.8899V39.3301Z" fill="#CBCDD2"/>
<path d="M43.3799 39.3301H42.8899V40.5901H43.3799V39.3301Z" fill="#CBCDD2"/>
<path d="M43.87 39.3301H43.38V40.5901H43.87V39.3301Z" fill="#CBCDD2"/>
<path d="M44.36 39.3301H43.87V40.5901H44.36V39.3301Z" fill="#CBCDD2"/>
<path d="M44.85 39.3301H44.36V40.5901H44.85V39.3301Z" fill="#CBCDD2"/>
<path d="M45.34 39.3301H44.85V40.5901H45.34V39.3301Z" fill="#CBCDD2"/>
<path d="M45.83 39.3301H45.34V40.5901H45.83V39.3301Z" fill="#CBCDD2"/>
<path d="M46.3099 39.3301H45.8199V40.5901H46.3099V39.3301Z" fill="#CBCDD2"/>
<path d="M46.7999 39.3301H46.3099V40.5901H46.7999V39.3301Z" fill="#CBCDD2"/>
<path d="M47.2899 39.3301H46.7999V40.5901H47.2899V39.3301Z" fill="#CBCDD2"/>
<path d="M47.7799 39.3301H47.2899V40.5901H47.7799V39.3301Z" fill="#CBCDD2"/>
<path d="M48.2699 39.3301H47.7799V40.5901H48.2699V39.3301Z" fill="#CBCDD2"/>
<path d="M48.7599 39.3301H48.2699V40.5901H48.7599V39.3301Z" fill="#CBCDD2"/>
<path d="M49.25 39.3301H48.76V40.5901H49.25V39.3301Z" fill="#CBCDD2"/>
<path d="M49.73 39.3301H49.24V40.5901H49.73V39.3301Z" fill="#CBCDD2"/>
<path d="M50.22 39.3301H49.73V40.5901H50.22V39.3301Z" fill="#CBCDD2"/>
<path d="M50.71 39.3301H50.22V40.5901H50.71V39.3301Z" fill="#CBCDD2"/>
<path d="M51.2 39.3301H50.71V40.5901H51.2V39.3301Z" fill="#CBCDD2"/>
<path d="M51.6899 39.3301H51.2V40.5901H51.6899V39.3301Z" fill="#CBCDD2"/>
<path d="M52.1799 39.3301H51.6899V40.5901H52.1799V39.3301Z" fill="#CBCDD2"/>
<path d="M52.6699 39.3301H52.1799V40.5901H52.6699V39.3301Z" fill="#CBCDD2"/>
<path d="M53.1499 39.3301H52.6599V40.5901H53.1499V39.3301Z" fill="#CBCDD2"/>
<path d="M53.6399 39.3301H53.1499V40.5901H53.6399V39.3301Z" fill="#CBCDD2"/>
<path d="M54.1299 39.3301H53.6399V40.5901H54.1299V39.3301Z" fill="#CBCDD2"/>
<path d="M54.62 39.3301H54.13V40.5901H54.62V39.3301Z" fill="#CBCDD2"/>
<path d="M55.11 39.3301H54.62V40.5901H55.11V39.3301Z" fill="#CBCDD2"/>
<path d="M55.6 39.3301H55.11V40.5901H55.6V39.3301Z" fill="#CBCDD2"/>
<path d="M56.09 39.3301H55.6V40.5901H56.09V39.3301Z" fill="#CBCDD2"/>
<path d="M56.57 39.3301H56.08V40.5901H56.57V39.3301Z" fill="#CBCDD2"/>
<path d="M57.0599 39.3301H56.5699V40.5901H57.0599V39.3301Z" fill="#CBCDD2"/>
<path d="M57.5499 39.3301H57.0599V40.5901H57.5499V39.3301Z" fill="#CBCDD2"/>
<path d="M58.0399 39.3301H57.5499V40.5901H58.0399V39.3301Z" fill="#CBCDD2"/>
<path d="M58.5299 39.3301H58.0399V40.5901H58.5299V39.3301Z" fill="#CBCDD2"/>
<path d="M59.0199 39.3301H58.5299V40.5901H59.0199V39.3301Z" fill="#CBCDD2"/>
<path d="M59.5099 39.3301H59.0199V40.5901H59.5099V39.3301Z" fill="#CBCDD2"/>
<path d="M59.99 39.3301H59.5V40.5901H59.99V39.3301Z" fill="#CBCDD2"/>
<path d="M60.48 39.3301H59.99V40.5901H60.48V39.3301Z" fill="#CBCDD2"/>
<path d="M60.97 39.3301H60.48V40.5901H60.97V39.3301Z" fill="#CBCDD2"/>
<path d="M61.46 39.3301H60.97V40.5901H61.46V39.3301Z" fill="#CBCDD2"/>
<path d="M61.95 39.3301H61.46V40.5901H61.95V39.3301Z" fill="#CBCDD2"/>
<path d="M62.4399 39.3301H61.95V40.5901H62.4399V39.3301Z" fill="#CBCDD2"/>
<path d="M62.9299 39.3301H62.4399V40.5901H62.9299V39.3301Z" fill="#CBCDD2"/>
<path d="M63.4099 39.3301H62.9199V40.5901H63.4099V39.3301Z" fill="#CBCDD2"/>
<path d="M63.8999 39.3301H63.4099V40.5901H63.8999V39.3301Z" fill="#CBCDD2"/>
<path d="M64.3899 39.3301H63.8999V40.5901H64.3899V39.3301Z" fill="#CBCDD2"/>
<path d="M64.8799 39.3301H64.3899V40.5901H64.8799V39.3301Z" fill="#CBCDD2"/>
<path d="M65.37 39.3301H64.88V40.5901H65.37V39.3301Z" fill="#CBCDD2"/>
<path d="M65.86 39.3301H65.37V40.5901H65.86V39.3301Z" fill="#CBCDD2"/>
<path d="M66.35 39.3301H65.86V40.5901H66.35V39.3301Z" fill="#CBCDD2"/>
<path d="M66.83 39.3301H66.34V40.5901H66.83V39.3301Z" fill="#CBCDD2"/>
<path d="M67.32 39.3301H66.83V40.5901H67.32V39.3301Z" fill="#CBCDD2"/>
<path d="M67.8099 39.3301H67.3199V40.5901H67.8099V39.3301Z" fill="#CBCDD2"/>
<path d="M68.2999 39.3301H67.8099V40.5901H68.2999V39.3301Z" fill="#CBCDD2"/>
<path d="M68.7899 39.3301H68.2999V40.5901H68.7899V39.3301Z" fill="#CBCDD2"/>
<path d="M69.2799 39.3301H68.7899V40.5901H69.2799V39.3301Z" fill="#CBCDD2"/>
<path d="M69.7699 39.3301H69.2799V40.5901H69.7699V39.3301Z" fill="#CBCDD2"/>
<path d="M70.25 39.3301H69.76V40.5901H70.25V39.3301Z" fill="#CBCDD2"/>
<path d="M70.74 39.3301H70.25V40.5901H70.74V39.3301Z" fill="#CBCDD2"/>
<path d="M71.23 39.3301H70.74V40.5901H71.23V39.3301Z" fill="#CBCDD2"/>
<path d="M71.72 39.3301H71.23V40.5901H71.72V39.3301Z" fill="#CBCDD2"/>
<path d="M72.21 39.3301H71.72V40.5901H72.21V39.3301Z" fill="#CBCDD2"/>
<path d="M72.7 39.3301H72.21V40.5901H72.7V39.3301Z" fill="#CBCDD2"/>
<path d="M73.19 39.3301H72.7V40.5901H73.19V39.3301Z" fill="#CBCDD2"/>
<path d="M73.6699 39.3301H73.1799V40.5901H73.6699V39.3301Z" fill="#CBCDD2"/>
<path d="M74.1599 39.3301H73.6699V40.5901H74.1599V39.3301Z" fill="#CBCDD2"/>
<path d="M74.6499 39.3301H74.1599V40.5901H74.6499V39.3301Z" fill="#CBCDD2"/>
<path d="M75.1399 39.3301H74.6499V40.5901H75.1399V39.3301Z" fill="#CBCDD2"/>
<path d="M75.6299 39.3301H75.1399V40.5901H75.6299V39.3301Z" fill="#CBCDD2"/>
<path d="M76.12 39.3301H75.63V40.5901H76.12V39.3301Z" fill="#CBCDD2"/>
<path d="M76.61 39.3301H76.12V40.5901H76.61V39.3301Z" fill="#CBCDD2"/>
<path d="M77.09 39.3301H76.6V40.5901H77.09V39.3301Z" fill="#CBCDD2"/>
<path d="M77.58 39.3301H77.09V40.5901H77.58V39.3301Z" fill="#CBCDD2"/>
<path d="M78.07 39.3301H77.58V40.5901H78.07V39.3301Z" fill="#CBCDD2"/>
<path d="M78.5599 39.3301H78.0699V40.5901H78.5599V39.3301Z" fill="#CBCDD2"/>
<path d="M79.0499 39.3301H78.5599V40.5901H79.0499V39.3301Z" fill="#CBCDD2"/>
<path d="M79.5399 39.3301H79.0499V40.5901H79.5399V39.3301Z" fill="#CBCDD2"/>
<path d="M80.0299 39.3301H79.5399V40.5901H80.0299V39.3301Z" fill="#CBCDD2"/>
<path d="M80.5099 39.3301H80.0199V40.5901H80.5099V39.3301Z" fill="#CBCDD2"/>
<path d="M81 39.3301H80.51V40.5901H81V39.3301Z" fill="#CBCDD2"/>
<path d="M81.49 39.3301H81V40.5901H81.49V39.3301Z" fill="#CBCDD2"/>
<path d="M81.98 39.3301H81.49V40.5901H81.98V39.3301Z" fill="#CBCDD2"/>
<path d="M82.47 39.3301H81.98V40.5901H82.47V39.3301Z" fill="#CBCDD2"/>
<path d="M82.96 39.3301H82.47V40.5901H82.96V39.3301Z" fill="#CBCDD2"/>
<path d="M83.45 39.3301H82.96V40.5901H83.45V39.3301Z" fill="#CBCDD2"/>
<path d="M83.9299 39.3301H83.4399V40.5901H83.9299V39.3301Z" fill="#CBCDD2"/>
<path d="M84.4199 39.3301H83.9299V40.5901H84.4199V39.3301Z" fill="#CBCDD2"/>
<path d="M84.9099 39.3301H84.4199V40.5901H84.9099V39.3301Z" fill="#CBCDD2"/>
<path d="M85.3999 39.3301H84.9099V40.5901H85.3999V39.3301Z" fill="#CBCDD2"/>
<path d="M85.8899 39.3301H85.3999V40.5901H85.8899V39.3301Z" fill="#CBCDD2"/>
<path d="M86.3799 39.3301H85.8899V40.5901H86.3799V39.3301Z" fill="#CBCDD2"/>
<path d="M86.87 39.3301H86.38V40.5901H86.87V39.3301Z" fill="#CBCDD2"/>
<path d="M87.35 39.3301H86.86V40.5901H87.35V39.3301Z" fill="#CBCDD2"/>
<path d="M87.84 39.3301H87.35V40.5901H87.84V39.3301Z" fill="#CBCDD2"/>
<path d="M88.33 39.3301H87.84V40.5901H88.33V39.3301Z" fill="#CBCDD2"/>
<path d="M88.82 39.3301H88.33V40.5901H88.82V39.3301Z" fill="#CBCDD2"/>
<path d="M89.3099 39.3301H88.8199V40.5901H89.3099V39.3301Z" fill="#CBCDD2"/>
<path d="M89.7999 39.3301H89.3099V40.5901H89.7999V39.3301Z" fill="#CBCDD2"/>
<path d="M90.2899 39.3301H89.7999V40.5901H90.2899V39.3301Z" fill="#CBCDD2"/>
<path d="M90.7699 39.3301H90.2799V40.5901H90.7699V39.3301Z" fill="#CBCDD2"/>
<path d="M91.2599 39.3301H90.7699V40.5901H91.2599V39.3301Z" fill="#CBCDD2"/>
<path d="M91.75 39.3301H91.26V40.5901H91.75V39.3301Z" fill="#CBCDD2"/>
<path d="M92.24 39.3301H91.75V40.5901H92.24V39.3301Z" fill="#CBCDD2"/>
<path d="M92.73 39.3301H92.24V40.5901H92.73V39.3301Z" fill="#CBCDD2"/>
<path d="M93.22 39.3301H92.73V40.5901H93.22V39.3301Z" fill="#CBCDD2"/>
<path d="M93.71 39.3301H93.22V40.5901H93.71V39.3301Z" fill="#CBCDD2"/>
<path d="M94.19 39.3301H93.7V40.5901H94.19V39.3301Z" fill="#CBCDD2"/>
<path d="M94.6799 39.3301H94.1899V40.5901H94.6799V39.3301Z" fill="#CBCDD2"/>
<path d="M95.1699 39.3301H94.6799V40.5901H95.1699V39.3301Z" fill="#CBCDD2"/>
<path d="M95.6599 39.3301H95.1699V40.5901H95.6599V39.3301Z" fill="#CBCDD2"/>
<path d="M96.1499 39.3301H95.6599V40.5901H96.1499V39.3301Z" fill="#CBCDD2"/>
<path d="M96.6399 39.3301H96.1499V40.5901H96.6399V39.3301Z" fill="#CBCDD2"/>
<path d="M97.1299 39.3301H96.6399V40.5901H97.1299V39.3301Z" fill="#CBCDD2"/>
<path d="M97.61 39.3301H97.12V40.5901H97.61V39.3301Z" fill="#CBCDD2"/>
<path d="M98.1 39.3301H97.61V40.5901H98.1V39.3301Z" fill="#CBCDD2"/>
<path d="M98.59 39.3301H98.1V40.5901H98.59V39.3301Z" fill="#CBCDD2"/>
<path d="M99.08 39.3301H98.59V40.5901H99.08V39.3301Z" fill="#CBCDD2"/>
<path d="M99.57 39.3301H99.08V40.5901H99.57V39.3301Z" fill="#CBCDD2"/>
<path d="M100.06 39.3301H99.5699V40.5901H100.06V39.3301Z" fill="#CBCDD2"/>
<path d="M100.54 39.3301H100.05V40.5901H100.54V39.3301Z" fill="#CBCDD2"/>
<path d="M101.03 39.3301H100.54V40.5901H101.03V39.3301Z" fill="#CBCDD2"/>
<path d="M101.52 39.3301H101.03V40.5901H101.52V39.3301Z" fill="#CBCDD2"/>
<path d="M102.01 39.3301H101.52V40.5901H102.01V39.3301Z" fill="#CBCDD2"/>
<path d="M102.5 39.3301H102.01V40.5901H102.5V39.3301Z" fill="#CBCDD2"/>
<path d="M102.99 39.3301H102.5V40.5901H102.99V39.3301Z" fill="#CBCDD2"/>
<path d="M103.48 39.3301H102.99V40.5901H103.48V39.3301Z" fill="#CBCDD2"/>
<path d="M103.96 39.3301H103.47V40.5901H103.96V39.3301Z" fill="#CBCDD2"/>
<path d="M104.45 39.3301H103.96V40.5901H104.45V39.3301Z" fill="#CBCDD2"/>
<path d="M104.94 39.3301H104.45V40.5901H104.94V39.3301Z" fill="#CBCDD2"/>
<path d="M105.43 39.3301H104.94V40.5901H105.43V39.3301Z" fill="#CBCDD2"/>
<path d="M105.92 39.3301H105.43V40.5901H105.92V39.3301Z" fill="#CBCDD2"/>
<path d="M106.41 39.3301H105.92V40.5901H106.41V39.3301Z" fill="#CBCDD2"/>
<path d="M106.9 39.3301H106.41V40.5901H106.9V39.3301Z" fill="#CBCDD2"/>
<path d="M107.38 39.3301H106.89V40.5901H107.38V39.3301Z" fill="#CBCDD2"/>
<path d="M107.87 39.3301H107.38V40.5901H107.87V39.3301Z" fill="#CBCDD2"/>
<path d="M108.36 39.3301H107.87V40.5901H108.36V39.3301Z" fill="#CBCDD2"/>
<path d="M108.85 39.3301H108.36V40.5901H108.85V39.3301Z" fill="#CBCDD2"/>
<path d="M109.34 39.3301H108.85V40.5901H109.34V39.3301Z" fill="#CBCDD2"/>
<path d="M109.83 39.3301H109.34V40.5901H109.83V39.3301Z" fill="#CBCDD2"/>
<path d="M110.32 39.3301H109.83V40.5901H110.32V39.3301Z" fill="#CBCDD2"/>
<path d="M110.8 39.3301H110.31V40.5901H110.8V39.3301Z" fill="#CBCDD2"/>
<path d="M111.29 39.3301H110.8V40.5901H111.29V39.3301Z" fill="#CBCDD2"/>
<path d="M111.78 39.3301H111.29V40.5901H111.78V39.3301Z" fill="#CBCDD2"/>
<path d="M112.27 39.3301H111.78V40.5901H112.27V39.3301Z" fill="#CBCDD2"/>
<path d="M112.76 39.3301H112.27V40.5901H112.76V39.3301Z" fill="#CBCDD2"/>
<path d="M113.25 39.3301H112.76V40.5901H113.25V39.3301Z" fill="#CBCDD2"/>
<path d="M113.74 39.3301H113.25V40.5901H113.74V39.3301Z" fill="#CBCDD2"/>
<path d="M114.22 39.3301H113.73V40.5901H114.22V39.3301Z" fill="#CBCDD2"/>
<path d="M114.71 39.3301H114.22V40.5901H114.71V39.3301Z" fill="#CBCDD2"/>
<path d="M115.2 39.3301H114.71V40.5901H115.2V39.3301Z" fill="#CBCDD2"/>
<path d="M115.69 39.3301H115.2V40.5901H115.69V39.3301Z" fill="#CBCDD2"/>
<path d="M116.18 39.3301H115.69V40.5901H116.18V39.3301Z" fill="#CBCDD2"/>
<path d="M116.67 39.3301H116.18V40.5901H116.67V39.3301Z" fill="#CBCDD2"/>
<path d="M117.16 39.3301H116.67V40.5901H117.16V39.3301Z" fill="#CBCDD2"/>
<path d="M117.64 39.3301H117.15V40.5901H117.64V39.3301Z" fill="#CBCDD2"/>
<path d="M118.13 39.3301H117.64V40.5901H118.13V39.3301Z" fill="#CBCDD2"/>
<path d="M118.62 39.3301H118.13V40.5901H118.62V39.3301Z" fill="#CBCDD2"/>
<path d="M119.11 39.3301H118.62V40.5901H119.11V39.3301Z" fill="#CBCDD2"/>
<path d="M119.6 39.3301H119.11V40.5901H119.6V39.3301Z" fill="#CBCDD2"/>
<path d="M120.09 39.3301H119.6V40.5901H120.09V39.3301Z" fill="#CBCDD2"/>
<path d="M120.58 39.3301H120.09V40.5901H120.58V39.3301Z" fill="#CBCDD2"/>
<path d="M121.06 39.3301H120.57V40.5901H121.06V39.3301Z" fill="#CBCDD2"/>
<path d="M121.55 39.3301H121.06V40.5901H121.55V39.3301Z" fill="#CBCDD2"/>
<path d="M122.04 39.3301H121.55V40.5901H122.04V39.3301Z" fill="#CBCDD2"/>
<path d="M122.53 39.3301H122.04V40.5901H122.53V39.3301Z" fill="#CBCDD2"/>
<path d="M123.02 39.3301H122.53V40.5901H123.02V39.3301Z" fill="#CBCDD2"/>
<path d="M123.51 39.3301H123.02V40.5901H123.51V39.3301Z" fill="#CBCDD2"/>
<path d="M124 39.3301H123.51V40.5901H124V39.3301Z" fill="#CBCDD2"/>
<path d="M124.48 39.3301H123.99V40.5901H124.48V39.3301Z" fill="#CBCDD2"/>
<path d="M124.97 39.3301H124.48V40.5901H124.97V39.3301Z" fill="#CBCDD2"/>
<path d="M125.46 39.3301H124.97V40.5901H125.46V39.3301Z" fill="#CBCDD2"/>
<path d="M125.95 39.3301H125.46V40.5901H125.95V39.3301Z" fill="#CBCDD2"/>
<path d="M126.44 39.3301H125.95V40.5901H126.44V39.3301Z" fill="#CBCDD2"/>
<path d="M126.93 39.3301H126.44V40.5901H126.93V39.3301Z" fill="#CBCDD2"/>
<path d="M127.42 39.3301H126.93V40.5901H127.42V39.3301Z" fill="#CBCDD2"/>
<path d="M127.9 39.3301H127.41V40.5901H127.9V39.3301Z" fill="#CBCDD2"/>
<path d="M128.39 39.3301H127.9V40.5901H128.39V39.3301Z" fill="#CBCDD2"/>
<path d="M128.88 39.3301H128.39V40.5901H128.88V39.3301Z" fill="#CBCDD2"/>
<path d="M129.37 39.3301H128.88V40.5901H129.37V39.3301Z" fill="#CBCDD2"/>
<path d="M129.86 39.3301H129.37V40.5901H129.86V39.3301Z" fill="#CBCDD2"/>
<path d="M130.35 39.3301H129.86V40.5901H130.35V39.3301Z" fill="#CBCDD2"/>
<path d="M130.84 39.3301H130.35V40.5901H130.84V39.3301Z" fill="#CBCDD2"/>
<path d="M131.32 39.3301H130.83V40.5901H131.32V39.3301Z" fill="#CBCDD2"/>
<path d="M131.81 39.3301H131.32V40.5901H131.81V39.3301Z" fill="#CBCDD2"/>
<path d="M132.3 39.3301H131.81V40.5901H132.3V39.3301Z" fill="#CBCDD2"/>
<path d="M132.79 39.3301H132.3V40.5901H132.79V39.3301Z" fill="#CBCDD2"/>
<path d="M133.28 39.3301H132.79V40.5901H133.28V39.3301Z" fill="#CBCDD2"/>
<path d="M133.77 39.3301H133.28V40.5901H133.77V39.3301Z" fill="#CBCDD2"/>
<path d="M134.26 39.3301H133.77V40.5901H134.26V39.3301Z" fill="#CBCDD2"/>
<path d="M134.74 39.3301H134.25V40.5901H134.74V39.3301Z" fill="#CBCDD2"/>
</g>
</svg>
