<svg width="207" height="44" viewBox="0 0 207 44" fill="none" xmlns="http://www.w3.org/2000/svg">
<path d="M15.12 13.59L10.79 16.28C10.79 16.28 4.05 7.52002 0 5.21002L47.25 0.580078C47.25 0.580078 11.65 5.58008 8.85999 7.33008L15.12 13.59Z" fill="#4E4E4F"/>
<path d="M50.1301 0.580078C50.1301 0.580078 34.1301 4.85004 22.3501 27.79L17.7701 17.6801L13.92 20.5701C13.92 20.5701 21.1401 33.7201 21.5901 40.5701C21.5901 40.5901 31.4701 12.0001 50.1301 0.580078Z" fill="#34A487"/>
<path d="M2.79004 26.9501C2.79004 26.9501 15 11.87 43.22 2.27002C28.3882 8.03767 14.6989 16.3942 2.79004 26.9501Z" fill="#4E4E4F"/>
<path d="M145.39 36.8C145.123 36.3256 144.721 35.9416 144.235 35.6975C143.748 35.4534 143.2 35.3603 142.66 35.4301C141.584 35.3972 140.529 35.7245 139.66 36.36C139.129 36.7938 138.699 37.3377 138.398 37.954C138.098 38.5704 137.935 39.2446 137.92 39.93C137.897 40.3104 137.965 40.6908 138.12 41.0389C138.275 41.3871 138.512 41.6928 138.81 41.93C139.44 42.3727 140.201 42.591 140.97 42.55C141.598 42.5625 142.222 42.4445 142.802 42.2035C143.382 41.9626 143.906 41.6038 144.34 41.15L144.94 41.59C144.412 42.1442 143.775 42.5838 143.07 42.8815C142.365 43.1791 141.606 43.3284 140.84 43.3201C140.272 43.3687 139.7 43.2888 139.167 43.0862C138.633 42.8837 138.153 42.5637 137.76 42.15C137.295 41.5893 137.05 40.8784 137.07 40.15C137.08 39.3198 137.274 38.5021 137.637 37.7553C138 37.0085 138.524 36.3512 139.17 35.8301C140.211 35.0363 141.492 34.6233 142.8 34.66C143.466 34.5828 144.141 34.7027 144.74 35.0048C145.339 35.307 145.836 35.7782 146.17 36.36L145.39 36.8Z" fill="#4E4E4F"/>
<path d="M155.41 42.5C155.022 42.8479 154.566 43.1102 154.07 43.27C153.647 43.3657 153.213 43.4061 152.78 43.39C152.084 43.4245 151.399 43.2159 150.84 42.8C150.574 42.5823 150.364 42.3047 150.227 41.9901C150.09 41.6754 150.029 41.3327 150.05 40.99C150.059 40.3908 150.197 39.8006 150.456 39.2602C150.715 38.7198 151.088 38.2421 151.55 37.86C152.293 37.2758 153.215 36.9682 154.16 36.99C154.859 36.9532 155.549 37.1619 156.11 37.58C156.373 37.7998 156.581 38.0777 156.718 38.3919C156.855 38.706 156.918 39.0477 156.9 39.39C156.898 39.6591 156.868 39.9272 156.81 40.19C156.632 41.1016 156.136 41.9202 155.41 42.5ZM155.7 38.41C155.515 38.1409 155.248 37.9378 154.94 37.83C154.613 37.7497 154.276 37.7193 153.94 37.74C153.231 37.728 152.541 37.9675 151.992 38.416C151.442 38.8644 151.07 39.493 150.94 40.19C150.894 40.3969 150.871 40.6081 150.87 40.82C150.853 41.0773 150.898 41.3349 151 41.5714C151.103 41.808 151.26 42.0166 151.46 42.18C151.875 42.5056 152.394 42.6691 152.92 42.64C153.645 42.659 154.353 42.4217 154.92 41.97C155.473 41.5213 155.849 40.8904 155.98 40.19C156.029 39.9768 156.056 39.7589 156.06 39.54C156.074 39.133 155.947 38.7337 155.7 38.41Z" fill="#4E4E4F"/>
<path d="M165.94 43.2601L166.08 42.6001C165.425 43.1297 164.602 43.4097 163.76 43.3901C163.218 43.4142 162.68 43.2823 162.21 43.0101C161.983 42.8687 161.798 42.6687 161.675 42.4312C161.552 42.1936 161.495 41.9272 161.51 41.6601C161.512 41.4653 161.532 41.2711 161.57 41.0801L162.41 37.1401H163.23L162.39 41.0701C162.36 41.2149 162.343 41.3622 162.34 41.5101C162.34 42.2601 162.87 42.6401 163.91 42.6401C164.54 42.6631 165.156 42.453 165.64 42.0501C166.11 41.628 166.427 41.0617 166.54 40.4401L167.24 37.1401H168.07L166.76 43.2601H165.94Z" fill="#4E4E4F"/>
<path d="M173.46 40.7998L172.94 43.2798H172.11L173.41 37.1598H174.24L174.07 37.9898C174.86 37.3017 175.884 36.9437 176.93 36.9898L176.78 37.7398C175 37.7398 173.9 38.7998 173.46 40.7998Z" fill="#4E4E4F"/>
<path d="M180.53 43.2499L181.85 36.9899H182.68L181.35 43.2499H180.53ZM182.42 36.1699C182.24 36.1699 182.13 36.0699 182.09 35.8599L182.29 34.9599C182.333 34.8747 182.397 34.8017 182.475 34.7475C182.554 34.6933 182.645 34.6598 182.74 34.6499C182.88 34.6499 183 34.7399 183.12 34.9199L182.92 35.9199C182.789 36.0607 182.611 36.1494 182.42 36.1699Z" fill="#4E4E4F"/>
<path d="M187.66 40.5101C187.651 40.66 187.651 40.8102 187.66 40.9601C187.66 42.0801 188.32 42.6401 189.66 42.6401C190.188 42.6647 190.713 42.5434 191.177 42.2894C191.641 42.0353 192.026 41.6585 192.29 41.2001H193.14C192.81 41.8828 192.288 42.4539 191.638 42.8431C190.987 43.2323 190.237 43.4225 189.48 43.3901C188.808 43.4304 188.143 43.2437 187.59 42.8601C187.332 42.6556 187.129 42.3908 186.998 42.089C186.867 41.7873 186.813 41.4579 186.84 41.1301C186.845 40.8205 186.882 40.5121 186.95 40.2101C187.128 39.2952 187.619 38.4711 188.34 37.8801C189.059 37.2869 189.968 36.9712 190.9 36.9901C191.572 36.9573 192.238 37.1394 192.8 37.5101C193.067 37.7071 193.281 37.9674 193.422 38.2677C193.564 38.568 193.628 38.8987 193.61 39.2301C193.611 39.4823 193.584 39.7338 193.53 39.9801L193.43 40.4901L187.66 40.5101ZM190.71 37.7401C190.076 37.7281 189.454 37.9133 188.93 38.2701C188.412 38.6502 188.03 39.1866 187.84 39.8001H192.64C192.64 39.6901 192.64 39.5801 192.64 39.4701C192.653 39.2279 192.608 38.9861 192.511 38.7639C192.414 38.5417 192.266 38.3453 192.08 38.1901C191.686 37.8925 191.204 37.7342 190.71 37.7401Z" fill="#4E4E4F"/>
<path d="M199.02 40.8L198.5 43.28H197.67L198.97 37.16H199.8L199.62 37.99C200.414 37.3031 201.441 36.9455 202.49 36.99L202.34 37.74C200.56 37.74 199.46 38.8 199.02 40.8Z" fill="#4E4E4F"/>
<path d="M51.0401 13.0101C50.8866 13.0082 50.7375 13.0614 50.62 13.1601C50.5079 13.2469 50.4243 13.3654 50.3801 13.5001V13.6301C50.3801 13.6301 50.38 13.7701 50.33 13.8801C50.28 13.9901 50.28 14.1301 50.24 14.2901L50.09 14.9001L49.8801 15.7501C49.8592 15.8511 49.8609 15.9555 49.8851 16.0558C49.9093 16.1561 49.9554 16.2497 50.02 16.3301C50.0785 16.4068 50.1543 16.4685 50.2412 16.5102C50.3281 16.5519 50.4237 16.5725 50.52 16.5701H59C59.727 16.5486 60.4483 16.7029 61.1029 17.0197C61.7575 17.3366 62.326 17.8067 62.7601 18.3901C63.2169 18.9749 63.5322 19.6574 63.6814 20.3843C63.8306 21.1112 63.8096 21.8627 63.62 22.5801C63.6257 22.6166 63.6257 22.6537 63.62 22.6901C63.6089 22.7679 63.5922 22.8447 63.5701 22.9201C63.5701 23.0201 63.5201 23.1401 63.4801 23.2901C63.4401 23.4401 63.39 23.6301 63.34 23.8601C63.29 24.0901 63.22 24.3501 63.15 24.6501C63.08 24.9501 62.9801 25.3001 62.8801 25.6501C62.7801 26.0001 62.68 26.4901 62.56 26.9901C62.2841 28.0929 61.6469 29.0715 60.75 29.7701C59.8579 30.486 58.7438 30.868 57.6001 30.8501H40.45C40.4467 30.8302 40.4467 30.81 40.45 30.7901C40.45 30.7901 40.45 30.7201 40.45 30.6501C40.45 30.5801 40.45 30.5001 40.52 30.3801L40.64 29.9301L40.7901 29.2501C40.8501 28.9901 40.9201 28.6701 41.0101 28.2501L41.3201 26.9901C41.4301 26.5101 41.56 25.9901 41.7 25.3901H56.7C56.854 25.3932 57.0047 25.3447 57.1279 25.2523C57.2511 25.1598 57.3399 25.0288 57.3801 24.8801C57.3849 24.8403 57.3849 24.8 57.3801 24.7601C57.3801 24.7001 57.38 24.6201 57.44 24.5101C57.5 24.4001 57.5001 24.2601 57.5401 24.1001L57.69 23.4901C57.75 23.2401 57.8101 22.9601 57.8801 22.6301C57.9204 22.5398 57.9361 22.4404 57.9256 22.342C57.915 22.2437 57.8786 22.1499 57.8201 22.0701C57.7645 21.9897 57.6896 21.9246 57.6022 21.8809C57.5147 21.8372 57.4177 21.8163 57.3201 21.8201H48.84C48.1162 21.8418 47.3976 21.6907 46.7438 21.3794C46.0899 21.0681 45.5196 20.6056 45.08 20.0301C44.6163 19.445 44.2961 18.7595 44.1451 18.0284C43.994 17.2974 44.0162 16.5411 44.21 15.8201C44.2149 15.7803 44.2149 15.74 44.21 15.7001L44.28 15.4701L44.36 15.0901C44.36 14.9401 44.44 14.7501 44.5 14.5301C44.56 14.3101 44.62 14.0501 44.69 13.7401C44.76 13.4301 44.85 13.0801 44.95 12.7401C45.05 12.4001 45.1601 11.9001 45.2901 11.4001C46.2701 8.88009 47.9167 7.62012 50.2301 7.62012H67.37C67.3734 7.63998 67.3734 7.66026 67.37 7.68011V7.82013C67.37 7.88013 67.37 7.97009 67.31 8.09009C67.25 8.21009 67.24 8.35009 67.18 8.53009C67.12 8.71009 67.0701 8.93012 67.0101 9.19012C66.9501 9.45012 66.87 9.77013 66.77 10.1301C66.67 10.4901 66.57 10.9001 66.45 11.3701L66.0401 12.9601H51.0401V13.0101Z" fill="#4E4E4F"/>
<path d="M69.06 7.66992H74.79V7.72992C74.7871 7.76987 74.7871 7.80997 74.79 7.84991V8.0199L74.72 8.2699C74.72 8.3699 74.66 8.48992 74.63 8.60992C74.6 8.72992 74.57 8.87992 74.53 9.03992L74.3899 9.57996C74.3399 9.77996 74.28 10.0099 74.21 10.2499L74.01 11.0499C73.94 11.3399 73.87 11.6599 73.78 12.0499C73.69 12.4399 73.5999 12.7599 73.49 13.1599H77.6L76.34 18.3099H72.18C72.1787 18.3333 72.1787 18.3566 72.18 18.3799C72.184 18.4232 72.184 18.4667 72.18 18.5099C72.18 18.5699 72.18 18.6299 72.13 18.7099C72.08 18.7899 72.13 18.8899 72.07 18.9999C72.01 19.1099 72.02 19.24 71.98 19.39C71.94 19.54 71.89 19.7199 71.84 19.9099C71.79 20.0999 71.75 20.3199 71.69 20.5599C71.63 20.7999 71.57 21.0699 71.5 21.3699C71.43 21.6699 71.35 21.9899 71.26 22.3699C71.17 22.7499 71.08 23.1199 70.97 23.5399C70.86 23.9599 70.75 24.4199 70.63 24.9199C70.6087 25.0599 70.6155 25.2026 70.6498 25.34C70.6841 25.4773 70.7454 25.6064 70.8299 25.7199C70.9178 25.834 71.0318 25.9254 71.1623 25.9863C71.2929 26.0472 71.4361 26.0759 71.5799 26.0699H74.5799L73.34 30.9999H69.4199C68.6998 31.0235 67.9849 30.8699 67.338 30.5526C66.6911 30.2352 66.1321 29.7639 65.71 29.1799C65.2589 28.5803 64.9469 27.8879 64.7964 27.1529C64.6459 26.4178 64.6608 25.6585 64.84 24.9299L69.06 7.66992Z" fill="#4E4E4F"/>
<path d="M80.78 16.6799C82.966 14.4987 85.9032 13.2358 88.99 13.1499H93.24C93.9219 13.1249 94.6001 13.2602 95.2202 13.5451C95.8403 13.8299 96.3848 14.2563 96.81 14.7899C97.2433 15.3002 97.5453 15.9085 97.69 16.562C97.8346 17.2156 97.8175 17.8945 97.64 18.5399C97.55 18.8799 97.47 19.19 97.4 19.44L97.22 20.0899C97.22 20.2599 97.14 20.3999 97.1 20.5199C97.06 20.6399 97.04 20.7299 97.03 20.7899C97.0345 20.8331 97.0345 20.8767 97.03 20.9199C96.7822 21.9922 96.1621 22.9418 95.28 23.5999C94.3954 24.2636 93.3158 24.6153 92.21 24.5999H86.95C86.6166 24.5684 86.3009 24.4355 86.0452 24.2192C85.7896 24.0029 85.6063 23.7135 85.52 23.39C85.4225 23.0393 85.4024 22.6717 85.4611 22.3125C85.5198 21.9534 85.6559 21.6113 85.86 21.3099C86.1285 20.9275 86.4767 20.6078 86.8807 20.373C87.2847 20.1382 87.7348 19.9939 88.2 19.95H91.53L91.71 19.2299C91.76 19.0199 91.81 18.8499 91.85 18.7099C91.89 18.5699 91.92 18.4599 91.94 18.3599C91.96 18.2599 91.94 18.1999 92 18.1499C92.06 18.0999 92 18.0599 92 18.0399H88.41C87.2574 18.0203 86.1288 18.3708 85.19 19.0399C84.1989 19.8369 83.5164 20.9543 83.26 22.2C83.0596 23.181 83.2345 24.2015 83.75 25.0599C84.26 25.9299 85.26 26.3599 86.75 26.3599H95.65C95.52 26.8899 95.4 27.36 95.29 27.76C95.18 28.16 95.08 28.52 95 28.83C94.92 29.14 94.84 29.41 94.78 29.64C94.72 29.87 94.67 30.0699 94.62 30.2199C94.5797 30.348 94.5463 30.4782 94.52 30.6099C94.4943 30.685 94.4742 30.7619 94.46 30.8399V30.9599C94.4568 30.9764 94.4568 30.9935 94.46 31.01H84.23C81.82 31.01 80.08 30.4399 79.02 29.2799C77.9808 28.1554 77.4025 26.6811 77.4 25.1499C77.3471 23.5811 77.6201 22.0184 78.2019 20.5606C78.7837 19.1027 79.6616 17.7813 80.78 16.6799Z" fill="#4E4E4F"/>
<path d="M104.59 30.9299C101.663 30.6232 99.73 29.3566 98.79 27.1299C97.85 24.9099 98.09 22.1299 99.52 18.8699C101.96 14.7966 105.747 12.9032 110.88 13.1899H119.01L118.75 14.1099L117.34 19.7999L114.48 31.0499H108.79L104.59 30.9299ZM111.66 19.7999L112.13 17.9199H109.34C108.055 17.8872 106.8 18.3046 105.79 19.0999C104.921 19.8062 104.278 20.7519 103.94 21.8199C103.33 24.6199 104.29 25.9999 106.85 25.9699H110.02L111.66 19.7999Z" fill="#4E4E4F"/>
<path d="M136.41 24.6799H130.8L132.39 18.0099H128.87C126.37 18.0099 124.72 19.3866 123.92 22.14C123.699 23.1202 123.864 24.1479 124.38 25.0099C124.708 25.463 125.147 25.8236 125.655 26.0566C126.163 26.2897 126.723 26.3873 127.28 26.3399H136.02L134.81 30.9999H124.81C122.497 30.9999 120.83 30.4099 119.81 29.2299C118.764 28.0954 118.16 26.6225 118.11 25.08C118.105 21.9191 119.319 18.8782 121.5 16.5899C123.596 14.4012 126.471 13.1289 129.5 13.0499H133.67L135.09 7.66992H140.7L136.41 24.6799Z" fill="#4E4E4F"/>
<path d="M141.48 11.5299C142.367 8.95657 144.013 7.66992 146.42 7.66992H162.42L161.2 12.9999H147.4C147.256 13.0085 147.119 13.0647 147.01 13.1599C146.872 13.2664 146.771 13.4133 146.72 13.58L146.02 16.6599H155.43L154.28 21.9899H144.82L142.82 30.9899H137.11L141.48 11.5299Z" fill="#34A487"/>
<path d="M162.57 30.9299C159.65 30.6232 157.717 29.3566 156.77 27.1299C155.83 24.9099 156.08 22.1299 157.51 18.8699C159.943 14.7966 163.727 12.9032 168.86 13.1899H176.99L176.73 14.1099L175.34 19.7999L172.49 31.0499H166.79L162.57 30.9299ZM169.64 19.7999L170.11 17.9199H167.34C166.056 17.8889 164.8 18.3061 163.79 19.0999C162.924 19.809 162.281 20.7537 161.94 21.8199C161.327 24.6199 162.297 26.0032 164.85 25.9699H168.02L169.64 19.7999Z" fill="#34A487"/>
<path d="M196.84 13.1699L198.17 7.66992H203.9V7.72992C203.893 7.7696 203.893 7.81023 203.9 7.84991V8.0199L203.83 8.2699C203.83 8.3699 203.77 8.48992 203.74 8.60992C203.71 8.72992 203.68 8.87992 203.64 9.03992L203.5 9.57996C203.44 9.77996 203.39 10.0099 203.32 10.2499L203.12 11.0499L202.89 12.0499C202.8 12.3899 202.7 12.7599 202.6 13.1599H206.71L205.58 18.33H201.34C201.339 18.3533 201.339 18.3766 201.34 18.3999C201.344 18.4432 201.344 18.4866 201.34 18.5299C201.34 18.5899 201.34 18.6499 201.34 18.7299C201.34 18.8099 201.34 18.9099 201.28 19.0199C201.22 19.1299 201.22 19.2599 201.18 19.4099C201.14 19.5599 201.1 19.7399 201.05 19.9299C201 20.1199 200.95 20.34 200.9 20.58C200.85 20.82 200.77 21.09 200.7 21.39C200.63 21.69 200.56 22.01 200.47 22.39C200.38 22.77 200.29 23.1399 200.18 23.5599C200.07 23.9799 199.96 24.4399 199.83 24.9399C199.795 25.2236 199.87 25.5098 200.04 25.7399C200.128 25.854 200.242 25.9453 200.372 26.0062C200.503 26.0671 200.646 26.0958 200.79 26.0899H203.79L202.64 31.0099H198.72C197.998 31.0343 197.282 30.8811 196.633 30.5638C195.984 30.2464 195.424 29.7747 195 29.1899C194.55 28.5899 194.239 27.8971 194.091 27.1619C193.942 26.4268 193.959 25.6678 194.14 24.9399L195.86 17.83H184.55C183.83 17.83 183.42 18.0899 183.32 18.6099C183.277 18.7848 183.3 18.9693 183.385 19.128C183.47 19.2867 183.611 19.4085 183.78 19.4699C184.247 19.6232 184.741 19.6744 185.23 19.6199L187.55 19.5599C189.72 19.6199 191.16 20.24 191.86 21.39C192.599 22.8151 192.798 24.4596 192.42 26.0199C191.7 29.4799 189.317 31.1466 185.27 31.0199H174.92L175.92 26.1799H185.1C186.1 26.2599 186.66 25.9599 186.86 25.2799C186.86 24.5199 186.32 24.1799 185.17 24.2799H182.59C181.822 24.312 181.057 24.1746 180.348 23.8773C179.639 23.58 179.005 23.1302 178.49 22.5599C178.002 21.9071 177.67 21.1518 177.517 20.3514C177.365 19.5509 177.396 18.7263 177.61 17.9399C178.65 14.5533 181.257 12.9799 185.43 13.2199H196.84V13.1699Z" fill="#34A487"/>
<mask id="mask0_449_2133" style="mask-type:luminance" maskUnits="userSpaceOnUse" x="40" y="39" width="95" height="2">
<path d="M134.74 39.3301H40.45V40.59H134.74V39.3301Z" fill="white"/>
</mask>
<g mask="url(#mask0_449_2133)">
<path d="M40.9399 39.3301H40.45V40.5901H40.9399V39.3301Z" fill="#34A487"/>
<path d="M41.4299 39.3301H40.9399V40.5901H41.4299V39.3301Z" fill="#34A487"/>
<path d="M41.9199 39.3301H41.4299V40.5901H41.9199V39.3301Z" fill="#35A487"/>
<path d="M42.4099 39.3301H41.9199V40.5901H42.4099V39.3301Z" fill="#35A487"/>
<path d="M42.8899 39.3301H42.3999V40.5901H42.8899V39.3301Z" fill="#36A488"/>
<path d="M43.3799 39.3301H42.8899V40.5901H43.3799V39.3301Z" fill="#37A588"/>
<path d="M43.87 39.3301H43.38V40.5901H43.87V39.3301Z" fill="#37A588"/>
<path d="M44.36 39.3301H43.87V40.5901H44.36V39.3301Z" fill="#38A588"/>
<path d="M44.85 39.3301H44.36V40.5901H44.85V39.3301Z" fill="#39A588"/>
<path d="M45.34 39.3301H44.85V40.5901H45.34V39.3301Z" fill="#3AA588"/>
<path d="M45.83 39.3301H45.34V40.5901H45.83V39.3301Z" fill="#3BA589"/>
<path d="M46.3099 39.3301H45.8199V40.5901H46.3099V39.3301Z" fill="#3BA589"/>
<path d="M46.7999 39.3301H46.3099V40.5901H46.7999V39.3301Z" fill="#3CA689"/>
<path d="M47.2899 39.3301H46.7999V40.5901H47.2899V39.3301Z" fill="#3DA689"/>
<path d="M47.7799 39.3301H47.2899V40.5901H47.7799V39.3301Z" fill="#3EA68A"/>
<path d="M48.2699 39.3301H47.7799V40.5901H48.2699V39.3301Z" fill="#3FA68A"/>
<path d="M48.7599 39.3301H48.2699V40.5901H48.7599V39.3301Z" fill="#40A68A"/>
<path d="M49.25 39.3301H48.76V40.5901H49.25V39.3301Z" fill="#41A68A"/>
<path d="M49.73 39.3301H49.24V40.5901H49.73V39.3301Z" fill="#42A78B"/>
<path d="M50.22 39.3301H49.73V40.5901H50.22V39.3301Z" fill="#43A78B"/>
<path d="M50.71 39.3301H50.22V40.5901H50.71V39.3301Z" fill="#43A78B"/>
<path d="M51.2 39.3301H50.71V40.5901H51.2V39.3301Z" fill="#44A78C"/>
<path d="M51.6899 39.3301H51.2V40.5901H51.6899V39.3301Z" fill="#45A78C"/>
<path d="M52.1799 39.3301H51.6899V40.5901H52.1799V39.3301Z" fill="#46A88C"/>
<path d="M52.6699 39.3301H52.1799V40.5901H52.6699V39.3301Z" fill="#47A88C"/>
<path d="M53.1499 39.3301H52.6599V40.5901H53.1499V39.3301Z" fill="#48A88D"/>
<path d="M53.6399 39.3301H53.1499V40.5901H53.6399V39.3301Z" fill="#49A88D"/>
<path d="M54.1299 39.3301H53.6399V40.5901H54.1299V39.3301Z" fill="#4AA98D"/>
<path d="M54.62 39.3301H54.13V40.5901H54.62V39.3301Z" fill="#4BA98E"/>
<path d="M55.11 39.3301H54.62V40.5901H55.11V39.3301Z" fill="#4CA98E"/>
<path d="M55.6 39.3301H55.11V40.5901H55.6V39.3301Z" fill="#4DA98E"/>
<path d="M56.09 39.3301H55.6V40.5901H56.09V39.3301Z" fill="#4EAA8F"/>
<path d="M56.57 39.3301H56.08V40.5901H56.57V39.3301Z" fill="#4FAA8F"/>
<path d="M57.0599 39.3301H56.5699V40.5901H57.0599V39.3301Z" fill="#4FAA8F"/>
<path d="M57.5499 39.3301H57.0599V40.5901H57.5499V39.3301Z" fill="#50AA90"/>
<path d="M58.0399 39.3301H57.5499V40.5901H58.0399V39.3301Z" fill="#51AB90"/>
<path d="M58.5299 39.3301H58.0399V40.5901H58.5299V39.3301Z" fill="#52AB90"/>
<path d="M59.0199 39.3301H58.5299V40.5901H59.0199V39.3301Z" fill="#53AB91"/>
<path d="M59.5099 39.3301H59.0199V40.5901H59.5099V39.3301Z" fill="#54AB91"/>
<path d="M59.99 39.3301H59.5V40.5901H59.99V39.3301Z" fill="#55AC92"/>
<path d="M60.48 39.3301H59.99V40.5901H60.48V39.3301Z" fill="#56AC92"/>
<path d="M60.97 39.3301H60.48V40.5901H60.97V39.3301Z" fill="#57AC92"/>
<path d="M61.46 39.3301H60.97V40.5901H61.46V39.3301Z" fill="#58AC93"/>
<path d="M61.95 39.3301H61.46V40.5901H61.95V39.3301Z" fill="#59AD93"/>
<path d="M62.4399 39.3301H61.95V40.5901H62.4399V39.3301Z" fill="#5AAD93"/>
<path d="M62.9299 39.3301H62.4399V40.5901H62.9299V39.3301Z" fill="#5BAD94"/>
<path d="M63.4099 39.3301H62.9199V40.5901H63.4099V39.3301Z" fill="#5CAE94"/>
<path d="M63.8999 39.3301H63.4099V40.5901H63.8999V39.3301Z" fill="#5DAE95"/>
<path d="M64.3899 39.3301H63.8999V40.5901H64.3899V39.3301Z" fill="#5DAE95"/>
<path d="M64.8799 39.3301H64.3899V40.5901H64.8799V39.3301Z" fill="#5EAF96"/>
<path d="M65.37 39.3301H64.88V40.5901H65.37V39.3301Z" fill="#5FAF96"/>
<path d="M65.86 39.3301H65.37V40.5901H65.86V39.3301Z" fill="#60AF96"/>
<path d="M66.35 39.3301H65.86V40.5901H66.35V39.3301Z" fill="#61AF97"/>
<path d="M66.83 39.3301H66.34V40.5901H66.83V39.3301Z" fill="#62B097"/>
<path d="M67.32 39.3301H66.83V40.5901H67.32V39.3301Z" fill="#63B098"/>
<path d="M67.8099 39.3301H67.3199V40.5901H67.8099V39.3301Z" fill="#64B098"/>
<path d="M68.2999 39.3301H67.8099V40.5901H68.2999V39.3301Z" fill="#65B199"/>
<path d="M68.7899 39.3301H68.2999V40.5901H68.7899V39.3301Z" fill="#66B199"/>
<path d="M69.2799 39.3301H68.7899V40.5901H69.2799V39.3301Z" fill="#67B19A"/>
<path d="M69.7699 39.3301H69.2799V40.5901H69.7699V39.3301Z" fill="#68B29A"/>
<path d="M70.25 39.3301H69.76V40.5901H70.25V39.3301Z" fill="#69B29A"/>
<path d="M70.74 39.3301H70.25V40.5901H70.74V39.3301Z" fill="#6AB29B"/>
<path d="M71.23 39.3301H70.74V40.5901H71.23V39.3301Z" fill="#6BB39B"/>
<path d="M71.72 39.3301H71.23V40.5901H71.72V39.3301Z" fill="#6CB39C"/>
<path d="M72.21 39.3301H71.72V40.5901H72.21V39.3301Z" fill="#6DB39C"/>
<path d="M72.7 39.3301H72.21V40.5901H72.7V39.3301Z" fill="#6EB49D"/>
<path d="M73.19 39.3301H72.7V40.5901H73.19V39.3301Z" fill="#6FB49D"/>
<path d="M73.6699 39.3301H73.1799V40.5901H73.6699V39.3301Z" fill="#70B49E"/>
<path d="M74.1599 39.3301H73.6699V40.5901H74.1599V39.3301Z" fill="#71B59E"/>
<path d="M74.6499 39.3301H74.1599V40.5901H74.6499V39.3301Z" fill="#72B59F"/>
<path d="M75.1399 39.3301H74.6499V40.5901H75.1399V39.3301Z" fill="#73B69F"/>
<path d="M75.6299 39.3301H75.1399V40.5901H75.6299V39.3301Z" fill="#74B6A0"/>
<path d="M76.12 39.3301H75.63V40.5901H76.12V39.3301Z" fill="#75B6A0"/>
<path d="M76.61 39.3301H76.12V40.5901H76.61V39.3301Z" fill="#76B7A1"/>
<path d="M77.09 39.3301H76.6V40.5901H77.09V39.3301Z" fill="#76B7A1"/>
<path d="M77.58 39.3301H77.09V40.5901H77.58V39.3301Z" fill="#77B7A2"/>
<path d="M78.07 39.3301H77.58V40.5901H78.07V39.3301Z" fill="#78B8A2"/>
<path d="M78.5599 39.3301H78.0699V40.5901H78.5599V39.3301Z" fill="#79B8A3"/>
<path d="M79.0499 39.3301H78.5599V40.5901H79.0499V39.3301Z" fill="#7AB9A4"/>
<path d="M79.5399 39.3301H79.0499V40.5901H79.5399V39.3301Z" fill="#7BB9A4"/>
<path d="M80.0299 39.3301H79.5399V40.5901H80.0299V39.3301Z" fill="#7CB9A5"/>
<path d="M80.5099 39.3301H80.0199V40.5901H80.5099V39.3301Z" fill="#7DBAA5"/>
<path d="M81 39.3301H80.51V40.5901H81V39.3301Z" fill="#7EBAA6"/>
<path d="M81.49 39.3301H81V40.5901H81.49V39.3301Z" fill="#7FBBA6"/>
<path d="M81.98 39.3301H81.49V40.5901H81.98V39.3301Z" fill="#80BBA7"/>
<path d="M82.47 39.3301H81.98V40.5901H82.47V39.3301Z" fill="#81BBA7"/>
<path d="M82.96 39.3301H82.47V40.5901H82.96V39.3301Z" fill="#82BCA8"/>
<path d="M83.45 39.3301H82.96V40.5901H83.45V39.3301Z" fill="#83BCA9"/>
<path d="M83.9299 39.3301H83.4399V40.5901H83.9299V39.3301Z" fill="#84BDA9"/>
<path d="M84.4199 39.3301H83.9299V40.5901H84.4199V39.3301Z" fill="#85BDAA"/>
<path d="M84.9099 39.3301H84.4199V40.5901H84.9099V39.3301Z" fill="#86BEAA"/>
<path d="M85.3999 39.3301H84.9099V40.5901H85.3999V39.3301Z" fill="#87BEAB"/>
<path d="M85.8899 39.3301H85.3999V40.5901H85.8899V39.3301Z" fill="#88BEAC"/>
<path d="M86.3799 39.3301H85.8899V40.5901H86.3799V39.3301Z" fill="#89BFAC"/>
<path d="M86.87 39.3301H86.38V40.5901H86.87V39.3301Z" fill="#8ABFAD"/>
<path d="M87.35 39.3301H86.86V40.5901H87.35V39.3301Z" fill="#8BC0AD"/>
<path d="M87.84 39.3301H87.35V40.5901H87.84V39.3301Z" fill="#8CC0AE"/>
<path d="M88.33 39.3301H87.84V40.5901H88.33V39.3301Z" fill="#8DC1AF"/>
<path d="M88.82 39.3301H88.33V40.5901H88.82V39.3301Z" fill="#8EC1AF"/>
<path d="M89.3099 39.3301H88.8199V40.5901H89.3099V39.3301Z" fill="#8FC1B0"/>
<path d="M89.7999 39.3301H89.3099V40.5901H89.7999V39.3301Z" fill="#90C2B0"/>
<path d="M90.2899 39.3301H89.7999V40.5901H90.2899V39.3301Z" fill="#91C2B1"/>
<path d="M90.7699 39.3301H90.2799V40.5901H90.7699V39.3301Z" fill="#92C3B2"/>
<path d="M91.2599 39.3301H90.7699V40.5901H91.2599V39.3301Z" fill="#93C3B2"/>
<path d="M91.75 39.3301H91.26V40.5901H91.75V39.3301Z" fill="#94C4B3"/>
<path d="M92.24 39.3301H91.75V40.5901H92.24V39.3301Z" fill="#95C4B4"/>
<path d="M92.73 39.3301H92.24V40.5901H92.73V39.3301Z" fill="#96C5B4"/>
<path d="M93.22 39.3301H92.73V40.5901H93.22V39.3301Z" fill="#97C5B5"/>
<path d="M93.71 39.3301H93.22V40.5901H93.71V39.3301Z" fill="#98C6B6"/>
<path d="M94.19 39.3301H93.7V40.5901H94.19V39.3301Z" fill="#99C6B6"/>
<path d="M94.6799 39.3301H94.1899V40.5901H94.6799V39.3301Z" fill="#9AC7B7"/>
<path d="M95.1699 39.3301H94.6799V40.5901H95.1699V39.3301Z" fill="#9BC7B8"/>
<path d="M95.6599 39.3301H95.1699V40.5901H95.6599V39.3301Z" fill="#9CC8B8"/>
<path d="M96.1499 39.3301H95.6599V40.5901H96.1499V39.3301Z" fill="#9DC8B9"/>
<path d="M96.6399 39.3301H96.1499V40.5901H96.6399V39.3301Z" fill="#9FC9BA"/>
<path d="M97.1299 39.3301H96.6399V40.5901H97.1299V39.3301Z" fill="#A0C9BA"/>
<path d="M97.61 39.3301H97.12V40.5901H97.61V39.3301Z" fill="#A1CABB"/>
<path d="M98.1 39.3301H97.61V40.5901H98.1V39.3301Z" fill="#A2CABC"/>
<path d="M98.59 39.3301H98.1V40.5901H98.59V39.3301Z" fill="#A3CBBC"/>
<path d="M99.08 39.3301H98.59V40.5901H99.08V39.3301Z" fill="#A4CBBD"/>
<path d="M99.57 39.3301H99.08V40.5901H99.57V39.3301Z" fill="#A5CCBE"/>
<path d="M100.06 39.3301H99.5699V40.5901H100.06V39.3301Z" fill="#A6CCBE"/>
<path d="M100.54 39.3301H100.05V40.5901H100.54V39.3301Z" fill="#A7CDBF"/>
<path d="M101.03 39.3301H100.54V40.5901H101.03V39.3301Z" fill="#A8CDC0"/>
<path d="M101.52 39.3301H101.03V40.5901H101.52V39.3301Z" fill="#A9CEC1"/>
<path d="M102.01 39.3301H101.52V40.5901H102.01V39.3301Z" fill="#AACFC1"/>
<path d="M102.5 39.3301H102.01V40.5901H102.5V39.3301Z" fill="#ACCFC2"/>
<path d="M102.99 39.3301H102.5V40.5901H102.99V39.3301Z" fill="#ADD0C3"/>
<path d="M103.48 39.3301H102.99V40.5901H103.48V39.3301Z" fill="#AED0C3"/>
<path d="M103.96 39.3301H103.47V40.5901H103.96V39.3301Z" fill="#AFD1C4"/>
<path d="M104.45 39.3301H103.96V40.5901H104.45V39.3301Z" fill="#B0D1C5"/>
<path d="M104.94 39.3301H104.45V40.5901H104.94V39.3301Z" fill="#B1D2C6"/>
<path d="M105.43 39.3301H104.94V40.5901H105.43V39.3301Z" fill="#B2D2C6"/>
<path d="M105.92 39.3301H105.43V40.5901H105.92V39.3301Z" fill="#B3D3C7"/>
<path d="M106.41 39.3301H105.92V40.5901H106.41V39.3301Z" fill="#B4D4C8"/>
<path d="M106.9 39.3301H106.41V40.5901H106.9V39.3301Z" fill="#B6D4C9"/>
<path d="M107.38 39.3301H106.89V40.5901H107.38V39.3301Z" fill="#B7D5C9"/>
<path d="M107.87 39.3301H107.38V40.5901H107.87V39.3301Z" fill="#B8D5CA"/>
<path d="M108.36 39.3301H107.87V40.5901H108.36V39.3301Z" fill="#B9D6CB"/>
<path d="M108.85 39.3301H108.36V40.5901H108.85V39.3301Z" fill="#BAD7CC"/>
<path d="M109.34 39.3301H108.85V40.5901H109.34V39.3301Z" fill="#BBD7CC"/>
<path d="M109.83 39.3301H109.34V40.5901H109.83V39.3301Z" fill="#BCD8CD"/>
<path d="M110.32 39.3301H109.83V40.5901H110.32V39.3301Z" fill="#BED8CE"/>
<path d="M110.8 39.3301H110.31V40.5901H110.8V39.3301Z" fill="#BFD9CF"/>
<path d="M111.29 39.3301H110.8V40.5901H111.29V39.3301Z" fill="#C0DACF"/>
<path d="M111.78 39.3301H111.29V40.5901H111.78V39.3301Z" fill="#C1DAD0"/>
<path d="M112.27 39.3301H111.78V40.5901H112.27V39.3301Z" fill="#C2DBD1"/>
<path d="M112.76 39.3301H112.27V40.5901H112.76V39.3301Z" fill="#C3DBD2"/>
<path d="M113.25 39.3301H112.76V40.5901H113.25V39.3301Z" fill="#C5DCD3"/>
<path d="M113.74 39.3301H113.25V40.5901H113.74V39.3301Z" fill="#C6DDD3"/>
<path d="M114.22 39.3301H113.73V40.5901H114.22V39.3301Z" fill="#C7DDD4"/>
<path d="M114.71 39.3301H114.22V40.5901H114.71V39.3301Z" fill="#C8DED5"/>
<path d="M115.2 39.3301H114.71V40.5901H115.2V39.3301Z" fill="#C9DFD6"/>
<path d="M115.69 39.3301H115.2V40.5901H115.69V39.3301Z" fill="#CADFD7"/>
<path d="M116.18 39.3301H115.69V40.5901H116.18V39.3301Z" fill="#CCE0D8"/>
<path d="M116.67 39.3301H116.18V40.5901H116.67V39.3301Z" fill="#CDE0D8"/>
<path d="M117.16 39.3301H116.67V40.5901H117.16V39.3301Z" fill="#CEE1D9"/>
<path d="M117.64 39.3301H117.15V40.5901H117.64V39.3301Z" fill="#CFE2DA"/>
<path d="M118.13 39.3301H117.64V40.5901H118.13V39.3301Z" fill="#D0E2DB"/>
<path d="M118.62 39.3301H118.13V40.5901H118.62V39.3301Z" fill="#D1E3DC"/>
<path d="M119.11 39.3301H118.62V40.5901H119.11V39.3301Z" fill="#D3E4DD"/>
<path d="M119.6 39.3301H119.11V40.5901H119.6V39.3301Z" fill="#D4E4DD"/>
<path d="M120.09 39.3301H119.6V40.5901H120.09V39.3301Z" fill="#D5E5DE"/>
<path d="M120.58 39.3301H120.09V40.5901H120.58V39.3301Z" fill="#D6E6DF"/>
<path d="M121.06 39.3301H120.57V40.5901H121.06V39.3301Z" fill="#D7E7E0"/>
<path d="M121.55 39.3301H121.06V40.5901H121.55V39.3301Z" fill="#D9E7E1"/>
<path d="M122.04 39.3301H121.55V40.5901H122.04V39.3301Z" fill="#DAE8E2"/>
<path d="M122.53 39.3301H122.04V40.5901H122.53V39.3301Z" fill="#DBE9E3"/>
<path d="M123.02 39.3301H122.53V40.5901H123.02V39.3301Z" fill="#DCE9E4"/>
<path d="M123.51 39.3301H123.02V40.5901H123.51V39.3301Z" fill="#DEEAE5"/>
<path d="M124 39.3301H123.51V40.5901H124V39.3301Z" fill="#DFEBE6"/>
<path d="M124.48 39.3301H123.99V40.5901H124.48V39.3301Z" fill="#E0ECE7"/>
<path d="M124.97 39.3301H124.48V40.5901H124.97V39.3301Z" fill="#E1ECE7"/>
<path d="M125.46 39.3301H124.97V40.5901H125.46V39.3301Z" fill="#E3EDE8"/>
<path d="M125.95 39.3301H125.46V40.5901H125.95V39.3301Z" fill="#E4EEE9"/>
<path d="M126.44 39.3301H125.95V40.5901H126.44V39.3301Z" fill="#E5EFEA"/>
<path d="M126.93 39.3301H126.44V40.5901H126.93V39.3301Z" fill="#E7EFEB"/>
<path d="M127.42 39.3301H126.93V40.5901H127.42V39.3301Z" fill="#E8F0EC"/>
<path d="M127.9 39.3301H127.41V40.5901H127.9V39.3301Z" fill="#E9F1ED"/>
<path d="M128.39 39.3301H127.9V40.5901H128.39V39.3301Z" fill="#EBF2EE"/>
<path d="M128.88 39.3301H128.39V40.5901H128.88V39.3301Z" fill="#ECF3EF"/>
<path d="M129.37 39.3301H128.88V40.5901H129.37V39.3301Z" fill="#EDF3F0"/>
<path d="M129.86 39.3301H129.37V40.5901H129.86V39.3301Z" fill="#EFF4F1"/>
<path d="M130.35 39.3301H129.86V40.5901H130.35V39.3301Z" fill="#F0F5F2"/>
<path d="M130.84 39.3301H130.35V40.5901H130.84V39.3301Z" fill="#F1F6F3"/>
<path d="M131.32 39.3301H130.83V40.5901H131.32V39.3301Z" fill="#F3F7F4"/>
<path d="M131.81 39.3301H131.32V40.5901H131.81V39.3301Z" fill="#F4F8F6"/>
<path d="M132.3 39.3301H131.81V40.5901H132.3V39.3301Z" fill="#F5F9F7"/>
<path d="M132.79 39.3301H132.3V40.5901H132.79V39.3301Z" fill="#F7FAF8"/>
<path d="M133.28 39.3301H132.79V40.5901H133.28V39.3301Z" fill="#F9FBFA"/>
<path d="M133.77 39.3301H133.28V40.5901H133.77V39.3301Z" fill="#FAFCFB"/>
<path d="M134.26 39.3301H133.77V40.5901H134.26V39.3301Z" fill="#FDFEFD"/>
<path d="M134.74 39.3301H134.25V40.5901H134.74V39.3301Z" fill="white"/>
</g>
</svg>
